<?xml version="1.0" encoding="UTF-8" standalone="no"?>
<!DOCTYPE svg  PUBLIC '-//W3C//DTD SVG 1.1//EN'  'http://www.w3.org/Graphics/SVG/1.1/DTD/svg11.dtd'>
<svg xmlns="http://www.w3.org/2000/svg">
<defs>
<font id="NHaasGroteskDSPro-65Md" horiz-adv-x="500">
<font-face underline-position="-113" font-weight="500" descent="-200" panose-1="2 11 6 4 2 2 2 2 2 4" units-per-em="1000" unicode-range="U+000D-25CA" bbox="-171 -192 1202 930" x-height="513" underline-thickness="20" font-family="NHaasGroteskDSPro" ascent="800" cap-height="715"/>
<missing-glyph horiz-adv-x="1000"/>
<glyph glyph-name=".notdef" horiz-adv-x="1000"/>
<glyph glyph-name=".null" horiz-adv-x="0"/>
<glyph glyph-name=".null" horiz-adv-x="0"/>
<glyph glyph-name="nonmarkingreturn" horiz-adv-x="0" unicode=""/>
<glyph glyph-name="space" horiz-adv-x="168" unicode=" "/>
<glyph glyph-name="exclam" horiz-adv-x="254" unicode="!" d="M54 145h146v-145h-146v145zM56 557v158h142v-158l-38 -348h-66z"/>
<glyph glyph-name="quotedbl" horiz-adv-x="382" unicode='&quot;' d="M41 715h119v-251h-119v251zM222 715h119v-251h-119v251z"/>
<glyph glyph-name="numbersign" horiz-adv-x="593" unicode="#" d="M233 289h108l18 118h-108zM79 513h96l27 173h93l-27 -173h108l27 173h93l-27 -173h97l-17 -106h-97l-18 -118h96l-17 -106h-96l-28 -183h-93l28 183h-108l-28 -183h-93l28 183h-97l18 106h96l18 118h-97z"/>
<glyph glyph-name="dollar" horiz-adv-x="614" unicode="$" d="M180 510q0 -35 24.5 -52.5t76.5 -31.5v163q-48 -5 -74.5 -25.5t-26.5 -53.5zM446 187q0 38 -27.5 56.5t-77.5 31.5v-175q22 2 41 8.5t33 17t22.5 25.5t8.5 36zM281 -11q-123 8 -189.5 65.5t-69.5 159.5h136q7 -53 36 -80.5t87 -33.5v190q-4 0 -5 1q-46 10 -88.5 23.5 t-75 35.5t-52 56.5t-19.5 88.5q0 48 18 85.5t49.5 63t75.5 39.5t97 17v59h60v-60q101 -9 161 -63t67 -149h-133q-5 42 -31 66.5t-64 32.5v-173q2 -1 6 -1q48 -10 91.5 -23.5t76.5 -37t52 -59t19 -88.5q0 -50 -18.5 -89t-51 -66.5t-77.5 -42.5t-98 -18v-85h-60v86z"/>
<glyph glyph-name="percent" horiz-adv-x="837" unicode="%" d="M195 378q35 0 52 34t17 88t-17 89t-52 35t-52 -34.5t-17 -89.5q0 -54 17 -88t52 -34zM643 61q35 0 52 34t17 88t-17 89t-52 35t-52 -34.5t-17 -89.5q0 -54 17 -88t52 -34zM552 686h85l-351 -686h-85zM643 -16q-38 0 -70.5 14t-56 40t-36.5 63t-13 82q0 46 13.5 83t37 63 t55.5 40t70 14q39 0 71 -14t55 -40t36 -63t13 -83q0 -45 -13 -82t-36 -63t-55 -40t-71 -14zM195 301q-38 0 -70.5 14t-56 40t-36.5 63t-13 82q0 46 13.5 83t37 63t55.5 40t70 14q39 0 71 -14t55 -40t36 -63t13 -83q0 -45 -13 -82t-36 -63t-55 -40t-71 -14z"/>
<glyph glyph-name="ampersand" horiz-adv-x="656" unicode="&amp;" d="M248 543q0 -24 14.5 -47t37.5 -45q35 21 47.5 44t12.5 49t-16.5 41.5t-39.5 15.5q-24 0 -40 -16t-16 -42zM262 97q64 0 114 42l-131 171q-46 -28 -64 -58t-18 -64q0 -41 28.5 -66t70.5 -25zM257 -15q-59 0 -103.5 15.5t-74.5 42t-45 63t-15 78.5q0 76 44 127t114 86 q-31 38 -45.5 71t-14.5 77q0 35 13.5 65t37.5 52.5t58 35t76 12.5q40 0 74.5 -12t59.5 -33.5t39 -51.5t14 -67q0 -33 -9 -58.5t-26 -45.5t-40.5 -36.5t-52.5 -31.5l95 -123q22 56 28 116h121q-5 -60 -22 -116.5t-46 -104.5l113 -146h-166l-37 47q-40 -29 -88 -45.5 t-102 -16.5z"/>
<glyph glyph-name="quotesingle" horiz-adv-x="201" unicode="&apos;" d="M41 715h119v-251h-119v251z"/>
<glyph glyph-name="parenleft" horiz-adv-x="346" unicode="(" d="M219 -131q-29 42 -57 90q-28 49 -49 103t-33 116t-13 130q1 70 13 134t33 120t48 105q27 48 57 87h116q-27 -43 -50 -91q-24 -48 -40 -103q-16 -56 -26 -118t-9 -134q-1 -68 9 -128t27 -114t39 -104q22 -48 49 -93h-114z"/>
<glyph glyph-name="parenright" horiz-adv-x="346" unicode=")" d="M13 -131q27 45 49 93t39 104q17 54 27 114t9 128q1 72 -9 134t-26 118q-16 55 -40 103q-23 48 -50 91h116q30 -39 57 -87q27 -49 48 -105t33 -120t13 -134q-1 -68 -13 -130t-33 -116t-49 -103q-28 -48 -57 -90h-114z"/>
<glyph glyph-name="asterisk" horiz-adv-x="402" unicode="*" d="M72 436l68 92l-108 35l27 69l104 -35v118h77v-118l103 35l27 -69l-106 -35l67 -92l-61 -45l-68 97l-68 -97z"/>
<glyph glyph-name="plus" horiz-adv-x="569" unicode="+" d="M35 378h197v203h104v-203h198v-100h-198v-203h-104v203h-197v100z"/>
<glyph glyph-name="comma" horiz-adv-x="218" unicode="," d="M37 -117q29 15 50.5 42.5t21.5 74.5h-73v145h146v-137q0 -38 -12 -68t-32 -52t-46 -35.5t-55 -18.5v49z"/>
<glyph glyph-name="hyphen" horiz-adv-x="339" unicode="-" d="M34 306h271v-117h-271v117z"/>
<glyph glyph-name="period" horiz-adv-x="218" unicode="." d="M36 145h146v-145h-146v145z"/>
<glyph glyph-name="slash" horiz-adv-x="414" unicode="/" d="M293 715h108l-280 -715h-108z"/>
<glyph glyph-name="zero" horiz-adv-x="632" unicode="0" d="M317 100q38 0 65 17t44.5 48.5t25.5 76.5t8 100q0 54 -8 99t-25.5 76.5t-44.5 49t-65 17.5t-65.5 -17.5t-45 -49t-26 -76t-8.5 -99.5q0 -54 8.5 -99t26 -76.5t45 -49t65.5 -17.5zM316 -16q-66 0 -118.5 25.5t-90 72t-57.5 112.5t-20 148t20.5 148.5t58 113t90.5 71.5 t118 25q66 0 119 -25t90 -71.5t56.5 -113t19.5 -148.5t-19.5 -148t-56.5 -112.5t-90 -72t-120 -25.5z"/>
<glyph glyph-name="one" horiz-adv-x="392" unicode="1" d="M182 478h-155v90q31 1 60 8t52.5 21t39.5 37t21 56h119v-690h-137v478z"/>
<glyph glyph-name="two" horiz-adv-x="547" unicode="2" d="M26 0q2 49 17 89t38 73t52 60t58 50q32 25 64.5 48t58 46.5t41.5 50t16 59.5q0 48 -24.5 77.5t-70.5 29.5q-52 0 -81 -36t-31 -103h-128q0 117 60.5 186t182.5 69q56 0 99.5 -17.5t73 -47.5t45 -70t15.5 -84q0 -48 -15 -85t-39.5 -65.5t-55.5 -51.5t-62 -44 q-20 -13 -41 -27.5t-39.5 -30t-33.5 -32t-24 -32.5h316v-112h-492z"/>
<glyph glyph-name="three" horiz-adv-x="567" unicode="3" d="M285 -15q-66 0 -116.5 17.5t-84 50t-51 78.5t-18.5 102h130q2 -31 10 -56.5t24 -44t41 -28.5t60 -10q57 0 89 29t32 82q0 50 -31.5 78t-94.5 28h-42v103h39q49 0 80 23.5t31 67.5q0 41 -26 65.5t-71 24.5q-59 0 -88 -34t-31 -88h-130q2 51 18.5 92.5t48 71t77 46 t105.5 16.5q54 0 97 -13t74 -37t47.5 -58t16.5 -77q0 -58 -33 -92.5t-84 -51.5v-2q66 -16 102.5 -58t36.5 -114q0 -53 -20.5 -93t-55.5 -66t-82 -39t-100 -13z"/>
<glyph glyph-name="four" horiz-adv-x="595" unicode="4" d="M134 258h206v266h-2l-204 -263v-3zM340 149h-316v147l311 397h138v-435h104v-109h-104v-149h-133v149z"/>
<glyph glyph-name="five" horiz-adv-x="578" unicode="5" d="M289 -15q-57 0 -105.5 14.5t-84.5 42t-58.5 67t-27.5 89.5h134q9 -51 47 -75t92 -24q59 0 93 37t34 92q0 61 -36.5 93.5t-90.5 32.5q-39 0 -68 -13t-44 -30h-131l66 374h404v-113h-309l-26 -148h2q23 20 58.5 31.5t83.5 11.5q45 0 87 -16.5t74.5 -47.5t51.5 -75.5 t19 -99.5q0 -54 -20.5 -98.5t-56 -76.5t-84 -50t-104.5 -18z"/>
<glyph glyph-name="six" horiz-adv-x="594" unicode="6" d="M310 92q28 0 51.5 10t41 27.5t27.5 41.5t10 52q0 29 -10 54t-27 43.5t-40.5 29t-51.5 10.5q-63 0 -98 -38t-35 -98q0 -58 37 -95t95 -37zM315 -15q-74 0 -127 28t-87.5 75.5t-51.5 110.5t-18 133v9q0 86 19 156.5t65 122.5q33 38 80 58.5t117 20.5q51 0 92 -13.5t71 -37 t48.5 -56t24.5 -70.5h-131q-8 32 -31.5 52.5t-68.5 20.5q-75 0 -111.5 -52.5t-36.5 -143.5h2q27 32 64 51.5t97 19.5q48 0 91 -18t75.5 -50t52 -77t19.5 -100q0 -53 -19.5 -97t-54 -76t-81 -49.5t-100.5 -17.5z"/>
<glyph glyph-name="seven" horiz-adv-x="530" unicode="7" d="M112 0q3 94 27.5 179.5t60.5 158t78 130.5t81 98v2h-340v117h488v-112q-46 -47 -89 -107.5t-77 -132.5t-55.5 -156t-25.5 -177h-148z"/>
<glyph glyph-name="eight" horiz-adv-x="597" unicode="8" d="M299 414q54 0 83.5 25.5t29.5 66.5t-29.5 65.5t-83.5 24.5t-84 -24.5t-30 -65.5t30 -66.5t84 -25.5zM299 95q60 0 97.5 29.5t37.5 78.5q0 53 -35 84.5t-98 31.5t-100 -31.5t-37 -84.5q0 -51 36 -79.5t99 -28.5zM302 -15q-58 0 -109 14t-88.5 41t-59.5 66.5t-22 91.5 q0 64 34 111t91 69v3q-46 21 -71 53.5t-25 82.5q0 43 18 77t51 57.5t78.5 35.5t101.5 12q55 0 100.5 -12t77 -35t49 -56.5t17.5 -76.5q0 -48 -25 -82t-70 -55v-3q57 -20 90.5 -66t33.5 -109q0 -53 -20.5 -94t-57 -68.5t-86.5 -42t-108 -14.5z"/>
<glyph glyph-name="nine" horiz-adv-x="597" unicode="9" d="M289 328q29 0 54.5 9.5t44 26.5t29 41t10.5 54q0 29 -10.5 53.5t-29 42t-43.5 27.5t-54 10q-30 0 -54.5 -10t-42.5 -27.5t-28 -41.5t-10 -52q0 -59 35.5 -96t98.5 -37zM293 -15q-54 0 -96 13.5t-72 37.5t-48 56.5t-24 71.5h132q8 -31 33 -53t71 -22q65 0 99 43 q41 52 43 161h-2q-27 -32 -64.5 -53.5t-94.5 -21.5q-52 0 -97 17t-78 48.5t-51.5 76t-18.5 99.5q0 53 19.5 97t54 76t82 49.5t102.5 17.5q137 0 210.5 -86t73.5 -261q0 -82 -14.5 -149.5t-47 -116t-85 -75t-127.5 -26.5z"/>
<glyph glyph-name="colon" horiz-adv-x="224" unicode=":" d="M39 145h146v-145h-146v145zM39 446h146v-145h-146v145z"/>
<glyph glyph-name="semicolon" horiz-adv-x="224" unicode=";" d="M39 446h146v-145h-146v145zM40 -117q29 15 50.5 42.5t21.5 74.5h-73v145h146v-137q0 -38 -12 -68t-32 -52t-46 -35.5t-55 -18.5v49z"/>
<glyph glyph-name="less" d="M45 252v116l410 173v-114l-217 -85q-13 -5 -29 -10.5t-31 -10.5q-18 -6 -35 -12v-2q17 -6 35 -11q15 -5 31 -9.5t29 -9.5l217 -82v-116z" unicode="&lt;"/>
<glyph glyph-name="equal" horiz-adv-x="562" unicode="=" d="M56 263h464v-98h-464v98zM56 456h464v-98h-464v98z"/>
<glyph glyph-name="greater" d="M45 193l217 85q12 5 28.5 10.5l31.5 10.5q18 6 35 12v2q-17 5 -35 10q-15 5 -31.5 10t-28.5 10l-217 82v116l410 -173v-116l-410 -173v114z" unicode="&gt;"/>
<glyph glyph-name="question" horiz-adv-x="538" unicode="?" d="M181 145h146v-145h-146v145zM193 209q0 44 7.5 73t21.5 49.5t33 35.5t42 32q16 12 30.5 23t26 24t18 29.5t6.5 39.5q0 46 -30 72t-76 26q-56 0 -90 -33t-35 -92h-129q1 50 18 93.5t48.5 76t78.5 51.5t108 19q57 0 102.5 -16t76.5 -44t47.5 -66.5t16.5 -82.5q0 -37 -9 -64 t-22.5 -47t-30.5 -34.5t-33 -26.5q-28 -21 -48 -35.5t-32.5 -28.5t-18 -30.5t-5.5 -43.5h-122z"/>
<glyph glyph-name="at" horiz-adv-x="901" unicode="@" d="M430 175q48 0 74 41.5t26 105.5q0 44 -19 72.5t-57 28.5q-23 0 -41 -11.5t-30 -31t-18.5 -46.5t-6.5 -57q0 -43 17 -72.5t55 -29.5zM395 78q-78 0 -122.5 53t-44.5 143q0 54 14 99t40.5 77.5t63 50.5t81.5 18q44 0 72.5 -19.5t42.5 -54.5h2l7 63h125l-34 -274 q-2 -14 -2 -25q0 -21 7.5 -38t37.5 -17q17 0 34.5 10.5t31.5 33t22.5 58t8.5 85.5q0 75 -23.5 130.5t-65.5 92t-100 55t-128 18.5t-131.5 -24t-108 -69t-73.5 -110.5t-27 -149.5q0 -69 20.5 -127t60 -100.5t98.5 -66.5t136 -24q50 0 95 10t86 27l28 -66q-47 -23 -99 -34.5 t-108 -11.5q-89 0 -163.5 28t-128.5 79.5t-84 124t-30 161.5q0 103 36 183.5t96 135t137.5 83t160.5 28.5q79 0 151.5 -24t127.5 -71t87.5 -116t32.5 -160q0 -61 -13 -110t-37.5 -83t-59.5 -52.5t-80 -18.5q-54 0 -90 19.5t-51 59.5h-3q-23 -38 -57 -59t-79 -21z"/>
<glyph glyph-name="A" horiz-adv-x="659" unicode="A" d="M231 263h189l-64 206q-5 14 -9.5 33t-9.5 36q-5 20 -10 41h-2q-6 -21 -11 -41q-5 -17 -9.5 -36t-9.5 -33zM252 715h150l252 -715h-151l-48 152h-258l-47 -152h-147z"/>
<glyph glyph-name="B" horiz-adv-x="656" unicode="B" d="M357 427q48 0 77 22t29 64q0 40 -27.5 62t-75.5 22h-160v-170h157zM200 120h167q53 0 82.5 26.5t29.5 70.5q0 51 -33 77t-83 26h-163v-200zM55 715h320q58 0 101.5 -13.5t71.5 -38.5q57 -51 57 -134q0 -55 -30.5 -90.5t-81.5 -52.5v-3q60 -17 96.5 -64t36.5 -113 q0 -51 -15.5 -86.5t-47.5 -62.5q-31 -27 -77 -42t-103 -15h-328v715z"/>
<glyph glyph-name="C" horiz-adv-x="684" unicode="C" d="M368 -15q-75 0 -138.5 27.5t-109 77t-71 117t-25.5 148.5q0 79 24 147.5t68.5 119t108 79t142.5 28.5q66 0 118 -18.5t89.5 -51t59.5 -76.5t28 -95h-144q-10 54 -49 86.5t-102 32.5q-50 0 -86.5 -19.5t-60.5 -53.5t-36 -80t-12 -99q0 -55 13.5 -101t39 -79.5t62 -52 t81.5 -18.5q64 0 105.5 34.5t48.5 91.5h142q-3 -48 -23 -91.5t-56 -77.5q-37 -35 -89.5 -55.5t-127.5 -20.5z"/>
<glyph glyph-name="D" horiz-adv-x="672" unicode="D" d="M312 125q102 0 145.5 59t43.5 166q0 53 -11.5 97.5t-35 76.5t-58 49.5t-80.5 17.5h-116v-466h112zM55 715h279q72 0 130 -27.5t99 -76t63 -115.5t22 -146q0 -88 -28.5 -160.5t-85.5 -120.5q-40 -33 -92 -51t-120 -18h-267v715z"/>
<glyph glyph-name="E" horiz-adv-x="619" unicode="E" d="M55 715h526v-122h-381v-160h334v-119h-334v-193h384v-121h-529v715z"/>
<glyph glyph-name="F" horiz-adv-x="594" unicode="F" d="M55 715h512v-123h-367v-172h311v-124h-311v-296h-145v715z"/>
<glyph glyph-name="G" horiz-adv-x="734" unicode="G" d="M574 96h-2q-37 -62 -87 -86.5t-114 -24.5q-81 0 -143.5 27.5t-107.5 76.5q-45 50 -69 117.5t-24 148.5q0 90 30 165t87 127q44 40 101 61t129 21q67 0 120.5 -17.5t91.5 -49.5t61.5 -76t32.5 -96h-142q-12 52 -52 85.5t-109 33.5q-51 0 -88.5 -19.5t-63 -54t-38 -81 t-12.5 -99.5q0 -55 14 -101.5t40 -80t63 -52.5t83 -19q42 0 76 14t58 37t37 52t13 59v4h-172v112h301v-380h-109z"/>
<glyph glyph-name="H" horiz-adv-x="681" unicode="H" d="M55 715h145v-280h281v280h145v-715h-145v315h-281v-315h-145v715z"/>
<glyph glyph-name="I" horiz-adv-x="257" unicode="I" d="M56 715h145v-715h-145v715z"/>
<glyph glyph-name="J" horiz-adv-x="516" unicode="J" d="M251 -13q-112 0 -173 51t-61 157v71h130v-62q0 -54 23.5 -77t68.5 -23t65.5 25t20.5 73v513h145v-514q0 -46 -13.5 -85t-40.5 -67.5t-68.5 -45t-96.5 -16.5z"/>
<glyph glyph-name="K" horiz-adv-x="674" unicode="K" d="M55 715h145v-285l275 285h180l-280 -286l298 -429h-170l-230 334l-73 -74v-260h-145v715z"/>
<glyph glyph-name="L" horiz-adv-x="559" unicode="L" d="M55 715h145v-594h336v-121h-481v715z"/>
<glyph glyph-name="M" horiz-adv-x="814" unicode="M" d="M55 715h204l101 -359q9 -34 17.5 -68t14.5 -62q7 -33 13 -63h2q6 30 13 63q6 28 13.5 62t17.5 68l101 359h207v-715h-135v410q0 22 0.5 47.5t2.5 48.5q1 26 3 52h-2q-5 -25 -10 -49q-5 -21 -10.5 -44t-10.5 -43l-123 -422h-139l-120 422q-6 20 -11 43t-10 44 q-5 24 -10 49h-2q1 -26 3 -52q1 -23 2 -48.5t1 -47.5v-410h-133v715z"/>
<glyph glyph-name="N" horiz-adv-x="686" unicode="N" d="M55 715h147l238 -399q8 -15 17 -32.5t17 -32.5q9 -18 16 -35h2q-1 21 -2 43q-1 19 -1.5 40.5t-0.5 40.5v375h143v-715h-140l-244 395q-9 14 -17.5 31.5t-16.5 32.5q-9 18 -17 35h-2l2 -44q1 -19 1.5 -40.5t0.5 -40.5v-369h-143v715z"/>
<glyph glyph-name="O" horiz-adv-x="737" unicode="O" d="M370 103q49 0 85.5 19.5t61 53.5t36.5 80.5t12 99.5q0 54 -12 100t-36.5 80.5t-61 54t-85.5 19.5t-86 -19.5t-62 -54t-37.5 -80.5t-12.5 -100q0 -53 12.5 -99.5t37.5 -80.5t62 -53.5t86 -19.5zM369 -16q-79 0 -143 28t-109 77.5t-69 118t-24 148.5t24 148.5t69 118.5 t109 78t143 28t142.5 -28t108.5 -78t69 -118.5t24 -148.5t-24 -148.5t-69 -118t-108.5 -77.5t-142.5 -28z"/>
<glyph glyph-name="P" horiz-adv-x="637" unicode="P" d="M205 377h150q57 0 86.5 29t29.5 78q0 51 -30 78t-84 27h-152v-212zM55 715h314q63 0 109 -17.5t78 -49.5q30 -31 47 -72t17 -91q0 -51 -16.5 -92.5t-47 -71t-75 -46t-100.5 -16.5h-176v-259h-150v715z"/>
<glyph glyph-name="Q" horiz-adv-x="733" unicode="Q" d="M368 103q49 0 84 19l-63 58l74 80l65 -60q17 32 25 71.5t8 84.5q0 54 -11.5 100t-35.5 80.5t-60.5 54t-85.5 19.5t-86 -19.5t-61.5 -54t-36.5 -80.5t-12 -100q0 -53 12 -99.5t36.5 -80.5t61.5 -53.5t86 -19.5zM550 33q-38 -23 -84 -36t-99 -13q-79 0 -142.5 28t-108 77.5 t-68.5 118t-24 148.5t24 148.5t68.5 118.5t108 78t142.5 28t142.5 -28t107.5 -78t68 -118.5t24 -148.5q0 -74 -20 -137t-58 -112l76 -68l-74 -81z"/>
<glyph glyph-name="R" horiz-adv-x="651" unicode="R" d="M200 399h154q60 0 89 27.5t29 70.5q0 44 -28 72.5t-86 28.5h-158v-199zM55 715h328q52 0 94.5 -14.5t72.5 -40.5t46.5 -62.5t16.5 -81.5q0 -63 -31 -108.5t-100 -64.5v-3q49 -14 75.5 -46.5t33.5 -97.5q4 -38 5.5 -70.5t4 -57.5t7.5 -41t14 -20v-7h-139q-7 3 -11 18.5 t-6.5 38.5t-4.5 51t-4 57q-5 59 -38.5 90.5t-101.5 31.5h-117v-287h-145v715z"/>
<glyph glyph-name="S" horiz-adv-x="642" unicode="S" d="M332 -16q-146 0 -225.5 61.5t-83.5 175.5h142q8 -65 46 -92.5t115 -27.5q28 0 53 5t44 16t30.5 28.5t11.5 42.5q0 26 -12.5 43t-35.5 28.5t-55.5 20t-73.5 17.5q-48 11 -92.5 24.5t-78 36.5t-54 59t-20.5 92q0 53 20.5 93t57 67t86.5 40.5t110 13.5q121 0 194.5 -57 t81.5 -166h-139q-6 54 -44 81t-94 27q-59 0 -94 -23t-35 -61q0 -22 9.5 -36.5t29 -25.5t48.5 -19t69 -17q55 -12 103.5 -26.5t85 -38.5t57.5 -61t21 -95q0 -54 -21 -96.5t-58 -71t-88 -43.5t-111 -15z"/>
<glyph glyph-name="T" horiz-adv-x="611" unicode="T" d="M18 715h575v-122h-215v-593h-145v593h-215v122z"/>
<glyph glyph-name="U" horiz-adv-x="657" unicode="U" d="M331 -12q-140 0 -211 62.5t-71 179.5v485h145v-485q0 -56 30.5 -91t103.5 -35q69 0 102 36t33 92v483h145v-485q0 -115 -69.5 -178.5t-207.5 -63.5z"/>
<glyph glyph-name="V" horiz-adv-x="618" unicode="V" d="M2 715h152l126 -414q5 -18 10.5 -38t10.5 -37q5 -20 10 -39h2l10 40q5 17 10.5 37t10.5 37l125 414h147l-241 -715h-132z"/>
<glyph glyph-name="W" horiz-adv-x="916" unicode="W" d="M5 715h148l93 -355q5 -23 10.5 -50.5t10.5 -50.5q5 -27 10 -55h2q6 26 11 52q5 23 10.5 49.5t11.5 50.5l78 359h140l78 -358q5 -24 11 -50.5t11 -49.5q5 -26 11 -53h2q6 27 12 55q5 23 11.5 51t11.5 51l90 354h143l-204 -715h-135l-87 383q-5 20 -9 42t-8 41l-8 44h-2 q-3 -22 -7 -44q-3 -19 -7 -41t-9 -42l-88 -383h-134z"/>
<glyph glyph-name="X" horiz-adv-x="647" unicode="X" d="M239 374l-214 341h163l132 -226h2l132 226h158l-210 -340l237 -375h-169l-146 261h-2l-148 -261h-166z"/>
<glyph glyph-name="Y" horiz-adv-x="629" unicode="Y" d="M242 276l-238 439h158l108 -212q8 -17 16.5 -34.5t15.5 -32.5q8 -18 15 -35h2q8 17 16 35q7 15 15.5 32.5t16.5 34.5l106 212h152l-238 -439v-276h-145v276z"/>
<glyph glyph-name="Z" horiz-adv-x="626" unicode="Z" d="M27 109l390 482v3h-365v121h537v-121l-377 -468v-3h384v-123h-569v109z"/>
<glyph glyph-name="bracketleft" horiz-adv-x="382" unicode="[" d="M64 754h286v-106h-155v-673h155v-106h-286v885z"/>
<glyph glyph-name="backslash" horiz-adv-x="414" unicode="\" d="M13 715h108l280 -715h-108z"/>
<glyph glyph-name="bracketright" horiz-adv-x="382" unicode="]" d="M32 -25h155v673h-155v106h286v-885h-286v106z"/>
<glyph glyph-name="asciicircum" horiz-adv-x="447" unicode="^" d="M166 715h115l158 -287h-124l-90 169h-2l-93 -169h-122z"/>
<glyph glyph-name="underscore" horiz-adv-x="423" unicode="_" d="M-3 -83h428v-85h-428v85z"/>
<glyph glyph-name="grave" d="M102 718h159l55 -141h-106z" unicode="`"/>
<glyph glyph-name="a" horiz-adv-x="522" unicode="a" d="M231 83q29 0 51.5 8.5t38 22t23.5 31t8 36.5v77q-18 -11 -43.5 -17.5t-51.5 -12.5q-54 -12 -80 -28t-26 -52t22 -50.5t58 -14.5zM367 0q-6 8 -10 24t-6 33h-2q-10 -15 -22.5 -27.5t-30 -21.5t-41.5 -14.5t-57 -5.5q-79 0 -129 40t-50 117q0 42 16 71t44 48t65.5 29.5 t80.5 16.5q64 9 94 19t30 39q0 28 -21.5 44.5t-64.5 16.5q-48 0 -72 -17.5t-27 -54.5h-121q1 34 15 64.5t41 53.5t68 37t97 14q115 0 165.5 -49.5t50.5 -139.5v-261q0 -58 18 -71v-5h-131z"/>
<glyph glyph-name="b" horiz-adv-x="566" unicode="b" d="M300 99q53 0 81 41t28 116q0 72 -28.5 116.5t-85.5 44.5q-32 0 -54.5 -12.5t-36.5 -34t-20.5 -51.5t-6.5 -66q0 -71 33 -112.5t90 -41.5zM330 -15q-54 0 -92 21.5t-61 57.5h-2v-64h-131v715h136v-264h3q21 32 55 54t88 22q48 0 89 -20t70 -55.5t45.5 -85.5t16.5 -110 q0 -62 -16 -112.5t-44.5 -85.5t-68.5 -54t-88 -19z"/>
<glyph glyph-name="c" horiz-adv-x="528" unicode="c" d="M282 -15q-61 0 -109.5 21t-82.5 57.5t-52.5 86t-18.5 106.5t18 106.5t51.5 86t80.5 57.5t106 21q50 0 90 -14t69.5 -38.5t48 -59t25.5 -76.5h-133q-7 34 -31.5 56.5t-62.5 22.5q-62 0 -93 -43.5t-31 -118.5q0 -73 29.5 -117.5t92.5 -44.5q42 0 69 21.5t34 65.5h131 q-3 -41 -20.5 -76.5t-47 -62t-71 -42t-92.5 -15.5z"/>
<glyph glyph-name="d" horiz-adv-x="566" unicode="d" d="M266 99q61 0 92 41.5t31 112.5q0 37 -6.5 67t-20.5 51.5t-36.5 33.5t-55.5 12q-56 0 -84.5 -45t-28.5 -116q0 -75 28 -116t81 -41zM236 -15q-48 0 -88 19t-68.5 54t-44.5 85.5t-16 112.5q0 60 16 110t45.5 85.5t69.5 55.5t88 20q54 0 89 -22t56 -54h3v264h136v-715h-131 v67h-2q-23 -37 -61 -59.5t-92 -22.5z"/>
<glyph glyph-name="e" horiz-adv-x="544" unicode="e" d="M274 422q-54 0 -82 -29.5t-37 -80.5h228q-3 49 -32.5 79.5t-76.5 30.5zM285 -15q-64 0 -113.5 21t-83.5 57.5t-51.5 86.5t-17.5 107t18.5 106.5t52 85.5t80 57t102.5 21q62 0 109 -22.5t79 -63.5t48.5 -97.5t16.5 -125.5h-372q8 -60 40.5 -94t90.5 -34q40 0 64 17t35 46 h134q-7 -34 -25.5 -64.5t-48 -53.5t-69.5 -36.5t-89 -13.5z"/>
<glyph glyph-name="f" horiz-adv-x="330" unicode="f" d="M14 513h70v46q0 47 17 79t47.5 50.5t63 23t57.5 4.5q21 0 43 -2v-105h-15q-36 0 -56.5 -9t-20.5 -49v-38h92v-94h-92v-419h-136v419h-70v94z"/>
<glyph glyph-name="g" horiz-adv-x="560" unicode="g" d="M268 140q32 0 55 11t37.5 30t21.5 44t7 54q0 28 -7.5 53.5t-22.5 44.5t-38 30t-54 11q-52 0 -83.5 -37.5t-31.5 -102.5q0 -66 31.5 -102t84.5 -36zM270 -175q-106 0 -167.5 42.5t-72.5 117.5h135q8 -24 31.5 -40.5t71.5 -16.5q114 0 114 107v56h-3q-23 -26 -54 -43 t-80 -17q-43 0 -83.5 16.5t-72 48t-51 77t-19.5 103.5q0 57 16.5 103.5t46 79.5t70 50.5t89.5 17.5q48 0 83.5 -18t58.5 -50h2v54h131v-474q0 -54 -16 -92t-45 -64q-32 -30 -80 -44t-105 -14z"/>
<glyph glyph-name="h" horiz-adv-x="549" unicode="h" d="M180 446h3q28 41 62 61t87 20q40 0 72.5 -14.5t55.5 -40t36 -60.5t13 -77v-335h-136v315q0 42 -23 68t-66 26q-45 0 -74.5 -32.5t-29.5 -85.5v-291h-136v715h136v-269z"/>
<glyph glyph-name="i" horiz-adv-x="224" unicode="i" d="M44 715h136v-122h-136v122zM44 513h136v-513h-136v513z"/>
<glyph glyph-name="j" horiz-adv-x="224" unicode="j" d="M44 715h136v-122h-136v122zM36 -169q-19 0 -40 1.5t-37 4.5v97q21 0 36.5 2t26.5 7.5t16.5 15.5t5.5 28v526h136v-533q0 -45 -8.5 -70t-25.5 -42q-20 -20 -48.5 -28.5t-61.5 -8.5z"/>
<glyph glyph-name="k" horiz-adv-x="546" unicode="k" d="M238 234l-59 -61v-173h-135v715h135v-396l182 194h163l-189 -195l212 -318h-165z"/>
<glyph glyph-name="l" horiz-adv-x="228" unicode="l" d="M46 715h136v-715h-136v715z"/>
<glyph glyph-name="m" horiz-adv-x="834" unicode="m" d="M44 513h131v-69h3q21 35 58 59t91 24q49 0 86 -24.5t56 -65.5h2q26 42 65.5 66t88.5 24q81 0 125 -48.5t44 -133.5v-345h-136v322q0 44 -20.5 66t-58.5 22q-43 0 -67.5 -30.5t-24.5 -81.5v-298h-136v322q0 44 -20.5 66t-58.5 22q-42 0 -67 -30.5t-25 -81.5v-298h-136v513 z"/>
<glyph glyph-name="n" horiz-adv-x="549" unicode="n" d="M177 443h3q26 42 62.5 63t89.5 21q40 0 72.5 -14.5t55.5 -40t36 -60.5t13 -77v-335h-136v315q0 42 -23 68t-66 26q-45 0 -74.5 -32.5t-29.5 -85.5v-291h-136v513h133v-70z"/>
<glyph glyph-name="o" horiz-adv-x="574" unicode="o" d="M287 89q63 0 96.5 46t33.5 121t-33.5 121.5t-96.5 46.5t-96.5 -46.5t-33.5 -121.5t33.5 -121t96.5 -46zM287 -15q-60 0 -109 21t-84.5 57.5t-55 86t-19.5 106.5t19.5 106.5t55 86t84.5 57.5t109 21t109 -21t84.5 -57.5t55 -86t19.5 -106.5t-19.5 -106.5t-55 -86 t-84.5 -57.5t-109 -21z"/>
<glyph glyph-name="p" horiz-adv-x="571" unicode="p" d="M301 98q52 0 82.5 40.5t30.5 113.5t-27.5 119t-90.5 46q-32 0 -54.5 -13t-37 -35t-21 -52.5t-6.5 -64.5q0 -70 31.5 -112t92.5 -42zM44 513h131v-64h3q25 34 61.5 56t89.5 22q51 0 92 -20t70.5 -55.5t45 -85.5t15.5 -110q0 -62 -16 -112.5t-45.5 -85.5t-70.5 -54t-90 -19 q-54 0 -90 20t-58 53h-2v-226h-136v681z"/>
<glyph glyph-name="q" horiz-adv-x="571" unicode="q" d="M278 101q54 0 85 40.5t31 110.5q0 35 -6.5 65.5t-20.5 53t-35.5 35.5t-52.5 13q-32 0 -53.5 -12.5t-35 -34.5t-19.5 -53t-6 -67q0 -73 29.5 -112t83.5 -39zM391 58h-2q-19 -31 -53.5 -52t-86.5 -21q-47 0 -87.5 19t-70.5 54t-47 85.5t-17 112.5q0 60 15.5 110t44.5 85.5 t70 55.5t92 20q53 0 87 -20.5t57 -57.5h3v64h131v-681h-136v226z"/>
<glyph glyph-name="r" horiz-adv-x="351" unicode="r" d="M175 431h3q23 44 52 66t74 22q21 0 32 -4v-119h-3q-11 1 -21 1q-53 0 -92.5 -33t-39.5 -114v-250h-136v513h131v-82z"/>
<glyph glyph-name="s" horiz-adv-x="485" unicode="s" d="M252 -15q-112 0 -173 49.5t-67 131.5h126q7 -45 36.5 -65t75.5 -20q45 0 69.5 16t24.5 43q0 18 -11.5 29t-30 18t-43 11.5t-50.5 9.5q-35 7 -67.5 16t-58 26t-41 44t-15.5 69t16 72.5t44.5 51t66.5 30.5t82 10q102 0 157 -46t63 -124h-123q-5 42 -30 58.5t-69 16.5 q-40 0 -64 -14.5t-24 -42.5q0 -17 12 -26.5t31.5 -16t45 -10.5t52.5 -10q32 -7 64.5 -16t58.5 -26.5t42 -46t16 -73.5q0 -39 -16 -69.5t-44.5 -51.5t-68 -32.5t-87.5 -11.5z"/>
<glyph glyph-name="t" horiz-adv-x="332" unicode="t" d="M14 513h71v160h133v-160h88v-90h-88v-272q0 -29 14 -40t37 -11h26q7 0 14 1v-100q-10 -1 -22 -1q-11 -1 -27 -1h-36q-25 0 -49.5 5.5t-44.5 19.5t-32.5 38t-12.5 60v301h-71v90z"/>
<glyph glyph-name="u" horiz-adv-x="543" unicode="u" d="M368 0v60h-3q-26 -35 -59.5 -54.5t-87.5 -19.5q-86 0 -132 50t-46 135v342h135v-319q0 -45 20.5 -69t64.5 -24q48 0 75.5 32.5t27.5 83.5v296h136v-513h-131z"/>
<glyph glyph-name="v" horiz-adv-x="491" unicode="v" d="M2 513h138l82 -266q5 -19 9.5 -33.5t7.5 -25.5q4 -12 6 -23h2q1 11 5 23q3 11 7 25.5t10 33.5l84 266h136l-179 -513h-130z"/>
<glyph glyph-name="w" horiz-adv-x="745" unicode="w" d="M4 513h135l62 -238q4 -16 8.5 -33t7.5 -31q4 -17 7 -32h2q3 16 7 33q3 14 6.5 31t8.5 33l64 237h116l67 -237l8 -34t8 -31q4 -17 8 -32h2q3 15 7 32q6 30 16 64l65 238h132l-153 -513h-124l-68 252q-5 15 -9 31t-7 29q-4 15 -7 29h-2q-4 -14 -8 -29q-4 -13 -8 -29t-8 -31 l-70 -252h-123z"/>
<glyph glyph-name="x" horiz-adv-x="535" unicode="x" d="M195 272l-167 241h155l91 -147h2l86 147h141l-159 -240l183 -273h-162l-95 170h-2l-111 -170h-149z"/>
<glyph glyph-name="y" horiz-adv-x="497" unicode="y" d="M55 -61h48q41 0 58.5 19t17.5 51q0 10 -2 22.5t-6.5 28.5t-12 37.5t-18.5 50.5l-138 365h143l76 -231q6 -18 11.5 -37.5t10.5 -36.5q5 -19 11 -38h2q4 19 9 38q4 17 9.5 36.5t11.5 37.5l72 231h137l-179 -526q-15 -43 -30.5 -72.5t-36 -48t-48 -26.5t-66.5 -8h-80v107z "/>
<glyph glyph-name="z" horiz-adv-x="485" unicode="z" d="M27 104l264 299v3h-234v107h392v-109l-258 -292v-3h271v-109h-435v104z"/>
<glyph glyph-name="braceleft" horiz-adv-x="382" unicode="{" d="M318 -131q-52 0 -91 8.5t-65.5 30t-40 57t-13.5 89.5v132q0 38 -18 56.5t-65 20.5v100q47 2 65 20.5t18 56.5v130q0 54 13.5 89.5t40 56.5t65.5 29.5t91 8.5h32v-106h-27q-42 0 -63 -14.5t-21 -63.5v-152q0 -46 -14.5 -69t-45.5 -34v-3q31 -12 45.5 -34.5t14.5 -68.5 v-155q0 -48 21 -63.5t63 -15.5h27v-106h-32z"/>
<glyph glyph-name="bar" horiz-adv-x="210" unicode="|" d="M64 754h83v-885h-83v885z"/>
<glyph glyph-name="braceright" horiz-adv-x="382" unicode="}" d="M32 -25h27q42 0 63 14.5t21 63.5v155q0 46 14.5 69t45.5 34v3q-31 12 -45.5 34.5t-14.5 68.5v152q0 48 -21 63.5t-63 15.5h-27v106h32q52 0 91 -8.5t65.5 -30t40 -57t13.5 -89.5v-129q0 -38 18 -56.5t65 -20.5v-100q-47 -2 -65 -20.5t-18 -56.5v-133q0 -54 -13.5 -89.5 t-40 -56.5t-65.5 -29.5t-91 -8.5h-32v106z"/>
<glyph glyph-name="asciitilde" horiz-adv-x="426" unicode="~" d="M32 250q1 82 33.5 119t80.5 37q21 0 40.5 -6t36.5 -12.5t32 -12.5t28 -6q18 0 25.5 8t9.5 28h90q-1 -72 -27.5 -112t-81.5 -40q-21 0 -41.5 5.5t-39 12.5t-34 12.5t-27.5 5.5q-16 0 -24.5 -8.5t-10.5 -30.5h-90z"/>
<glyph glyph-name="uni00A0" horiz-adv-x="168" unicode=" "/>
<glyph glyph-name="exclamdown" horiz-adv-x="254" unicode="¡" d="M54 588h146v-145h-146v145zM56 31l38 348h66l38 -348v-158h-142v158z"/>
<glyph glyph-name="cent" horiz-adv-x="525" unicode="¢" d="M157 256q0 -63 22 -105.5t69 -53.5v317q-45 -11 -68 -53t-23 -105zM248 -13q-53 6 -95.5 28.5t-72 58.5t-45.5 82.5t-16 99.5q0 54 16 101t45.5 82.5t72 58t95.5 27.5v68h60v-68q85 -9 136 -59.5t64 -126.5h-133q-6 27 -23.5 47t-43.5 28v-317q29 7 48.5 28t25.5 56h131 q-3 -38 -18.5 -72t-42 -60t-63 -42.5t-81.5 -20.5v-86h-60v87z"/>
<glyph glyph-name="sterling" horiz-adv-x="579" unicode="£" d="M31 377h45q-13 25 -22 52.5t-9 62.5q0 44 16.5 82t49 65.5t79.5 43.5t109 16q55 0 100.5 -14t80.5 -44t54 -74.5t21 -112.5h-136q-1 72 -34.5 103t-84.5 31q-54 0 -81.5 -27.5t-27.5 -72.5q0 -30 11 -57t24 -54h147v-87h-117q1 -7 1.5 -13.5t0.5 -13.5q0 -42 -21.5 -76 t-57.5 -61l2 -2q17 6 35.5 12t41.5 6q27 0 46 -4.5t34.5 -10.5t31 -10.5t36.5 -4.5q29 0 54.5 13.5t43.5 29.5l62 -107q-30 -26 -71.5 -44t-87.5 -18q-36 0 -62.5 7.5t-49 16t-45 16t-51.5 7.5q-30 0 -54.5 -13t-47.5 -28l-70 104q41 27 68.5 62.5t27.5 83.5q0 13 -2 25 t-5 23h-85v87z"/>
<glyph glyph-name="currency" horiz-adv-x="512" unicode="¤" d="M256 238q42 0 64 30t22 81t-22 81.5t-64 30.5q-43 0 -66 -30.5t-23 -81.5t23 -81t66 -30zM256 146q-53 0 -92 19l-66 -67l-84 82l64 64q-25 47 -25 105q0 57 25 104l-64 66l84 82l65 -68q42 20 93 20q50 0 92 -20l66 68l84 -82l-66 -66q26 -46 26 -104q0 -57 -25 -104 l65 -65l-84 -82l-66 67q-43 -19 -92 -19z"/>
<glyph glyph-name="yen" horiz-adv-x="618" unicode="¥" d="M68 322h147l-211 364h156l108 -202q7 -14 14.5 -28.5t13.5 -27.5q7 -15 13 -29h2q6 14 13 29q12 26 28 56l107 202h152l-212 -364h150v-59h-174v-63h174v-59h-174v-141h-133v141h-174v59h174v63h-174v59z"/>
<glyph glyph-name="brokenbar" horiz-adv-x="210" unicode="¦" d="M64 754h83v-379h-83v379zM64 261h83v-392h-83v392z"/>
<glyph glyph-name="section" horiz-adv-x="591" unicode="§" d="M302 339q-25 10 -48.5 19t-40.5 17q-29 -8 -42.5 -24t-13.5 -36q0 -14 6 -24t21 -20t39.5 -21.5t62.5 -28.5q17 -8 40.5 -19t46.5 -21q29 8 45.5 25t16.5 37q0 16 -11 29t-29 24.5t-42 21.5t-51 21zM306 -171q-60 0 -105.5 16.5t-76 44.5t-46.5 66t-17 80h132 q2 -48 31 -74t74 -26q38 0 60 18.5t22 44.5q0 18 -9 30t-28 22.5t-47.5 21.5t-67.5 27q-50 20 -88 40t-64 43t-39 51t-13 65q0 45 30 80t90 52q-29 20 -44.5 46t-15.5 69q0 36 15.5 64.5t43.5 48t65.5 30t82.5 10.5q102 0 156.5 -49t60.5 -127h-123q-5 35 -27.5 54.5 t-62.5 19.5q-39 0 -57.5 -14t-18.5 -37q0 -14 8 -24t25 -19.5t42 -19.5l60 -24q42 -17 80 -33t67.5 -37.5t47 -50.5t17.5 -71q0 -55 -29 -87.5t-83 -49.5q27 -17 48.5 -49t21.5 -83q0 -41 -16.5 -72.5t-45.5 -53t-69 -32.5t-87 -11z"/>
<glyph glyph-name="dieresis" d="M74 695h128v-114h-128v114zM297 695h128v-114h-128v114z" unicode="¨"/>
<glyph glyph-name="copyright" horiz-adv-x="815" unicode="©" d="M411 133q-48 0 -87.5 17t-67.5 47t-43.5 71t-15.5 90t15 90.5t43 72t68 47.5t89 17q41 0 74.5 -12t57.5 -33t38.5 -50t18.5 -63h-108q-5 28 -26 46.5t-56 18.5q-51 0 -76 -38.5t-25 -95.5q0 -58 27.5 -95.5t74.5 -37.5q38 0 59.5 21.5t25.5 51.5h108q-2 -34 -16 -64 t-37 -52q-50 -49 -141 -49zM408 32q66 0 122.5 24.5t98 67.5t65 102.5t23.5 128.5t-23.5 128.5t-65 102.5t-98 67.5t-122.5 24.5t-123 -24.5t-98.5 -67.5t-65 -102.5t-23.5 -128.5t23.5 -128.5t65 -102.5t98.5 -67.5t123 -24.5zM408 -17q-77 0 -144.5 28t-117 77.5t-78 118 t-28.5 148.5t28.5 148.5t78 118.5t117 78t144.5 28t144 -28t116.5 -78t78 -118.5t28.5 -148.5t-28.5 -148.5t-78 -118t-116.5 -77.5t-144 -28z"/>
<glyph glyph-name="ordfeminine" horiz-adv-x="497" unicode="ª" d="M220 312q50 0 76.5 25.5t26.5 57.5v68q-16 -9 -36.5 -15t-43.5 -11q-45 -10 -67 -24.5t-22 -43.5t18.5 -43t47.5 -14zM337 236q-5 7 -9 21t-6 29h-2q-17 -24 -46.5 -42t-83.5 -18q-34 0 -63 9t-50.5 27t-34 44t-12.5 60q0 37 14 62t38.5 41.5t58.5 26t74 14.5 q56 7 80.5 16.5t24.5 33.5q0 23 -17.5 37t-53.5 14q-42 0 -61.5 -16t-22.5 -45h-114q1 30 14 57t37 47.5t60.5 32.5t86.5 12q102 0 148.5 -43.5t46.5 -122.5v-230q0 -51 15 -61v-6h-122z"/>
<glyph glyph-name="guillemotleft" horiz-adv-x="447" unicode="«" d="M54 192v132l144 133v-128l-80 -71v-2l80 -71v-126zM244 192v132l144 133v-128l-80 -71v-2l80 -71v-126z"/>
<glyph glyph-name="logicalnot" horiz-adv-x="513" unicode="¬" d="M35 418h423v-273h-104v173h-319v100z"/>
<glyph glyph-name="uni00AD" horiz-adv-x="339" unicode="­" d="M34 306h271v-117h-271v117z"/>
<glyph glyph-name="registered" horiz-adv-x="530" unicode="®" d="M232 503h43q36 0 36 29t-36 29h-43v-58zM163 616h124q38 0 65 -19.5t27 -55.5q0 -46 -44 -61v-2q18 -5 26 -16.5t12 -29.5q5 -22 5 -40q0 -23 7 -27v-5h-68q-5 3 -7 21.5t-4 37.5q-3 34 -40 34h-34v-93h-69v256zM265 281q42 0 78 15.5t62 43t40.5 65t14.5 81.5 t-14.5 81.5t-40.5 64.5t-62 42.5t-78 15.5t-77.5 -15.5t-62 -42.5t-41 -64.5t-14.5 -81.5t14.5 -81.5t41 -65t62 -43t77.5 -15.5zM265 244q-50 0 -94 18.5t-76 50.5t-50.5 76.5t-18.5 96.5t18.5 96.5t50.5 76.5t76 50.5t94 18.5t93.5 -18.5t76 -50.5t51 -76.5t18.5 -96.5 t-18.5 -96.5t-51 -76.5t-76 -50.5t-93.5 -18.5z"/>
<glyph glyph-name="macron" d="M113 689h284v-97h-284v97z" unicode="¯"/>
<glyph glyph-name="degree" horiz-adv-x="356" unicode="°" d="M178 481q34 0 54 22.5t20 54.5t-20 55.5t-54 23.5t-53.5 -23.5t-19.5 -55.5t19.5 -54.5t53.5 -22.5zM178 418q-30 0 -56.5 11t-46.5 29.5t-31.5 44t-11.5 55.5t11.5 55.5t31.5 45t46.5 30.5t56.5 11t56.5 -11t46.5 -30.5t31.5 -45t11.5 -55.5t-11.5 -55.5t-31.5 -44 t-46.5 -29.5t-56.5 -11z"/>
<glyph glyph-name="plusminus" horiz-adv-x="569" unicode="±" d="M35 100h499v-100h-499v100zM35 418h197v163h104v-163h198v-100h-198v-163h-104v163h-197v100z"/>
<glyph glyph-name="twosuperior" horiz-adv-x="372" unicode="²" d="M26 318q1 59 29 97t67 65q25 18 46.5 31t37.5 25t24.5 25t8.5 31q0 22 -12 35.5t-37 13.5q-28 0 -44.5 -19t-16.5 -54h-97q0 75 43 115t118 40q36 0 64 -10t46.5 -27.5t28.5 -40.5t10 -49q0 -45 -22.5 -71.5t-52.5 -48.5q-29 -21 -59 -38.5t-45 -37.5h181v-82h-318z"/>
<glyph glyph-name="threesuperior" horiz-adv-x="374" unicode="³" d="M188 309q-87 0 -127.5 39.5t-41.5 104.5h103q1 -30 15 -49t49 -19q29 0 43 14.5t14 37.5q0 51 -63 51h-24v72h21q57 0 57 45q0 20 -11.5 31.5t-35.5 11.5q-30 0 -42 -16.5t-14 -40.5h-100q2 57 43 94.5t116 37.5q66 0 107.5 -29.5t41.5 -82.5q0 -30 -17.5 -48.5 t-43.5 -29.5v-2q32 -11 53 -34.5t21 -63.5q0 -32 -13 -55.5t-35.5 -38.5t-52.5 -22.5t-63 -7.5z"/>
<glyph glyph-name="acute" d="M289 577h-106l55 141h159z" unicode="´"/>
<glyph glyph-name="mu" horiz-adv-x="547" unicode="µ" d="M44 513h135v-319q0 -45 20.5 -69t64.5 -24q48 0 75.5 32.5t27.5 83.5v296h136v-513h-131v60h-3q-25 -35 -56 -54.5t-73 -19.5q-22 0 -35 4.5t-23 11.5h-3v-170h-135v681z"/>
<glyph glyph-name="paragraph" horiz-adv-x="578" unicode="¶" d="M221 341q-91 0 -142.5 51t-51.5 135q0 42 14.5 77t41.5 61q52 50 149 50h291v-715h-90v634h-69v-634h-90v341h-53z"/>
<glyph glyph-name="periodcentered" horiz-adv-x="218" unicode="·" d="M36 388h146v-145h-146v145z"/>
<glyph glyph-name="cedilla" d="M223 -192q-34 0 -60 8t-46 21l18 32q15 -7 33.5 -11t36.5 -4q23 0 40 7.5t17 23.5q0 14 -12 21.5t-29 7.5q-11 0 -20 -2t-17 -5l-16 22l71 71h59l-60 -50v-2q12 2 24 2q8 0 21 -1.5t28 -9.5t24 -21.5t9 -33.5q0 -36 -35 -56t-86 -20z" unicode="¸"/>
<glyph glyph-name="onesuperior" horiz-adv-x="267" unicode="¹" d="M113 567h-91v71q43 2 72.5 21t37.5 59h85v-400h-104v249z"/>
<glyph glyph-name="ordmasculine" horiz-adv-x="523" unicode="º" d="M262 317q54 0 81 40t27 103t-27 103.5t-81 40.5t-81.5 -40.5t-27.5 -103.5t27.5 -103t81.5 -40zM262 222q-54 0 -97.5 18.5t-75 50.5t-48.5 75.5t-17 93.5q0 51 17 94.5t48.5 75.5t75 50.5t97.5 18.5q53 0 97 -18.5t75 -50.5t48 -75.5t17 -94.5q0 -50 -17 -93.5 t-48 -75.5t-75 -50.5t-97 -18.5z"/>
<glyph glyph-name="guillemotright" horiz-adv-x="447" unicode="»" d="M393 324v-132l-144 -133v128l80 71v2l-80 71v126zM203 324v-132l-144 -133v128l80 71v2l-80 71v126z"/>
<glyph glyph-name="onequarter" horiz-adv-x="821" unicode="¼" d="M524 160h110v133h-1l-109 -132v-1zM634 84h-189v91l188 227h103v-242h59v-76h-59v-84h-102v84zM601 715h90l-497 -715h-89zM116 567h-91v71q43 2 72.5 21t37.5 59h85v-400h-104v249z"/>
<glyph glyph-name="onehalf" horiz-adv-x="827" unicode="½" d="M478 0q1 59 29 97t67 65q25 18 46.5 31t37.5 25t24.5 25t8.5 31q0 22 -12 35.5t-37 13.5q-28 0 -44.5 -19t-16.5 -54h-97q0 75 43 115t118 40q36 0 64 -10t46.5 -27.5t28.5 -40.5t10 -49q0 -45 -21 -72.5t-51 -49.5q-29 -21 -59.5 -38t-45.5 -36h179v-82h-318zM584 715 h90l-497 -715h-89zM116 567h-91v71q43 2 72.5 21t37.5 59h85v-400h-104v249z"/>
<glyph glyph-name="threequarters" horiz-adv-x="864" unicode="¾" d="M567 160h110v133h-1l-109 -132v-1zM677 84h-189v91l188 227h103v-242h59v-76h-59v-84h-102v84zM665 715h90l-497 -715h-89zM191 309q-87 0 -127.5 39.5t-41.5 104.5h103q1 -30 15 -49t49 -19q29 0 43 14.5t14 37.5q0 51 -63 51h-24v72h21q57 0 57 45q0 20 -11.5 31.5 t-35.5 11.5q-30 0 -42 -16.5t-14 -40.5h-100q2 57 43 94.5t116 37.5q66 0 107.5 -29.5t41.5 -82.5q0 -30 -17.5 -48.5t-43.5 -29.5v-2q32 -11 53 -34.5t21 -63.5q0 -32 -13 -55.5t-35.5 -38.5t-52.5 -22.5t-63 -7.5z"/>
<glyph glyph-name="questiondown" horiz-adv-x="525" unicode="¿" d="M203 588h146v-145h-146v145zM259 -140q-57 0 -102.5 16t-76.5 44t-47.5 66.5t-16.5 82.5q0 37 9 64t22.5 47t30.5 34.5t33 26.5q28 21 48 35.5t32.5 28.5t18 30.5t5.5 43.5h122q0 -44 -7.5 -73t-21.5 -49.5t-33 -36t-42 -31.5q-16 -12 -30.5 -23t-26 -24t-18 -29.5 t-6.5 -39.5q0 -46 30 -72t76 -26q56 0 90 33t35 92h129q-1 -50 -18 -93.5t-48.5 -76t-78.5 -51.5t-108 -19z"/>
<glyph glyph-name="Agrave" horiz-adv-x="659" unicode="À" d="M184 878h159l42 -125h-106zM231 263h189l-64 206q-5 14 -9.5 33t-9.5 36q-5 20 -10 41h-2q-6 -21 -11 -41q-5 -17 -9.5 -36t-9.5 -33zM252 715h150l252 -715h-151l-48 152h-258l-47 -152h-147z"/>
<glyph glyph-name="Aacute" horiz-adv-x="659" unicode="Á" d="M379 753h-106l42 125h159zM231 263h189l-64 206q-5 14 -9.5 33t-9.5 36q-5 20 -10 41h-2q-6 -21 -11 -41q-5 -17 -9.5 -36t-9.5 -33zM252 715h150l252 -715h-151l-48 152h-258l-47 -152h-147z"/>
<glyph glyph-name="Acircumflex" horiz-adv-x="659" unicode="Â" d="M253 867h146l96 -114h-118l-48 57h-2l-49 -57h-119zM231 263h189l-64 206q-5 14 -9.5 33t-9.5 36q-5 20 -10 41h-2q-6 -21 -11 -41q-5 -17 -9.5 -36t-9.5 -33zM252 715h150l252 -715h-151l-48 152h-258l-47 -152h-147z"/>
<glyph glyph-name="Atilde" horiz-adv-x="659" unicode="Ã" d="M385 755q-18 0 -33.5 5t-29 11.5t-25 11.5t-21.5 5q-22 0 -27 -31h-72q0 59 26 88.5t64 29.5q18 0 33.5 -5.5t29 -12t25 -12t21.5 -5.5q14 0 20 8.5t9 22.5h72q0 -51 -24 -83.5t-68 -32.5zM231 263h189l-64 206q-5 14 -9.5 33t-9.5 36q-5 20 -10 41h-2q-6 -21 -11 -41 q-5 -17 -9.5 -36t-9.5 -33zM252 715h150l252 -715h-151l-48 152h-258l-47 -152h-147z"/>
<glyph glyph-name="Adieresis" horiz-adv-x="659" unicode="Ä" d="M162 867h128v-114h-128v114zM365 867h128v-114h-128v114zM231 263h189l-64 206q-5 14 -9.5 33t-9.5 36q-5 20 -10 41h-2q-6 -21 -11 -41q-5 -17 -9.5 -36t-9.5 -33zM252 715h150l252 -715h-151l-48 152h-258l-47 -152h-147z"/>
<glyph glyph-name="Aring" horiz-adv-x="659" unicode="Å" d="M327 789q20 0 32.5 13.5t12.5 33.5t-12.5 33.5t-32.5 13.5t-32.5 -13.5t-12.5 -33.5t12.5 -33.5t32.5 -13.5zM327 742q-40 0 -68.5 27t-28.5 67q0 19 7.5 36.5t21 30t31 20t37.5 7.5t37.5 -7.5t31 -20t21 -30t7.5 -36.5q0 -40 -28.5 -67t-68.5 -27zM231 263h189l-64 206 q-5 14 -9.5 33t-9.5 36q-5 20 -10 41h-2q-6 -21 -11 -41q-5 -17 -9.5 -36t-9.5 -33zM252 715h150l252 -715h-151l-48 152h-258l-47 -152h-147z"/>
<glyph glyph-name="AE" horiz-adv-x="972" unicode="Æ" d="M238 259h188v331h-77zM252 715h677v-125h-354v-161h306v-117h-306v-181h365v-131h-514v152h-224l-51 -152h-147z"/>
<glyph glyph-name="Ccedilla" horiz-adv-x="684" unicode="Ç" d="M331 -192q-34 0 -60 8t-46 21l18 32q15 -7 33.5 -11t36.5 -4q23 0 40 7.5t17 23.5q0 14 -12 21.5t-29 7.5q-11 0 -20 -2t-17 -5l-16 22l57 58q-68 6 -125 35.5t-98 78t-63.5 113.5t-22.5 141q0 79 24 147.5t68.5 119t108 79t142.5 28.5q66 0 118 -18.5t89.5 -51 t59.5 -76.5t28 -95h-144q-10 54 -49 86.5t-102 32.5q-50 0 -86.5 -19.5t-60.5 -53.5t-36 -80t-12 -99q0 -55 13.5 -101t39 -79.5t62 -52t81.5 -18.5q64 0 105.5 34.5t48.5 91.5h142q-3 -48 -23 -91.5t-56 -77.5q-35 -32 -83 -52t-114 -23l-42 -36v-2q12 2 24 2q8 0 21 -1.5 t28 -9.5t24 -21.5t9 -33.5q0 -36 -35 -56t-86 -20z"/>
<glyph glyph-name="Egrave" horiz-adv-x="619" unicode="È" d="M182 878h159l42 -125h-106zM55 715h526v-122h-381v-160h334v-119h-334v-193h384v-121h-529v715z"/>
<glyph glyph-name="Eacute" horiz-adv-x="619" unicode="É" d="M377 753h-106l42 125h159zM55 715h526v-122h-381v-160h334v-119h-334v-193h384v-121h-529v715z"/>
<glyph glyph-name="Ecircumflex" horiz-adv-x="619" unicode="Ê" d="M251 867h146l96 -114h-118l-48 57h-2l-49 -57h-119zM55 715h526v-122h-381v-160h334v-119h-334v-193h384v-121h-529v715z"/>
<glyph glyph-name="Edieresis" horiz-adv-x="619" unicode="Ë" d="M160 867h128v-114h-128v114zM363 867h128v-114h-128v114zM55 715h526v-122h-381v-160h334v-119h-334v-193h384v-121h-529v715z"/>
<glyph glyph-name="Igrave" horiz-adv-x="257" unicode="Ì" d="M-15 878h159l42 -125h-106zM56 715h145v-715h-145v715z"/>
<glyph glyph-name="Iacute" horiz-adv-x="257" unicode="Í" d="M180 753h-106l42 125h159zM56 715h145v-715h-145v715z"/>
<glyph glyph-name="Icircumflex" horiz-adv-x="257" unicode="Î" d="M54 867h146l96 -114h-118l-48 57h-2l-49 -57h-119zM56 715h145v-715h-145v715z"/>
<glyph glyph-name="Idieresis" horiz-adv-x="257" unicode="Ï" d="M-37 867h128v-114h-128v114zM166 867h128v-114h-128v114zM56 715h145v-715h-145v715z"/>
<glyph glyph-name="Eth" horiz-adv-x="682" unicode="Ð" d="M322 125q102 0 145.5 59t43.5 166q0 53 -11.5 97.5t-35 76.5t-58 49.5t-80.5 17.5h-116v-170h165v-117h-165v-179h112zM1 421h64v294h279q72 0 130 -27.5t99 -76t63 -115.5t22 -146q0 -88 -28.5 -160.5t-85.5 -120.5q-40 -33 -92 -51t-120 -18h-267v304h-64v117z"/>
<glyph glyph-name="Ntilde" horiz-adv-x="686" unicode="Ñ" d="M408 755q-18 0 -33.5 5t-29 11.5t-25 11.5t-21.5 5q-22 0 -27 -31h-72q0 59 26 88.5t64 29.5q18 0 33.5 -5.5t29 -12t25 -12t21.5 -5.5q14 0 20 8.5t9 22.5h72q0 -51 -24 -83.5t-68 -32.5zM55 715h147l238 -399q8 -15 17 -32.5t17 -32.5q9 -18 16 -35h2q-1 21 -2 43 q-1 19 -1.5 40.5t-0.5 40.5v375h143v-715h-140l-244 395q-9 14 -17.5 31.5t-16.5 32.5q-9 18 -17 35h-2l2 -44q1 -19 1.5 -40.5t0.5 -40.5v-369h-143v715z"/>
<glyph glyph-name="Ograve" horiz-adv-x="737" unicode="Ò" d="M225 878h159l42 -125h-106zM370 103q49 0 85.5 19.5t61 53.5t36.5 80.5t12 99.5q0 54 -12 100t-36.5 80.5t-61 54t-85.5 19.5t-86 -19.5t-62 -54t-37.5 -80.5t-12.5 -100q0 -53 12.5 -99.5t37.5 -80.5t62 -53.5t86 -19.5zM369 -16q-79 0 -143 28t-109 77.5t-69 118 t-24 148.5t24 148.5t69 118.5t109 78t143 28t142.5 -28t108.5 -78t69 -118.5t24 -148.5t-24 -148.5t-69 -118t-108.5 -77.5t-142.5 -28z"/>
<glyph glyph-name="Oacute" horiz-adv-x="737" unicode="Ó" d="M420 753h-106l42 125h159zM370 103q49 0 85.5 19.5t61 53.5t36.5 80.5t12 99.5q0 54 -12 100t-36.5 80.5t-61 54t-85.5 19.5t-86 -19.5t-62 -54t-37.5 -80.5t-12.5 -100q0 -53 12.5 -99.5t37.5 -80.5t62 -53.5t86 -19.5zM369 -16q-79 0 -143 28t-109 77.5t-69 118 t-24 148.5t24 148.5t69 118.5t109 78t143 28t142.5 -28t108.5 -78t69 -118.5t24 -148.5t-24 -148.5t-69 -118t-108.5 -77.5t-142.5 -28z"/>
<glyph glyph-name="Ocircumflex" horiz-adv-x="737" unicode="Ô" d="M294 867h146l96 -114h-118l-48 57h-2l-49 -57h-119zM370 103q49 0 85.5 19.5t61 53.5t36.5 80.5t12 99.5q0 54 -12 100t-36.5 80.5t-61 54t-85.5 19.5t-86 -19.5t-62 -54t-37.5 -80.5t-12.5 -100q0 -53 12.5 -99.5t37.5 -80.5t62 -53.5t86 -19.5zM369 -16q-79 0 -143 28 t-109 77.5t-69 118t-24 148.5t24 148.5t69 118.5t109 78t143 28t142.5 -28t108.5 -78t69 -118.5t24 -148.5t-24 -148.5t-69 -118t-108.5 -77.5t-142.5 -28z"/>
<glyph glyph-name="Otilde" horiz-adv-x="737" unicode="Õ" d="M426 755q-18 0 -33.5 5t-29 11.5t-25 11.5t-21.5 5q-22 0 -27 -31h-72q0 59 26 88.5t64 29.5q18 0 33.5 -5.5t29 -12t25 -12t21.5 -5.5q14 0 20 8.5t9 22.5h72q0 -51 -24 -83.5t-68 -32.5zM370 103q49 0 85.5 19.5t61 53.5t36.5 80.5t12 99.5q0 54 -12 100t-36.5 80.5 t-61 54t-85.5 19.5t-86 -19.5t-62 -54t-37.5 -80.5t-12.5 -100q0 -53 12.5 -99.5t37.5 -80.5t62 -53.5t86 -19.5zM369 -16q-79 0 -143 28t-109 77.5t-69 118t-24 148.5t24 148.5t69 118.5t109 78t143 28t142.5 -28t108.5 -78t69 -118.5t24 -148.5t-24 -148.5t-69 -118 t-108.5 -77.5t-142.5 -28z"/>
<glyph glyph-name="Odieresis" horiz-adv-x="737" unicode="Ö" d="M203 867h128v-114h-128v114zM406 867h128v-114h-128v114zM370 103q49 0 85.5 19.5t61 53.5t36.5 80.5t12 99.5q0 54 -12 100t-36.5 80.5t-61 54t-85.5 19.5t-86 -19.5t-62 -54t-37.5 -80.5t-12.5 -100q0 -53 12.5 -99.5t37.5 -80.5t62 -53.5t86 -19.5zM369 -16 q-79 0 -143 28t-109 77.5t-69 118t-24 148.5t24 148.5t69 118.5t109 78t143 28t142.5 -28t108.5 -78t69 -118.5t24 -148.5t-24 -148.5t-69 -118t-108.5 -77.5t-142.5 -28z"/>
<glyph glyph-name="multiply" horiz-adv-x="568" unicode="×" d="M51 151l166 171l-166 171l70 66l163 -168l163 168l70 -66l-166 -171l166 -171l-70 -66l-163 168l-163 -168z"/>
<glyph glyph-name="Oslash" horiz-adv-x="737" unicode="Ø" d="M370 103q49 0 85.5 19.5t61 53.5t36.5 80.5t12 99.5q0 79 -26 140l-301 -339q24 -26 57 -40t75 -14zM172 356q0 -41 7 -77t21 -67l304 341q-24 27 -57.5 42t-76.5 15q-49 0 -86 -19.5t-62 -54t-37.5 -80.5t-12.5 -100zM30 21l74 84q-39 49 -59.5 112.5t-20.5 138.5 q0 80 24 148.5t69 118.5t109 78t143 28q67 0 123 -20.5t99 -57.5l66 74l49 -42l-71 -79q38 -49 58 -112t20 -136q0 -80 -24 -148.5t-69 -118t-108.5 -77.5t-142.5 -28q-66 0 -121 19.5t-98 54.5l-71 -79z"/>
<glyph glyph-name="Ugrave" horiz-adv-x="657" unicode="Ù" d="M184 878h159l42 -125h-106zM331 -12q-140 0 -211 62.5t-71 179.5v485h145v-485q0 -56 30.5 -91t103.5 -35q69 0 102 36t33 92v483h145v-485q0 -115 -69.5 -178.5t-207.5 -63.5z"/>
<glyph glyph-name="Uacute" horiz-adv-x="657" unicode="Ú" d="M379 753h-106l42 125h159zM331 -12q-140 0 -211 62.5t-71 179.5v485h145v-485q0 -56 30.5 -91t103.5 -35q69 0 102 36t33 92v483h145v-485q0 -115 -69.5 -178.5t-207.5 -63.5z"/>
<glyph glyph-name="Ucircumflex" horiz-adv-x="657" unicode="Û" d="M253 867h146l96 -114h-118l-48 57h-2l-49 -57h-119zM331 -12q-140 0 -211 62.5t-71 179.5v485h145v-485q0 -56 30.5 -91t103.5 -35q69 0 102 36t33 92v483h145v-485q0 -115 -69.5 -178.5t-207.5 -63.5z"/>
<glyph glyph-name="Udieresis" horiz-adv-x="657" unicode="Ü" d="M162 867h128v-114h-128v114zM365 867h128v-114h-128v114zM331 -12q-140 0 -211 62.5t-71 179.5v485h145v-485q0 -56 30.5 -91t103.5 -35q69 0 102 36t33 92v483h145v-485q0 -115 -69.5 -178.5t-207.5 -63.5z"/>
<glyph glyph-name="Yacute" horiz-adv-x="629" unicode="Ý" d="M366 753h-106l42 125h159zM242 276l-238 439h158l108 -212q8 -17 16.5 -34.5t15.5 -32.5q8 -18 15 -35h2q8 17 16 35q7 15 15.5 32.5t16.5 34.5l106 212h152l-238 -439v-276h-145v276z"/>
<glyph glyph-name="Thorn" horiz-adv-x="633" unicode="Þ" d="M205 480v-212h150q57 0 86.5 29t29.5 78q0 51 -30 78t-84 27h-152zM55 715h150v-109h164q123 -1 187 -67q30 -31 47 -72t17 -91q0 -51 -16.5 -92.5t-47 -71t-75 -46t-100.5 -16.5h-176v-150h-150v715z"/>
<glyph glyph-name="germandbls" horiz-adv-x="548" unicode="ß" d="M298 -9q-16 0 -32.5 1.5t-31.5 5.5v98h2q16 -2 31 -2q53 0 90 29t37 111q0 66 -29.5 102t-98.5 36h-31v83h26q48 0 75.5 21.5t27.5 66.5q0 38 -21.5 61.5t-63.5 23.5q-47 0 -73 -26.5t-26 -79.5v-522h-136v524q0 46 16 84t46.5 65t74 41.5t97.5 14.5q49 0 88.5 -12.5 t67.5 -36.5t43.5 -57.5t15.5 -75.5q0 -47 -24 -78t-68 -48v-3q66 -20 97 -71t31 -117q0 -60 -17.5 -105t-48.5 -74.5t-73.5 -44.5t-91.5 -15z"/>
<glyph glyph-name="agrave" horiz-adv-x="522" unicode="à" d="M109 718h159l55 -141h-106zM231 83q29 0 51.5 8.5t38 22t23.5 31t8 36.5v77q-18 -11 -43.5 -17.5t-51.5 -12.5q-54 -12 -80 -28t-26 -52t22 -50.5t58 -14.5zM367 0q-6 8 -10 24t-6 33h-2q-10 -15 -22.5 -27.5t-30 -21.5t-41.5 -14.5t-57 -5.5q-79 0 -129 40t-50 117 q0 42 16 71t44 48t65.5 29.5t80.5 16.5q64 9 94 19t30 39q0 28 -21.5 44.5t-64.5 16.5q-48 0 -72 -17.5t-27 -54.5h-121q1 34 15 64.5t41 53.5t68 37t97 14q115 0 165.5 -49.5t50.5 -139.5v-261q0 -58 18 -71v-5h-131z"/>
<glyph glyph-name="aacute" horiz-adv-x="522" unicode="á" d="M317 577h-106l55 141h159zM231 83q29 0 51.5 8.5t38 22t23.5 31t8 36.5v77q-18 -11 -43.5 -17.5t-51.5 -12.5q-54 -12 -80 -28t-26 -52t22 -50.5t58 -14.5zM367 0q-6 8 -10 24t-6 33h-2q-10 -15 -22.5 -27.5t-30 -21.5t-41.5 -14.5t-57 -5.5q-79 0 -129 40t-50 117 q0 42 16 71t44 48t65.5 29.5t80.5 16.5q64 9 94 19t30 39q0 28 -21.5 44.5t-64.5 16.5q-48 0 -72 -17.5t-27 -54.5h-121q1 34 15 64.5t41 53.5t68 37t97 14q115 0 165.5 -49.5t50.5 -139.5v-261q0 -58 18 -71v-5h-131z"/>
<glyph glyph-name="acircumflex" horiz-adv-x="522" unicode="â" d="M191 707h146l96 -126h-118l-48 69h-2l-49 -69h-119zM231 83q29 0 51.5 8.5t38 22t23.5 31t8 36.5v77q-18 -11 -43.5 -17.5t-51.5 -12.5q-54 -12 -80 -28t-26 -52t22 -50.5t58 -14.5zM367 0q-6 8 -10 24t-6 33h-2q-10 -15 -22.5 -27.5t-30 -21.5t-41.5 -14.5t-57 -5.5 q-79 0 -129 40t-50 117q0 42 16 71t44 48t65.5 29.5t80.5 16.5q64 9 94 19t30 39q0 28 -21.5 44.5t-64.5 16.5q-48 0 -72 -17.5t-27 -54.5h-121q1 34 15 64.5t41 53.5t68 37t97 14q115 0 165.5 -49.5t50.5 -139.5v-261q0 -58 18 -71v-5h-131z"/>
<glyph glyph-name="atilde" horiz-adv-x="522" unicode="ã" d="M323 575q-18 0 -33.5 5t-29 11.5t-25 11.5t-21.5 5q-22 0 -27 -31h-72q0 59 26 88.5t64 29.5q18 0 33.5 -5.5t29 -12t25 -12t21.5 -5.5q14 0 20 8.5t9 22.5h72q0 -51 -24 -83.5t-68 -32.5zM231 83q29 0 51.5 8.5t38 22t23.5 31t8 36.5v77q-18 -11 -43.5 -17.5 t-51.5 -12.5q-54 -12 -80 -28t-26 -52t22 -50.5t58 -14.5zM367 0q-6 8 -10 24t-6 33h-2q-10 -15 -22.5 -27.5t-30 -21.5t-41.5 -14.5t-57 -5.5q-79 0 -129 40t-50 117q0 42 16 71t44 48t65.5 29.5t80.5 16.5q64 9 94 19t30 39q0 28 -21.5 44.5t-64.5 16.5q-48 0 -72 -17.5 t-27 -54.5h-121q1 34 15 64.5t41 53.5t68 37t97 14q115 0 165.5 -49.5t50.5 -139.5v-261q0 -58 18 -71v-5h-131z"/>
<glyph glyph-name="adieresis" horiz-adv-x="522" unicode="ä" d="M90 695h128v-114h-128v114zM313 695h128v-114h-128v114zM231 83q29 0 51.5 8.5t38 22t23.5 31t8 36.5v77q-18 -11 -43.5 -17.5t-51.5 -12.5q-54 -12 -80 -28t-26 -52t22 -50.5t58 -14.5zM367 0q-6 8 -10 24t-6 33h-2q-10 -15 -22.5 -27.5t-30 -21.5t-41.5 -14.5t-57 -5.5 q-79 0 -129 40t-50 117q0 42 16 71t44 48t65.5 29.5t80.5 16.5q64 9 94 19t30 39q0 28 -21.5 44.5t-64.5 16.5q-48 0 -72 -17.5t-27 -54.5h-121q1 34 15 64.5t41 53.5t68 37t97 14q115 0 165.5 -49.5t50.5 -139.5v-261q0 -58 18 -71v-5h-131z"/>
<glyph glyph-name="aring" horiz-adv-x="522" unicode="å" d="M265 608q20 0 32.5 13.5t12.5 33.5t-12.5 33.5t-32.5 13.5t-32.5 -13.5t-12.5 -33.5t12.5 -33.5t32.5 -13.5zM265 561q-40 0 -68.5 27t-28.5 67q0 19 7.5 36.5t21 30t31 20t37.5 7.5t37.5 -7.5t31 -20t21 -30t7.5 -36.5q0 -40 -28.5 -67t-68.5 -27zM231 83q29 0 51.5 8.5 t38 22t23.5 31t8 36.5v77q-18 -11 -43.5 -17.5t-51.5 -12.5q-54 -12 -80 -28t-26 -52t22 -50.5t58 -14.5zM367 0q-6 8 -10 24t-6 33h-2q-10 -15 -22.5 -27.5t-30 -21.5t-41.5 -14.5t-57 -5.5q-79 0 -129 40t-50 117q0 42 16 71t44 48t65.5 29.5t80.5 16.5q64 9 94 19t30 39 q0 28 -21.5 44.5t-64.5 16.5q-48 0 -72 -17.5t-27 -54.5h-121q1 34 15 64.5t41 53.5t68 37t97 14q115 0 165.5 -49.5t50.5 -139.5v-261q0 -58 18 -71v-5h-131z"/>
<glyph glyph-name="ae" horiz-adv-x="872" unicode="æ" d="M231 83q29 0 51.5 8.5t38 22t23.5 31t8 36.5v77q-18 -11 -43.5 -17.5t-51.5 -12.5q-54 -12 -80 -28t-26 -52t22 -50.5t58 -14.5zM602 422q-54 0 -82 -29.5t-37 -80.5h228q-3 49 -32.5 79.5t-76.5 30.5zM613 -15q-68 0 -118 23t-83 64h-3q-21 -22 -41.5 -38t-44 -26 t-52 -15t-65.5 -5q-42 0 -76 10t-59 30t-38.5 49.5t-13.5 67.5q0 42 16 71t44 48t65.5 29.5t80.5 16.5q64 9 94 19t30 39q0 28 -21.5 44.5t-64.5 16.5q-48 0 -72 -17.5t-27 -54.5h-121q1 34 15 64.5t41 53.5t68 37t97 14q63 0 105.5 -15t68.5 -44q32 29 72.5 44.5t89.5 15.5 q62 0 109 -22.5t79 -63.5t48.5 -97.5t16.5 -125.5h-372q8 -60 40.5 -94t90.5 -34q40 0 64 17t35 46h134q-7 -34 -25.5 -64.5t-48 -53.5t-69.5 -36.5t-89 -13.5z"/>
<glyph glyph-name="ccedilla" horiz-adv-x="528" unicode="ç" d="M248 -192q-34 0 -60 8t-46 21l18 32q15 -7 33.5 -11t36.5 -4q23 0 40 7.5t17 23.5q0 14 -12 21.5t-29 7.5q-11 0 -20 -2t-17 -5l-16 22l57 58q-54 5 -96.5 27.5t-72.5 58.5t-46 82.5t-16 100.5q0 57 18 106.5t51.5 86t80.5 57.5t106 21q50 0 90 -14t69.5 -38.5t48 -59 t25.5 -76.5h-133q-7 34 -31.5 56.5t-62.5 22.5q-62 0 -93 -43.5t-31 -118.5q0 -73 29.5 -117.5t92.5 -44.5q42 0 69 21.5t34 65.5h131q-7 -78 -60.5 -132.5t-146.5 -62.5l-43 -36v-2q12 2 24 2q8 0 21 -1.5t28 -9.5t24 -21.5t9 -33.5q0 -36 -35 -56t-86 -20z"/>
<glyph glyph-name="egrave" horiz-adv-x="544" unicode="è" d="M116 718h159l55 -141h-106zM274 422q-54 0 -82 -29.5t-37 -80.5h228q-3 49 -32.5 79.5t-76.5 30.5zM285 -15q-64 0 -113.5 21t-83.5 57.5t-51.5 86.5t-17.5 107t18.5 106.5t52 85.5t80 57t102.5 21q62 0 109 -22.5t79 -63.5t48.5 -97.5t16.5 -125.5h-372q8 -60 40.5 -94 t90.5 -34q40 0 64 17t35 46h134q-7 -34 -25.5 -64.5t-48 -53.5t-69.5 -36.5t-89 -13.5z"/>
<glyph glyph-name="eacute" horiz-adv-x="544" unicode="é" d="M324 577h-106l55 141h159zM274 422q-54 0 -82 -29.5t-37 -80.5h228q-3 49 -32.5 79.5t-76.5 30.5zM285 -15q-64 0 -113.5 21t-83.5 57.5t-51.5 86.5t-17.5 107t18.5 106.5t52 85.5t80 57t102.5 21q62 0 109 -22.5t79 -63.5t48.5 -97.5t16.5 -125.5h-372q8 -60 40.5 -94 t90.5 -34q40 0 64 17t35 46h134q-7 -34 -25.5 -64.5t-48 -53.5t-69.5 -36.5t-89 -13.5z"/>
<glyph glyph-name="ecircumflex" horiz-adv-x="544" unicode="ê" d="M198 707h146l96 -126h-118l-48 69h-2l-49 -69h-119zM274 422q-54 0 -82 -29.5t-37 -80.5h228q-3 49 -32.5 79.5t-76.5 30.5zM285 -15q-64 0 -113.5 21t-83.5 57.5t-51.5 86.5t-17.5 107t18.5 106.5t52 85.5t80 57t102.5 21q62 0 109 -22.5t79 -63.5t48.5 -97.5 t16.5 -125.5h-372q8 -60 40.5 -94t90.5 -34q40 0 64 17t35 46h134q-7 -34 -25.5 -64.5t-48 -53.5t-69.5 -36.5t-89 -13.5z"/>
<glyph glyph-name="edieresis" horiz-adv-x="544" unicode="ë" d="M97 695h128v-114h-128v114zM320 695h128v-114h-128v114zM274 422q-54 0 -82 -29.5t-37 -80.5h228q-3 49 -32.5 79.5t-76.5 30.5zM285 -15q-64 0 -113.5 21t-83.5 57.5t-51.5 86.5t-17.5 107t18.5 106.5t52 85.5t80 57t102.5 21q62 0 109 -22.5t79 -63.5t48.5 -97.5 t16.5 -125.5h-372q8 -60 40.5 -94t90.5 -34q40 0 64 17t35 46h134q-7 -34 -25.5 -64.5t-48 -53.5t-69.5 -36.5t-89 -13.5z"/>
<glyph glyph-name="igrave" horiz-adv-x="224" unicode="ì" d="M-44 718h159l55 -141h-106zM44 513h136v-513h-136v513z"/>
<glyph glyph-name="iacute" horiz-adv-x="224" unicode="í" d="M164 577h-106l55 141h159zM44 513h136v-513h-136v513z"/>
<glyph glyph-name="icircumflex" horiz-adv-x="224" unicode="î" d="M41 707h139l73 -126h-107l-32 66h-2l-34 -66h-108zM44 513h136v-513h-136v513z"/>
<glyph glyph-name="idieresis" horiz-adv-x="224" unicode="ï" d="M-13 695h108v-114h-108v114zM130 695h108v-114h-108v114zM44 513h136v-513h-136v513z"/>
<glyph glyph-name="eth" horiz-adv-x="571" unicode="ð" d="M287 89q63 0 96.5 46t33.5 121t-33.5 120.5t-96.5 45.5t-96.5 -45.5t-33.5 -120.5t33.5 -121t96.5 -46zM260 628q-26 24 -53.5 45.5t-56.5 41.5h164q17 -11 33 -23.5t32 -26.5l106 33l22 -50l-84 -26q54 -62 90.5 -148.5t36.5 -201.5q0 -57 -15.5 -108.5t-47.5 -91.5 t-81.5 -63.5t-118.5 -23.5q-60 0 -109 21t-84.5 57.5t-55 86t-19.5 106.5t17 105.5t48 83.5t75 54.5t98 19.5q38 0 70.5 -15t55.5 -41h2q-15 34 -35.5 64t-46.5 58l-138 -43l-21 50z"/>
<glyph glyph-name="ntilde" horiz-adv-x="549" unicode="ñ" d="M334 575q-18 0 -33.5 5t-29 11.5t-25 11.5t-21.5 5q-22 0 -27 -31h-72q0 59 26 88.5t64 29.5q18 0 33.5 -5.5t29 -12t25 -12t21.5 -5.5q14 0 20 8.5t9 22.5h72q0 -51 -24 -83.5t-68 -32.5zM177 443h3q26 42 62.5 63t89.5 21q40 0 72.5 -14.5t55.5 -40t36 -60.5t13 -77 v-335h-136v315q0 42 -23 68t-66 26q-45 0 -74.5 -32.5t-29.5 -85.5v-291h-136v513h133v-70z"/>
<glyph glyph-name="ograve" horiz-adv-x="574" unicode="ò" d="M131 718h159l55 -141h-106zM287 89q63 0 96.5 46t33.5 121t-33.5 121.5t-96.5 46.5t-96.5 -46.5t-33.5 -121.5t33.5 -121t96.5 -46zM287 -15q-60 0 -109 21t-84.5 57.5t-55 86t-19.5 106.5t19.5 106.5t55 86t84.5 57.5t109 21t109 -21t84.5 -57.5t55 -86t19.5 -106.5 t-19.5 -106.5t-55 -86t-84.5 -57.5t-109 -21z"/>
<glyph glyph-name="oacute" horiz-adv-x="574" unicode="ó" d="M339 577h-106l55 141h159zM287 89q63 0 96.5 46t33.5 121t-33.5 121.5t-96.5 46.5t-96.5 -46.5t-33.5 -121.5t33.5 -121t96.5 -46zM287 -15q-60 0 -109 21t-84.5 57.5t-55 86t-19.5 106.5t19.5 106.5t55 86t84.5 57.5t109 21t109 -21t84.5 -57.5t55 -86t19.5 -106.5 t-19.5 -106.5t-55 -86t-84.5 -57.5t-109 -21z"/>
<glyph glyph-name="ocircumflex" horiz-adv-x="574" unicode="ô" d="M213 707h146l96 -126h-118l-48 69h-2l-49 -69h-119zM287 89q63 0 96.5 46t33.5 121t-33.5 121.5t-96.5 46.5t-96.5 -46.5t-33.5 -121.5t33.5 -121t96.5 -46zM287 -15q-60 0 -109 21t-84.5 57.5t-55 86t-19.5 106.5t19.5 106.5t55 86t84.5 57.5t109 21t109 -21t84.5 -57.5 t55 -86t19.5 -106.5t-19.5 -106.5t-55 -86t-84.5 -57.5t-109 -21z"/>
<glyph glyph-name="otilde" horiz-adv-x="574" unicode="õ" d="M345 575q-18 0 -33.5 5t-29 11.5t-25 11.5t-21.5 5q-22 0 -27 -31h-72q0 59 26 88.5t64 29.5q18 0 33.5 -5.5t29 -12t25 -12t21.5 -5.5q14 0 20 8.5t9 22.5h72q0 -51 -24 -83.5t-68 -32.5zM287 89q63 0 96.5 46t33.5 121t-33.5 121.5t-96.5 46.5t-96.5 -46.5 t-33.5 -121.5t33.5 -121t96.5 -46zM287 -15q-60 0 -109 21t-84.5 57.5t-55 86t-19.5 106.5t19.5 106.5t55 86t84.5 57.5t109 21t109 -21t84.5 -57.5t55 -86t19.5 -106.5t-19.5 -106.5t-55 -86t-84.5 -57.5t-109 -21z"/>
<glyph glyph-name="odieresis" horiz-adv-x="574" unicode="ö" d="M112 695h128v-114h-128v114zM335 695h128v-114h-128v114zM287 89q63 0 96.5 46t33.5 121t-33.5 121.5t-96.5 46.5t-96.5 -46.5t-33.5 -121.5t33.5 -121t96.5 -46zM287 -15q-60 0 -109 21t-84.5 57.5t-55 86t-19.5 106.5t19.5 106.5t55 86t84.5 57.5t109 21t109 -21 t84.5 -57.5t55 -86t19.5 -106.5t-19.5 -106.5t-55 -86t-84.5 -57.5t-109 -21z"/>
<glyph glyph-name="divide" horiz-adv-x="569" unicode="÷" d="M35 378h499v-100h-499v100zM211 582h146v-132h-146v132zM211 207h146v-133h-146v133z"/>
<glyph glyph-name="oslash" horiz-adv-x="574" unicode="ø" d="M287 89q63 0 96.5 46t33.5 121q0 47 -14 84l-199 -220q33 -31 83 -31zM157 256q0 -53 15 -90l202 222q-34 36 -87 36q-63 0 -96.5 -46.5t-33.5 -121.5zM23 1l63 70q-32 36 -49.5 83t-17.5 102q0 57 19.5 106.5t55 86t84.5 57.5t109 21q48 0 89.5 -14t74.5 -39l61 67 l39 -37l-60 -67q30 -35 47 -81.5t17 -99.5q0 -57 -19.5 -106.5t-55 -86t-84.5 -57.5t-109 -21q-47 0 -87.5 13t-72.5 36l-64 -70z"/>
<glyph glyph-name="ugrave" horiz-adv-x="543" unicode="ù" d="M115 718h159l55 -141h-106zM368 0v60h-3q-26 -35 -59.5 -54.5t-87.5 -19.5q-86 0 -132 50t-46 135v342h135v-319q0 -45 20.5 -69t64.5 -24q48 0 75.5 32.5t27.5 83.5v296h136v-513h-131z"/>
<glyph glyph-name="uacute" horiz-adv-x="543" unicode="ú" d="M323 577h-106l55 141h159zM368 0v60h-3q-26 -35 -59.5 -54.5t-87.5 -19.5q-86 0 -132 50t-46 135v342h135v-319q0 -45 20.5 -69t64.5 -24q48 0 75.5 32.5t27.5 83.5v296h136v-513h-131z"/>
<glyph glyph-name="ucircumflex" horiz-adv-x="543" unicode="û" d="M197 707h146l96 -126h-118l-48 69h-2l-49 -69h-119zM368 0v60h-3q-26 -35 -59.5 -54.5t-87.5 -19.5q-86 0 -132 50t-46 135v342h135v-319q0 -45 20.5 -69t64.5 -24q48 0 75.5 32.5t27.5 83.5v296h136v-513h-131z"/>
<glyph glyph-name="udieresis" horiz-adv-x="543" unicode="ü" d="M96 695h128v-114h-128v114zM319 695h128v-114h-128v114zM368 0v60h-3q-26 -35 -59.5 -54.5t-87.5 -19.5q-86 0 -132 50t-46 135v342h135v-319q0 -45 20.5 -69t64.5 -24q48 0 75.5 32.5t27.5 83.5v296h136v-513h-131z"/>
<glyph glyph-name="yacute" horiz-adv-x="497" unicode="ý" d="M300 577h-106l55 141h159zM55 -61h48q41 0 58.5 19t17.5 51q0 10 -2 22.5t-6.5 28.5t-12 37.5t-18.5 50.5l-138 365h143l76 -231q6 -18 11.5 -37.5t10.5 -36.5q5 -19 11 -38h2q4 19 9 38q4 17 9.5 36.5t11.5 37.5l72 231h137l-179 -526q-15 -43 -30.5 -72.5t-36 -48 t-48 -26.5t-66.5 -8h-80v107z"/>
<glyph glyph-name="thorn" horiz-adv-x="571" unicode="þ" d="M301 98q52 0 82.5 40.5t30.5 113.5t-27.5 119t-90.5 46q-32 0 -54.5 -13t-37 -35t-21 -52.5t-6.5 -64.5q0 -70 31.5 -112t92.5 -42zM330 -15q-54 0 -90 19t-58 54h-2v-226h-136v884h136v-265h3q21 32 57 54t89 22q51 0 92 -20t70.5 -55.5t45 -85.5t15.5 -110 q0 -62 -16 -112.5t-45.5 -85.5t-70.5 -54t-90 -19z"/>
<glyph glyph-name="OE" horiz-adv-x="1053" unicode="Œ" d="M361 103q102 0 149 72v359q-23 37 -60.5 56.5t-88.5 19.5q-45 0 -80.5 -19.5t-59.5 -54t-36.5 -80.5t-12.5 -100q0 -53 12.5 -99.5t36.5 -80.5t59.5 -53.5t80.5 -19.5zM355 -16q-71 0 -132 28t-105 77.5t-69 118t-25 148.5t25 148.5t69 118.5t105 78t132 28 q46 0 84.5 -15t70.5 -41v42h497v-125h-354v-161h306v-117h-306v-181h365v-131h-508v43q-33 -28 -72 -43.5t-83 -15.5z"/>
<glyph glyph-name="oe" horiz-adv-x="943" unicode="œ" d="M673 422q-54 0 -82 -29.5t-37 -80.5h228q-3 49 -32.5 79.5t-76.5 30.5zM287 89q63 0 96.5 46t33.5 121t-33.5 121.5t-96.5 46.5t-96.5 -46.5t-33.5 -121.5t33.5 -121t96.5 -46zM287 -15q-60 0 -109 21t-84.5 57.5t-55 86t-19.5 106.5t19.5 106.5t55 86t84.5 57.5t109 21 q63 0 113 -23t84 -64q32 40 79.5 63.5t107.5 23.5q62 0 109 -22.5t79 -63.5t48.5 -97.5t16.5 -125.5h-372q8 -60 40.5 -94t90.5 -34q40 0 64 17t35 46h134q-7 -34 -25.5 -64.5t-48 -53.5t-69.5 -36.5t-89 -13.5q-68 0 -118 23t-83 63q-34 -40 -83.5 -63t-112.5 -23z"/>
<glyph glyph-name="Scaron" horiz-adv-x="642" unicode="Š" d="M394 753h-146l-96 114h118l48 -57h2l49 57h119zM332 -16q-146 0 -225.5 61.5t-83.5 175.5h142q8 -65 46 -92.5t115 -27.5q28 0 53 5t44 16t30.5 28.5t11.5 42.5q0 26 -12.5 43t-35.5 28.5t-55.5 20t-73.5 17.5q-48 11 -92.5 24.5t-78 36.5t-54 59t-20.5 92q0 53 20.5 93 t57 67t86.5 40.5t110 13.5q121 0 194.5 -57t81.5 -166h-139q-6 54 -44 81t-94 27q-59 0 -94 -23t-35 -61q0 -22 9.5 -36.5t29 -25.5t48.5 -19t69 -17q55 -12 103.5 -26.5t85 -38.5t57.5 -61t21 -95q0 -54 -21 -96.5t-58 -71t-88 -43.5t-111 -15z"/>
<glyph glyph-name="scaron" horiz-adv-x="485" unicode="š" d="M75 702h118l48 -69h2l49 69h119l-94 -126h-146zM252 -15q-112 0 -173 49.5t-67 131.5h126q7 -45 36.5 -65t75.5 -20q45 0 69.5 16t24.5 43q0 18 -11.5 29t-30 18t-43 11.5t-50.5 9.5q-35 7 -67.5 16t-58 26t-41 44t-15.5 69t16 72.5t44.5 51t66.5 30.5t82 10 q102 0 157 -46t63 -124h-123q-5 42 -30 58.5t-69 16.5q-40 0 -64 -14.5t-24 -42.5q0 -17 12 -26.5t31.5 -16t45 -10.5t52.5 -10q32 -7 64.5 -16t58.5 -26.5t42 -46t16 -73.5q0 -39 -16 -69.5t-44.5 -51.5t-68 -32.5t-87.5 -11.5z"/>
<glyph glyph-name="Ydieresis" horiz-adv-x="629" unicode="Ÿ" d="M149 867h128v-114h-128v114zM352 867h128v-114h-128v114zM242 276l-238 439h158l108 -212q8 -17 16.5 -34.5t15.5 -32.5q8 -18 15 -35h2q8 17 16 35q7 15 15.5 32.5t16.5 34.5l106 212h152l-238 -439v-276h-145v276z"/>
<glyph glyph-name="circumflex" d="M176 707h146l96 -126h-118l-48 69h-2l-49 -69h-119z" unicode="ˆ"/>
<glyph glyph-name="tilde" d="M308 575q-18 0 -33.5 5t-29 11.5t-25 11.5t-21.5 5q-22 0 -27 -31h-72q0 59 26 88.5t64 29.5q18 0 33.5 -5.5t29 -12t25 -12t21.5 -5.5q14 0 20 8.5t9 22.5h72q0 -51 -24 -83.5t-68 -32.5z" unicode="˜"/>
<glyph glyph-name="uni0394" horiz-adv-x="664" unicode="Δ" d="M167 113h326l-128 348q-5 14 -11 34t-11 40q-6 23 -12 47h-2q-6 -24 -12 -47q-5 -20 -11.5 -40t-11.5 -34zM21 98l235 617h150l237 -616v-99h-622v98z"/>
<glyph glyph-name="uni03BC" horiz-adv-x="547" unicode="μ" d="M44 513h135v-319q0 -45 20.5 -69t64.5 -24q48 0 75.5 32.5t27.5 83.5v296h136v-513h-131v60h-3q-25 -35 -56 -54.5t-73 -19.5q-22 0 -35 4.5t-23 11.5h-3v-170h-135v681z"/>
<glyph glyph-name="pi" horiz-adv-x="611" unicode="π" d="M225 0h-133v423h-77v90h575v-90h-80v-277q0 -25 9 -35.5t31 -10.5q11 0 19.5 0.5t9.5 0.5v-100q-9 -1 -22 -1.5t-35 -0.5q-29 0 -55.5 5.5t-46.5 19.5t-31.5 38t-11.5 60v301h-152v-423z"/>
<glyph glyph-name="uni2009" horiz-adv-x="55" unicode=" "/>
<glyph glyph-name="endash" d="M0 313h500v-117h-500v117z" unicode="–"/>
<glyph glyph-name="emdash" horiz-adv-x="1000" unicode="—" d="M100 313h800v-117h-800v117z"/>
<glyph glyph-name="quoteleft" horiz-adv-x="201" unicode="‘" d="M32 568q0 34 12 60t31.5 45t44 30t49.5 15v-47q-12 -4 -24 -11.5t-21.5 -19t-16 -27t-6.5 -33.5h66v-130h-135v118z"/>
<glyph glyph-name="quotesinglbase" horiz-adv-x="201" unicode="‚" d="M32 -91q12 4 24 11.5t21.5 19t16 27t6.5 33.5h-66v130h135v-118q0 -34 -12 -60t-31.5 -45t-44 -30t-49.5 -15v47z"/>
<glyph glyph-name="quotedblleft" horiz-adv-x="399" unicode="“" d="M32 568q0 34 12 60t31.5 45t44 30t49.5 15v-47q-12 -4 -24 -11.5t-21.5 -19t-16 -27t-6.5 -33.5h66v-130h-135v118zM230 568q0 34 12 60t31.5 45t44 30t49.5 15v-47q-12 -4 -24 -11.5t-21.5 -19t-16 -27t-6.5 -33.5h66v-130h-135v118z"/>
<glyph glyph-name="quotedblright" horiz-adv-x="399" unicode="”" d="M32 494q12 4 24 11.5t21.5 19t16 27t6.5 33.5h-66v130h135v-118q0 -34 -12 -60t-31.5 -45t-44 -30t-49.5 -15v47zM230 494q12 4 24 11.5t21.5 19t16 27t6.5 33.5h-66v130h135v-118q0 -34 -12 -60t-31.5 -45t-44 -30t-49.5 -15v47z"/>
<glyph glyph-name="dagger" horiz-adv-x="565" unicode="†" d="M34 519h183v196h131v-196h183v-107h-183v-529h-131v529h-183v107z"/>
<glyph glyph-name="daggerdbl" horiz-adv-x="565" unicode="‡" d="M34 519h183v196h131v-196h183v-107h-183v-226h183v-107h-183v-196h-131v196h-183v107h183v226h-183v107z"/>
<glyph glyph-name="ellipsis" horiz-adv-x="722" unicode="…" d="M288 145h146v-145h-146v145zM36 145h146v-145h-146v145zM540 145h146v-145h-146v145z"/>
<glyph glyph-name="perthousand" horiz-adv-x="1221" unicode="‰" d="M1027 61q35 0 52 34t17 88t-17 89t-52 35t-52 -34.5t-17 -89.5q0 -54 17 -88t52 -34zM634 61q35 0 52 34t17 88t-17 89t-52 35t-52 -34.5t-17 -89.5q0 -54 17 -88t52 -34zM195 378q35 0 52 34t17 88t-17 89t-52 35t-52 -34.5t-17 -89.5q0 -54 17 -88t52 -34zM547 686h85 l-351 -686h-85zM1027 -16q-38 0 -70.5 14t-56 40t-36.5 63t-13 82q0 46 13.5 83t37 63t55.5 40t70 14q39 0 71 -14t55 -40t36 -63t13 -83q0 -45 -13 -82t-36 -63t-55 -40t-71 -14zM634 -16q-38 0 -70.5 14t-56 40t-36.5 63t-13 82q0 46 13.5 83t37 63t55.5 40t70 14 q39 0 71 -14t55 -40t36 -63t13 -83q0 -45 -13 -82t-36 -63t-55 -40t-71 -14zM195 301q-38 0 -70.5 14t-56 40t-36.5 63t-13 82q0 46 13.5 83t37 63t55.5 40t70 14q39 0 71 -14t55 -40t36 -63t13 -83q0 -45 -13 -82t-36 -63t-55 -40t-71 -14z"/>
<glyph glyph-name="uni2032" horiz-adv-x="201" unicode="′" d="M60 715h119l-38 -251h-119z"/>
<glyph glyph-name="uni2033" horiz-adv-x="382" unicode="″" d="M60 715h119l-38 -251h-119zM241 715h119l-38 -251h-119z"/>
<glyph glyph-name="guilsinglleft" horiz-adv-x="277" unicode="‹" d="M54 195v126l164 140v-131l-88 -72v-2l88 -72v-129z"/>
<glyph glyph-name="guilsinglright" horiz-adv-x="277" unicode="›" d="M223 321v-126l-164 -140v131l88 72v2l-88 72v129z"/>
<glyph glyph-name="fraction" horiz-adv-x="244" unicode="⁄" d="M325 715h90l-497 -715h-89z"/>
<glyph glyph-name="Euro" horiz-adv-x="630" unicode="€" d="M18 428h53q10 61 34.5 111t61.5 86t85 55.5t105 19.5q58 0 103 -17.5t77.5 -48t51 -73t23.5 -93.5h-136q-8 55 -37.5 86.5t-81.5 31.5q-59 0 -94.5 -42.5t-48.5 -115.5h177v-59h-183q-1 -7 -1 -14v-14v-18t1 -17h183v-59h-176q14 -72 51 -110t96 -38q58 0 87.5 39 t36.5 100h132q-3 -56 -21.5 -102.5t-51 -80t-79 -52.5t-106.5 -19q-56 0 -104 18.5t-85 52.5t-62.5 82.5t-36.5 109.5h-54v59h47q-1 8 -1 17v18v14t1 14h-47v59z"/>
<glyph glyph-name="trademark" horiz-adv-x="679" unicode="™" d="M31 715h242v-64h-82v-215h-78v215h-82v64zM314 715h108l49 -176h2l50 176h108v-279h-72v181h-2l-55 -181h-61l-54 181h-2v-181h-71v279z"/>
<glyph glyph-name="partialdiff" horiz-adv-x="572" unicode="∂" d="M271 92q31 0 55 12.5t40 33.5t24 49t8 59q0 59 -30 86.5t-76 27.5q-55 0 -91.5 -36.5t-36.5 -110.5q0 -65 30.5 -93t76.5 -28zM391 417q-9 45 -31 77.5t-55 54.5t-75.5 35t-90.5 19v119q94 -5 168.5 -35.5t126 -84t78.5 -129t27 -169.5q0 -72 -16.5 -131t-49.5 -100.5 t-84 -64t-120 -22.5q-60 0 -105 16.5t-75 46.5t-45 72.5t-15 93.5q0 55 17.5 101t49 78.5t74.5 50.5t94 18q45 0 76.5 -13t50.5 -33z"/>
<glyph glyph-name="product" horiz-adv-x="701" unicode="∏" d="M643 715v-815h-145v693h-295v-693h-145v815h585z"/>
<glyph glyph-name="summation" horiz-adv-x="608" unicode="∑" d="M34 -100v125l282 290v2l-282 273v125h524v-118h-362v-2l262 -246v-60l-269 -270v-2h379v-117h-534z"/>
<glyph glyph-name="minus" horiz-adv-x="569" unicode="−" d="M35 378h499v-100h-499v100z"/>
<glyph glyph-name="radical" horiz-adv-x="622" unicode="√" d="M17 333h174l55 -139q8 -22 16 -42t13 -36q6 -18 11 -35h2q4 17 8 35q4 16 9.5 36.5t13.5 42.5l167 520h130l-264 -815h-119l-131 315h-85v118z"/>
<glyph glyph-name="infinity" horiz-adv-x="725" unicode="∞" d="M529 224q33 0 48 23.5t15 57.5q0 33 -15 56.5t-48 23.5q-30 0 -52 -24.5t-41 -56.5q19 -31 41 -55.5t52 -24.5zM196 385q-33 0 -47.5 -23.5t-14.5 -56.5q0 -34 14.5 -57.5t47.5 -23.5q32 0 55 24.5t42 55.5q-19 32 -42 56.5t-55 24.5zM184 124q-39 0 -68.5 14.5t-49 39.5 t-29.5 58t-10 69t10 68.5t30 57.5t49 39.5t68 14.5q31 0 57 -8.5t48 -24t40.5 -37t35.5 -46.5q34 51 74.5 83.5t100.5 32.5q36 0 65 -13t49.5 -37t32 -57t11.5 -73q0 -41 -11.5 -74t-32 -57t-49.5 -37t-65 -13q-60 0 -100.5 32.5t-74.5 83.5q-17 -25 -35.5 -46.5t-40.5 -37 t-48 -24t-57 -8.5z"/>
<glyph glyph-name="approxequal" horiz-adv-x="562" unicode="≈" d="M53 145q1 72 37 107t94 35q24 0 54 -5t59.5 -11.5t55.5 -11.5t43 -5q18 0 25.5 8t9.5 24h95q-1 -61 -31 -99.5t-94 -38.5q-28 0 -59.5 5t-61.5 11t-55.5 11t-41.5 5q-30 0 -35 -35h-95zM53 339q1 72 37 107t94 35q24 0 54 -5t59.5 -11.5t55.5 -11.5t43 -5q18 0 25.5 8 t9.5 24h95q-1 -61 -31 -99.5t-94 -38.5q-28 0 -59.5 5t-61.5 11t-55.5 11t-41.5 5q-30 0 -35 -35h-95z"/>
<glyph glyph-name="notequal" horiz-adv-x="562" unicode="≠" d="M56 456h253l41 87h92l-41 -87h119v-98h-164l-44 -95h208v-98h-254l-40 -87h-92l40 87h-118v98h164l44 95h-208v98z"/>
<glyph glyph-name="lessequal" d="M45 98h410v-98h-410v98zM45 271v123l410 147v-109l-217 -72q-13 -5 -29 -9t-31 -9q-18 -5 -35 -10v-2q17 -5 35 -9q15 -4 31 -8.5t29 -8.5l217 -69v-111z" unicode="≤"/>
<glyph glyph-name="greaterequal" d="M455 0h-410v98h410v-98zM455 394v-123l-410 -147v109l217 72q12 4 28.5 8.5t31.5 9.5q18 5 35 10v2q-17 5 -35 9q-15 4 -31.5 8t-28.5 9l-217 69v111z" unicode="≥"/>
<glyph glyph-name="lozenge" horiz-adv-x="560" unicode="◊" d="M156 360l124 -238h2l121 232l-123 239h-2zM542 357l-201 -357h-121l-202 358l201 357h121z"/>
</font>
</defs>
</svg>
