<?xml version="1.0" standalone="no"?>
<!DOCTYPE svg PUBLIC "-//W3C//DTD SVG 1.1//EN" "http://www.w3.org/Graphics/SVG/1.1/DTD/svg11.dtd" >
<svg xmlns="http://www.w3.org/2000/svg" xmlns:xlink="http://www.w3.org/1999/xlink" version="1.1">
<metadata></metadata>
<defs>
<font id="faustinaitalic" horiz-adv-x="1085" >
<font-face units-per-em="2048" ascent="1626" descent="-422" />
<missing-glyph horiz-adv-x="368" />
<glyph unicode="&#xfb01;" horiz-adv-x="1001" d="M70 -340l196 1262h-162v65l33 51h148q31 201 158.5 309.5t330.5 108.5q82 0 114 -22t32 -74q0 -11 -2 -21.5t-5.5 -19t-8 -15.5t-9.5 -12.5t-10 -10.5t-9 -8t-7.5 -5t-4.5 -3l-2 -1l-59 12q-108 27 -187 27q-89 0 -106 -17q-9 -9 -21.5 -26.5t-31 -61t-25.5 -92.5 l-10 -68h477v-153l-127 -750h150v-80q-11 -7 -29.5 -17.5t-68.5 -28t-93 -17.5q-65 0 -93 23.5t-28 80.5q0 25 6 49l136 744l-154 33h-192l-181 -1262h-155z" />
<glyph unicode="&#xfb02;" horiz-adv-x="1071" d="M70 -340l196 1262h-162v65l33 51h148q31 200 157.5 309t325.5 109q54 0 109 -6t83 -12l29 -6v-148l-176 -1149h150v-80q-10 -7 -27.5 -17.5t-66 -28t-91.5 -17.5q-66 0 -97.5 24t-31.5 80q0 13 4 45l199 1143q-31 3 -71 9t-68.5 8t-71.5 2q-114 0 -131 -17 q-9 -9 -21.5 -26.5t-31 -61t-25.5 -92.5l-10 -68h209v-65l-33 -51h-192l-181 -1262h-155z" />
<glyph horiz-adv-x="0" />
<glyph horiz-adv-x="682" />
<glyph unicode=" "  horiz-adv-x="368" />
<glyph unicode="&#x09;" horiz-adv-x="368" />
<glyph unicode="&#xa0;" horiz-adv-x="368" />
<glyph unicode="!" horiz-adv-x="411" d="M86 74q0 61 39 107t98 46q43 0 71 -27t28 -69q0 -61 -38.5 -107.5t-101.5 -46.5q-42 0 -69 27.5t-27 69.5zM199 328l112 1038q31 20 107 20q90 0 90 -75q0 -53 -31 -172q-27 -103 -188 -811h-90z" />
<glyph unicode="&#x22;" horiz-adv-x="684" d="M106 1012l33 432q65 26 113 26q59 0 59 -51q0 -27 -22 -98l-101 -309h-82zM379 1012l33 432q65 26 112 26q60 0 60 -51q0 -23 -23 -98l-100 -309h-82z" />
<glyph unicode="#" d="M-4 254v121h244l53 278h-250v121h274l56 291h123l-56 -291h275l55 291h123l-55 -291h209v-121h-234l-53 -278h239v-121h-262l-61 -320h-123l61 320h-274l-61 -320h-123l61 320h-221zM362 375h275l53 278h-274z" />
<glyph unicode="$" horiz-adv-x="983" d="M98 68l31 262h92l8 -174q83 -52 207 -52q78 0 122 6.5t71.5 27t36 52t8.5 86.5q0 43 -27.5 76t-71.5 55t-97 42.5t-106 45t-97 55.5t-71.5 81t-27.5 114q0 140 91 226t247 110l37 224h111l-19 -220q69 -4 140 -18.5t100 -26.5l-33 -264h-84l-14 148q-77 30 -183 30 q-98 0 -150.5 -17.5t-70.5 -48t-18 -85.5q0 -48 28 -84.5t73 -60t99 -44.5t108 -45t99 -53.5t73 -78t28 -111.5q0 -287 -330 -336l-37 -230h-109l21 224q-89 4 -171.5 28.5t-113.5 55.5z" />
<glyph unicode="%" horiz-adv-x="1445" d="M39 725q0 181 91 290t261 109q120 0 188 -65.5t68 -173.5q0 -181 -91 -290.5t-261 -109.5q-119 0 -187.5 66t-68.5 174zM176 729q0 -71 41.5 -105t99.5 -34q97 0 145 70.5t48 220.5q0 71 -41.5 105t-99.5 34q-97 0 -145 -70.5t-48 -220.5zM262 -25l795 1186l92 -65 l-789 -1188zM817 223q0 181 91 290.5t261 109.5q119 0 187.5 -66t68.5 -174q0 -181 -91 -290t-261 -109q-120 0 -188 65.5t-68 173.5zM954 227q0 -71 42 -105t100 -34q97 0 144.5 70.5t47.5 220.5q0 71 -41.5 105t-99.5 34q-97 0 -145 -70.5t-48 -220.5z" />
<glyph unicode="&#x26;" horiz-adv-x="1251" d="M61 270q0 66 21.5 127.5t52.5 106t72 84t73 62t64 40.5q-74 88 -105.5 148.5t-31.5 144.5q0 134 112 240t271 106q129 0 219 -73t90 -189q0 -105 -55 -190h10q10 0 55 -9l267 -47l149 76l39 -53l-80 -90q-54 -60 -127 -60q-49 0 -125 19q2 -16 2 -58q0 -242 -114 -422 l106 -131q27 -36 27 -79q0 -20 -4 -60l-17 -145h-82l-12 153l-117 142q-149 -136 -368 -136q-86 0 -155 16t-123.5 49.5t-84 91.5t-29.5 136zM227 301q0 -103 60 -161t209 -58t260 108l-361 437q-20 -12 -38.5 -27t-43.5 -44t-42.5 -62.5t-30.5 -84.5t-13 -108zM354 1024 q0 -56 27 -107t98 -139l369 -456q57 117 57 278q0 74 -6 143l-98 25l-156 -74l-37 54q101 98 126.5 147.5t25.5 146.5q0 81 -46.5 131t-144.5 50q-97 0 -156 -59.5t-59 -139.5z" />
<glyph unicode="'" horiz-adv-x="423" d="M125 1012l33 432q65 26 112 26q60 0 60 -51q0 -23 -23 -98l-100 -309h-82z" />
<glyph unicode="(" horiz-adv-x="409" d="M-16 201q0 123 18 262t63.5 297.5t111.5 291.5t172.5 238t236.5 142l22 -84q-82 -22 -152.5 -90t-119.5 -164t-86.5 -210t-59.5 -236.5t-32.5 -234t-10.5 -210.5q0 -64 2.5 -114.5t9.5 -90t13 -67.5t20.5 -51t24.5 -36.5t32 -28t36 -21.5t43 -21l-47 -82 q-297 61 -297 510z" />
<glyph unicode=")" horiz-adv-x="409" d="M-176 -225q82 22 152.5 90t119.5 164t86.5 210t59.5 236.5t32.5 234t10.5 210.5q0 64 -2.5 114.5t-9.5 90t-13 67.5t-20.5 51t-24.5 36.5t-32 28t-36 21.5t-43 21l48 82q297 -61 297 -510q0 -86 -9 -181.5t-30.5 -205.5t-53 -215.5t-80.5 -208t-109.5 -185t-143 -145 t-177.5 -90.5z" />
<glyph unicode="*" horiz-adv-x="786" d="M76 1071q0 35 37 105l297 -50l-54 160q-22 64 -22 88q0 38 21.5 61t86.5 23h50v-303l141 119q4 4 26 23t31 26t27 15t35 8q29 0 44 -25t27 -90l-288 -144l143 -81q4 -2 19.5 -11.5t22 -14t19 -13.5t18 -16.5t10.5 -18t5 -21.5q0 -25 -22.5 -49.5t-75.5 -56.5l-195 213 l56 69l-43 68l-82 -29l-11 -84l80 -24l-53 -170q-1 -4 -7 -25.5t-9 -31.5t-11.5 -28.5t-17 -27.5t-22.5 -16.5t-31 -7.5q-33 0 -97 55l168 276l-174 -20q-60 -6 -78 -6q-71 0 -71 55z" />
<glyph unicode="+" horiz-adv-x="1064" d="M119 492l12 120h340l43 349h137l-43 -349h342l-12 -120h-342l-43 -351h-137l43 351h-340z" />
<glyph unicode="," horiz-adv-x="376" d="M-41 -221l150 203l-3 6q-13 -8 -32 -8q-36 0 -60 27t-24 69q0 58 36.5 102.5t94.5 44.5q115 0 115 -125q0 -87 -72 -188t-164 -168z" />
<glyph unicode="-" horiz-adv-x="641" d="M84 485l22 125h441l-23 -125h-440z" />
<glyph unicode="." horiz-adv-x="327" d="M-8 76q0 61 39 107t98 46q45 0 72.5 -27.5t27.5 -70.5q0 -61 -37.5 -107.5t-101.5 -46.5q-43 0 -70.5 28t-27.5 71z" />
<glyph unicode="/" horiz-adv-x="614" d="M-115 -287l748 1710l123 -55l-744 -1710z" />
<glyph unicode="0" horiz-adv-x="1148" d="M76 414q0 130 41.5 251t115.5 213t184.5 147.5t239.5 55.5q209 0 315.5 -118t106.5 -308q0 -296 -160 -484.5t-415 -188.5q-224 0 -326 110.5t-102 321.5zM254 424q0 -166 66.5 -239.5t197.5 -73.5q196 0 289.5 130.5t93.5 424.5q0 286 -264 286q-383 0 -383 -528z" />
<glyph unicode="1" horiz-adv-x="778" d="M59 0l11 90l217 23l112 796h-235v97l332 61h84l-136 -954l215 -23l-10 -90h-590z" />
<glyph unicode="2" horiz-adv-x="962" d="M16 119l422 344q75 61 124 111.5t72 90t30.5 68.5t7.5 62q0 70 -48 106.5t-126 36.5q-158 0 -340 -141l-43 39q6 10 18 26.5t53 58.5t85.5 74.5t114.5 59t142 26.5q156 0 237 -70.5t81 -201.5q0 -70 -28.5 -133t-86 -122t-114.5 -105t-142 -109q-4 -2 -5.5 -3.5 t-4.5 -3.5t-5.5 -3.5t-4.5 -3.5l-230 -170l8 -25h457l62 154l86 -17l-37 -268h-744z" />
<glyph unicode="3" horiz-adv-x="858" d="M-27 -326l11 84q279 0 433 101t154 307q0 110 -67.5 154.5t-210.5 44.5h-60l-32 55l10 57q173 31 271 113t98 203q0 151 -193 151q-45 0 -87.5 -9.5t-71 -23.5t-50.5 -28t-32 -23l-11 -10l-51 41q5 8 14.5 20.5t42.5 45.5t71 58t99.5 45.5t128.5 20.5q71 0 126 -16.5 t87.5 -42.5t53 -61.5t27.5 -68.5t7 -69q0 -73 -20 -132t-57.5 -100t-74 -67t-85.5 -51v-14q231 -24 231 -285q0 -107 -41 -200.5t-116 -163.5t-187.5 -110t-247.5 -40q-41 0 -83.5 3.5t-64.5 6.5z" />
<glyph unicode="4" horiz-adv-x="1042" d="M-12 141l786 953l107 -43l-129 -891h186l-18 -127h-187l-53 -369h-162l53 369h-551zM150 160h440l100 696l-538 -682z" />
<glyph unicode="5" horiz-adv-x="921" d="M-6 -240h22q36 0 64.5 1t75.5 5t84 11.5t84 22t82 34t71 50.5t59 69.5t37.5 92t14.5 116.5q0 110 -41 170t-143 91.5t-298 43.5l136 600h497l33 78h90l-33 -234h-507l-74 -342q61 -6 105.5 -12.5t103.5 -19t100.5 -29t85.5 -43.5t71 -60.5t44.5 -82t17.5 -107.5 q0 -241 -161 -398t-414 -157q-67 0 -118.5 4.5t-70.5 9.5l-18 4v82z" />
<glyph unicode="6" d="M106 418q0 179 76 349t199 293.5t285.5 199t328.5 75.5l9 -71q-249 -35 -429.5 -188t-234.5 -361q5 4 14.5 9.5t41.5 21t66 27t86 21t105 9.5q154 0 234 -82.5t80 -222.5q0 -108 -28.5 -197.5t-74.5 -147.5t-106.5 -98t-122 -57.5t-123.5 -17.5q-84 0 -154 23.5 t-128 72.5t-91 136.5t-33 205.5zM295 383q0 -133 61.5 -207t167.5 -74q140 0 205.5 71t65.5 247q0 148 -52.5 203t-175.5 55q-68 0 -130.5 -13t-90.5 -27l-29 -13q-22 -112 -22 -242z" />
<glyph unicode="7" horiz-adv-x="888" d="M20 -283l709 1160v34h-539l-36 -161h-84v317h813l-23 -156l-676 -1245h-92z" />
<glyph unicode="8" horiz-adv-x="983" d="M80 266q0 130 102.5 244.5t243.5 177.5q-114 93 -161.5 161.5t-47.5 160.5q0 160 106 252t252 92q177 0 262 -75t85 -196q0 -71 -22 -129t-63 -101.5t-88.5 -74.5t-109.5 -59q57 -45 96 -80t74.5 -77t53.5 -84.5t18 -86.5q0 -61 -14 -118t-47.5 -111t-82.5 -94 t-124.5 -64t-168.5 -24q-186 0 -275 77.5t-89 208.5zM248 299q0 -113 59 -165t189 -52q105 0 172 68t67 190q0 24 -7.5 48t-25 48.5t-33 43.5t-44.5 44.5t-45 39t-50 40t-45 35.5q-237 -135 -237 -340zM371 1063q0 -81 43 -141t153 -146q7 -7 13 -10q38 22 61.5 37.5 t52.5 42t45 53.5t27.5 66.5t11.5 87.5q0 83 -51 137.5t-145 54.5q-95 0 -153 -43t-58 -139z" />
<glyph unicode="9" horiz-adv-x="1021" d="M51 -326l10 82q283 0 437.5 139t201.5 439q-4 -5 -12.5 -13t-37.5 -28.5t-62 -36t-87 -28.5t-112 -13q-133 0 -216 87.5t-83 209.5t29 222t76 164t109.5 108t126.5 62.5t130 18.5q162 0 259.5 -105t97.5 -329q0 -236 -60.5 -427.5t-163.5 -313.5t-236 -187t-282 -65 q-28 0 -59 3.5t-49 6.5zM270 598q0 -147 54 -208.5t149 -61.5q39 0 78 9.5t67 23.5t50.5 28t33.5 23l11 10q24 131 24 276q0 271 -243 271q-117 0 -170.5 -91.5t-53.5 -279.5z" />
<glyph unicode=":" horiz-adv-x="452" d="M37 76q0 61 39 107t98 46q45 0 72.5 -27.5t27.5 -70.5q0 -61 -37.5 -107.5t-101.5 -46.5q-43 0 -70.5 28t-27.5 71zM125 758q0 61 39 107t98 46q45 0 72.5 -27.5t27.5 -70.5q0 -61 -37.5 -107.5t-101.5 -46.5q-43 0 -70.5 28t-27.5 71z" />
<glyph unicode=";" horiz-adv-x="462" d="M29 -221l149 203l-2 6q-13 -8 -33 -8q-36 0 -60 27t-24 69q0 58 36.5 102.5t94.5 44.5q115 0 115 -125q0 -87 -72 -188t-163 -168zM147 758q0 61 39 107t99 46q45 0 72.5 -27.5t27.5 -70.5q0 -61 -37.5 -107.5t-101.5 -46.5q-43 0 -71 28t-28 71z" />
<glyph unicode="&#x3c;" d="M119 422l16 127l946 479l49 -135l-831 -404l737 -356l-78 -133z" />
<glyph unicode="=" d="M90 303l14 123h820l-15 -123h-819zM129 629l16 123h820l-17 -123h-819z" />
<glyph unicode="&#x3e;" d="M78 133l831 397l-737 363l82 135l836 -438l-17 -127l-946 -463z" />
<glyph unicode="?" horiz-adv-x="739" d="M66 92q0 54 34 93.5t86 39.5q50 0 79.5 -31t29.5 -83q0 -53 -31.5 -93.5t-85.5 -40.5h-14q-45 4 -71.5 35.5t-26.5 79.5zM90 1243q0 111 227 111q195 0 296.5 -96.5t101.5 -266.5q0 -290 -289 -391l-100 -35l-64 -239h-106l26 305l140 47q105 36 157.5 70.5t71 76.5 t18.5 113q0 127 -67 194.5t-193 67.5q-115 0 -188 -20q-3 1 -8.5 4.5t-14 19.5t-8.5 39z" />
<glyph unicode="@" horiz-adv-x="1560" d="M53 455q0 102 29.5 205t83 195t131.5 171.5t170.5 137.5t205 91t230.5 33q116 0 215 -30.5t171 -85t123 -127.5t76 -159t25 -179q0 -270 -108.5 -430t-290.5 -160q-71 0 -132 36t-81 113q-5 -6 -13.5 -15t-36 -32.5t-55 -41.5t-67 -33t-76.5 -15q-102 0 -160.5 75.5 t-58.5 203.5q0 54 12 116.5t41 129.5t70.5 121t106.5 89t143 35q38 0 85 -10.5t75 -21.5l28 -11l58 66h69l-88 -537q-6 -37 -6 -59q0 -49 29.5 -76t77.5 -27q101 0 167 112.5t66 330.5q0 135 -36.5 235t-103.5 158.5t-153 86.5t-192 28q-90 0 -179.5 -22t-180.5 -75 t-160 -131.5t-112.5 -202.5t-43.5 -276q0 -289 143.5 -430t401.5 -141q53 0 115.5 8.5t114 20t95 23.5t67.5 20l25 7l31 -55q0 -1 -21.5 -15t-65.5 -35.5t-99.5 -41.5t-136.5 -34.5t-164 -14.5q-303 0 -481.5 183.5t-178.5 492.5zM580 463q0 -201 122 -201q42 0 87.5 20.5 t70.5 41.5l25 20l65 387q-9 6 -24.5 14.5t-60 22.5t-83.5 14q-101 0 -118 -20q-30 -33 -57 -126t-27 -173z" />
<glyph unicode="A" horiz-adv-x="1044" d="M-104 0l10 76l112 30l564 1231h86l231 -1237l119 -24l-6 -76h-432l6 76l143 30v48l-41 227h-432l-109 -240v-35l140 -30l-8 -76h-383zM309 498h357l-103 569z" />
<glyph unicode="B" horiz-adv-x="1112" d="M33 0l8 76l145 28l158 1119l-139 28l8 76h379q197 0 297 -70t100 -200q0 -114 -74 -213t-225 -154q262 -63 262 -268q0 -62 -18 -121t-57.5 -114t-97.5 -96.5t-144.5 -66t-190.5 -24.5h-411zM348 104q29 -12 125 -12q145 0 220 76t75 221q0 123 -80 184.5t-266 65.5z M434 719q186 15 286.5 93.5t100.5 215.5q0 114 -57 158.5t-172 44.5q-23 0 -45 -2.5t-33 -4.5l-10 -3z" />
<glyph unicode="C" horiz-adv-x="1089" d="M90 500q0 242 87 437.5t238.5 305t336.5 109.5q167 0 323 -41l-45 -301h-86l-14 196q-32 15 -90 28t-115 13q-214 0 -331.5 -185t-117.5 -515q0 -242 73.5 -353.5t244.5 -111.5q41 0 79.5 6.5t64 15t45.5 17.5t29 15l9 7l64 199h86l-29 -279q-177 -86 -385 -86 q-128 0 -220 37t-145.5 108t-77.5 163.5t-24 214.5z" />
<glyph unicode="D" horiz-adv-x="1300" d="M31 0l8 76l145 28l158 1119l-139 28l8 76h473q246 0 388 -126t142 -370q0 -121 -26 -237.5t-84.5 -224.5t-142.5 -189.5t-209.5 -130.5t-276.5 -49h-444zM346 104q88 -12 156 -12q250 0 388.5 182.5t143.5 497.5q0 113 -20.5 195t-67 143t-126 91t-193.5 30 q-42 0 -72.5 -2t-40.5 -4l-10 -2z" />
<glyph unicode="E" horiz-adv-x="1050" d="M33 0l8 76l145 28l158 1119l-139 28l8 76h807l-43 -319h-100v225h-207l-164 -10l-70 -490h269l43 121h73l-43 -332h-73l-11 121h-270l-76 -539q72 -12 189 -12h208l78 219h86l-39 -311h-837z" />
<glyph unicode="F" horiz-adv-x="991" d="M33 0l8 76l145 28l158 1119l-139 28l8 76h821l-47 -305h-102v203h-207l-174 -17l-74 -516h295l41 123h74l-49 -352h-72l-8 127h-293l-70 -481l197 -29l-6 -80h-506z" />
<glyph unicode="G" horiz-adv-x="1157" d="M98 494q0 132 27 257t82.5 234t132.5 191t183 129t229 47q80 0 163.5 -11t126.5 -23l43 -11l-38 -301h-86l-13 184q-10 6 -29.5 15.5t-80.5 25.5t-125 16q-70 0 -132.5 -24.5t-117.5 -79t-94.5 -135.5t-62.5 -201.5t-23 -269.5q0 -242 76 -348.5t225 -106.5 q76 0 130.5 17t114.5 48l56 385l-217 37l10 88h364l-88 -657h-67l-45 55h-17q-24 -15 -40 -23.5t-53 -24t-87 -23t-110 -7.5q-212 0 -324.5 132.5t-112.5 384.5z" />
<glyph unicode="H" horiz-adv-x="1366" d="M31 0l8 76l145 28l158 1119l-139 28l8 76h446l-8 -76l-145 -28l-68 -486h535l67 486l-139 28l8 76h447l-8 -76l-146 -28l-158 -1119l140 -28l-6 -76h-449l8 76l146 28l73 521h-534l-74 -521l139 -28l-6 -76h-448z" />
<glyph unicode="I" horiz-adv-x="669" d="M33 0l8 76l145 28l158 1119l-139 28l8 76h446l-8 -76l-145 -28l-158 -1119l139 -28l-6 -76h-448z" />
<glyph unicode="J" horiz-adv-x="815" d="M-10 27l35 295h100l25 -228q49 -18 106 -18q70 0 97.5 24.5t37.5 102.5l135 1014l-178 34l8 76h486l-8 -76l-146 -28l-135 -996q-18 -137 -93.5 -196.5t-219.5 -59.5q-68 0 -130.5 14t-91.5 28z" />
<glyph unicode="K" horiz-adv-x="1069" d="M33 0l8 76l145 28l158 1119l-139 28l8 76h446l-8 -76l-145 -28l-70 -492h78l401 473v19l-110 28l10 76h365l-9 -76l-110 -28l-422 -494l315 -623l119 -30l-6 -76h-170q-43 0 -64.5 11.5t-39.5 47.5l-285 576h-84l-76 -531l139 -28l-6 -76h-448z" />
<glyph unicode="L" horiz-adv-x="905" d="M31 0l8 76l145 28l158 1119l-139 28l8 76h446l-8 -76l-145 -28l-158 -1119l86 -10h254l82 217h86l-47 -311h-776z" />
<glyph unicode="M" horiz-adv-x="1556" d="M31 0l8 76l145 28l158 1119l-139 28l8 76h360l138 -956l8 -113l43 113l424 956h360l-8 -76l-145 -28l-158 -1119l139 -28l-6 -76h-448l8 76l145 28l141 1014h-8l-495 -1118h-91l-174 1118h-8l-143 -1014l139 -28l-6 -76h-395z" />
<glyph unicode="N" horiz-adv-x="1339" d="M31 0l8 76l145 28l158 1119l-139 28l8 76h297l432 -1079h10l137 975l-139 28l6 76h396l-9 -76l-145 -28l-172 -1223h-158l-428 1063h-10l-135 -959l139 -28l-6 -76h-395z" />
<glyph unicode="O" horiz-adv-x="1331" d="M90 508q0 133 27.5 257t83.5 230.5t134 186t185.5 125t231.5 45.5q239 0 364 -138t125 -391q0 -131 -25 -253t-79.5 -230.5t-132.5 -188.5t-191.5 -127t-249.5 -47q-227 0 -350 140.5t-123 390.5zM276 559q0 -255 75.5 -366t269.5 -111q434 0 434 721q0 237 -78.5 340.5 t-267.5 103.5q-112 0 -196 -49.5t-135.5 -142t-76.5 -216.5t-25 -280z" />
<glyph unicode="P" horiz-adv-x="1044" d="M33 0l8 76l145 28l158 1119l-137 28l8 76h412q206 0 311.5 -83.5t105.5 -246.5q0 -214 -140 -331t-386 -117h-33v69q89 0 156.5 19t109.5 51t68.5 78.5t36.5 96.5t10 110q0 144 -62.5 201t-195.5 57q-24 0 -49.5 -2.5t-38.5 -4.5l-14 -3l-158 -1117l166 -28l-6 -76h-475z " />
<glyph unicode="Q" horiz-adv-x="1331" d="M90 508q0 133 27.5 257t83.5 230.5t134 186t185.5 125t231.5 45.5q239 0 364 -138t125 -391q0 -124 -22.5 -239.5t-70.5 -219.5t-117.5 -184t-169.5 -132.5t-220 -65.5l-80 -84q26 -3 103 -21l350 -80l121 58l43 -48l-82 -106q-28 -37 -99 -37q-16 0 -35.5 3.5t-57 12.5 t-48.5 11l-352 78l-113 -52l-43 54l195 206q-218 6 -335.5 146t-117.5 385zM276 559q0 -255 75.5 -366t269.5 -111q434 0 434 721q0 237 -78.5 340.5t-267.5 103.5q-112 0 -196 -49.5t-135.5 -142t-76.5 -216.5t-25 -280z" />
<glyph unicode="R" horiz-adv-x="1087" d="M33 0l8 76l145 28l158 1119l-137 28l8 76h455q169 0 259.5 -77t90.5 -220q-3 -154 -102.5 -266.5t-280.5 -155.5q39 -27 67 -66.5t58 -107.5l133 -301l158 -57l-6 -76h-195q-34 0 -62 16.5t-40 46.5l-125 287q-22 50 -32.5 73t-27.5 55t-29.5 45.5t-31.5 29t-40.5 22 t-49.5 9.5l-66 -480l139 -28l-6 -76h-448zM426 672q198 0 308 80t110 237q0 118 -45 179t-166 61q-36 0 -68 -1.5t-45 -3.5l-14 -1z" />
<glyph unicode="S" horiz-adv-x="921" d="M18 76l33 289h101l22 -228q6 -6 18 -15t57 -24.5t101 -15.5q295 0 295 237q0 50 -27.5 100t-71 93.5t-96 88t-105.5 90.5t-96.5 93t-71 104t-27.5 116q0 118 55.5 197.5t148.5 115t219 35.5q87 0 173 -14.5t139 -34.5l-35 -308h-90l-17 213q-87 39 -200 39 q-238 0 -238 -180q0 -48 27.5 -97t71 -92.5t96.5 -88.5t106 -92.5t96.5 -95.5t71 -105.5t27.5 -116.5q0 -187 -122.5 -294.5t-340.5 -107.5q-94 0 -190 32.5t-130 66.5z" />
<glyph unicode="T" horiz-adv-x="966" d="M70 991l39 336h946l-58 -336h-106l14 232h-248l-157 -1119l139 -28l-6 -76h-449l9 76l145 28l158 1119h-258l-76 -232h-92z" />
<glyph unicode="U" horiz-adv-x="1265" d="M121 1251l8 76h449l-9 -76l-149 -28l-92 -654q-15 -117 -15 -196q0 -75 12.5 -124.5t44.5 -85.5t88.5 -52.5t143.5 -16.5q162 0 240.5 117.5t111.5 357.5l90 652l-137 30l8 76h412l-8 -76l-150 -30l-88 -650q-17 -122 -42.5 -212t-68.5 -164.5t-104.5 -121t-148 -71.5 t-199.5 -25q-183 0 -277 96.5t-94 266.5q0 98 19 231l92 652z" />
<glyph unicode="V" horiz-adv-x="1024" d="M49 1251l8 76h430l-8 -76l-149 -30v-47l166 -922l409 934v35l-149 30l10 76h383l-10 -76l-105 -30l-559 -1239h-86l-231 1245z" />
<glyph unicode="W" horiz-adv-x="1515" d="M23 1251l8 76h432l-8 -76l-150 -30v-47l101 -947l364 828l-31 172l-110 24l8 76h432l-8 -76l-150 -30v-47l140 -947l366 959v35l-149 30l10 76h383l-10 -76l-105 -30l-512 -1237h-90l-141 897l-416 -897h-90l-164 1243z" />
<glyph unicode="X" horiz-adv-x="1064" d="M-104 0l10 76l114 28l435 562l-252 559l-111 26l8 76h463l-8 -76l-149 -30v-33l167 -379l301 389v25l-137 28l11 76h382l-10 -76l-98 -28l-404 -516l271 -607l119 -24l-7 -76h-450l6 76l131 30v48l-186 407l-334 -432l-2 -25l137 -28l-8 -76h-399z" />
<glyph unicode="Y" horiz-adv-x="983" d="M51 1251l8 76h437l-9 -76l-149 -30v-47l199 -574h22l293 586v35l-150 30l11 76h383l-11 -76l-104 -30l-399 -746l-52 -371l140 -28l-6 -76h-449l6 76l150 28l53 381l-262 742z" />
<glyph unicode="Z" horiz-adv-x="1003" d="M-18 90l811 1094l-25 45h-467l-84 -213h-90l45 311h795l53 -90l-825 -1120l10 -25h528l84 213h90l-41 -305h-850z" />
<glyph unicode="[" horiz-adv-x="458" d="M10 -309l246 1741h324l-13 -89l-184 -24l-215 -1516l178 -24l-57 -88h-279z" />
<glyph unicode="\" horiz-adv-x="614" d="M-141 1368l123 55l747 -1710l-127 -55z" />
<glyph unicode="]" horiz-adv-x="458" d="M-129 -309l12 88l183 24l215 1516l-177 24l13 89h323l-245 -1741h-324z" />
<glyph unicode="^" d="M92 537l488 792h127l292 -792h-151l-217 637l-389 -637h-150z" />
<glyph unicode="_" horiz-adv-x="921" d="M0 -2h922v-121h-922v121z" />
<glyph unicode="`" horiz-adv-x="413" d="M20 1395q0 76 86 106l285 -291l-53 -65l-207 133q-111 70 -111 117z" />
<glyph unicode="a" horiz-adv-x="1011" d="M82 307q0 65 15.5 154t52 193.5t87.5 192t131.5 146t174.5 58.5q105 0 233 -64l51 72h78l-145 -923h149v-81q-11 -7 -30.5 -17.5t-71 -28t-94.5 -17.5q-67 0 -91 27t-24 75q0 44 37 119l-6 4q-53 -96 -135.5 -165.5t-169.5 -69.5q-242 0 -242 325zM252 350 q0 -129 25 -188.5t96 -59.5q64 0 134 65t126 148l90 525q-131 88 -258 88q-50 0 -68 -25q-64 -89 -104.5 -240.5t-40.5 -312.5z" />
<glyph unicode="b" horiz-adv-x="962" d="M78 68l215 1216l-162 33v76l307 39v-148l-57 -362q-2 -19 -33 -60l4 -6q19 26 45.5 54t66.5 62.5t91 56.5t100 22q246 0 246 -320q0 -46 -7 -104.5t-23.5 -131t-40.5 -143t-62.5 -138t-85 -119t-111.5 -82.5t-139 -31q-46 0 -95 7.5t-75 14.5l-26 8zM258 160 q113 -58 242 -58q46 0 61.5 4.5t22.5 14.5q61 92 105 251t44 316q0 119 -31 170t-106 51q-62 0 -126.5 -38.5t-113.5 -82.5z" />
<glyph unicode="c" horiz-adv-x="768" d="M61 309q0 106 19 210.5t58.5 201t95 169.5t135.5 117t172 44q113 0 170 -42.5t57 -134.5q0 -32 -9.5 -60t-23 -46t-27 -31.5t-22.5 -19.5l-10 -6h-51l-17 200q-43 17 -133 17q-77 0 -113 -27q-11 -8 -40.5 -69t-61 -179t-31.5 -233q0 -125 21 -192.5t61.5 -92 t112.5 -24.5q41 0 91.5 22t80.5 44l31 22l43 -68q-5 -6 -14 -16t-40 -36t-66.5 -45.5t-91.5 -35.5t-116 -16q-146 0 -213.5 78.5t-67.5 248.5z" />
<glyph unicode="d" horiz-adv-x="1026" d="M82 307q0 80 19 176.5t59 197t94 183t132 135t165 52.5q108 0 215 -52l51 285l-162 33v76l303 39v-148l-184 -1148h150v-81q-11 -7 -29.5 -17.5t-69.5 -28t-94 -17.5q-62 0 -91.5 20.5t-29.5 71.5q0 48 39 127l-6 4q-58 -104 -140 -168.5t-177 -64.5q-124 0 -184 85 t-60 240zM250 350q0 -248 127 -248q67 0 136 60t126 141l98 539q-126 86 -268 86q-51 0 -72 -31q-61 -93 -104 -242t-43 -305z" />
<glyph unicode="e" horiz-adv-x="794" d="M82 299q0 94 18 194.5t56.5 201t93 179.5t134.5 128t173 49q106 0 161.5 -61.5t55.5 -137.5q0 -69 -15.5 -125t-35.5 -95t-64 -71.5t-76.5 -51t-98.5 -37.5t-105 -27.5t-119 -24.5q-7 -1 -10 -2q0 -6 -1 -16t-1 -13q0 -167 41 -226t157 -59q45 0 99.5 24t86.5 48l32 23 l38 -60q-5 -6 -14 -17t-40 -38t-65 -47.5t-88.5 -37.5t-111.5 -17q-161 0 -231 69t-70 248zM258 504q82 19 142 39t99 43.5t63.5 46t36.5 53t15.5 57.5t3.5 66q0 119 -126 119q-98 0 -117 -29q-42 -65 -72.5 -175.5t-44.5 -219.5z" />
<glyph unicode="f" horiz-adv-x="550" d="M70 -358l194 1280h-155v65l32 51h142q30 195 151 306.5t283 111.5q42 0 61 -16.5t19 -57.5q0 -24 -7.5 -45t-13.5 -29l-6 -8h-141q-41 0 -75.5 -7.5t-43.5 -16.5q-57 -57 -74 -170l-10 -68h209v-65l-33 -51h-192l-181 -1260z" />
<glyph unicode="g" horiz-adv-x="972" d="M-18 -154q0 32 9.5 60.5t23 47t27 32.5t22.5 20l10 6h67v-192q7 -7 20 -17t59 -26.5t99 -16.5q61 0 101 9t75.5 34t59 73t39.5 124l33 160q16 77 51 149l-6 4q-10 -27 -39.5 -66.5t-72 -81t-101 -70.5t-115.5 -29q-104 0 -169.5 76t-65.5 245q0 53 15 131t50 172 t84 173.5t126 133.5t167 54q128 0 246 -64l51 72h78l-170 -1026q-29 -172 -149.5 -272.5t-325.5 -100.5q-142 0 -220.5 47t-78.5 139zM276 408q0 -57 10 -99.5t23.5 -65t32 -35.5t31.5 -16.5t26 -3.5q30 0 68 18t71 44t61.5 52.5t45.5 44.5l17 18l81 475q-16 9 -43.5 22.5 t-99.5 35.5t-129 22q-26 0 -37 -3.5t-20 -15.5q-42 -53 -90 -203.5t-48 -289.5z" />
<glyph unicode="h" horiz-adv-x="1069" d="M104 0l220 1284l-162 33v76l303 39v-148l-59 -383q192 150 327 150q99 0 143 -51.5t44 -135.5q0 -32 -19 -162l-88 -566h154v-81q-11 -7 -29.5 -17.5t-69.5 -28t-94 -17.5q-65 0 -93 23.5t-28 80.5q0 13 4 45l97 582q10 50 10 88q0 51 -19.5 75.5t-78.5 24.5 q-72 0 -147.5 -31.5t-125.5 -64.5l-125 -815h-164z" />
<glyph unicode="i" horiz-adv-x="589" d="M117 924v75l309 39v-153l-127 -749h150v-81q-11 -7 -29.5 -17.5t-68.5 -28t-93 -17.5q-65 0 -93 23.5t-28 80.5q0 25 6 49l136 744zM262 1317q0 53 32 94t91 41q47 0 77 -30.5t30 -80.5q0 -52 -33 -91.5t-92 -39.5q-46 0 -75.5 31t-29.5 76z" />
<glyph unicode="j" horiz-adv-x="557" d="M-195 -268q0 24 7.5 45t13.5 29l6 8h141q41 0 75.5 7.5t43.5 16.5q57 57 74 170l139 893l-162 35v76l310 39v-148l-123 -827q-31 -205 -154.5 -311.5t-290.5 -106.5q-42 0 -61 16.5t-19 57.5zM268 1300q0 53 32 94.5t91 41.5q47 0 77 -30.5t30 -80.5q0 -52 -33 -91.5 t-92 -39.5q-46 0 -75.5 30.5t-29.5 75.5z" />
<glyph unicode="k" horiz-adv-x="968" d="M88 0l219 1284l-162 33v76l304 39v-148l-60 -381q199 148 322 148q97 0 152 -52.5t55 -142.5q0 -41 -12 -81t-29 -71t-48 -65.5t-54.5 -56.5t-63.5 -52t-61.5 -44t-61.5 -40l149 -310h174v-81q-7 -7 -21.5 -17.5t-63.5 -28t-105 -17.5q-55 0 -85 21t-52 73l-148 334v41 q122 69 221 170t99 186q0 94 -109 94q-115 0 -272 -96l-125 -815h-162z" />
<glyph unicode="l" horiz-adv-x="555" d="M123 96q0 13 4 45l199 1143l-162 33v76l301 39v-148l-180 -1148h149v-81q-10 -7 -27 -17.5t-64.5 -28t-90.5 -17.5q-66 0 -97.5 24t-31.5 80z" />
<glyph unicode="m" horiz-adv-x="1605" d="M117 0l170 889l-160 35v75l307 39v-139q8 6 21 16.5t53.5 36.5t79 46t89.5 36.5t93 16.5q90 0 131 -45t43 -113q209 158 346 158q92 0 135 -45.5t43 -114.5q0 -15 -20 -152l-100 -603h149v-81q-11 -7 -29.5 -17.5t-69 -28t-93.5 -17.5q-66 0 -95.5 24t-29.5 80q0 13 4 45 l104 564q12 71 12 118q0 88 -88 88q-69 0 -145 -32t-129 -66q-7 -48 -10 -74l-119 -739h-166l123 705q10 59 10 118q0 88 -84 88q-56 0 -124 -24.5t-108 -48.5l-40 -25l-127 -813h-176z" />
<glyph unicode="n" horiz-adv-x="1091" d="M117 0l162 889l-162 35v75l309 39v-139q25 20 56.5 41t79 48.5t100 45t96.5 17.5q99 0 142.5 -51t43.5 -136q0 -39 -18 -162l-97 -566h154v-81q-11 -7 -29 -17.5t-68 -28t-93 -17.5q-65 0 -94 24t-29 80q0 13 4 45l104 582q10 50 10 94q0 48 -21.5 71t-80.5 23 q-122 0 -274 -100l-127 -811h-168z" />
<glyph unicode="o" horiz-adv-x="937" d="M82 324q0 206 58.5 370t172.5 260.5t267 96.5q276 0 276 -346q0 -207 -56.5 -369t-169 -258t-265.5 -96q-139 0 -211 88.5t-72 253.5zM250 408q0 -184 38 -245t154 -61q102 0 133 29t72 182t41 310q0 179 -38 242t-152 63q-37 0 -74.5 -9.5t-56.5 -27.5 q-32 -30 -74.5 -178.5t-42.5 -304.5z" />
<glyph unicode="p" horiz-adv-x="1003" d="M31 -358l225 1247l-162 33v75l299 39v-118q0 -34 -24 -62l4 -6q6 9 22.5 28t49 50t68.5 57.5t83 46t90 19.5q246 0 246 -308q0 -65 -15 -154t-51 -193.5t-86.5 -191.5t-130 -145.5t-172.5 -58.5q-92 0 -219 31l-57 -369zM285 197q112 -82 227 -82q31 0 64 6.5t40 15.5 q46 56 97 233t51 330q0 107 -30 158t-103 51q-103 0 -254 -123z" />
<glyph unicode="q" horiz-adv-x="958" d="M74 307q0 80 19 176.5t59 197t94 183t132 135t165 52.5q115 0 231 -60l60 82h73l-221 -1411l-168 -20l78 440q12 72 51 143l-6 2q-57 -108 -141 -176.5t-183 -68.5q-124 0 -183.5 85t-59.5 240zM242 350q0 -248 127 -248q47 0 101 35.5t92 78t71 91.5l90 539 q-122 82 -262 82q-51 0 -72 -31q-61 -93 -104 -242t-43 -305z" />
<glyph unicode="r" horiz-adv-x="649" d="M117 924v75l309 39v-102q0 -52 -20 -92h8q31 74 104 140.5t152 66.5q73 0 73 -86q0 -60 -30 -95h-86q-150 0 -224 -102l-116 -768h-166l158 889z" />
<glyph unicode="s" horiz-adv-x="819" d="M33 168q0 27 9.5 53t22.5 43.5t27 31.5t23 21t10 7h51l17 -201q51 -35 153 -35q64 0 106 12.5t63 37.5t28.5 53t7.5 67q0 44 -31 85t-77 72.5t-100 70.5t-100 77.5t-77 95t-31 121.5q0 44 25 91t69 87.5t113 66.5t147 26q129 0 201 -48t72 -131q0 -30 -9.5 -55.5 t-23 -41.5t-27 -27.5t-22.5 -15.5l-10 -5h-52l-16 188q-53 23 -121 23q-111 0 -156.5 -28.5t-45.5 -90.5q0 -37 23 -72.5t60 -65t81.5 -59.5t89.5 -64.5t82 -72t60 -88.5t23 -108q0 -37 -14 -78t-44.5 -82t-73 -73.5t-105.5 -53t-135 -20.5q-140 0 -216.5 41.5t-76.5 144.5z " />
<glyph unicode="t" horiz-adv-x="641" d="M102 922l17 116h180l39 209l145 23l-39 -232h250l-16 -116h-252l-119 -786h271v-81q-17 -7 -45 -17.5t-100.5 -28t-127.5 -17.5q-88 0 -123 30.5t-35 102.5q0 12 11 92l118 705h-174z" />
<glyph unicode="u" horiz-adv-x="1071" d="M100 924v75l310 39v-141l-91 -578q-10 -73 -10 -102q0 -45 18 -67.5t62 -22.5q112 0 287 168l127 731l160 25l-158 -915h153v-81q-11 -7 -29.5 -17.5t-69 -28t-93.5 -17.5q-64 0 -92.5 23.5t-28.5 78.5q0 50 49 117l-6 4q-20 -24 -41 -47.5t-61 -58t-81 -59.5t-96 -43.5 t-110 -18.5q-75 0 -115.5 38.5t-40.5 131.5q0 74 15 147l104 584z" />
<glyph unicode="v" horiz-adv-x="821" d="M-10 930v76l311 28l43 -755v-136h12q274 388 344 742l-141 96l39 74q66 0 125 -12.5t99 -39.5t40 -63q0 -73 -58.5 -220.5t-180 -348t-271.5 -371.5l-153 -12v227l-56 676z" />
<glyph unicode="w" horiz-adv-x="1300" d="M-16 930v76l301 32l47 -759v-127h18q88 141 123.5 200t86.5 155.5t77 168.5l-31 344q51 14 113 14q64 0 89.5 -27.5t25.5 -76.5q0 -83 -48 -201l31 -450v-127h19q299 423 344 729l-148 100l39 74q60 0 118.5 -12.5t102 -39.5t43.5 -63q0 -130 -142.5 -411.5 t-361.5 -530.5l-153 -12v229l-25 258q-118 -239 -307 -475l-153 -12v229l-56 676z" />
<glyph unicode="x" horiz-adv-x="768" d="M-106 70q0 18 6 34.5t12 23.5l6 8h92q37 0 56 15t59 74l194 289l-120 391l-162 35v76l285 35l110 -394l154 250q88 144 209 144q84 0 84 -76q0 -18 -6.5 -37t-12.5 -29l-6 -10h-78q-46 0 -73 -17t-62 -69l-174 -262l131 -415h186v-81q-10 -7 -28 -17.5t-67.5 -28 t-92.5 -17.5q-66 0 -98.5 25t-53.5 94l-90 292l-174 -284q-48 -78 -96.5 -106.5t-103.5 -28.5q-41 0 -63.5 24t-22.5 62z" />
<glyph unicode="y" horiz-adv-x="839" d="M-129 -295l4 84h205l133 193v233l-61 676l-154 39v76l309 32l49 -755v-127h13q143 201 229 370t125 355l-148 100l39 74q100 0 178 -30t78 -83q0 -59 -33 -158t-95 -225t-167 -281t-233 -303l-109 -186q-43 -75 -85 -106t-111 -31q-99 0 -166 53z" />
<glyph unicode="z" horiz-adv-x="808" d="M-37 37l606 778v19l-309 112l-55 -194h-68q-5 7 -12.5 19.5t-20 53.5t-12.5 84q0 74 44.5 108t117.5 34q70 0 217 -35l217 -51l115 82l53 -41l-612 -799v-23l334 -98l55 195h67q5 -7 12.5 -20t20 -54t12.5 -84q0 -73 -48.5 -107t-123.5 -34q-20 0 -39 1.5t-41.5 5t-37 6 t-44.5 8.5t-46 9l-242 45l-103 -71z" />
<glyph unicode="{" horiz-adv-x="423" d="M27 -37q0 24 12 78l121 451l-107 49v75l131 56v424q0 125 90 218.5t218 117.5l26 -84q-95 -47 -129 -88t-47 -134l-25 -409q-6 -38 -23.5 -67t-40.5 -43t-36 -19.5t-22 -7.5q88 -29 88 -113q0 -21 -4 -37l-95 -434q-6 -25 -6 -66q0 -54 24.5 -83.5t90.5 -69.5l-45 -86 q-102 32 -161.5 101t-59.5 171z" />
<glyph unicode="|" horiz-adv-x="739" d="M307 -319v1751h123v-1751h-123z" />
<glyph unicode="}" horiz-adv-x="423" d="M-92 -225q95 47 129 88t47 133l25 410q5 38 22.5 67t40 43t36.5 19.5t23 7.5q-8 1 -20 6.5t-28.5 17t-28 34.5t-11.5 54q0 21 4 37l95 434q6 25 6 66q0 54 -24.5 84t-90.5 70l45 86q101 -32 161 -101.5t60 -171.5q0 -24 -12 -78l-121 -450l107 -49v-76l-131 -55v-424 q0 -125 -90 -218.5t-218 -117.5z" />
<glyph unicode="~" d="M152 528l71 95q48 63 121 63q45 0 186 -29l207 -47l156 72l41 -57l-74 -97q-47 -59 -125 -59q-65 0 -180 27l-207 47l-153 -68z" />
<glyph unicode="&#xa1;" horiz-adv-x="411" d="M-2 -262q0 53 31 172q27 103 188 811h90l-112 -1038q-31 -21 -107 -21q-90 0 -90 76zM184 918q0 61 38.5 107t101.5 46q42 0 69 -27t27 -69q0 -61 -39 -107.5t-98 -46.5q-43 0 -71 27t-28 70z" />
<glyph unicode="&#xa2;" horiz-adv-x="860" d="M78 309q0 120 33 246.5t90 235.5t144 188t187 100l62 246l96 -16l-24 -226q163 -18 163 -172q0 -32 -9.5 -60t-23 -46t-27 -31.5t-23.5 -19.5l-9 -6h-51l-16 200q-43 17 -133 17q-77 0 -113 -27q-5 -4 -23.5 -32.5t-45 -81t-51 -114t-41.5 -140t-17 -150.5 q0 -126 18 -192.5t56 -91.5t110 -25q41 0 94 20.5t86 40.5l33 21l43 -68q-4 -4 -12 -11.5t-35 -27.5t-55.5 -36.5t-71.5 -34t-86 -25.5l-57 -236l-97 17l23 215q-116 12 -166.5 89t-50.5 234z" />
<glyph unicode="&#xa3;" horiz-adv-x="1024" d="M76 61q47 32 104.5 114t69.5 181l14 123h-125l15 117h125l12 98q27 217 112 305t250 88q69 0 136 -12.5t99 -24.5l32 -12l-33 -270h-101l-12 184q-57 27 -129 27q-47 0 -79.5 -13.5t-52 -36t-31.5 -59.5t-18 -74.5t-12 -91.5q-1 -8 -1 -12l-13 -96h232l-15 -117h-233 l-14 -123q-4 -34 -7.5 -54t-14 -46t-26.5 -43l12 -3t30 -7t57.5 -13.5l106.5 -25.5t163 -39l164 76l47 -54l-76 -94q-52 -65 -112 -65q-78 0 -142 20l-323 76q-10 -10 -27.5 -25t-60 -40t-72.5 -25q-25 0 -38 21.5t-13 45.5z" />
<glyph unicode="&#xa4;" d="M29 129l178 186q-86 114 -86 256q0 137 82 250l-174 183l75 75l185 -176q111 80 243 80q142 0 254 -88l195 184l76 -75l-189 -197q76 -107 76 -236q0 -132 -80 -243l193 -199l-76 -76l-199 191q-111 -84 -250 -84q-133 0 -239 73l-189 -180zM268 571q0 -106 79 -184 t185 -78t185.5 78.5t79.5 183.5q0 106 -79.5 185.5t-185.5 79.5t-185 -79.5t-79 -185.5z" />
<glyph unicode="&#xa5;" horiz-adv-x="1126" d="M55 274l13 109h362l-55 131h-289l12 107h232l-135 321l-125 37l10 84h432l-10 -84l-96 -33l-5 -37l150 -403h18l281 403l4 37l-96 33l10 84h371l-11 -84l-127 -33l-235 -325h240l-13 -105h-303l-78 -108l-4 -25h367l-12 -109h-367l-18 -153l163 -31l-10 -90h-514l10 90 l172 31l19 153h-363z" />
<glyph unicode="&#xa6;" horiz-adv-x="739" d="M307 -319v747h123v-747h-123zM307 684v748h123v-748h-123z" />
<glyph unicode="&#xa7;" horiz-adv-x="1128" d="M94 -242l39 314h111l12 -219q15 -14 37 -28t70.5 -30t99.5 -16q266 0 266 217q0 25 -8 49.5t-27 49.5t-35.5 44t-50.5 46.5t-53.5 42t-62.5 45.5t-60 44l-280 207l104 127l328 -227q164 -113 240.5 -200.5t76.5 -192.5q0 -71 -26 -132.5t-70 -104.5t-101.5 -74 t-121 -45.5t-127.5 -14.5q-105 0 -211.5 32t-149.5 66zM252 1059q0 168 116.5 267t323.5 99q93 0 187 -16.5t133 -34.5l-37 -301h-101l-16 193q-69 26 -194 26q-118 0 -175 -43t-57 -153q0 -20 5.5 -39t13 -34.5t26 -35.5t32 -34t43.5 -38.5t49.5 -39.5t61 -46.5t66.5 -50.5 l279 -217l-103 -127l-262 193q-31 23 -83 59t-82.5 57.5t-71 53.5t-64 58.5t-47 59.5t-33.5 68.5t-10 75.5z" />
<glyph unicode="&#xa8;" horiz-adv-x="622" d="M10 1305q0 53 33.5 97t93.5 44q42 0 68 -26t26 -70q0 -50 -36.5 -91.5t-94.5 -41.5q-40 0 -65 25t-25 63zM391 1305q0 53 34.5 97t94.5 44q42 0 67 -26t25 -70q0 -50 -35.5 -91.5t-93.5 -41.5q-41 0 -66.5 25.5t-25.5 62.5z" />
<glyph unicode="&#xa9;" horiz-adv-x="1243" d="M12 522q0 159 78.5 294t213.5 213.5t294 78.5t294 -78.5t213.5 -213.5t78.5 -294t-78.5 -294t-213.5 -213t-294 -78t-294 78t-213.5 213t-78.5 294zM141 520q0 -130 58.5 -238.5t164 -172.5t234.5 -64q195 0 329 138.5t134 336.5t-134 336.5t-329 138.5 q-129 0 -234.5 -64t-164 -172.5t-58.5 -238.5zM268 518q0 147 91.5 249.5t244.5 102.5q146 0 221 -30v-193h-67l-21 107q-41 12 -121 12q-110 0 -156 -52t-46 -198q0 -131 50.5 -185.5t153.5 -54.5q46 0 78.5 6t41.5 12l10 7l20 109h63v-191q-103 -45 -243 -45 q-320 0 -320 344z" />
<glyph unicode="&#xaa;" horiz-adv-x="704" d="M43 950q0 45 9 103.5t32.5 129t57 128.5t89 97.5t123.5 39.5q60 0 160 -43l35 49h76l-95 -596h101v-78q-83 -47 -146 -47q-49 0 -71.5 19.5t-22.5 50.5q0 32 29 80l-6 4q-39 -65 -95 -112.5t-114 -47.5q-162 0 -162 223zM176 975q0 -56 19 -90.5t57 -34.5q70 0 170 127 l53 307q-39 24 -70 34.5t-77 10.5q-17 0 -46 -3t-32 -7q-31 -39 -52.5 -141t-21.5 -203z" />
<glyph unicode="&#xab;" horiz-adv-x="729" d="M53 502q0 10 42 57.5t75 79.5l203 195l43 -33l-195 -301l137 -307l-57 -41l-164 213q-6 8 -23.5 32.5t-28.5 41.5t-21.5 35.5t-10.5 27.5zM367 502q0 10 41.5 58t74.5 79l203 195l43 -33l-194 -301l137 -307l-58 -41l-163 213q-6 8 -23.5 32.5t-28.5 41.5t-21.5 35.5 t-10.5 27.5z" />
<glyph unicode="&#xac;" d="M82 623v122h864v-495h-108v373h-756z" />
<glyph unicode="&#xad;" horiz-adv-x="641" d="M84 485l22 125h441l-23 -125h-440z" />
<glyph unicode="&#xae;" horiz-adv-x="1331" d="M188 1030q0 114 44.5 217.5t119.5 178.5t178.5 119t217.5 44t217.5 -44t178.5 -119t119 -178.5t44 -217.5t-44 -217.5t-119 -178.5t-178.5 -119t-217.5 -44t-217.5 44t-178.5 119t-119.5 178.5t-44.5 217.5zM307 1030q0 -124 57 -227.5t158.5 -164t225.5 -60.5 q186 0 313 131.5t127 320.5t-127 321t-313 132q-124 0 -225.5 -61t-158.5 -164.5t-57 -227.5zM455 733v49l75 15v460l-75 13v57h327q82 0 137.5 -39t55.5 -112q0 -148 -129 -189l127 -184l74 -19v-51h-146q-35 0 -49 27l-133 207h-57v-170l75 -15v-49h-282zM662 1034h57 q117 0 117 131q0 55 -25.5 73.5t-79.5 18.5q-17 0 -34.5 -1.5t-26.5 -3.5l-8 -1v-217z" />
<glyph unicode="&#xaf;" horiz-adv-x="638" d="M20 1257l17 129h577l-16 -129h-578z" />
<glyph unicode="&#xb0;" horiz-adv-x="487" d="M43 1151q0 88 63.5 151.5t151.5 63.5q78 0 129 -51.5t51 -128.5q0 -89 -63.5 -152t-151.5 -63q-79 0 -129.5 51.5t-50.5 128.5zM133 1157q0 -42 28 -70t70 -28q50 0 83.5 34.5t33.5 84.5q0 41 -27.5 68.5t-70.5 27.5q-47 0 -82 -34t-35 -83z" />
<glyph unicode="&#xb1;" d="M57 47l13 121h819l-12 -121h-820zM133 623l12 120h340l43 349h138l-43 -349h342l-13 -120h-342l-43 -351h-137l43 351h-340z" />
<glyph unicode="&#xb2;" horiz-adv-x="634" d="M4 817l262 225q82 72 113 110t31 83q0 106 -129 106q-39 0 -80.5 -17.5t-63.5 -34.5l-22 -17l-45 43q4 5 10.5 14t32 32t54.5 40.5t77.5 32t101.5 14.5q97 0 159 -47t62 -139q0 -81 -46 -141t-179 -156l-149 -109v-8h253l41 102h80l-30 -211h-502z" />
<glyph unicode="&#xb3;" horiz-adv-x="593" d="M29 791l39 55q51 -31 104 -31q197 0 197 133q0 35 -12.5 57t-37.5 31.5t-47.5 12t-58.5 2.5l-12 36v48q99 16 149.5 46t50.5 83q0 37 -24.5 57t-89.5 20q-36 0 -70.5 -10.5t-50.5 -21.5l-16 -11l-44 48q3 4 9 11t27 24.5t46 31t65.5 24.5t84.5 11q87 0 145 -43t58 -113 q0 -32 -14 -60.5t-33.5 -47.5t-46 -35t-47 -24.5t-40.5 -14.5v-8q23 -3 37.5 -5.5t40.5 -11.5t41.5 -23t28 -40t12.5 -61q0 -105 -83.5 -169.5t-227.5 -64.5q-57 0 -102 16t-61 32z" />
<glyph unicode="&#xb4;" horiz-adv-x="413" d="M20 1210l285 291q86 -30 86 -106q0 -48 -110 -117l-207 -133z" />
<glyph unicode="&#xb5;" horiz-adv-x="1071" d="M92 -186q0 60 2.5 112t10 107t12 84.5t17 96t16.5 91.5l100 584v133l149 25h23l-113 -728q-1 -8 -5 -29t-6.5 -41t-2.5 -42q0 -27 9.5 -44.5t27 -24.5t32 -9t35.5 -2q48 0 105.5 31.5t93 63.5t68.5 67l127 737l159 25l-157 -916h153v-80q-11 -7 -29.5 -17.5t-69 -28 t-93.5 -17.5q-64 0 -92.5 23.5t-28.5 78.5q0 50 49 117l-6 4q-22 -29 -37 -48t-53.5 -57t-74.5 -61t-91 -42t-113 -19q-64 0 -116 49l-3 -8l17 -17q0 -168 80 -288q-12 -19 -45 -38.5t-72 -19.5q-26 0 -42.5 12t-23.5 35.5t-9.5 45.5t-2.5 55z" />
<glyph unicode="&#xb6;" horiz-adv-x="1234" d="M215 807q0 136 73.5 257t194.5 192t256 71l-129 -926q-169 6 -282 121t-113 285zM227 -338l11 92l290 35q100 12 136.5 47t48.5 121l188 1370h322l-11 -84l-163 -29l-185 -1300q-6 -44 -29.5 -87t-63 -81t-101.5 -61t-138 -23h-305z" />
<glyph unicode="&#xb7;" horiz-adv-x="391" d="M80 506q0 61 39 107t98 46q45 0 72.5 -27.5t27.5 -70.5q0 -61 -37.5 -107t-101.5 -46q-43 0 -70.5 27.5t-27.5 70.5z" />
<glyph unicode="&#xb8;" horiz-adv-x="407" d="M0 -324l41 60q18 -11 30 -17t36.5 -11t56.5 -5q90 0 90 47q0 27 -47 53l-107 56v41l74 100h84v-59l70 -43q65 -40 65 -99q0 -44 -14 -77.5t-35.5 -53t-52.5 -31.5t-59 -16t-60 -4q-96 0 -172 59z" />
<glyph unicode="&#xb9;" horiz-adv-x="614" d="M35 739l8 74l193 27l71 491h-194l12 84l227 21h113l-88 -598l180 -29l-8 -70h-514z" />
<glyph unicode="&#xba;" horiz-adv-x="675" d="M51 991q0 122 42.5 225.5t124 167.5t183.5 64q99 0 161.5 -66t62.5 -194q0 -125 -37.5 -228.5t-114 -168t-178.5 -64.5t-173 67.5t-71 196.5zM190 1034q0 -196 142 -196q88 0 104 16q14 15 31.5 109.5t17.5 177.5q0 190 -137 190q-89 0 -102 -16q-14 -16 -35 -109 t-21 -172z" />
<glyph unicode="&#xbb;" horiz-adv-x="729" d="M0 184l195 301l-138 308l58 41l164 -213q5 -7 18 -25.5t22.5 -32.5t20 -30.5t16.5 -29.5t6 -20q0 -10 -41.5 -58t-74.5 -79l-203 -194zM313 184l195 301l-137 308l57 41l164 -213q5 -8 23 -33t29 -41.5t21.5 -35.5t10.5 -28q0 -10 -42 -57.5t-75 -79.5l-203 -194z" />
<glyph unicode="&#xbc;" horiz-adv-x="1576" d="M35 637l8 74l193 26l71 492h-194l12 84l227 20h113l-88 -598l180 -28l-8 -70h-514zM217 -23l997 1438l97 -65l-992 -1440zM856 285l453 442l86 -35l-58 -393h123l-16 -100h-121l-35 -211h-139l31 211h-295zM997 309l4 -10h195l41 252z" />
<glyph unicode="&#xbd;" horiz-adv-x="1576" d="M35 637l8 74l193 26l71 492h-194l12 84l227 20h113l-88 -598l180 -28l-8 -70h-514zM217 -23l997 1438l97 -65l-992 -1440zM883 80l262 225q81 71 112 109t31 84q0 106 -129 106q-39 0 -80.5 -17t-63.5 -35l-22 -17l-45 43q4 5 11 14t32 32t54.5 40.5t78 32t101.5 14.5 q97 0 159 -47.5t62 -139.5q0 -81 -46 -141t-179 -156l-150 -108v-8h254l41 102h80l-31 -211h-502z" />
<glyph unicode="&#xbe;" horiz-adv-x="1576" d="M111 688l39 55q51 -30 104 -30q197 0 197 133q0 28 -9.5 48t-22.5 30.5t-36 16t-41 6.5t-47 1l-12 37v47q99 16 149.5 46t50.5 83q0 38 -25 58t-89 20q-36 0 -70.5 -10.5t-50.5 -21.5l-17 -11l-43 47q3 4 9 11t27 25t46 31.5t65.5 24.5t84.5 11q87 0 145 -43t58 -113 q0 -32 -14 -60.5t-33.5 -47.5t-46 -35t-47 -24.5t-40.5 -14.5v-9q23 -3 37.5 -5.5t40.5 -11.5t41.5 -23t28 -40t12.5 -61q0 -104 -83.5 -168.5t-227.5 -64.5q-36 0 -68 6.5t-51.5 15.5t-34 18.5t-20.5 16.5zM256 -23l997 1438l97 -65l-992 -1440zM856 285l453 442l86 -35 l-58 -393h123l-16 -100h-121l-35 -211h-139l31 211h-295zM997 309l4 -10h195l41 252z" />
<glyph unicode="&#xbf;" horiz-adv-x="739" d="M59 53q0 290 289 391l101 35l63 240h106l-26 -305l-139 -47q-78 -27 -127 -53.5t-75.5 -58.5t-36 -66t-9.5 -83q0 -127 67 -194.5t193 -67.5q111 0 188 21q3 -1 8.5 -5t14 -20t8.5 -39q0 -57 -55.5 -83.5t-171.5 -26.5q-195 0 -296.5 96t-101.5 266zM479 934 q0 53 31.5 93t85.5 40h14q45 -4 72 -35.5t27 -79.5q0 -54 -34 -93.5t-87 -39.5q-50 0 -79.5 31.5t-29.5 83.5z" />
<glyph unicode="&#xc0;" horiz-adv-x="1044" d="M-117 0l11 76l112 30l563 1231h86l232 -1237l119 -24l-7 -76h-432l6 76l144 30v48l-41 227h-432l-109 -240v-35l139 -30l-8 -76h-383zM297 498h356l-102 569zM393 1610q0 30 19 58.5t51 43.5l344 -246l-45 -71l-266 110q-53 22 -78 45.5t-25 59.5z" />
<glyph unicode="&#xc1;" horiz-adv-x="1044" d="M-117 0l11 76l112 30l563 1231h86l232 -1237l119 -24l-7 -76h-432l6 76l144 30v48l-41 227h-432l-109 -240v-35l139 -30l-8 -76h-383zM297 498h356l-102 569zM422 1466l344 246q32 -15 51 -43.5t19 -58.5q0 -36 -25 -59.5t-78 -45.5l-266 -110z" />
<glyph unicode="&#xc2;" horiz-adv-x="1044" d="M-117 0l11 76l112 30l563 1231h86l232 -1237l119 -24l-7 -76h-432l6 76l144 30v48l-41 227h-432l-109 -240v-35l139 -30l-8 -76h-383zM297 498h356l-102 569zM346 1491l146 108q29 21 58 43.5t41.5 32.5t25.5 19t19 11.5t11 2.5q9 -1 35 -20.5t61 -48.5t37 -31l123 -113 l-67 -84l-218 137l-221 -125z" />
<glyph unicode="&#xc3;" horiz-adv-x="1044" d="M-117 0l11 76l112 30l563 1231h86l232 -1237l119 -24l-7 -76h-432l6 76l144 30v48l-41 227h-432l-109 -240v-35l139 -30l-8 -76h-383zM264 1507l76 99q56 69 113 69q39 0 155 -41l135 -47l164 76l47 -53l-75 -99q-56 -69 -113 -69q-44 0 -156 41l-135 47l-164 -76z M297 498h356l-102 569z" />
<glyph unicode="&#xc4;" horiz-adv-x="1044" d="M-117 0l11 76l112 30l563 1231h86l232 -1237l119 -24l-7 -76h-432l6 76l144 30v48l-41 227h-432l-109 -240v-35l139 -30l-8 -76h-383zM297 498h356l-102 569zM305 1554q0 51 31.5 87t81.5 36q47 0 75.5 -29.5t28.5 -80.5q0 -54 -30 -90.5t-82 -36.5q-47 0 -76 31.5 t-29 82.5zM737 1554q0 51 31.5 87t81.5 36q47 0 75.5 -29.5t28.5 -80.5q0 -54 -30 -90.5t-82 -36.5q-47 0 -76 31.5t-29 82.5z" />
<glyph unicode="&#xc5;" horiz-adv-x="1044" d="M-117 0l11 76l112 30l563 1231h86l232 -1237l119 -24l-7 -76h-432l6 76l144 30v48l-41 227h-432l-109 -240v-35l139 -30l-8 -76h-383zM297 498h356l-102 569zM457 1493q0 86 53.5 147.5t144.5 61.5q82 0 125 -35.5t43 -99.5q0 -87 -53.5 -149t-144.5 -62 q-81 0 -124.5 36.5t-43.5 100.5zM561 1511q0 -36 18.5 -50.5t63.5 -14.5q74 0 74 104q0 34 -19 48t-61 14q-41 0 -58.5 -25t-17.5 -76z" />
<glyph unicode="&#xc6;" horiz-adv-x="1415" d="M-207 0l10 76l113 30l817 1221h723l-43 -319h-100v225h-207l-164 -10l-80 -559h268l44 120h73l-43 -331h-74l-10 120h-270l-68 -469q74 -12 191 -12h209l78 219h86l-39 -311h-838l8 76l146 28l65 469h-334l-293 -432v-35l140 -30l-8 -76h-400zM410 664h290l82 557h-8z " />
<glyph unicode="&#xc7;" horiz-adv-x="1089" d="M90 500q0 242 87 437.5t238.5 305t336.5 109.5q167 0 323 -41l-45 -301h-86l-14 196q-32 15 -90 28t-115 13q-214 0 -331.5 -185t-117.5 -515q0 -242 73.5 -353.5t244.5 -111.5q41 0 79.5 6.5t64 15t45.5 17.5t29 15l9 7l64 199h86l-29 -279q-163 -79 -350 -86v-36 l70 -43q65 -40 65 -99q0 -44 -14 -77.5t-35.5 -53t-52.5 -31.5t-59 -16t-60 -4q-96 0 -172 59l41 60q18 -11 30 -17t36.5 -11t56.5 -5q90 0 90 47q0 27 -47 53l-107 56v41l60 80q-111 9 -190 49.5t-125.5 110t-67.5 158t-21 202.5z" />
<glyph unicode="&#xc8;" horiz-adv-x="1038" d="M33 0l8 76l145 28l158 1119l-139 28l8 76h807l-43 -319h-100v225h-207l-164 -10l-70 -490h269l43 121h73l-43 -332h-73l-11 121h-270l-76 -539q72 -12 189 -12h208l78 219h86l-39 -311h-837zM401 1610q0 30 19 58.5t51 43.5l344 -246l-45 -71l-266 110q-53 22 -78 45.5 t-25 59.5z" />
<glyph unicode="&#xc9;" horiz-adv-x="1038" d="M33 0l8 76l145 28l158 1119l-139 28l8 76h807l-43 -319h-100v225h-207l-164 -10l-70 -490h269l43 121h73l-43 -332h-73l-11 121h-270l-76 -539q72 -12 189 -12h208l78 219h86l-39 -311h-837zM465 1466l344 246q32 -15 51 -43.5t19 -58.5q0 -36 -25 -59.5t-78 -45.5 l-266 -110z" />
<glyph unicode="&#xca;" horiz-adv-x="1038" d="M33 0l8 76l145 28l158 1119l-139 28l8 76h807l-43 -319h-100v225h-207l-164 -10l-70 -490h269l43 121h73l-43 -332h-73l-11 121h-270l-76 -539q72 -12 189 -12h208l78 219h86l-39 -311h-837zM393 1491l146 108q29 21 58 43.5t41.5 32.5t25.5 19t19 11.5t11 2.5 q9 -1 35 -20.5t61 -48.5t37 -31l123 -113l-67 -84l-217 137l-222 -125z" />
<glyph unicode="&#xcb;" horiz-adv-x="1038" d="M33 0l8 76l145 28l158 1119l-139 28l8 76h807l-43 -319h-100v225h-207l-164 -10l-70 -490h269l43 121h73l-43 -332h-73l-11 121h-270l-76 -539q72 -12 189 -12h208l78 219h86l-39 -311h-837zM346 1534q0 51 31.5 87t81.5 36q47 0 75.5 -30t28.5 -81q0 -54 -30 -90.5 t-82 -36.5q-47 0 -76 32t-29 83zM778 1534q0 51 31.5 87t81.5 36q47 0 75.5 -30t28.5 -81q0 -54 -30 -90.5t-82 -36.5q-47 0 -76 32t-29 83z" />
<glyph unicode="&#xcc;" horiz-adv-x="669" d="M31 0l8 76l145 28l158 1119l-139 28l8 76h446l-8 -76l-145 -28l-158 -1119l139 -28l-6 -76h-448zM219 1610q0 30 19 58.5t51 43.5l344 -246l-45 -71l-266 110q-53 22 -78 45.5t-25 59.5z" />
<glyph unicode="&#xcd;" horiz-adv-x="669" d="M31 0l8 76l145 28l158 1119l-139 28l8 76h446l-8 -76l-145 -28l-158 -1119l139 -28l-6 -76h-448zM272 1466l344 246q32 -15 51 -43.5t19 -58.5q0 -36 -24.5 -59.5t-77.5 -45.5l-267 -110z" />
<glyph unicode="&#xce;" horiz-adv-x="641" d="M2 0l8 76l146 28l157 1119l-139 28l8 76h447l-8 -76l-146 -28l-158 -1119l140 -28l-6 -76h-449zM139 1491l146 108q29 21 58 43.5t41.5 32.5t25.5 19t19 11.5t11 2.5q9 -1 35 -20.5t61 -48.5t37 -31l123 -113l-67 -84l-217 137l-222 -125z" />
<glyph unicode="&#xcf;" horiz-adv-x="669" d="M31 0l8 76l145 28l158 1119l-139 28l8 76h446l-8 -76l-145 -28l-158 -1119l139 -28l-6 -76h-448zM160 1534q0 51 31 87t81 36q47 0 76 -30t29 -81q0 -53 -30.5 -90t-82.5 -37q-47 0 -75.5 32t-28.5 83zM551 1534q0 51 31.5 87t81.5 36q47 0 75.5 -30t28.5 -81 q0 -53 -30.5 -90t-82.5 -37q-47 0 -75.5 32t-28.5 83z" />
<glyph unicode="&#xd0;" horiz-adv-x="1306" d="M31 0l8 76l145 28l74 533h-176l16 106h176l68 480l-139 28l8 76h473q246 0 388 -126t142 -370q0 -121 -26 -237.5t-84.5 -224.5t-142.5 -189.5t-209.5 -130.5t-276.5 -49h-444zM346 104q88 -12 156 -12q250 0 388.5 182.5t143.5 497.5q0 113 -20.5 195t-67 143t-126 91 t-193.5 30q-42 0 -72.5 -2t-40.5 -4l-10 -2l-68 -480h297l-16 -106h-297z" />
<glyph unicode="&#xd1;" horiz-adv-x="1339" d="M31 0l8 76l145 28l158 1119l-139 28l8 76h297l432 -1079h10l137 975l-139 28l6 76h396l-9 -76l-145 -28l-172 -1223h-158l-428 1063h-10l-135 -959l139 -28l-6 -76h-395zM489 1507l76 99q56 69 113 69q40 0 156 -41l135 -47l164 76l47 -53l-76 -99q-56 -69 -113 -69 q-43 0 -155 41l-136 47l-163 -76z" />
<glyph unicode="&#xd2;" horiz-adv-x="1331" d="M90 508q0 133 27.5 257t83.5 230.5t134 186t185.5 125t231.5 45.5q239 0 364 -138t125 -391q0 -131 -25 -253t-79.5 -230.5t-132.5 -188.5t-191.5 -127t-249.5 -47q-227 0 -350 140.5t-123 390.5zM276 559q0 -255 75.5 -366t269.5 -111q434 0 434 721q0 237 -78.5 340.5 t-267.5 103.5q-112 0 -196 -49.5t-135.5 -142t-76.5 -216.5t-25 -280zM557 1647q0 30 19 58.5t51 43.5l344 -246l-45 -71l-267 110q-53 22 -77.5 45.5t-24.5 59.5z" />
<glyph unicode="&#xd3;" horiz-adv-x="1331" d="M90 508q0 133 27.5 257t83.5 230.5t134 186t185.5 125t231.5 45.5q239 0 364 -138t125 -391q0 -131 -25 -253t-79.5 -230.5t-132.5 -188.5t-191.5 -127t-249.5 -47q-227 0 -350 140.5t-123 390.5zM276 559q0 -255 75.5 -366t269.5 -111q434 0 434 721q0 237 -78.5 340.5 t-267.5 103.5q-112 0 -196 -49.5t-135.5 -142t-76.5 -216.5t-25 -280zM600 1503l344 246q32 -15 51 -43.5t19 -58.5q0 -36 -25 -59.5t-78 -45.5l-266 -110z" />
<glyph unicode="&#xd4;" horiz-adv-x="1331" d="M90 508q0 133 27.5 257t83.5 230.5t134 186t185.5 125t231.5 45.5q239 0 364 -138t125 -391q0 -131 -25 -253t-79.5 -230.5t-132.5 -188.5t-191.5 -127t-249.5 -47q-227 0 -350 140.5t-123 390.5zM276 559q0 -255 75.5 -366t269.5 -111q434 0 434 721q0 237 -78.5 340.5 t-267.5 103.5q-112 0 -196 -49.5t-135.5 -142t-76.5 -216.5t-25 -280zM528 1528l146 108q90 72 116 90.5t39 18.5q9 -1 35 -20t62 -49t37 -31l122 -113l-67 -84l-217 137l-221 -125z" />
<glyph unicode="&#xd5;" horiz-adv-x="1331" d="M90 508q0 133 27.5 257t83.5 230.5t134 186t185.5 125t231.5 45.5q239 0 364 -138t125 -391q0 -131 -25 -253t-79.5 -230.5t-132.5 -188.5t-191.5 -127t-249.5 -47q-227 0 -350 140.5t-123 390.5zM276 559q0 -255 75.5 -366t269.5 -111q434 0 434 721q0 237 -78.5 340.5 t-267.5 103.5q-112 0 -196 -49.5t-135.5 -142t-76.5 -216.5t-25 -280zM467 1544l76 98q56 70 112 70q40 0 156 -41l135 -47l164 76l47 -53l-76 -99q-56 -69 -112 -69q-44 0 -156 41l-135 47l-164 -76z" />
<glyph unicode="&#xd6;" horiz-adv-x="1331" d="M90 508q0 133 27.5 257t83.5 230.5t134 186t185.5 125t231.5 45.5q239 0 364 -138t125 -391q0 -131 -25 -253t-79.5 -230.5t-132.5 -188.5t-191.5 -127t-249.5 -47q-227 0 -350 140.5t-123 390.5zM276 559q0 -255 75.5 -366t269.5 -111q434 0 434 721q0 237 -78.5 340.5 t-267.5 103.5q-112 0 -196 -49.5t-135.5 -142t-76.5 -216.5t-25 -280zM494 1571q0 51 31 87t81 36q47 0 76 -30t29 -81q0 -53 -30.5 -90t-82.5 -37q-47 0 -75.5 32t-28.5 83zM926 1571q0 51 31 87t81 36q47 0 76 -30t29 -81q0 -53 -30.5 -90t-82.5 -37q-47 0 -75.5 32 t-28.5 83z" />
<glyph unicode="&#xd7;" d="M145 317l271 240l-203 234l109 98l202 -234l273 242l92 -106l-271 -242l211 -240l-110 -96l-211 238l-268 -240z" />
<glyph unicode="&#xd8;" horiz-adv-x="1331" d="M90 508q0 133 27.5 257t83.5 230.5t134 186t185.5 125t231.5 45.5q86 0 170 -23l75 166l99 -47l-74 -160q219 -129 219 -465q0 -131 -25 -253t-79.5 -230.5t-132.5 -188.5t-191.5 -127t-249.5 -47q-56 0 -133 15l-80 -178l-102 49l76 168q-114 60 -174 182.5t-60 294.5z M276 559q0 -153 24 -250.5t81 -152.5l489 1065q-73 26 -161 26q-112 0 -195 -49.5t-133.5 -142.5t-76 -216t-28.5 -280zM479 100q61 -18 142 -18q434 0 434 721q0 256 -92 356z" />
<glyph unicode="&#xd9;" horiz-adv-x="1249" d="M121 1251l8 76h449l-9 -76l-149 -28l-92 -654q-15 -117 -15 -196q0 -75 12.5 -124.5t44.5 -85.5t88.5 -52.5t143.5 -16.5q162 0 240.5 117.5t111.5 357.5l90 652l-137 30l8 76h412l-8 -76l-150 -30l-88 -650q-17 -122 -42.5 -212t-68.5 -164.5t-104.5 -121t-148 -71.5 t-199.5 -25q-183 0 -277 96.5t-94 266.5q0 98 19 231l92 652zM473 1630q0 30 19 59t51 44l344 -246l-45 -72l-267 111q-53 22 -77.5 45t-24.5 59z" />
<glyph unicode="&#xda;" horiz-adv-x="1249" d="M121 1251l8 76h449l-9 -76l-149 -28l-92 -654q-15 -117 -15 -196q0 -75 12.5 -124.5t44.5 -85.5t88.5 -52.5t143.5 -16.5q162 0 240.5 117.5t111.5 357.5l90 652l-137 30l8 76h412l-8 -76l-150 -30l-88 -650q-17 -122 -42.5 -212t-68.5 -164.5t-104.5 -121t-148 -71.5 t-199.5 -25q-183 0 -277 96.5t-94 266.5q0 98 19 231l92 652zM586 1487l344 246q31 -15 50 -44t19 -59q0 -36 -24.5 -59t-77.5 -45l-266 -111z" />
<glyph unicode="&#xdb;" horiz-adv-x="1249" d="M121 1251l8 76h449l-9 -76l-149 -28l-92 -654q-15 -117 -15 -196q0 -75 12.5 -124.5t44.5 -85.5t88.5 -52.5t143.5 -16.5q162 0 240.5 117.5t111.5 357.5l90 652l-137 30l8 76h412l-8 -76l-150 -30l-88 -650q-17 -122 -42.5 -212t-68.5 -164.5t-104.5 -121t-148 -71.5 t-199.5 -25q-183 0 -277 96.5t-94 266.5q0 98 19 231l92 652zM469 1511l145 109q22 16 44 33t34.5 26.5t25.5 19.5t19.5 14.5t13.5 8.5t11 5.5t8 1.5q9 -1 35.5 -21t60.5 -48.5t37 -31.5l123 -112l-68 -84l-217 137l-221 -125z" />
<glyph unicode="&#xdc;" horiz-adv-x="1249" d="M121 1251l8 76h449l-9 -76l-149 -28l-92 -654q-15 -117 -15 -196q0 -75 12.5 -124.5t44.5 -85.5t88.5 -52.5t143.5 -16.5q162 0 240.5 117.5t111.5 357.5l90 652l-137 30l8 76h412l-8 -76l-150 -30l-88 -650q-17 -122 -42.5 -212t-68.5 -164.5t-104.5 -121t-148 -71.5 t-199.5 -25q-183 0 -277 96.5t-94 266.5q0 98 19 231l92 652zM440 1554q0 51 31.5 87t81.5 36q47 0 75.5 -29.5t28.5 -80.5q0 -54 -30 -90.5t-82 -36.5q-47 0 -76 31.5t-29 82.5zM872 1554q0 51 31.5 87t81.5 36q48 0 76.5 -29.5t28.5 -80.5q0 -53 -30.5 -90t-82.5 -37 q-47 0 -76 31.5t-29 82.5z" />
<glyph unicode="&#xdd;" horiz-adv-x="983" d="M41 1251l8 76h432l-8 -76l-149 -30v-47l192 -574h23l303 586v35l-150 30l10 76h383l-10 -76l-104 -30l-396 -725l-55 -392l139 -28l-6 -76h-448l6 76l149 28l54 381l-262 742zM446 1487l345 246q31 -15 50 -44t19 -59q0 -36 -24.5 -59t-77.5 -45l-266 -111z" />
<glyph unicode="&#xde;" horiz-adv-x="993" d="M31 0l8 76l145 28l158 1119l-139 28l8 76h446l-8 -76l-145 -28l-27 -191h123q175 0 274 -75t99 -238q0 -81 -26 -148t-69.5 -112t-102 -76t-121.5 -45t-130 -14q-96 0 -145 12l-33 -232l139 -28l-6 -76h-448zM389 416q42 -10 92 -10q163 0 238.5 76t75.5 223 q0 72 -17 119.5t-51.5 71t-72 32t-91.5 8.5q-23 0 -47 -2.5t-40 -5.5l-15 -2z" />
<glyph unicode="&#xdf;" horiz-adv-x="1105" d="M27 -358l200 1353q30 204 150.5 322.5t286.5 118.5q144 0 234.5 -75t90.5 -216q0 -66 -20.5 -123.5t-47 -95t-74 -76.5t-78 -58t-83.5 -49q91 -64 138 -99.5t96 -79t69.5 -76.5t33.5 -74t13 -90q0 -88 -29.5 -155.5t-80 -107.5t-113 -59.5t-133.5 -19.5q-297 0 -297 184 q0 26 9 52t22 44.5t26.5 33t22.5 21.5t10 7h51l19 -201q53 -35 153 -35q33 0 62 8t58 28t46 60t17 97q0 94 -67 164t-282 204l21 131q82 45 127 75t83.5 72t53 91.5t14.5 120.5q0 78 -50 127t-142 49q-66 0 -112 -16t-73 -49.5t-41 -73t-22 -97.5l-203 -1417z" />
<glyph unicode="&#xe0;" horiz-adv-x="1017" d="M82 307q0 65 15.5 154t52 193.5t87.5 192t131.5 146t174.5 58.5q110 0 233 -64l51 72h78l-145 -924h149v-80q-11 -7 -30.5 -17.5t-71 -28t-94.5 -17.5q-67 0 -91 27t-24 75q0 44 37 119l-6 4q-53 -96 -135.5 -165.5t-169.5 -69.5q-242 0 -242 325zM252 350 q0 -129 25 -188.5t96 -59.5q64 0 134 65t126 148l90 525q-131 88 -258 88q-50 0 -68 -25q-64 -89 -104.5 -240.5t-40.5 -312.5zM408 1395q0 76 86 106l284 -291l-53 -65l-207 133q-110 69 -110 117z" />
<glyph unicode="&#xe1;" horiz-adv-x="1017" d="M82 307q0 65 15.5 154t52 193.5t87.5 192t131.5 146t174.5 58.5q110 0 233 -64l51 72h78l-145 -924h149v-80q-11 -7 -30.5 -17.5t-71 -28t-94.5 -17.5q-67 0 -91 27t-24 75q0 44 37 119l-6 4q-53 -96 -135.5 -165.5t-169.5 -69.5q-242 0 -242 325zM252 350 q0 -129 25 -188.5t96 -59.5q64 0 134 65t126 148l90 525q-131 88 -258 88q-50 0 -68 -25q-64 -89 -104.5 -240.5t-40.5 -312.5zM485 1210l285 291q86 -30 86 -106q0 -47 -111 -117l-206 -133z" />
<glyph unicode="&#xe2;" horiz-adv-x="1017" d="M82 307q0 65 15.5 154t52 193.5t87.5 192t131.5 146t174.5 58.5q110 0 233 -64l51 72h78l-145 -924h149v-80q-11 -7 -30.5 -17.5t-71 -28t-94.5 -17.5q-67 0 -91 27t-24 75q0 44 37 119l-6 4q-53 -96 -135.5 -165.5t-169.5 -69.5q-242 0 -242 325zM252 350 q0 -129 25 -188.5t96 -59.5q64 0 134 65t126 148l90 525q-131 88 -258 88q-50 0 -68 -25q-64 -89 -104.5 -240.5t-40.5 -312.5zM334 1214l211 199l25 25t29.5 28.5t25.5 20.5t22 10q6 0 11.5 -3t13.5 -10t13.5 -13t17 -19.5t18.5 -21.5l164 -207l-62 -72l-202 162l-228 -156 z" />
<glyph unicode="&#xe3;" horiz-adv-x="1017" d="M82 307q0 65 15.5 154t52 193.5t87.5 192t131.5 146t174.5 58.5q110 0 233 -64l51 72h78l-145 -924h149v-80q-11 -7 -30.5 -17.5t-71 -28t-94.5 -17.5q-67 0 -91 27t-24 75q0 44 37 119l-6 4q-53 -96 -135.5 -165.5t-169.5 -69.5q-242 0 -242 325zM252 350 q0 -129 25 -188.5t96 -59.5q64 0 134 65t126 148l90 525q-131 88 -258 88q-50 0 -68 -25q-64 -89 -104.5 -240.5t-40.5 -312.5zM340 1266l72 92q31 39 55 57.5t53 18.5q25 0 131 -33l137 -47l146 71l39 -39l-72 -86q-34 -41 -58 -61t-52 -20q-43 0 -129 32l-138 47l-145 -71 z" />
<glyph unicode="&#xe4;" horiz-adv-x="1017" d="M82 307q0 65 15.5 154t52 193.5t87.5 192t131.5 146t174.5 58.5q110 0 233 -64l51 72h78l-145 -924h149v-80q-11 -7 -30.5 -17.5t-71 -28t-94.5 -17.5q-67 0 -91 27t-24 75q0 44 37 119l-6 4q-53 -96 -135.5 -165.5t-169.5 -69.5q-242 0 -242 325zM252 350 q0 -129 25 -188.5t96 -59.5q64 0 134 65t126 148l90 525q-131 88 -258 88q-50 0 -68 -25q-64 -89 -104.5 -240.5t-40.5 -312.5zM303 1305q0 53 33.5 97t93.5 44q42 0 68 -26t26 -70q0 -50 -36.5 -91.5t-94.5 -41.5q-40 0 -65 25t-25 63zM684 1305q0 53 34.5 97t94.5 44 q42 0 67 -26t25 -70q0 -50 -35.5 -91.5t-93.5 -41.5q-41 0 -66.5 25.5t-25.5 62.5z" />
<glyph unicode="&#xe5;" horiz-adv-x="1017" d="M82 307q0 65 15.5 154t52 193.5t87.5 192t131.5 146t174.5 58.5q110 0 233 -64l51 72h78l-145 -924h149v-80q-11 -7 -30.5 -17.5t-71 -28t-94.5 -17.5q-67 0 -91 27t-24 75q0 44 37 119l-6 4q-53 -96 -135.5 -165.5t-169.5 -69.5q-242 0 -242 325zM252 350 q0 -129 25 -188.5t96 -59.5q64 0 134 65t126 148l90 525q-131 88 -258 88q-50 0 -68 -25q-64 -89 -104.5 -240.5t-40.5 -312.5zM471 1300q0 94 55 161t148 67q82 0 126 -39t44 -107q0 -94 -55 -160.5t-148 -66.5q-82 0 -126 38.5t-44 106.5zM578 1321q0 -39 18 -57.5 t63 -18.5q76 0 76 119q0 38 -19.5 54t-62.5 16q-41 0 -58 -28t-17 -85z" />
<glyph unicode="&#xe6;" horiz-adv-x="1316" d="M78 307q0 65 15.5 154t52 193.5t87.5 192t131.5 146t174.5 58.5q123 0 295 -103q108 103 241 103q106 0 161.5 -61.5t55.5 -137.5q0 -86 -36 -156.5t-91.5 -116t-127.5 -77.5t-138.5 -46.5t-130.5 -17.5q0 -48 0.5 -76.5t4.5 -68.5t11 -63.5t20.5 -50.5t33 -41.5t49 -24 t67.5 -9.5q45 0 102 22t92 44l34 23l39 -60l-16.5 -16.5t-45 -36.5t-71 -45.5t-90.5 -36t-107 -16.5q-132 0 -198.5 44t-84.5 156q-49 -90 -125.5 -145t-163.5 -55q-241 0 -241 325zM248 350q0 -129 25 -188.5t96 -59.5q73 0 148 80.5t85 171.5q6 120 39.5 244t91.5 223 q-159 107 -272 107q-50 0 -68 -25q-64 -89 -104.5 -240.5t-40.5 -312.5zM772 522q179 21 272 99.5t93 187.5q0 119 -127 119q-98 0 -117 -29q-93 -143 -121 -377z" />
<glyph unicode="&#xe7;" horiz-adv-x="768" d="M61 309q0 106 19 210.5t58.5 201t95 169.5t135.5 117t172 44q113 0 170 -42.5t57 -134.5q0 -32 -9.5 -60t-23 -46t-27 -31.5t-22.5 -19.5l-10 -6h-51l-17 200q-43 17 -133 17q-77 0 -113 -27q-11 -8 -40.5 -69t-61 -179t-31.5 -233q0 -125 21 -192.5t61.5 -92 t112.5 -24.5q41 0 91.5 22t80.5 44l31 22l43 -68q-4 -5 -12.5 -14.5t-36.5 -33.5t-60 -43t-83 -36t-105 -20v-43l69 -43q66 -41 66 -99q0 -44 -14 -77.5t-35.5 -53t-52.5 -31.5t-59 -16t-60 -4q-96 0 -172 59l41 60q18 -11 30 -17t36.5 -11t56.5 -5q90 0 90 47q0 27 -47 53 l-107 56v41l64 86q-112 15 -165 93.5t-53 229.5z" />
<glyph unicode="&#xe8;" horiz-adv-x="796" d="M82 299q0 94 18 194.5t56.5 201t93 179.5t134.5 128t173 49q106 0 161.5 -61.5t55.5 -137.5q0 -69 -15.5 -125t-35.5 -95t-64 -71.5t-76.5 -51t-98.5 -37.5t-105 -27.5t-119 -24.5q-7 -1 -10 -2q0 -6 -1 -16t-1 -13q0 -167 41 -226t157 -59q45 0 99.5 24t86.5 48l32 23 l38 -60q-5 -6 -14 -17t-40 -38t-65 -47.5t-88.5 -37.5t-111.5 -17q-161 0 -231 69t-70 248zM258 504q82 19 142 39t99 43.5t63.5 46t36.5 53t15.5 57.5t3.5 66q0 119 -126 119q-98 0 -117 -29q-42 -65 -72.5 -175.5t-44.5 -219.5zM342 1395q0 76 86 106l285 -291l-54 -65 l-206 133q-111 70 -111 117z" />
<glyph unicode="&#xe9;" horiz-adv-x="796" d="M82 299q0 94 18 194.5t56.5 201t93 179.5t134.5 128t173 49q106 0 161.5 -61.5t55.5 -137.5q0 -69 -15.5 -125t-35.5 -95t-64 -71.5t-76.5 -51t-98.5 -37.5t-105 -27.5t-119 -24.5q-7 -1 -10 -2q0 -6 -1 -16t-1 -13q0 -167 41 -226t157 -59q45 0 99.5 24t86.5 48l32 23 l38 -60q-5 -6 -14 -17t-40 -38t-65 -47.5t-88.5 -37.5t-111.5 -17q-161 0 -231 69t-70 248zM258 504q82 19 142 39t99 43.5t63.5 46t36.5 53t15.5 57.5t3.5 66q0 119 -126 119q-98 0 -117 -29q-42 -65 -72.5 -175.5t-44.5 -219.5zM383 1210l285 291q86 -30 86 -106 q0 -47 -111 -117l-207 -133z" />
<glyph unicode="&#xea;" horiz-adv-x="796" d="M82 299q0 94 18 194.5t56.5 201t93 179.5t134.5 128t173 49q106 0 161.5 -61.5t55.5 -137.5q0 -69 -15.5 -125t-35.5 -95t-64 -71.5t-76.5 -51t-98.5 -37.5t-105 -27.5t-119 -24.5q-7 -1 -10 -2q0 -6 -1 -16t-1 -13q0 -167 41 -226t157 -59q45 0 99.5 24t86.5 48l32 23 l38 -60q-5 -6 -14 -17t-40 -38t-65 -47.5t-88.5 -37.5t-111.5 -17q-161 0 -231 69t-70 248zM248 1214l211 199l25 25t29.5 28.5t25.5 20.5t22 10q6 0 11.5 -3t13.5 -10t13.5 -13t17 -19.5t18.5 -21.5l164 -207l-62 -72l-202 162l-228 -156zM258 504q82 19 142 39t99 43.5 t63.5 46t36.5 53t15.5 57.5t3.5 66q0 119 -126 119q-98 0 -117 -29q-42 -65 -72.5 -175.5t-44.5 -219.5z" />
<glyph unicode="&#xeb;" horiz-adv-x="796" d="M82 299q0 94 18 194.5t56.5 201t93 179.5t134.5 128t173 49q106 0 161.5 -61.5t55.5 -137.5q0 -69 -15.5 -125t-35.5 -95t-64 -71.5t-76.5 -51t-98.5 -37.5t-105 -27.5t-119 -24.5q-7 -1 -10 -2q0 -6 -1 -16t-1 -13q0 -167 41 -226t157 -59q45 0 99.5 24t86.5 48l32 23 l38 -60q-5 -6 -14 -17t-40 -38t-65 -47.5t-88.5 -37.5t-111.5 -17q-161 0 -231 69t-70 248zM221 1305q0 53 33.5 97t93.5 44q42 0 68 -26t26 -70q0 -50 -36.5 -91.5t-94.5 -41.5q-40 0 -65 25t-25 63zM258 504q82 19 142 39t99 43.5t63.5 46t36.5 53t15.5 57.5t3.5 66 q0 119 -126 119q-98 0 -117 -29q-42 -65 -72.5 -175.5t-44.5 -219.5zM602 1305q0 53 34.5 97t94.5 44q42 0 67 -26t25 -70q0 -50 -35.5 -91.5t-93.5 -41.5q-41 0 -66.5 25.5t-25.5 62.5z" />
<glyph unicode="&#xec;" horiz-adv-x="589" d="M117 924v75l309 39v-153l-127 -750h150v-80q-11 -7 -29.5 -17.5t-68.5 -28t-93 -17.5q-65 0 -93 23.5t-28 80.5q0 25 6 49l136 744zM117 1395q0 76 86 106l284 -291l-53 -65l-207 133q-110 69 -110 117z" />
<glyph unicode="&#xed;" horiz-adv-x="589" d="M117 924v75l309 39v-153l-127 -750h150v-80q-11 -7 -29.5 -17.5t-68.5 -28t-93 -17.5q-65 0 -93 23.5t-28 80.5q0 25 6 49l136 744zM176 1210l285 291q86 -30 86 -106q0 -47 -111 -117l-207 -133z" />
<glyph unicode="&#xee;" horiz-adv-x="589" d="M68 1225l190 190q2 2 19 19.5t24.5 24.5t20.5 18.5t22 16.5t16 5q6 0 11.5 -3t13.5 -10t13.5 -13t17 -19.5t18.5 -21.5l144 -199l-62 -72l-182 154l-207 -148zM117 924v75l309 39v-153l-127 -750h150v-80q-11 -7 -29.5 -17.5t-68.5 -28t-93 -17.5q-65 0 -93 23.5 t-28 80.5q0 25 6 49l136 744z" />
<glyph unicode="&#xef;" horiz-adv-x="589" d="M51 1305q0 53 33.5 97t93.5 44q42 0 68 -26t26 -70q0 -50 -36.5 -91.5t-94.5 -41.5q-40 0 -65 25t-25 63zM117 924v75l309 39v-153l-127 -750h150v-80q-11 -7 -29.5 -17.5t-68.5 -28t-93 -17.5q-65 0 -93 23.5t-28 80.5q0 25 6 49l136 744zM432 1305q0 53 34.5 97 t94.5 44q42 0 67 -26t25 -70q0 -50 -35.5 -91.5t-93.5 -41.5q-41 0 -66.5 25.5t-25.5 62.5z" />
<glyph unicode="&#xf0;" horiz-adv-x="944" d="M82 330q0 197 57.5 360t169.5 262t258 99q19 0 41 -4.5t34 -8.5l13 -4q-16 37 -26 57t-28 48.5t-41 50.5t-54 41l-223 -144l-56 80l172 111q-103 35 -243 35h-37v82q47 14 160 14q138 0 251 -45l177 115l53 -84l-131 -84q233 -161 233 -531q0 -240 -54.5 -417 t-168.5 -279t-277 -102q-138 0 -209 90t-71 258zM250 354q0 -104 20.5 -159t59 -74t110.5 -19q102 0 133 29q34 32 76.5 181t42.5 335q0 79 -3.5 139t-6.5 80l-4 21q-88 39 -209 39q-20 0 -55.5 -10t-48.5 -25q-43 -48 -79 -202.5t-36 -334.5z" />
<glyph unicode="&#xf1;" horiz-adv-x="1091" d="M117 0l162 889l-162 35v75l309 39v-139q25 20 56.5 41t79 48.5t100 45t96.5 17.5q99 0 142.5 -51t43.5 -136q0 -39 -18 -162l-97 -567h154v-80q-11 -7 -29 -17.5t-68 -28t-93 -17.5q-65 0 -94 24t-29 80q0 13 4 45l104 582q10 50 10 94q0 48 -21.5 71t-80.5 23 q-122 0 -274 -100l-127 -811h-168zM330 1266l71 92q31 39 55.5 57.5t53.5 18.5q25 0 131 -33l137 -47l146 71l39 -39l-72 -86q-33 -41 -58 -61t-53 -20q-43 0 -129 32l-137 47l-145 -71z" />
<glyph unicode="&#xf2;" horiz-adv-x="937" d="M82 324q0 206 58.5 370t172.5 260.5t267 96.5q276 0 276 -346q0 -207 -56.5 -369t-169 -258t-265.5 -96q-139 0 -211 88.5t-72 253.5zM250 408q0 -184 38 -245t154 -61q102 0 133 29t72 182t41 310q0 179 -38 242t-152 63q-37 0 -74.5 -9.5t-56.5 -27.5 q-32 -30 -74.5 -178.5t-42.5 -304.5zM369 1393q0 76 86 106l284 -291l-53 -65l-207 133q-110 69 -110 117z" />
<glyph unicode="&#xf3;" horiz-adv-x="937" d="M82 324q0 206 58.5 370t172.5 260.5t267 96.5q276 0 276 -346q0 -207 -56.5 -369t-169 -258t-265.5 -96q-139 0 -211 88.5t-72 253.5zM250 408q0 -184 38 -245t154 -61q102 0 133 29t72 182t41 310q0 179 -38 242t-152 63q-37 0 -74.5 -9.5t-56.5 -27.5 q-32 -30 -74.5 -178.5t-42.5 -304.5zM406 1210l284 291q86 -30 86 -106q0 -48 -110 -117l-207 -133z" />
<glyph unicode="&#xf4;" horiz-adv-x="937" d="M82 324q0 206 58.5 370t172.5 260.5t267 96.5q276 0 276 -346q0 -207 -56.5 -369t-169 -258t-265.5 -96q-139 0 -211 88.5t-72 253.5zM250 408q0 -184 38 -245t154 -61q102 0 133 29t72 182t41 310q0 179 -38 242t-152 63q-37 0 -74.5 -9.5t-56.5 -27.5 q-32 -30 -74.5 -178.5t-42.5 -304.5zM291 1214l211 199l25 25t29.5 28.5t25.5 20.5t22 10q6 0 11.5 -3t13.5 -10t13.5 -13t17 -19.5t18.5 -21.5l164 -207l-62 -72l-202 162l-228 -156z" />
<glyph unicode="&#xf5;" horiz-adv-x="937" d="M82 324q0 206 58.5 370t172.5 260.5t267 96.5q276 0 276 -346q0 -207 -56.5 -369t-169 -258t-265.5 -96q-139 0 -211 88.5t-72 253.5zM246 1266l71 92q31 39 55.5 57.5t53.5 18.5q25 0 131 -33l137 -47l146 71l39 -39l-72 -86q-33 -41 -58 -61t-53 -20q-43 0 -129 32 l-137 47l-145 -71zM250 408q0 -184 38 -245t154 -61q102 0 133 29t72 182t41 310q0 179 -38 242t-152 63q-37 0 -74.5 -9.5t-56.5 -27.5q-32 -30 -74.5 -178.5t-42.5 -304.5z" />
<glyph unicode="&#xf6;" horiz-adv-x="937" d="M82 324q0 206 58.5 370t172.5 260.5t267 96.5q276 0 276 -346q0 -207 -56.5 -369t-169 -258t-265.5 -96q-139 0 -211 88.5t-72 253.5zM250 408q0 -184 38 -245t154 -61q102 0 133 29t72 182t41 310q0 179 -38 242t-152 63q-37 0 -74.5 -9.5t-56.5 -27.5 q-32 -30 -74.5 -178.5t-42.5 -304.5zM279 1305q0 53 33.5 97t93.5 44q42 0 68 -26t26 -70q0 -50 -36.5 -91.5t-94.5 -41.5q-40 0 -65 25t-25 63zM659 1305q0 53 34.5 97t94.5 44q42 0 67.5 -26t25.5 -70q0 -50 -35.5 -91.5t-93.5 -41.5q-41 0 -67 25.5t-26 62.5z" />
<glyph unicode="&#xf7;" d="M117 492l12 120h819l-12 -120h-819zM371 178q0 61 39 107.5t98 46.5q45 0 72.5 -28t27.5 -71q0 -61 -37.5 -107t-101.5 -46q-43 0 -70.5 27.5t-27.5 70.5zM465 860q0 61 39 107.5t98 46.5q45 0 72.5 -28t27.5 -71q0 -61 -37.5 -107t-101.5 -46q-43 0 -70.5 27.5 t-27.5 70.5z" />
<glyph unicode="&#xf8;" horiz-adv-x="937" d="M82 324q0 206 58.5 370t172.5 260.5t267 96.5q32 0 67 -7l55 125l99 -45l-53 -123q108 -83 108 -296q0 -207 -56.5 -369t-169 -258t-265.5 -96q-34 0 -64 6l-59 -140l-103 50l58 131q-115 80 -115 295zM250 408q0 -146 22 -211l318 716q-38 15 -92 15q-37 0 -74.5 -9.5 t-56.5 -27.5q-32 -30 -74.5 -178.5t-42.5 -304.5zM356 113q34 -11 86 -11q102 0 133 29t72 182t41 310q0 131 -20 198z" />
<glyph unicode="&#xf9;" horiz-adv-x="1071" d="M100 924v75l310 39v-141l-91 -578q-10 -73 -10 -102q0 -45 18 -67.5t62 -22.5q112 0 287 168l127 731l160 25l-158 -916h153v-80q-11 -7 -29.5 -17.5t-69 -28t-93.5 -17.5q-64 0 -92.5 23.5t-28.5 78.5q0 50 49 117l-6 4q-20 -24 -41 -47.5t-61 -58t-81 -59.5t-96 -43.5 t-110 -18.5q-75 0 -115.5 38.5t-40.5 131.5q0 74 15 147l104 584zM393 1395q0 76 86 106l285 -291l-53 -65l-207 133q-111 70 -111 117z" />
<glyph unicode="&#xfa;" horiz-adv-x="1071" d="M100 924v75l310 39v-141l-91 -578q-10 -73 -10 -102q0 -45 18 -67.5t62 -22.5q112 0 287 168l127 731l160 25l-158 -916h153v-80q-11 -7 -29.5 -17.5t-69 -28t-93.5 -17.5q-64 0 -92.5 23.5t-28.5 78.5q0 50 49 117l-6 4q-20 -24 -41 -47.5t-61 -58t-81 -59.5t-96 -43.5 t-110 -18.5q-75 0 -115.5 38.5t-40.5 131.5q0 74 15 147l104 584zM496 1210l284 291q86 -30 86 -106q0 -48 -110 -117l-207 -133z" />
<glyph unicode="&#xfb;" horiz-adv-x="1071" d="M100 924v75l310 39v-141l-91 -578q-10 -73 -10 -102q0 -45 18 -67.5t62 -22.5q112 0 287 168l127 731l160 25l-158 -916h153v-80q-11 -7 -29.5 -17.5t-69 -28t-93.5 -17.5q-64 0 -92.5 23.5t-28.5 78.5q0 50 49 117l-6 4q-20 -24 -41 -47.5t-61 -58t-81 -59.5t-96 -43.5 t-110 -18.5q-75 0 -115.5 38.5t-40.5 131.5q0 74 15 147l104 584zM322 1214l210 199q7 6 20 19.5t23 23t22 20t21.5 16t16.5 5.5q6 0 11.5 -3t13.5 -10t13.5 -13t17 -19.5t18.5 -21.5l163 -207l-61 -72l-203 162l-227 -156z" />
<glyph unicode="&#xfc;" horiz-adv-x="1071" d="M100 924v75l310 39v-141l-91 -578q-10 -73 -10 -102q0 -45 18 -67.5t62 -22.5q112 0 287 168l127 731l160 25l-158 -916h153v-80q-11 -7 -29.5 -17.5t-69 -28t-93.5 -17.5q-64 0 -92.5 23.5t-28.5 78.5q0 50 49 117l-6 4q-20 -24 -41 -47.5t-61 -58t-81 -59.5t-96 -43.5 t-110 -18.5q-75 0 -115.5 38.5t-40.5 131.5q0 74 15 147l104 584zM330 1305q0 53 33.5 97t93.5 44q42 0 68 -26t26 -70q0 -50 -36.5 -91.5t-94.5 -41.5q-40 0 -65 25t-25 63zM711 1305q0 53 34.5 97t94.5 44q42 0 67 -26t25 -70q0 -50 -35.5 -91.5t-93.5 -41.5 q-41 0 -66.5 25.5t-25.5 62.5z" />
<glyph unicode="&#xfd;" horiz-adv-x="851" d="M-109 -295l5 84h204l133 193v233l-61 676l-154 39v76l310 32l53 -755l-4 -127h12q143 201 229 370t125 355l-147 100l39 74q100 0 178 -30t78 -83q0 -59 -33 -158t-95.5 -225t-167.5 -281t-233 -303l-108 -186q-43 -75 -85 -106t-112 -31q-99 0 -166 53zM410 1210 l284 291q86 -30 86 -106q0 -48 -110 -117l-207 -133z" />
<glyph unicode="&#xfe;" horiz-adv-x="974" d="M-123 -340l8 76l142 28l268 1520l-162 33v76l303 39v-148l-53 -362q-2 -19 -33 -60l4 -6q20 27 45 54t65.5 62t91 57t101.5 22q246 0 246 -320q0 -46 -7 -104.5t-23.5 -131t-40.5 -143t-62.5 -138t-85 -119t-111.5 -82.5t-139 -31q-64 0 -124.5 11t-78.5 19l-38 -248 l139 -28l-6 -76h-449zM256 162q123 -60 246 -60q46 0 61.5 4.5t22.5 14.5q61 92 105 251t44 316q0 119 -31 170t-106 51q-104 0 -240 -123z" />
<glyph unicode="&#xff;" horiz-adv-x="851" d="M-109 -295l5 84h204l133 193v233l-61 676l-154 39v76l310 32l53 -755l-4 -127h12q143 201 229 370t125 355l-147 100l39 74q100 0 178 -30t78 -83q0 -59 -33 -158t-95.5 -225t-167.5 -281t-233 -303l-108 -186q-43 -75 -85 -106t-112 -31q-99 0 -166 53zM248 1305 q0 53 33.5 97t93.5 44q42 0 68 -26t26 -70q0 -50 -36.5 -91.5t-94.5 -41.5q-40 0 -65 25t-25 63zM629 1305q0 53 34.5 97t94.5 44q42 0 67 -26t25 -70q0 -50 -35.5 -91.5t-93.5 -41.5q-41 0 -66.5 25.5t-25.5 62.5z" />
<glyph unicode="&#x152;" horiz-adv-x="1597" d="M72 508q0 163 47 310.5t131.5 261t214 180.5t283.5 67h829l-43 -319h-100v225h-207l-164 -10l-70 -490h269l43 121h73l-43 -332h-73l-11 121h-270l-78 -539q74 -12 191 -12h209l77 219h86l-39 -311h-876q-230 0 -354.5 131t-124.5 377zM258 559q0 -252 77 -357.5 t273 -105.5q78 0 135 8l156 1115q-83 18 -186 18q-150 0 -252 -85.5t-150.5 -234.5t-52.5 -358z" />
<glyph unicode="&#x153;" horiz-adv-x="1388" d="M82 324q0 206 58.5 370t172.5 260.5t267 96.5q197 0 249 -187q128 187 320 187q106 0 161.5 -61.5t55.5 -137.5q0 -63 -14.5 -115.5t-38.5 -91.5t-63.5 -71.5t-80.5 -55t-98.5 -42t-108.5 -32t-120 -26.5q0 -6 -1 -16t-1 -13q0 -165 46 -225t163 -60q45 0 98 19.5 t83 38.5l30 20l38 -59q-5 -6 -14.5 -15.5t-41.5 -33.5t-66 -43t-86 -34t-105 -15q-120 0 -190 39t-99 126q-127 -165 -331 -165q-139 0 -211 88.5t-72 253.5zM250 408q0 -184 38 -245t154 -61q102 0 133 29t72 182t41 310q0 179 -38 242t-152 63q-37 0 -74.5 -9.5 t-56.5 -27.5q-32 -30 -74.5 -178.5t-42.5 -304.5zM850 504q82 19 142 39t99 43.5t63.5 46t36.5 53t15.5 57.5t3.5 66q0 119 -127 119q-97 0 -116 -29q-42 -65 -72.5 -175.5t-44.5 -219.5z" />
<glyph unicode="&#x178;" horiz-adv-x="983" d="M41 1251l8 76h432l-8 -76l-149 -30v-47l192 -574h23l303 586v35l-150 30l10 76h383l-10 -76l-104 -30l-396 -725l-55 -392l139 -28l-6 -76h-448l6 76l149 28l54 381l-262 742zM301 1554q0 51 31.5 87t81.5 36q47 0 75.5 -29.5t28.5 -80.5q0 -54 -30 -90.5t-82 -36.5 q-47 0 -76 31.5t-29 82.5zM733 1554q0 51 31.5 87t81.5 36q47 0 75.5 -29.5t28.5 -80.5q0 -54 -30 -90.5t-82 -36.5q-47 0 -76 31.5t-29 82.5z" />
<glyph unicode="&#x2c6;" horiz-adv-x="571" d="M10 1214l211 199q7 6 20 19.5t23 23t22 20t21.5 16t16.5 5.5q6 0 11.5 -3t13 -10t13 -13.5t16.5 -19t19 -21.5l164 -207l-61 -72l-203 162l-227 -156z" />
<glyph unicode="&#x2dc;" horiz-adv-x="653" d="M10 1266l72 92q31 39 55 57.5t53 18.5q26 0 132 -33l137 -47l145 71l39 -39l-72 -86q-34 -41 -58 -61t-52 -20q-43 0 -129 32l-137 47l-146 -71z" />
<glyph unicode="&#x2000;" horiz-adv-x="874" />
<glyph unicode="&#x2001;" horiz-adv-x="1749" />
<glyph unicode="&#x2002;" horiz-adv-x="874" />
<glyph unicode="&#x2003;" horiz-adv-x="1749" />
<glyph unicode="&#x2004;" horiz-adv-x="583" />
<glyph unicode="&#x2005;" horiz-adv-x="437" />
<glyph unicode="&#x2006;" horiz-adv-x="291" />
<glyph unicode="&#x2007;" horiz-adv-x="291" />
<glyph unicode="&#x2008;" horiz-adv-x="218" />
<glyph unicode="&#x2009;" horiz-adv-x="349" />
<glyph unicode="&#x200a;" horiz-adv-x="97" />
<glyph unicode="&#x2010;" horiz-adv-x="641" d="M84 485l22 125h441l-23 -125h-440z" />
<glyph unicode="&#x2011;" horiz-adv-x="641" d="M84 485l22 125h441l-23 -125h-440z" />
<glyph unicode="&#x2012;" horiz-adv-x="641" d="M84 485l22 125h441l-23 -125h-440z" />
<glyph unicode="&#x2013;" horiz-adv-x="1044" d="M10 485v121h1024v-121h-1024z" />
<glyph unicode="&#x2014;" horiz-adv-x="2088" d="M20 485v121h2048v-121h-2048z" />
<glyph unicode="&#x2018;" horiz-adv-x="307" d="M94 1083q0 87 72 188.5t164 168.5l41 -37l-150 -203l2 -6q13 8 33 8q36 0 60 -27t24 -69q0 -58 -36.5 -103t-94.5 -45q-115 0 -115 125z" />
<glyph unicode="&#x2019;" horiz-adv-x="307" d="M98 1012l150 202l-2 7q-15 -9 -33 -9q-36 0 -60 27.5t-24 69.5q0 58 36.5 102.5t94.5 44.5q115 0 115 -125q0 -87 -72 -188t-164 -168z" />
<glyph unicode="&#x201a;" horiz-adv-x="385" d="M16 -221l150 203l-2 6q-13 -8 -33 -8q-36 0 -60 27t-24 69q0 58 36.5 102.5t94.5 44.5q115 0 115 -125q0 -87 -72 -188t-164 -168z" />
<glyph unicode="&#x201c;" horiz-adv-x="624" d="M154 1122q0 78 67 177t156 155l41 -37l-146 -186l2 -6q13 8 33 8q37 0 64.5 -24t27.5 -64q0 -56 -40 -102t-91 -46q-114 0 -114 125zM457 1122q0 78 67 177t156 155l41 -37l-146 -186l3 -6q13 8 32 8q37 0 64.5 -24t27.5 -64q0 -56 -40 -102t-91 -46q-114 0 -114 125z " />
<glyph unicode="&#x201d;" horiz-adv-x="716" d="M86 1034l145 187l-2 6q-13 -8 -32 -8q-37 0 -65 24.5t-28 63.5q0 56 40.5 101.5t91.5 45.5q114 0 114 -125q0 -78 -67 -177t-156 -155zM389 1034l146 187l-3 6q-13 -8 -32 -8q-37 0 -64.5 24t-27.5 64q0 56 40 101.5t91 45.5q114 0 114 -125q0 -78 -67 -177t-156 -155z " />
<glyph unicode="&#x201e;" horiz-adv-x="716" d="M35 -197l145 187l-2 6q-13 -8 -33 -8q-37 0 -64.5 24t-27.5 64q0 56 40 101.5t91 45.5q115 0 115 -125q0 -78 -66.5 -176.5t-156.5 -154.5zM338 -197l145 187l-2 6q-13 -8 -32 -8q-37 0 -65 24.5t-28 63.5q0 56 40 101.5t91 45.5q115 0 115 -125q0 -78 -66.5 -176.5 t-156.5 -154.5z" />
<glyph unicode="&#x2022;" horiz-adv-x="845" d="M184 625q0 97 67.5 165t164.5 68t165 -68t68 -165t-68 -164.5t-165 -67.5t-164.5 67.5t-67.5 164.5z" />
<glyph unicode="&#x2026;" horiz-adv-x="1132" d="M-14 78q0 63 40 110.5t101 47.5q45 0 73.5 -28t28.5 -73q0 -63 -39 -110.5t-104 -47.5q-44 0 -72 29t-28 72zM356 78q0 62 40.5 110t101.5 48q46 0 74 -28t28 -73q0 -63 -39 -110.5t-104 -47.5q-44 0 -72.5 29t-28.5 72zM727 78q0 63 40 110.5t101 47.5q46 0 74.5 -28.5 t28.5 -72.5q0 -63 -39 -110.5t-105 -47.5q-44 0 -72 29t-28 72z" />
<glyph unicode="&#x202f;" horiz-adv-x="349" />
<glyph unicode="&#x2039;" horiz-adv-x="466" d="M88 496q0 10 42 57.5t75 79.5l205 201l41 -39l-195 -306l133 -309l-53 -35l-164 213q-5 8 -23 33t-29 41.5t-21.5 35.5t-10.5 28z" />
<glyph unicode="&#x203a;" horiz-adv-x="466" d="M63 184l195 301l-137 308l57 41l164 -213q5 -8 23 -33t29 -41.5t21.5 -35.5t10.5 -28q0 -10 -42 -57.5t-75 -79.5l-203 -194z" />
<glyph unicode="&#x205f;" horiz-adv-x="437" />
<glyph unicode="&#x20ac;" horiz-adv-x="1126" d="M37 354l55 117h633l-55 -117h-310q0 -141 72 -201.5t209 -60.5q64 0 119 13t78 25l24 13l62 191h92l-39 -281q-57 -23 -91.5 -35t-114.5 -26.5t-169 -14.5q-208 0 -310.5 88.5t-105.5 288.5h-149zM121 569l55 117h55q29 84 74 154t110 126.5t155 88.5t198 32 q112 0 182 -16t142 -47l-35 -272h-92l-17 192q-75 29 -188 29q-158 0 -242 -69.5t-125 -217.5h434l-55 -117h-651z" />
<glyph unicode="&#x2122;" horiz-adv-x="1755" d="M137 1221v211h651v-211h-79l-31 118h-135v-524l90 -14v-62h-336v62l88 14v524h-137l-31 -118h-80zM838 739v58l90 16v539l-80 10v70h303l145 -443l17 -80l16 80l152 443h321v-70l-90 -14v-533l90 -14v-62h-336v62l88 14v488h-12l-199 -564h-114l-191 568h-12v-494l88 -16 v-58h-276z" />
<glyph unicode="&#x25fc;" horiz-adv-x="1054" d="M0 0v1055h1055v-1055h-1055z" />
</font>
</defs>
</svg>
