<?xml version="1.0" standalone="no"?>
<!DOCTYPE svg PUBLIC "-//W3C//DTD SVG 1.1//EN" "http://www.w3.org/Graphics/SVG/1.1/DTD/svg11.dtd" >
<svg xmlns="http://www.w3.org/2000/svg">
<metadata></metadata>
<defs>
<font id="geogrotesqueultralight_italic" horiz-adv-x="1054" >
<font-face units-per-em="2048" ascent="1536" descent="-512" />
<missing-glyph horiz-adv-x="493" />
<glyph unicode="&#xfb01;" horiz-adv-x="1034" d="M184 -410l168 1354h-139q-14 0 -14 19v18q0 18 18 18l117 5h24l23 188q7 55 28.5 96.5t64 75t113.5 51t169 17.5h235q18 0 15 -19l-2 -22q0 -19 -19 -19h-231q-156 0 -225.5 -48.5t-79.5 -137.5l-23 -182h567q22 0 19 -21l-121 -965q-4 -18 -19 -18h-32q-20 0 -17 18 l115 926h-518l-168 -1354q-3 -18 -19 -18h-32q-20 0 -17 18z" />
<glyph unicode="&#xfb02;" horiz-adv-x="1077" d="M184 -410l168 1354h-139q-14 0 -14 19v18q0 18 18 18l117 5h24l23 188q7 55 28.5 96.5t63.5 75t113 51t170 17.5h288q22 0 19 -19l-172 -1395q-3 -18 -19 -18h-32q-20 0 -17 18l168 1354h-237q-156 0 -225.5 -48.5t-79.5 -137.5l-23 -182h252q16 0 16 -19l-2 -22 q-3 -19 -18 -19h-254l-168 -1354q-3 -18 -19 -18h-32q-20 0 -17 18z" />
<glyph unicode="&#xfb03;" horiz-adv-x="1617" d="M186 -412l168 1358h-139q-19 0 -16 19l2 16q3 18 20 18l115 5h22l27 196q7 55 28.5 96.5t64 75t114 51t170.5 17.5h10q17 0 14 -19l-2 -22q-3 -19 -20 -19h-8q-106 0 -173 -25t-94.5 -63.5t-35.5 -95.5l-25 -192h520l23 188q13 114 99 177t276 63h233q19 0 16 -19l-2 -22 q-3 -19 -18 -19h-232q-81 0 -139.5 -13.5t-92.5 -39t-51 -57.5t-22 -74l-22 -184h567q19 0 16 -21l-118 -965q-4 -18 -19 -18h-32q-20 0 -17 18l115 928h-520l-168 -1358q-3 -16 -19 -16h-33q-19 0 -16 16l168 1358h-518l-168 -1358q-3 -16 -21 -16h-32q-18 0 -15 16z" />
<glyph unicode="&#xfb04;" horiz-adv-x="1667" d="M184 -412l168 1358h-137q-21 0 -18 19l4 16q3 18 18 18l115 5h24l25 196q7 55 29 96.5t64.5 75t114.5 51t171 17.5h8q19 0 16 -19l-2 -22q0 -19 -20 -19h-8q-155 0 -224 -48t-81 -136l-25 -192h522l23 188q6 55 27.5 96.5t63.5 75t113.5 51t170.5 17.5h288q19 0 19 -19 l-172 -1395q-3 -18 -19 -18h-32q-20 0 -17 18l166 1354h-236q-81 0 -139.5 -13.5t-92.5 -39t-51 -57.5t-22 -74l-22 -184h252q16 0 16 -19l-4 -20q0 -19 -18 -19h-254l-168 -1358q-3 -16 -19 -16h-33q-19 0 -16 16l168 1358h-518l-168 -1358q-3 -16 -21 -16h-32 q-10 0 -14 3.5t-3 12.5z" />
<glyph horiz-adv-x="0" />
<glyph horiz-adv-x="0" />
<glyph horiz-adv-x="682" />
<glyph unicode="&#xd;" horiz-adv-x="0" />
<glyph unicode=" "  horiz-adv-x="493" />
<glyph unicode="&#x09;" horiz-adv-x="493" />
<glyph unicode="&#xa0;" horiz-adv-x="493" />
<glyph unicode="!" horiz-adv-x="493" d="M213 18l20 156q3 19 21 19h35q18 0 14 -19l-20 -156q-3 -18 -21 -18h-31q-21 0 -18 18zM258 328l51 471l70 575q3 19 20 19h37q20 0 17 -19l-70 -575l-68 -471q-3 -19 -20 -19h-23q-14 0 -14 19z" />
<glyph unicode="&#x22;" horiz-adv-x="679" d="M315 1014l37 360q3 19 21 19h37q17 0 14 -19l-51 -360q-4 -19 -19 -19h-22q-20 0 -17 19zM553 1014l37 360q3 19 20 19h35q20 0 17 -19l-52 -360q-4 -19 -18 -19h-23q-19 0 -16 19z" />
<glyph unicode="#" horiz-adv-x="1306" d="M250 514v21q0 16 20 16h183l106 266h-176q-14 0 -14 19v20q0 16 20 16h193l86 220q6 18 26 18h27q17 0 10 -18l-86 -220h348l86 220q6 18 25 18h29q17 0 10 -18l-88 -220h151q10 0 14 -3.5t3 -12.5l-2 -20q-3 -19 -21 -19h-166l-108 -266h161q10 0 14 -3.5t3 -12.5 l-2 -21q0 -16 -21 -16h-176l-86 -215q-8 -19 -22 -19h-31q-7 0 -10 6t0 13l86 215h-348l-86 -215q-6 -19 -23 -19h-29q-9 0 -12 5.5t0 13.5l86 215h-166q-14 0 -14 16zM516 551h348l107 266h-348z" />
<glyph unicode="$" horiz-adv-x="1073" d="M262 362q0 15 2 31l6 53q3 17 19 17h33q14 0 12 -17l-6 -49q-2 -14 -2 -26q0 -66 66.5 -103t197.5 -37q142 0 220.5 42.5t86.5 115.5l12 105q0 2 1 12t1 18q0 73 -120 111l-314 96q-57 16 -98 60t-41 102q0 19 2 31l12 84q25 195 328 206l20 160q3 19 21 19h31 q17 0 14 -19l-21 -162q138 -6 207.5 -55.5t69.5 -124.5q0 -19 -2 -39l-8 -59q-3 -14 -19 -14h-30q-8 0 -13 4t-4 10l8 55q2 16 2 39q0 58 -61 95.5t-190 37.5q-139 0 -210 -41t-79 -112l-8 -74q-2 -14 -2 -29q0 -42 29.5 -73t80.5 -46l315 -94q146 -44 146 -153 q0 -9 -1 -21.5t-1 -13.5l-14 -121q-11 -90 -96 -145.5t-247 -61.5l-20 -158q-4 -18 -18 -18h-31q-20 0 -17 18l19 158q-144 6 -216.5 57t-72.5 129z" />
<glyph unicode="%" horiz-adv-x="1480" d="M305 967q0 17 4 41l27 223q10 84 71.5 129t200.5 45q234 0 234 -148q0 -24 -2 -40l-27 -222q-10 -85 -71.5 -129.5t-200.5 -44.5q-236 0 -236 146zM367 975q0 -103 180 -103q191 0 205 123l26 222q2 12 2 30q0 105 -176 105q-106 0 -153 -32t-54 -91l-28 -230q0 -1 -1 -9 t-1 -15zM401.5 6q-2.5 6 1.5 12l768 1356q9 19 27 19h33q19 0 8 -19l-768 -1356q-9 -18 -27 -18h-32q-8 0 -10.5 6zM803 129q0 17 4 41l27 223q10 84 71.5 129t200.5 45q233 0 233 -147q0 -25 -2 -41l-26 -221q-10 -84 -71.5 -129t-201.5 -45q-235 0 -235 145zM864 137 q0 -102 180 -102q191 0 205 123l27 221q2 12 2 31q0 104 -176 104q-106 0 -153 -32t-54 -91l-29 -229q0 -1 -1 -9.5t-1 -15.5z" />
<glyph unicode="&#x26;" horiz-adv-x="1347" d="M233 223q0 14 3 35l30 250q13 104 62.5 161.5t171.5 80.5q-92 19 -130 64.5t-38 117.5q0 17 4 53l18 152q7 63 29 109.5t66.5 85t122.5 58t188 19.5q346 0 346 -221v-21l-6 -63q-3 -19 -21 -19h-32q-15 0 -15 19l4 57v17q0 44 -17.5 76.5t-44 50.5t-66.5 28.5t-74.5 13.5 t-79.5 3q-72 0 -126 -10t-99.5 -34t-72.5 -68t-34 -108l-16 -139q-5 -45 -5 -51q0 -81 62 -121.5t223 -40.5h643q14 0 14 -18l-2 -25q0 -18 -20 -18h-172l-57 -461q-34 -272 -461 -272q-205 0 -301.5 63.5t-96.5 175.5zM303 233q0 -190 334 -190q186 0 280 58.5t107 160.5 l57 455h-415q-96 0 -160.5 -14.5t-99.5 -44.5t-50 -65.5t-22 -88.5l-29 -240q-2 -12 -2 -31z" />
<glyph unicode="'" horiz-adv-x="442" d="M315 1014l37 360q3 19 21 19h37q17 0 14 -19l-51 -360q-4 -19 -19 -19h-22q-20 0 -17 19z" />
<glyph unicode="(" horiz-adv-x="722" d="M178 -240q0 25 2 37l174 1413q10 77 44 127.5t116 81.5t213 31h14q18 0 15 -18l-2 -23q0 -18 -19 -18h-8q-107 0 -174 -25t-94 -64t-35 -98l-172 -1392q-4 -24 -4 -39q0 -77 59 -118.5t201 -41.5h8q14 0 14 -19l-2 -22q0 -18 -18 -18h-8q-172 0 -248 53.5t-76 152.5z" />
<glyph unicode=")" horiz-adv-x="722" d="M86 -406q0 19 20 19h9q156 0 223.5 48t79.5 138l172 1393q4 40 4 43q0 74 -60.5 115t-201.5 41h-8q-16 0 -13 18l2 23q0 18 19 18h8q324 0 324 -207q0 -25 -2 -37l-175 -1413q-7 -58 -28 -99.5t-62.5 -74t-112.5 -49t-171 -16.5h-13q-14 0 -14 18v22z" />
<glyph unicode="*" horiz-adv-x="1009" d="M330 958q-8 16 10 25l256 141l-221 144q-14 8 -4 22l10 17q9 18 27 6l217 -154l26 279q3 18 23 18h18q18 0 15 -18l-41 -279l252 156q15 9 24 -6l10 -17q9 -15 -10 -24l-258 -144l223 -143q12 -7 4 -23l-10 -16q-10 -20 -29 -6l-215 151l-26 -272q-3 -20 -21 -20h-20 q-18 0 -15 20l41 275l-254 -156q-16 -10 -24 6z" />
<glyph unicode="+" horiz-adv-x="1208" d="M268 682v25q0 18 19 18h368v371q0 18 17 18h24q17 0 17 -18v-371h374q17 0 17 -18v-25q0 -16 -17 -16h-374v-371q0 -19 -17 -19h-24q-17 0 -17 19v371h-368q-19 0 -19 16z" />
<glyph unicode="," horiz-adv-x="430" d="M53 -127q-5 16 13 25q63 28 91 65t36 94l14 117q3 19 20 19h33q19 0 16 -19l-16 -119q-9 -80 -51.5 -132.5t-126.5 -82.5q-15 -6 -21 8z" />
<glyph unicode="-" horiz-adv-x="956" d="M254 582v22q0 19 18 19h551q17 0 17 -19v-22q0 -19 -17 -19h-551q-18 0 -18 19z" />
<glyph unicode="." horiz-adv-x="417" d="M176 18l19 156q4 19 20 19h35q17 0 14 -19l-18 -156q-3 -18 -19 -18h-32q-10 0 -15 4t-4 14z" />
<glyph unicode="/" horiz-adv-x="757" d="M76 -285l672 1698q8 19 22 19h37q18 0 12 -19l-669 -1698q-6 -18 -27 -18h-37q-17 0 -10 18z" />
<glyph unicode="0" horiz-adv-x="1085" d="M180 211q0 17 4 53l107 866q6 51 20 90t44 76t75.5 61t117 38t165.5 14q102 0 173.5 -17t111.5 -49t57.5 -72t17.5 -93q0 -34 -2 -50l-104 -866q-7 -64 -29.5 -111t-69 -86.5t-128.5 -60t-199 -20.5q-195 0 -278 60t-83 167zM250 225q0 -87 66.5 -133.5t230.5 -46.5 q95 0 162 16t105.5 48t57.5 70t25 91l104 850q3 24 3 45q0 89 -66 136t-231 47q-95 0 -162 -16.5t-105 -48t-57 -70t-25 -91.5l-104 -850q-4 -46 -4 -47z" />
<glyph unicode="1" horiz-adv-x="1085" d="M160 18l2 25q3 18 20 18h355l155 1262l-366 -106q-8 -2 -12 2.5t-3 13.5l2 24q0 14 21 21l418 117q8 2 13.5 -2t4.5 -13l-164 -1319h355q16 0 16 -18l-2 -25q-3 -18 -21 -18h-778q-16 0 -16 18z" />
<glyph unicode="2" horiz-adv-x="1085" d="M190 18l52 406q5 37 23.5 68.5t41.5 50.5t53.5 34t50.5 21.5t40 11.5l372 97q19 5 40 14.5t47.5 27.5t46 48t24.5 67l33 258q2 16 2 47q0 86 -64.5 132.5t-228.5 46.5q-96 0 -162 -16t-102.5 -48t-53.5 -69.5t-24 -90.5l-14 -106q-3 -19 -19 -19h-33q-19 0 -16 19l14 112 q7 51 20 90t42.5 76t73.5 60.5t115 38t165 14.5q102 0 173 -16.5t110 -48.5t56 -71t17 -91q0 -36 -2 -54l-32 -264q-6 -52 -30 -93t-57.5 -65t-61.5 -37.5t-54 -19.5l-363 -92q-164 -44 -176 -149l-43 -347h672q17 0 14 -18l-2 -25q0 -18 -20 -18h-723q-20 0 -17 18z" />
<glyph unicode="3" horiz-adv-x="1085" d="M172 213q0 27 2 43l4 33q3 18 21 18h32q18 0 15 -18l-4 -27q-2 -14 -2 -41q0 -86 65.5 -132t226.5 -46q179 0 256.5 56.5t88.5 162.5l28 242q4 36 4 49q0 40 -12.5 68.5t-43.5 51t-87.5 33.5t-138.5 11h-197q-18 0 -18 18l2 25q3 18 22 18h187q96 0 159.5 14t98.5 44 t50.5 65.5t22.5 89.5l17 139q2 20 2 44q0 85 -63 130.5t-218 45.5q-176 0 -251 -57.5t-83 -162.5l-2 -26q0 -19 -18 -19h-33q-16 0 -16 19l2 33q4 60 25.5 107t67 85.5t125.5 59t191 20.5q127 0 205.5 -29.5t108.5 -77t30 -116.5q0 -15 -4 -51l-18 -152 q-11 -100 -57.5 -155.5t-159.5 -77.5q96 -21 135 -67.5t39 -119.5q0 -17 -4 -57l-31 -250q-8 -64 -30.5 -110.5t-68.5 -84.5t-125 -57.5t-192 -19.5q-99 0 -169.5 16.5t-110.5 48t-58 71.5t-18 93z" />
<glyph unicode="4" horiz-adv-x="1085" d="M172 494l4 24q2 14 12 33l414 823q10 19 27 19h37q19 0 8 -19l-420 -833h635l102 833q3 19 21 19h32q18 0 15 -19l-166 -1356q-3 -18 -19 -18h-32q-9 0 -14.5 5.5t-4.5 12.5l58 461h-693q-8 0 -12.5 4t-3.5 11z" />
<glyph unicode="5" horiz-adv-x="1085" d="M207 211q0 29 2 45l2 33q0 18 20 18h33q17 0 17 -18l-2 -25q-3 -24 -3 -47q0 -42 11 -71.5t40 -54t84 -36.5t138 -12q94 0 157 15.5t97.5 46.5t49.5 67.5t21 89.5l35 293q4 36 4 43q0 164 -282 164h-320q-19 0 -16 18l74 594q3 19 18 19h645q18 0 15 -19l-3 -24 q0 -19 -18 -19h-594l-63 -508h268q164 0 255 -54.5t91 -158.5q0 -13 -4 -49l-37 -305q-7 -65 -27 -110.5t-62.5 -84t-120 -58t-189.5 -19.5q-99 0 -166.5 16t-104 48t-51 71t-14.5 92z" />
<glyph unicode="6" horiz-adv-x="1085" d="M193 209q0 17 4 53l108 885q5 43 17.5 77.5t41 70t71.5 59.5t114.5 39.5t165.5 15.5q346 0 346 -223q0 -14 -2 -39l-2 -29q0 -16 -21 -16h-32q-18 0 -15 16l2 23l1 13q1 12 1 17q0 38 -12 67.5t-41.5 56t-88 41t-144.5 14.5q-75 0 -133 -12t-93.5 -31t-59.5 -47t-34 -56 t-14 -63l-56 -449q76 125 336 125q353 0 353 -229q0 -11 -5 -51l-32 -275q-7 -64 -29 -111t-67.5 -86.5t-126.5 -60t-197 -20.5q-101 0 -171.5 16.5t-110 47.5t-57 70t-17.5 91zM262 221q0 -56 24 -93t90.5 -61t176.5 -24q96 0 162.5 16t104 48t55.5 70t24 91l33 264 q4 32 4 46q0 86 -66.5 133t-230.5 47q-318 0 -340 -205l-33 -283q-4 -32 -4 -49z" />
<glyph unicode="7" horiz-adv-x="1085" d="M283 1350l2 24q0 19 20 19h811q20 0 17 -19l-3 -22q0 -7 -10 -27l-698 -1307q-11 -18 -25 -18h-43q-21 0 -12 18l705 1313h-748q-16 0 -16 19z" />
<glyph unicode="8" horiz-adv-x="1085" d="M186 209q0 33 2 53l31 242q13 104 66.5 164.5t177.5 83.5q-97 18 -136.5 66.5t-39.5 123.5q0 19 4 59l16 129q7 52 19 90t39.5 76t70 61t112 37.5t163.5 14.5q191 0 267.5 -58t76.5 -165q0 -16 -4 -56l-17 -131q-13 -107 -63 -166t-172 -81q103 -21 145.5 -71.5 t42.5 -129.5q0 -31 -2 -49l-29 -240q-6 -51 -19.5 -90t-42.5 -75.5t-74 -60.5t-116 -38t-165 -14q-100 0 -170.5 16.5t-109.5 47.5t-56 70t-17 91zM254 221q0 -86 64.5 -132t226.5 -46q95 0 161.5 16t103.5 48t55 70t24 91l26 228q3 24 3 45q0 42 -13 73t-44.5 56t-90 38 t-143.5 13q-77 0 -134.5 -11t-94 -30t-60.5 -48.5t-35 -60.5t-16 -73l-29 -230q-4 -32 -4 -47zM356 956q0 -42 12.5 -72t42.5 -54.5t86 -37t138 -12.5q95 0 159.5 16t99.5 48.5t50.5 70t22.5 91.5l14 118q4 36 4 52q0 85 -60.5 129.5t-219.5 44.5q-77 0 -133.5 -11.5 t-91.5 -30t-57.5 -49t-32.5 -61.5t-15 -74l-15 -118q-4 -36 -4 -50z" />
<glyph unicode="9" horiz-adv-x="1085" d="M190 207q0 24 3 39l4 28q3 17 20 17h31q19 0 16 -17l-2 -22q0 -3 -1 -15t-1 -16q0 -38 12.5 -67.5t42.5 -55.5t89 -40.5t145 -14.5q93 0 159 17t101 48.5t51 65.5t21 78l55 448q-76 -125 -338 -125q-190 0 -270 61t-80 169q0 19 4 51l33 274q7 64 28.5 111t66.5 87 t125.5 60.5t196.5 20.5q195 0 277 -59t82 -166q0 -18 -4 -54l-109 -884q-5 -43 -16.5 -77t-39.5 -70.5t-70.5 -60t-113.5 -39t-165 -15.5q-353 0 -353 223zM317 815q0 -86 66 -133t229 -47q91 0 156 15.5t103 45t56.5 64.5t24.5 80l33 282q4 32 4 49q0 86 -64 132.5 t-225 46.5q-96 0 -163 -16t-104.5 -48.5t-56 -70.5t-24.5 -91l-30 -264q-5 -40 -5 -45z" />
<glyph unicode=":" horiz-adv-x="417" d="M176 18l19 156q3 19 20 19h33q17 0 14 -19l-18 -156q-3 -18 -21 -18h-33q-17 0 -14 18zM276 831l19 156q3 19 20 19h33q20 0 17 -19l-21 -156q-3 -18 -20 -18h-33q-18 0 -15 18z" />
<glyph unicode=";" horiz-adv-x="528" d="M154 -127q-4 17 14 25q62 28 89.5 65t35.5 94l14 117q3 19 19 19h36q7 0 12 -5.5t3 -13.5l-17 -119q-18 -160 -178 -215q-14 -6 -18 6zM387 831l19 156q3 19 22 19h33q14 0 14 -19l-18 -156q0 -18 -21 -18h-33q-16 0 -16 18z" />
<glyph unicode="&#x3c;" horiz-adv-x="1122" d="M268 680v35q0 13 17 20l716 334q8 3 13.5 0t5.5 -12v-35q0 -12 -19 -21l-663 -303l663 -303q19 -9 19 -20v-35q0 -9 -5.5 -12t-13.5 0l-716 331q-17 7 -17 21z" />
<glyph unicode="=" horiz-adv-x="1212" d="M246 512v25q0 16 18 16h805q18 0 18 -16v-25q0 -18 -18 -18h-805q-18 0 -18 18zM246 846v22q0 19 18 19h805q18 0 18 -19v-22q0 -19 -18 -19h-805q-18 0 -18 19z" />
<glyph unicode="&#x3e;" horiz-adv-x="1122" d="M225 340v35q0 11 19 20l663 303l-663 301q-19 9 -19 21v37q0 21 19 12l717 -332q16 -6 16 -20v-37q0 -15 -16 -21l-717 -333q-19 -10 -19 14z" />
<glyph unicode="?" horiz-adv-x="1163" d="M307 1018l15 112q8 64 31 111t70 87t129.5 60.5t199.5 20.5q200 0 284 -62t84 -173q0 -30 -2 -46l-22 -190q-17 -152 -187 -233l-110 -54q-27 -13 -51 -30t-49 -53.5t-31 -80.5l-23 -159q-3 -19 -18 -19h-35q-18 0 -14 19l20 172q15 131 164 200l123 60q19 9 37.5 21.5 t41.5 34t40 54t22 70.5l25 184q2 14 2 39q0 89 -70 137t-238 48q-184 0 -263.5 -58.5t-92.5 -165.5l-14 -106q-3 -19 -21 -19h-32q-18 0 -15 19zM539 18l18 154q3 21 21 21h34q18 0 15 -19l-19 -156q-3 -18 -20 -18h-33q-19 0 -16 18z" />
<glyph unicode="@" horiz-adv-x="1624" d="M215 49q0 4 8 76l101 821q6 53 27 95.5t66.5 82t115.5 65t179 41t251 15.5q161 0 274.5 -19.5t176.5 -56t90.5 -82t27.5 -104.5q0 -3 -4 -49l-80 -633q-15 -114 -67 -173.5t-160 -59.5q-74 0 -119 35t-51 98q-186 -133 -351 -133q-106 0 -157 44.5t-51 123.5q0 36 8 69 l88 393q27 117 94.5 179.5t204.5 62.5q155 0 287 -127l24 92q6 19 21 19h26q7 0 12 -5.5t3 -13.5l-136 -596q-8 -33 -8 -67q0 -57 28.5 -88t84.5 -31q129 0 153 184l78 625q4 28 4 41q0 49 -25.5 86.5t-82.5 66.5t-158 44.5t-242 15.5q-152 0 -261.5 -18t-172.5 -51.5 t-94 -75t-37 -95.5l-102 -831q-6 -48 -6 -56q0 -69 44 -114t159 -72t305 -27h387q14 0 14 -16l-2 -27q0 -16 -21 -16h-385q-161 0 -274.5 19.5t-176.5 56t-90.5 82t-27.5 104.5zM561 256q0 -60 40.5 -93.5t125.5 -33.5q147 0 322 127q4 30 8 45l100 451q-22 23 -38.5 37.5 t-51.5 39t-80 37.5t-96 13q-108 0 -162.5 -51t-75.5 -138l-84 -377q-8 -36 -8 -57z" />
<glyph unicode="A" horiz-adv-x="1046" d="M59 18l590 1356q9 19 25 19h37q17 0 20 -19l256 -1356q1 -4 1 -6q0 -12 -13 -12h-37q-17 0 -20 18l-82 431h-521l-188 -431q-6 -18 -23 -18h-30q-17 0 -17 10q0 4 2 8zM340 508h487l-118 625l-27 180q-4 -9 -29 -78.5t-37 -95.5z" />
<glyph unicode="B" horiz-adv-x="1179" d="M211 18l166 1356q3 19 20 19h340q381 0 381 -236q0 -29 -2 -43l-18 -141q-13 -96 -67 -157t-167 -89q228 -41 228 -219q0 -27 -2 -39l-25 -195q-6 -50 -22.5 -89.5t-49.5 -75t-81.5 -59t-122 -37t-168.5 -13.5h-394q-19 0 -16 18zM285 59h340q96 0 166.5 16.5t113 47.5 t64.5 70t28 90l23 184q2 12 2 37q0 90 -72.5 139t-244.5 49h-343zM371 752h315q316 0 344 223l17 133q2 12 2 37q0 91 -73.5 139.5t-244.5 48.5h-289z" />
<glyph unicode="C" horiz-adv-x="1110" d="M213 215q0 17 4 49l107 866q7 63 30.5 111t71.5 87.5t131.5 60t200.5 20.5q202 0 288.5 -62t86.5 -173q0 -22 -3 -46l-14 -106q-3 -18 -18 -18h-33q-19 0 -16 18l12 100q2 12 2 39q0 89 -70.5 138t-238.5 49q-186 0 -268 -59t-95 -167l-104 -850q-2 -14 -2 -41 q0 -90 69.5 -138t237.5 -48q186 0 268.5 58.5t95.5 166.5l17 125q3 17 18 17h33q19 0 16 -17l-16 -133q-6 -50 -21.5 -90t-47.5 -76t-79.5 -60t-120.5 -38t-167 -14q-375 0 -375 231z" />
<glyph unicode="D" horiz-adv-x="1216" d="M211 18l166 1356q3 19 18 19h393q383 0 383 -238q0 -31 -2 -45l-102 -831q-7 -63 -32 -111t-74.5 -87t-134.5 -60t-203 -21h-396q-19 0 -16 18zM285 61h342q186 0 271.5 59.5t98.5 166.5l101 817q2 12 2 37q0 91 -73 140.5t-245 49.5h-340z" />
<glyph unicode="E" horiz-adv-x="1087" d="M211 18l166 1356q3 19 20 19h699q16 0 16 -19l-2 -24q-3 -19 -20 -19h-648l-69 -565h608q16 0 16 -18l-2 -25q0 -18 -20 -18h-610l-80 -644h673q20 0 17 -18l-4 -25q-3 -18 -19 -18h-727q-17 0 -14 18z" />
<glyph unicode="F" horiz-adv-x="1091" d="M211 18l166 1356q3 19 20 19h754q19 0 16 -19l-4 -24q-3 -19 -20 -19h-701l-71 -571h663q20 0 17 -19l-4 -24q-3 -19 -19 -19h-663l-84 -680q-3 -18 -19 -18h-35q-19 0 -16 18z" />
<glyph unicode="G" horiz-adv-x="1144" d="M213 215q0 17 4 49l107 866q7 63 30.5 111t71.5 87.5t131.5 60t200.5 20.5q105 0 179.5 -17t116.5 -49.5t60.5 -73.5t18.5 -95q0 -25 -3 -46l-14 -104q-3 -18 -18 -18h-33q-19 0 -16 18l12 98q2 12 2 39q0 89 -70.5 138t-238.5 49q-185 0 -267.5 -59t-95.5 -167 l-104 -850q-2 -14 -2 -41q0 -90 69 -138t238 -48q127 0 207 29.5t113 76t42 115.5l41 307h-315q-16 0 -16 19l2 24q0 19 20 19h367q18 0 14 -19l-43 -354q-6 -50 -21.5 -90t-47.5 -76t-79.5 -60t-120.5 -38t-167 -14q-375 0 -375 231z" />
<glyph unicode="H" horiz-adv-x="1241" d="M211 18l166 1356q3 19 20 19h35q17 0 14 -19l-71 -594h684l71 594q3 19 21 19h35q14 0 14 -14v-5l-166 -1356q-3 -18 -18 -18h-35q-19 0 -16 18l86 703h-684l-86 -703q-3 -18 -19 -18h-35q-19 0 -16 18z" />
<glyph unicode="I" horiz-adv-x="487" d="M211 18l166 1356q3 19 20 19h35q14 0 14 -14v-5l-165 -1356q-3 -18 -19 -18h-35q-19 0 -16 18z" />
<glyph unicode="J" horiz-adv-x="995" d="M106 213q0 8 5 53l8 70q3 18 20 18h33q17 0 14 -18l-8 -66q-4 -28 -4 -47q0 -86 60 -132t208 -46q166 0 235.5 57.5t82.5 167.5l137 1104q3 19 18 19h35q20 0 17 -19l-138 -1112q-7 -64 -28 -111t-64 -86.5t-118.5 -60t-182.5 -20.5q-178 0 -254 60.5t-76 168.5z" />
<glyph unicode="K" horiz-adv-x="1083" d="M211 18l166 1356q3 19 20 19h33q19 0 16 -19l-77 -647h75l619 649q14 17 31 17h43q11 0 11 -7q0 -5 -5 -12l-639 -669l532 -687q4 -6 1 -12t-11 -6h-43q-17 0 -31 18l-510 654h-82l-81 -654q-3 -18 -19 -18h-33q-19 0 -16 18z" />
<glyph unicode="L" horiz-adv-x="1017" d="M211 18l166 1356q3 19 20 19h35q17 0 14 -19l-161 -1313h641q16 0 16 -18l-2 -25q-3 -18 -20 -18h-695q-17 0 -14 18z" />
<glyph unicode="M" horiz-adv-x="1462" d="M211 18l166 1356q0 7 5 13t13 6h29q12 0 16 -11l303 -1015q20 -78 21 -84q5 14 41 84l547 1015q6 11 18 11h35q14 0 14 -14v-5l-166 -1356q-3 -18 -18 -18h-33q-19 0 -16 18l149 1217q-1 -3 -17 -37.5t-24 -50.5l-493 -916q-9 -18 -27 -18h-35q-16 0 -22 18l-275 924 q-10 31 -16 80l-152 -1217q-3 -18 -18 -18h-29q-19 0 -16 18z" />
<glyph unicode="N" horiz-adv-x="1239" d="M211 18l166 1356q3 19 20 19h25q13 0 16 -9l496 -1132q45 -101 45 -111l151 1233q3 19 21 19h29q19 0 16 -19l-168 -1356q-3 -18 -18 -18h-27q-13 0 -16 8l-494 1129q-14 32 -45 116l-154 -1235q-3 -18 -18 -18h-29q-19 0 -16 18z" />
<glyph unicode="O" horiz-adv-x="1193" d="M213 217q0 15 4 47l107 866q7 63 31.5 111t74 87t134 60t202.5 21q383 0 383 -238q0 -29 -2 -43l-107 -866q-7 -63 -32.5 -111t-75.5 -87t-135 -59.5t-203 -20.5q-381 0 -381 233zM285 236q0 -91 72.5 -141t242.5 -50q187 0 272.5 59t98.5 166l104 850q2 14 2 37 q0 91 -72.5 141t-244.5 50q-185 0 -270.5 -59.5t-98.5 -166.5l-104 -850q-2 -14 -2 -36z" />
<glyph unicode="P" horiz-adv-x="1144" d="M211 18l166 1356q3 19 18 19h391q202 0 291.5 -66.5t89.5 -179.5q0 -27 -2 -43l-32 -268q-8 -63 -33.5 -110.5t-75.5 -84.5t-134 -56.5t-202 -19.5h-340l-67 -547q-3 -18 -19 -18h-35q-19 0 -16 18zM356 627h338q128 0 209.5 28t117.5 74t44 115l31 254q2 12 2 37 q0 93 -72.5 144.5t-245.5 51.5h-338z" />
<glyph unicode="Q" horiz-adv-x="1191" d="M213 217q0 15 4 47l107 866q7 63 31.5 111t74 87t134 60t202.5 21q383 0 383 -238q0 -29 -2 -43l-107 -866q-13 -116 -95 -188t-259 -86l277 -287q11 -11 -2 -25l-21 -20q-6 -6 -12 -6t-13 6l-313 328h-8q-381 0 -381 233zM285 236q0 -91 72.5 -141t242.5 -50 q187 0 272.5 59t98.5 166l104 850q2 14 2 37q0 91 -72.5 141t-244.5 50q-185 0 -270.5 -59.5t-98.5 -166.5l-104 -850q-2 -14 -2 -36z" />
<glyph unicode="R" horiz-adv-x="1198" d="M211 18l166 1356q3 19 18 19h391q202 0 291.5 -66.5t89.5 -179.5q0 -27 -2 -43l-28 -246q-13 -107 -83.5 -173.5t-222.5 -88.5l224 -578q3 -8 -2 -13t-15 -5h-34q-18 0 -25 18l-217 572q-23 -2 -72 -2h-340l-69 -570q-3 -18 -19 -18h-35q-19 0 -16 18zM358 649h338 q187 0 274.5 56t98.5 161l27 232q2 12 2 37q0 93 -73 144.5t-245 51.5h-338z" />
<glyph unicode="S" horiz-adv-x="1148" d="M197 219q0 9 4 45l12 98q3 19 18 19h33q20 0 17 -19l-13 -92q-2 -14 -2 -39q0 -90 72 -139t244 -49q187 0 272 59t98 166l21 168q2 16 2 27q0 112 -148 172l-368 149q-66 26 -111 79t-45 130q0 15 4 47l10 90q6 50 21 90t46.5 76.5t78.5 60.5t119.5 38t167.5 14 q368 0 368 -233q0 -32 -2 -46l-12 -104q-3 -18 -21 -18h-32q-20 0 -17 18l13 98q2 16 2 39q0 90 -69.5 138.5t-236.5 48.5q-96 0 -165 -16.5t-109 -47.5t-59.5 -70t-24.5 -90l-8 -79q-4 -36 -4 -43q0 -109 121 -158l378 -154q170 -70 170 -219q0 -21 -2 -33l-20 -178 q-7 -63 -32 -111t-74.5 -87t-134 -59.5t-201.5 -20.5q-381 0 -381 235z" />
<glyph unicode="T" horiz-adv-x="976" d="M209 1350l2 24q0 19 20 19h848q20 0 17 -19l-2 -24q0 -19 -21 -19h-389l-162 -1313q-3 -18 -18 -18h-35q-19 0 -16 18l161 1313h-389q-16 0 -16 19z" />
<glyph unicode="U" horiz-adv-x="1216" d="M225 221q0 31 2 45l138 1108q3 19 18 19h33q21 0 18 -19l-137 -1098q-2 -16 -2 -40q0 -91 73 -141t242 -50q188 0 273 59t98 166l137 1104q3 19 19 19h32q22 0 19 -19l-137 -1112q-8 -63 -33 -110.5t-74.5 -87t-134.5 -60t-203 -20.5q-381 0 -381 237z" />
<glyph unicode="V" horiz-adv-x="1046" d="M225 1374q-3 19 19 19h35q15 0 18 -19l213 -1114q5 -29 10 -70.5t8 -69.5t4 -30q32 95 64 164l487 1120q9 19 23 19h37q14 0 14 -10q0 -4 -2 -9l-590 -1356q-9 -18 -24 -18h-35q-22 0 -25 18z" />
<glyph unicode="W" horiz-adv-x="1597" d="M225 1374q-3 19 19 19h32q16 0 19 -19l149 -1118q15 -123 15 -137l49 137l422 1118q6 19 24 19h33q16 0 19 -19l147 -1118q14 -104 14 -137q7 30 50 137l421 1118q6 19 25 19h33q12 0 12 -9q0 -4 -2 -10l-510 -1356q-6 -18 -25 -18h-34q-20 0 -23 18l-147 1133 q-13 110 -13 119l-41 -119l-428 -1133q-6 -18 -24 -18h-35q-20 0 -23 18z" />
<glyph unicode="X" horiz-adv-x="1103" d="M103 5q-1 2 -1 5q0 4 2 8l490 687l-315 669q-4 6 -1 12.5t11 6.5h41q16 0 24 -19l291 -610l424 610q13 19 29 19h41q11 0 11 -7q0 -5 -5 -12l-471 -672l325 -684q7 -18 -12 -18h-39q-21 0 -28 18l-295 623l-443 -623q-11 -18 -28 -18h-39q-9 0 -12 5z" />
<glyph unicode="Y" horiz-adv-x="1026" d="M217 1374q-2 5 -2 9q0 10 16 10h39q15 0 21 -19l280 -667q18 -47 21 -62q3 12 33 62l444 667q15 19 27 19h37q15 0 15 -8q0 -4 -5 -11l-525 -786l-69 -570q-3 -18 -19 -18h-32q-10 0 -15 4.5t-4 13.5l70 564z" />
<glyph unicode="Z" horiz-adv-x="1036" d="M125 16l4 23q3 13 10 24l840 1268h-637q-19 0 -16 19l4 24q3 19 20 19h707q14 0 14 -19l-2 -24q0 -10 -6 -19l-844 -1270h705q19 0 16 -18l-4 -25q-3 -18 -18 -18h-775q-9 0 -14 4.5t-4 11.5z" />
<glyph unicode="[" horiz-adv-x="716" d="M154 -414l227 1827q3 19 20 19h330q14 0 14 -19l-2 -24q0 -19 -18 -19h-281l-215 -1741h279q16 0 16 -18l-2 -25q-3 -18 -18 -18h-332q-18 0 -18 18z" />
<glyph unicode="\" horiz-adv-x="757" d="M285 1413q-4 19 14 19h33q19 0 22 -19l252 -1696q3 -20 -16 -20h-35q-15 0 -18 18z" />
<glyph unicode="]" horiz-adv-x="716" d="M90 -414l2 25q0 18 19 18h280l215 1741h-278q-17 0 -17 19l2 24q3 19 19 19h332q18 0 18 -19l-227 -1827q-3 -18 -21 -18h-330q-17 0 -14 18z" />
<glyph unicode="^" horiz-adv-x="1116" d="M266 657l332 717q8 16 14 18q2 1 6 1h37q11 0 21 -19l332 -717q7 -18 -13 -18h-34q-14 0 -21 18l-303 664l-303 -664q-7 -18 -21 -18h-34q-20 0 -13 18z" />
<glyph unicode="_" horiz-adv-x="860" d="M16 -205q0 19 19 19h727q18 0 18 -19v-22q0 -19 -18 -19h-727q-19 0 -19 19v22z" />
<glyph unicode="`" horiz-adv-x="698" d="M405 1444q3 6 13 6h37q15 0 22 -14l125 -248q10 -17 -8 -17h-29q-16 0 -20 11l-139 250q-4 6 -1 12z" />
<glyph unicode="a" d="M182 186q0 13 4 37l70 559q13 111 88 175.5t217 64.5q116 0 204 -39.5t144 -89.5l15 94q6 19 20 19h29q14 0 14 -19l-119 -969q-3 -18 -20 -18h-29q-14 0 -14 18l6 93q-178 -127 -377 -127q-124 0 -188 54t-64 148zM252 201q0 -71 50.5 -113.5t152.5 -42.5q186 0 364 129 l82 655q-138 132 -334 132q-110 0 -172 -51t-73 -134l-68 -547q-2 -10 -2 -28z" />
<glyph unicode="b" d="M186 18l170 1395q3 19 21 19h33q20 0 16 -19l-64 -518q178 127 375 127q124 0 189 -55t65 -150q0 -17 -2 -35l-69 -559q-13 -110 -89.5 -174.5t-218.5 -64.5q-117 0 -205 39t-143 88l-14 -93q-3 -18 -21 -18h-28q-18 0 -15 18zM274 174q143 -129 332 -129q112 0 174 51.5 t72 132.5l68 547q2 18 2 29q0 71 -50.5 113.5t-150.5 42.5q-62 0 -123.5 -14t-109 -37t-79 -42.5t-55.5 -38.5z" />
<glyph unicode="c" horiz-adv-x="964" d="M182 184q0 25 2 39l70 559q7 56 28 97.5t63 75t113 50.5t171 17q171 0 244 -52.5t73 -148.5q0 -23 -2 -41l-6 -39q-2 -11 -5.5 -14.5t-12.5 -3.5h-31q-9 0 -13.5 4.5t-3.5 11.5l5 39q2 14 2 33q0 74 -57.5 114t-198.5 40q-155 0 -223 -49.5t-78 -137.5l-68 -547 q-2 -20 -2 -36q0 -73 57.5 -112.5t198.5 -39.5q155 0 221.5 48t79.5 136l8 56q3 18 21 18h30q18 0 15 -18l-9 -60q-6 -44 -19 -78.5t-40 -65.5t-67.5 -51t-102.5 -32t-143 -12q-171 0 -245.5 52.5t-74.5 147.5z" />
<glyph unicode="d" d="M182 186q0 11 4 39l70 557q14 112 88 176t215 64q199 0 348 -127l64 518q3 19 20 19h33q14 0 14 -14v-5l-170 -1395q-3 -18 -20 -18h-29q-14 0 -14 18l6 93q-178 -127 -377 -127q-124 0 -188 54t-64 148zM252 201q0 -71 50.5 -113.5t152.5 -42.5q186 0 364 129l80 655 q-19 19 -45.5 38.5t-68.5 42.5t-99 37t-119 14q-112 0 -173.5 -51t-71.5 -134l-68 -545q-2 -25 -2 -30z" />
<glyph unicode="e" horiz-adv-x="999" d="M182 186q0 21 2 37l70 559q7 56 28.5 97.5t64 75t114.5 50.5t172 17q323 0 323 -203q0 -25 -2 -37l-32 -256q-3 -18 -19 -18h-614l-37 -279q-2 -16 -2 -32q0 -75 59.5 -115.5t202.5 -40.5q156 0 226.5 48.5t80.5 135.5l6 54q3 18 23 18h29q17 0 14 -18l-6 -56 q-13 -115 -98 -177t-279 -62q-326 0 -326 202zM293 563h567l29 215q2 14 2 31q0 156 -264 156q-105 0 -172.5 -25t-96 -64t-36.5 -96z" />
<glyph unicode="f" horiz-adv-x="626" d="M184 -410l168 1354h-139q-19 0 -16 19l2 18q3 18 20 18l115 5h22l25 196q7 55 29 96.5t64.5 75t114.5 51t171 17.5h10q14 0 14 -14v-5l-2 -22q-3 -19 -20 -19h-8q-156 0 -225.5 -48.5t-79.5 -137.5l-23 -190h252q21 0 18 -19l-2 -22q-3 -19 -20 -19h-254l-168 -1354 q-3 -18 -21 -18h-32q-18 0 -15 18z" />
<glyph unicode="g" d="M176 -412l2 25q0 18 21 18h272q156 0 225.5 49t79.5 136l35 293q-176 -125 -375 -125q-125 0 -189.5 55.5t-64.5 150.5q0 10 8 66l66 526q14 112 89 176t216 64q117 0 205.5 -39.5t142.5 -89.5l15 94q3 19 20 19h29q15 0 15 -13q0 -3 -1 -6l-143 -1175 q-6 -56 -27.5 -97.5t-64 -75t-114.5 -50.5t-173 -17h-272q-10 0 -14 3.5t-3 12.5zM252 203q0 -72 50.5 -115t152.5 -43q186 0 364 129l82 655q-21 20 -47 39t-68.5 42t-99.5 37t-119 14q-111 0 -172.5 -51t-72.5 -134l-68 -543q-2 -16 -2 -30z" />
<glyph unicode="h" horiz-adv-x="1064" d="M188 18l170 1395q3 19 21 19h33q17 0 14 -19l-64 -518q171 127 377 127q124 0 188 -54.5t64 -146.5q0 -23 -2 -35l-94 -768q-3 -18 -21 -18h-32q-18 0 -15 18l93 758q2 10 2 29q0 72 -50.5 114t-152.5 42q-188 0 -365 -130l-98 -813q-3 -18 -20 -18h-33q-18 0 -15 18z " />
<glyph unicode="i" horiz-adv-x="438" d="M188 18l119 969q4 19 19 19h32q22 0 19 -19l-121 -969q-3 -18 -20 -18h-33q-18 0 -15 18zM334 1214l24 199q3 19 21 19h33q14 0 14 -14v-5l-23 -199q-3 -18 -20 -18h-33q-19 0 -16 18z" />
<glyph unicode="j" horiz-adv-x="436" d="M-174 -412l2 25q3 18 20 18h9q280 0 301 185l145 1171q4 19 21 19h32q19 0 15 -19l-146 -1175q-7 -56 -28.5 -98t-64 -75t-113 -50t-169.5 -17h-8q-16 0 -16 16zM330 1214l26 199q3 19 19 19h33q19 0 16 -19l-27 -199q-3 -18 -18 -18h-33q-19 0 -16 18z" />
<glyph unicode="k" horiz-adv-x="899" d="M186 18l170 1395q3 19 21 19h33q18 0 14 -19l-98 -817h75l451 393q17 17 33 17h43q13 0 13 -10q0 -5 -5 -9l-475 -416l413 -553q4 -8 1 -13t-11 -5h-39q-15 0 -30 18l-392 521h-86l-63 -521q-3 -18 -21 -18h-32q-16 0 -16 12q0 3 1 6z" />
<glyph unicode="l" horiz-adv-x="438" d="M186 18l170 1395q3 19 21 19h33q19 0 16 -19l-172 -1395q-4 -18 -18 -18h-35q-18 0 -15 18z" />
<glyph unicode="m" horiz-adv-x="1681" d="M188 18l119 969q3 19 19 19h28q20 0 17 -19l-9 -92q62 49 154.5 88t210.5 39q101 0 164.5 -37.5t81.5 -101.5q34 26 58.5 41.5t76 42.5t114 41t132.5 14q124 0 189 -54.5t65 -146.5q0 -23 -2 -35l-97 -768q-4 -18 -18 -18h-35q-17 0 -14 18l94 756q2 10 2 29 q0 72 -50.5 115t-152.5 43q-195 0 -358 -134q3 -21 0 -51l-94 -758q-3 -18 -19 -18h-35q-17 0 -14 18l92 744q4 32 4 41q0 73 -50 115.5t-152 42.5q-185 0 -355 -130l-98 -813q-4 -18 -18 -18h-35q-18 0 -15 18z" />
<glyph unicode="n" horiz-adv-x="1064" d="M188 18l119 969q3 19 19 19h28q20 0 17 -19l-9 -94q174 129 377 129q124 0 188 -54.5t64 -146.5q0 -25 -2 -37l-94 -766q-3 -18 -21 -18h-32q-18 0 -15 18l93 756q4 16 4 29q0 73 -50 115.5t-153 42.5q-190 0 -367 -130l-98 -813q-3 -18 -20 -18h-33q-18 0 -15 18z" />
<glyph unicode="o" horiz-adv-x="1030" d="M182 188q0 23 2 35l70 559q7 56 29.5 97.5t65.5 75t115.5 50.5t172.5 17q326 0 326 -203q0 -19 -2 -37l-68 -559q-6 -55 -28.5 -96.5t-66 -74.5t-116 -50.5t-172.5 -17.5q-328 0 -328 204zM252 199q0 -75 60.5 -115.5t203.5 -40.5q288 0 309 184l68 551q2 18 2 29 q0 158 -264 158q-288 0 -309 -187l-68 -551q-2 -16 -2 -28z" />
<glyph unicode="p" d="M135 -410l172 1397q3 19 19 19h28q18 0 15 -19l-9 -94q179 129 379 129q124 0 188 -54.5t64 -148.5q0 -25 -2 -37l-69 -559q-13 -110 -88.5 -174.5t-217.5 -64.5q-114 0 -203 38.5t-145 86.5l-63 -519q-1 -10 -5.5 -14t-15.5 -4h-30q-19 0 -17 18zM274 174 q143 -129 334 -129q111 0 172.5 51t71.5 133l68 545q2 16 2 31q0 71 -50.5 113.5t-150.5 42.5q-117 0 -213 -42.5t-152 -89.5z" />
<glyph unicode="q" d="M182 190q0 12 8 66l66 526q14 112 89 176t216 64q118 0 206 -39.5t142 -89.5l15 94q3 19 20 19h29q15 0 15 -13q0 -3 -1 -6l-170 -1397q-3 -18 -20 -18h-33q-20 0 -16 18l63 519q-176 -125 -375 -125q-125 0 -189.5 55.5t-64.5 150.5zM252 203q0 -72 50.5 -115t152.5 -43 q186 0 364 129l82 655q-138 132 -334 132q-112 0 -173.5 -51t-71.5 -134l-68 -543q-2 -20 -2 -30z" />
<glyph unicode="r" horiz-adv-x="673" d="M188 18l119 969q3 19 19 19h28q20 0 17 -19l-11 -117q200 150 375 150q20 0 17 -19l-2 -28q-2 -17 -23 -17q-103 -3 -204.5 -49.5t-170.5 -97.5l-96 -791q-4 -18 -20 -18h-33q-18 0 -15 18z" />
<glyph unicode="s" horiz-adv-x="946" d="M156 170q0 15 2 31l6 53q3 16 18 16h33q14 0 12 -16l-6 -49q-2 -14 -2 -27q0 -66 66.5 -102.5t197.5 -36.5q142 0 221 42.5t87 115.5l12 104q0 2 1 12.5t1 18.5q0 42 -32.5 67t-88.5 43l-313 97q-57 16 -98.5 59.5t-41.5 101.5q0 19 2 31l13 84q28 207 356 207 q156 0 234.5 -51t78.5 -131q0 -19 -2 -39l-8 -60q-3 -14 -18 -14h-31q-8 0 -12.5 4t-3.5 10l8 56q2 16 2 39q0 58 -61.5 95.5t-190.5 37.5q-139 0 -210 -41.5t-79 -112.5l-8 -74q-2 -14 -2 -28q0 -42 30 -73t81 -46l315 -94q145 -44 145 -154q0 -10 -1 -22t-1 -13l-14 -121 q-11 -93 -104.5 -149.5t-270.5 -56.5q-161 0 -242 52t-81 134z" />
<glyph unicode="t" horiz-adv-x="692" d="M182 963l2 18q3 18 21 18l135 5h2l29 227q3 18 20 18h31q19 0 16 -18l-28 -227h256q14 0 14 -19v-24q0 -17 -23 -17h-256l-84 -696q-2 -12 -2 -33q0 -75 58.5 -115.5t199.5 -40.5h31q14 0 14 -18v-23q0 -18 -22 -18h-35q-171 0 -243 51t-72 148q0 23 2 41l86 704h-137 q-15 0 -15 14v5z" />
<glyph unicode="u" horiz-adv-x="1052" d="M195 184q0 17 2 35l94 768q3 19 20 19h33q18 0 16 -19l-94 -756q-2 -16 -2 -28q0 -73 50 -115.5t153 -42.5q192 0 352 129l99 813q3 19 20 19h33q19 0 16 -19l-121 -969q-3 -18 -16 -18h-29q-21 0 -18 18l8 93q-158 -127 -362 -127q-125 0 -189.5 54t-64.5 146z" />
<glyph unicode="v" horiz-adv-x="835" d="M168 985q-1 4 -1 7q0 14 15 14h37q14 0 17 -19l178 -803q3 -16 8 -50t6 -40q31 82 35 90l377 803q10 19 22 19h33q9 0 13 -6q2 -3 2 -6t-1 -7l-452 -969q-9 -18 -23 -18h-37q-13 0 -16 18z" />
<glyph unicode="w" horiz-adv-x="1271" d="M164 987q-1 2 -1 5q-1 4 3 8q4 6 14 6h35q15 0 18 -19l119 -813l10 -78q8 30 27 78l324 813q6 19 24 19h45q16 0 19 -19l117 -813l8 -74l26 74l324 813q6 19 22 19h33q12 0 12 -9q0 -4 -2 -10l-389 -969q-6 -18 -22 -18h-37q-13 0 -16 18l-121 811q-8 62 -8 91 q-2 -3 -17.5 -44t-19.5 -49l-328 -809q-9 -18 -23 -18h-36q-14 0 -17 18z" />
<glyph unicode="x" horiz-adv-x="935" d="M86 6q-1 2 0 4q0 4 4 8l399 494l-270 475q-9 19 12 19h39q14 0 25 -19l246 -426l336 426q15 19 30 19h39q10 0 10 -9q0 -5 -4 -10l-385 -479l279 -485q12 -23 -10 -23h-37q-18 0 -27 18l-252 441l-354 -441q-14 -18 -31 -18h-37q-10 0 -12 6z" />
<glyph unicode="y" horiz-adv-x="835" d="M168 987q-1 3 -1 6q0 13 15 13h35q16 0 19 -19l178 -803q1 -8 5.5 -30.5t7.5 -39t3 -20.5q11 35 35 90l375 803q10 19 22 19h33q10 0 14 -5q2 -3 2 -6t-2 -8l-649 -1399q-7 -18 -24 -18h-29q-21 0 -12 18l190 414z" />
<glyph unicode="z" horiz-adv-x="937" d="M127 18l2 19q1 12 21 37l675 872h-542q-18 0 -15 19l2 24q0 17 21 17h610q17 0 14 -17l-2 -18q0 -12 -10 -25l-688 -887h594q17 0 14 -18l-2 -23q-3 -18 -20 -18h-658q-19 0 -16 18z" />
<glyph unicode="{" horiz-adv-x="915" d="M178 498l4 22q3 19 19 19h4q139 0 204 48.5t76 137.5l60 485q7 55 28.5 96.5t63.5 75t113.5 51t171.5 17.5h10q18 0 14 -18l-2 -23q0 -18 -18 -18h-8q-81 0 -139 -13.5t-92 -39.5t-50.5 -58.5t-22.5 -75.5l-59 -485q-10 -90 -63 -141t-152 -70q164 -33 164 -176 q0 -24 -4 -60l-58 -456q-4 -24 -4 -45q0 -75 59 -116.5t201 -41.5h9q14 0 14 -19l-2 -22q0 -18 -19 -18h-8q-323 0 -323 204q0 28 4 56l55 454q6 54 6 58q0 153 -237 153h-2q-20 0 -17 19z" />
<glyph unicode="|" horiz-adv-x="487" d="M244 -414v1827q0 19 16 19h35q16 0 16 -19v-1827q0 -18 -16 -18h-35q-16 0 -16 18z" />
<glyph unicode="}" horiz-adv-x="915" d="M86 -428l2 22q0 19 21 19h8q106 0 172.5 25t93.5 63.5t35 97.5l61 500q10 89 63.5 139.5t153.5 69.5q-166 33 -166 178q0 23 5 53l55 451q4 28 4 45q0 74 -59 115t-199 41h-8q-17 0 -17 18l2 23q3 18 21 18h6q324 0 324 -205q0 -8 -5 -53l-55 -451q-4 -28 -4 -49 q0 -153 238 -153h2q16 0 16 -19l-2 -24q0 -17 -23 -17h-2q-256 0 -280 -184l-62 -502q-10 -74 -45 -124.5t-117.5 -82.5t-211.5 -32h-11q-16 0 -16 18z" />
<glyph unicode="~" horiz-adv-x="974" d="M242 475v31q3 94 35 133t90 39q42 0 102 -37l166 -98q56 -29 84 -29q42 0 55.5 25t13.5 100v20q0 17 19 17h20q17 0 17 -19v-32q-3 -95 -34 -133.5t-87 -38.5q-48 0 -111 39l-168 100q-43 24 -73 24q-43 0 -58.5 -25t-15.5 -99v-19q0 -18 -21 -18h-18q-16 0 -16 20z" />
<glyph unicode="&#xa1;" horiz-adv-x="493" d="M162 -369l69 576l68 471q3 18 20 18h23q14 0 14 -18l-51 -471l-69 -576q-3 -18 -21 -18h-37q-19 0 -16 18zM311 831l21 156q3 19 20 19h31q21 0 18 -19l-20 -156q-3 -18 -21 -18h-34q-19 0 -15 18z" />
<glyph unicode="&#xa2;" horiz-adv-x="1064" d="M231 377q0 25 2 39l70 559q13 111 89.5 172t252.5 65l21 162q3 19 20 19h33q17 0 14 -19l-18 -162q151 -6 215.5 -57t64.5 -141q0 -23 -2 -41l-6 -39q-3 -19 -18 -19h-31q-19 0 -16 17l4 39q2 14 2 33q0 73 -57.5 113t-198.5 40q-155 0 -223 -49t-78 -137l-68 -547 q-2 -20 -2 -37q0 -73 57.5 -112t198.5 -39q155 0 221.5 48t79.5 136l8 55q3 19 21 19h31q17 0 14 -19l-8 -59q-7 -53 -26 -93t-56 -73.5t-100.5 -52t-153.5 -21.5l-21 -158q-3 -18 -18 -18h-33q-21 0 -18 18l20 158q-287 8 -287 201z" />
<glyph unicode="&#xa3;" horiz-adv-x="1325" d="M188 18l2 25q0 16 21 16h123l78 615h-125q-15 0 -15 18l2 25q3 16 21 16h123l51 416q7 65 26 108.5t62 80t121 54t194 17.5q195 0 272 -52t77 -155q0 -17 -4 -53l-7 -53q-3 -19 -20 -19h-31q-20 0 -16 21l6 43q4 36 4 51q0 79 -62.5 117.5t-224.5 38.5q-77 0 -132.5 -9.5 t-91 -25.5t-57.5 -43t-32.5 -57t-15.5 -72l-50 -408h369q17 0 14 -16l-2 -25q0 -18 -20 -18h-367l-78 -615h455q36 0 68.5 6t67 23.5t59.5 45.5t41 77t16 113v8q3 18 20 18h29q17 0 17 -18v-8q-5 -324 -314 -324h-659q-15 0 -15 18z" />
<glyph unicode="&#xa4;" horiz-adv-x="1101" d="M141 571v17q0 18 21 18h172l22 185h-172q-19 0 -16 16l2 16q3 19 20 19h172l37 288q7 63 31 111t72 87.5t131.5 60t200.5 20.5q202 0 288 -62t86 -173q0 -30 -2 -46l-14 -106q-3 -18 -18 -18h-33q-20 0 -17 18l13 100q2 12 2 39q0 89 -71 138t-239 49q-186 0 -267.5 -59 t-94.5 -167l-35 -280h326q16 0 16 -19v-16q0 -16 -22 -16h-326l-23 -185h326q19 0 16 -18l-2 -17q-3 -16 -18 -16h-328l-35 -283q-2 -14 -2 -41q0 -90 70 -138t238 -48q186 0 268.5 58.5t95.5 166.5l17 125q3 17 18 17h33q19 0 16 -17l-16 -133q-6 -50 -21.5 -90t-47.5 -76 t-79.5 -60t-120.5 -38t-167 -14q-375 0 -375 231q0 17 4 49l35 291h-170q-17 0 -17 16z" />
<glyph unicode="&#xa5;" horiz-adv-x="1030" d="M203 596l2 16q3 17 18 17h307l-75 184h-207q-17 0 -17 18v17q0 16 21 16h180l-213 510q-8 19 14 19h39q15 0 21 -19l280 -667q18 -47 21 -62q2 11 33 62l444 667q15 19 27 19h37q24 0 10 -19l-340 -510h182q17 0 17 -16v-17q0 -18 -21 -18h-213l-123 -184h309 q11 0 15.5 -4t3.5 -13l-2 -16q-3 -18 -21 -18h-334l-67 -560q-3 -18 -19 -18h-32q-9 0 -14.5 4.5t-4.5 13.5l70 560h-332q-19 0 -16 18z" />
<glyph unicode="&#xa6;" horiz-adv-x="438" d="M227 299q0 18 19 18h33q18 0 18 -18v-713q0 -18 -18 -18h-33q-19 0 -19 18v713zM227 662v712q0 19 19 19h33q18 0 18 -19v-712q0 -19 -18 -19h-33q-19 0 -19 19z" />
<glyph unicode="&#xa7;" horiz-adv-x="1120" d="M180 -240q0 18 4 50l2 18q3 18 21 18h31q17 0 14 -20l-2 -16q-4 -24 -4 -41q0 -158 264 -158q155 0 224 48t81 136l21 158q4 28 4 41q0 95 -142 133l-274 82q-24 7 -47.5 19t-48.5 33t-40.5 53.5t-15.5 72.5q0 29 2 43l27 219q3 19 21 19h28q20 0 17 -19l-25 -203 q-4 -28 -4 -47q0 -31 13 -56.5t35 -40.5t38 -23t33 -13l276 -82q174 -50 174 -178q0 -19 -4 -51l-18 -158q-13 -114 -100 -176.5t-279 -62.5q-174 0 -250 52.5t-76 149.5zM328 963q0 21 4 49l20 157q15 115 100.5 177.5t278.5 62.5q324 0 324 -203q0 -19 -4 -47l-2 -20 q-3 -19 -21 -19h-29q-19 0 -16 21l2 16q4 24 4 43q0 75 -59.5 115.5t-202.5 40.5q-106 0 -174 -25t-96.5 -64t-36.5 -96l-21 -155q-2 -16 -2 -43q0 -95 142 -133l274 -80q23 -7 46.5 -19.5t49 -33.5t41 -53.5t15.5 -71.5q0 -31 -2 -45l-29 -220q-3 -18 -21 -18h-28 q-20 0 -17 18l27 203q4 28 4 49q0 31 -13.5 55.5t-35 39.5t-38 23t-34.5 13l-274 82q-176 55 -176 181z" />
<glyph unicode="&#xa8;" horiz-adv-x="595" d="M326 1214l24 203q3 19 21 19h22q18 0 15 -19l-25 -203q-3 -18 -21 -18h-20q-19 0 -16 18zM506 1214l24 203q3 19 21 19h22q18 0 15 -19l-25 -203q-3 -18 -20 -18h-21q-19 0 -16 18z" />
<glyph unicode="&#xa9;" horiz-adv-x="1429" d="M240 285v825q0 54 11.5 95.5t45 81t88.5 65.5t146 41.5t214 15.5t213.5 -15.5t145.5 -41.5t88 -65.5t45 -81t12 -95.5v-825q0 -54 -12 -96t-45 -82t-88 -66t-145.5 -41.5t-213.5 -15.5t-214 15.5t-146 41.5t-88.5 66t-45 82t-11.5 96zM297 279q0 -44 12 -79t43 -66.5 t80.5 -52.5t128.5 -33.5t184 -12.5q130 0 220.5 18t139 52.5t69 76t20.5 97.5v835q0 56 -20.5 97.5t-69 76t-139 52.5t-220.5 18q-105 0 -184 -12.5t-128.5 -33.5t-80.5 -52.5t-43 -66.5t-12 -79v-835zM481 498v395q0 57 10 96.5t37 73.5t81 50.5t136 16.5t136 -16.5 t81.5 -50.5t37.5 -73.5t10 -96.5v-39q0 -18 -19 -18h-26q-19 0 -19 18v37q0 46 -6.5 76t-26 57t-61.5 40t-107 13q-66 0 -107.5 -12.5t-61 -40.5t-25.5 -57t-6 -76v-391q0 -46 6 -75t25.5 -57t61 -41.5t107.5 -13.5q65 0 107 13.5t61.5 41.5t26 57.5t6.5 74.5v53q0 18 19 18 h26q19 0 19 -18v-55q0 -57 -10 -96.5t-37.5 -73.5t-81.5 -51t-136 -17t-136 17t-81 51t-37 73.5t-10 96.5z" />
<glyph unicode="&#xaa;" horiz-adv-x="714" d="M252 907q0 5 4 37l39 322q8 66 54.5 104.5t133.5 38.5q114 0 207 -76l10 49q3 17 17 17h22q15 0 11 -15l-70 -579q0 -10 -14 -10h-27q-10 0 -10 10l4 55q-107 -76 -227 -76q-75 0 -114.5 33t-39.5 90zM307 918q0 -89 115 -89q116 0 217 80l45 373q-87 80 -197 80 q-126 0 -139 -102l-37 -297q-1 -9 -2 -17.5t-1.5 -14.5t-0.5 -13z" />
<glyph unicode="&#xab;" horiz-adv-x="1234" d="M231 489l5 27q3 17 20 27l416 291q6 5 12.5 3t5.5 -12l-6 -39q-2 -14 -20 -28l-371 -256l307 -254q16 -16 14 -27l-4 -41q-1 -7 -7.5 -10t-10.5 2l-348 293q-15 15 -13 24zM625 489l4 27q3 17 20 27l416 291q6 5 12.5 3t5.5 -12l-6 -39q-2 -14 -20 -28l-371 -256 l307 -254q17 -17 15 -27l-4 -41q-1 -7 -8 -10t-11 2l-348 293q-14 14 -12 24z" />
<glyph unicode="&#xac;" horiz-adv-x="749" d="M158 637q0 89 63 152t152 63t153 -63t64 -152t-64 -152t-153 -63t-152 63t-63 152z" />
<glyph unicode="&#xad;" horiz-adv-x="958" d="M254 582v22q0 19 18 19h551q17 0 17 -19v-22q0 -19 -17 -19h-551q-18 0 -18 19z" />
<glyph unicode="&#xae;" horiz-adv-x="1247" d="M305 801v358q0 35 8.5 66.5t35.5 66.5t71 59.5t121.5 41t179.5 16.5q412 0 412 -250v-358q0 -248 -412 -248q-102 0 -179.5 16t-121.5 40.5t-71 59.5t-35.5 66t-8.5 66zM358 797q0 -36 15 -67t52 -61.5t112.5 -48.5t183.5 -18q87 0 153 12.5t104 31.5t61.5 46t31.5 52 t8 53v366q0 28 -8 53t-31.5 52.5t-61.5 47t-104 32t-153 12.5t-153.5 -12.5t-105.5 -32t-63 -47t-32.5 -52.5t-8.5 -53v-366zM541 715v512q0 14 14 14h182q103 0 147 -40.5t44 -98.5v-53q0 -45 -27 -81t-88 -50l88 -203q2 -5 -1.5 -9t-10.5 -4h-29q-12 0 -16 13l-84 194 h-164v-194q0 -13 -12 -13h-31q-12 0 -12 13zM596 954h139q71 0 104 28.5t33 70.5v45q0 42 -33 70t-104 28h-139v-242z" />
<glyph unicode="&#xaf;" horiz-adv-x="864" d="M299 1272l2 20q0 19 21 19h538q17 0 17 -17l-3 -22q0 -19 -20 -19h-539q-16 0 -16 19z" />
<glyph unicode="&#xb0;" horiz-adv-x="794" d="M266 1006q0 21 4 41l23 184q5 41 20 71.5t45 54.5t82.5 36t126.5 12q234 0 234 -152q0 -27 -2 -39l-23 -182q-10 -84 -70.5 -129t-203.5 -45q-236 0 -236 148zM328 1014q0 -105 180 -105q193 0 207 125l22 178q2 8 2 31q0 61 -46 86t-132 25q-193 0 -207 -123l-22 -184 q-4 -24 -4 -33z" />
<glyph unicode="&#xb1;" horiz-adv-x="1208" d="M217 272v23q0 18 19 18h800q19 0 19 -18v-23q0 -18 -19 -18h-800q-19 0 -19 18zM217 766v25q0 16 19 16h368v285q0 18 17 18h24q19 0 19 -18v-285h372q19 0 19 -16v-25q0 -18 -19 -18h-372v-287q0 -19 -19 -19h-24q-17 0 -17 19v287h-368q-19 0 -19 18z" />
<glyph unicode="&#xb2;" horiz-adv-x="749" d="M217 578l29 237q4 27 18.5 49t35 34.5t37 19t32.5 10.5l227 63q16 4 33 12t36 29t23 49l17 133q4 36 4 39q0 54 -38 81.5t-134 27.5q-102 0 -143.5 -33.5t-49.5 -97.5l-8 -60q-2 -14 -17 -14h-28q-15 0 -12 14l8 68q10 81 65.5 125.5t190.5 44.5q120 0 170.5 -38 t50.5 -107q0 -7 -4 -43l-17 -138q-7 -60 -44.5 -91.5t-80.5 -41.5l-219 -59q-94 -24 -100 -82l-25 -199h400q12 0 12 -12l-2 -20q0 -15 -14 -15h-443q-13 0 -10 15z" />
<glyph unicode="&#xb3;" horiz-adv-x="747" d="M221 694q0 9 2 29l2 20q0 13 15 13h28q15 0 15 -13l-2 -14q-2 -18 -2 -24q0 -50 38 -76.5t129 -26.5q101 0 144 32.5t51 94.5l16 121q2 18 2 43q0 49 -34.5 72.5t-126.5 23.5h-113q-7 0 -11 2.5t-3 9.5l2 19q2 14 16 14h107q107 0 147 30.5t45 94.5l4 45q6 54 6 58 q0 50 -35.5 76t-123.5 26q-99 0 -141 -32t-50 -95l-2 -14q-3 -13 -16 -13h-29q-10 0 -10 13l2 20q8 80 64 124t188 44q213 0 213 -137q0 -5 -4 -45l-9 -76q-6 -61 -33.5 -93t-95.5 -46q57 -13 79 -40.5t22 -70.5q0 -9 -4 -49l-15 -133q-8 -80 -65.5 -123t-190.5 -43 q-221 0 -221 139z" />
<glyph unicode="&#xb4;" horiz-adv-x="698" d="M379 1188l190 248q11 14 23 14h41q20 0 6 -18l-199 -250q-11 -11 -20 -11h-33q-18 0 -8 17z" />
<glyph unicode="&#xb5;" horiz-adv-x="1052" d="M121 -412l174 1399q3 19 20 19h31q18 0 16 -19l-90 -725q-6 -40 -6 -59q0 -74 50 -116t153 -42q186 0 352 127l101 815q3 19 20 19h31q19 0 16 -19l-121 -969q-3 -18 -18 -18h-27q-16 0 -16 18l6 93q-158 -127 -358 -127q-166 0 -211 96l-56 -492q-3 -16 -18 -16h-33 q-19 0 -16 16z" />
<glyph unicode="&#xb6;" horiz-adv-x="1263" d="M305 805q0 29 4 57l33 262q8 63 31 108.5t70 83.5t129 57.5t198 19.5h168q16 0 16 -17l-219 -1786q-3 -18 -20 -18h-35q-17 0 -14 18l120 988h-116q-365 0 -365 227zM928 -410l219 1784q3 19 20 19h33q17 0 17 -19l-220 -1784q-2 -18 -20 -18h-35q-17 0 -14 18z" />
<glyph unicode="&#xb7;" horiz-adv-x="417" d="M227 451l19 155q4 19 20 19h35q17 0 14 -19l-18 -155q-3 -19 -18 -19h-33q-22 0 -19 19z" />
<glyph unicode="&#xb8;" horiz-adv-x="286" d="M-80 -399q0 18 21 18h237q21 0 41 5.5t41 18t34 39.5t13 64q0 49 -31 69.5t-71 20.5h-113q-12 0 -18 6.5t-2 16.5l59 145q5 14 21 14l18 -2q16 -3 8 -24l-43 -105h84q57 0 101.5 -34t44.5 -103q0 -52 -17.5 -89.5t-46.5 -56.5t-59.5 -27.5t-63.5 -8.5h-244q-14 0 -14 18 v15z" />
<glyph unicode="&#xb9;" horiz-adv-x="770" d="M207 584l2 20q0 14 16 14h207l88 728l-209 -54q-7 -2 -11 0.5t-3 10.5l2 22q0 12 14 14l258 68q13 3 13 -10l-97 -779h207q13 0 13 -12l-2 -22q-3 -15 -15 -15h-471q-12 0 -12 15z" />
<glyph unicode="&#xba;" horiz-adv-x="716" d="M252 911q0 12 6 54l37 297q8 71 61 109t172 38q205 0 205 -127q0 -15 -4 -39l-39 -311q-8 -72 -61.5 -110t-173.5 -38q-203 0 -203 127zM307 920q0 -91 152 -91q90 0 129.5 28t46.5 79l39 307q4 20 4 33q0 88 -152 88q-166 0 -176 -104l-39 -293q-4 -28 -4 -47z" />
<glyph unicode="&#xbb;" horiz-adv-x="1241" d="M233 195l7 38q3 15 20 29l371 256l-307 254q-17 17 -15 27l4 41q1 7 8 10t11 -2l348 -293q14 -14 12 -25l-4 -26q-3 -17 -20 -27l-416 -291q-6 -5 -13 -3t-6 12zM633 195l6 38q3 15 20 29l371 256l-307 254q-16 16 -14 27l4 41q1 7 7.5 10t10.5 -2l348 -293 q15 -15 13 -25l-5 -26q-3 -17 -20 -27l-416 -291q-6 -5 -12.5 -3t-5.5 12z" />
<glyph unicode="&#xbc;" horiz-adv-x="1640" d="M266 584l2 20q0 14 17 14h207l88 728l-209 -54q-7 -2 -11.5 0.5t-3.5 10.5l2 22q0 11 15 14l258 68q12 3 12 -10l-96 -779h207q12 0 12 -12l-2 -22q-3 -15 -14 -15h-471q-13 0 -13 15zM625 -86l616 1567q6 12 19 12h32q12 0 6 -12l-616 -1567q-7 -14 -16 -14h-31 q-17 0 -10 14zM1059 295v14q0 7 8 23l244 489q6 15 18 15h33q14 0 6 -15l-242 -493h361l59 493q0 6 5.5 10.5t11.5 4.5h28q13 0 13 -15l-99 -807q-3 -14 -16 -14h-31q-6 0 -9.5 4t-2.5 10l35 269h-412q-10 0 -10 12z" />
<glyph unicode="&#xbd;" horiz-adv-x="1685" d="M266 584l2 20q0 14 17 14h207l88 728l-209 -54q-7 -2 -11.5 0.5t-3.5 10.5l2 22q0 11 15 14l258 68q12 3 12 -10l-96 -779h207q12 0 12 -12l-2 -22q-3 -15 -14 -15h-471q-13 0 -13 15zM618 -86l617 1567q6 12 18 12h33q12 0 6 -12l-616 -1567q-4 -14 -17 -14h-30 q-15 0 -11 14zM1145 14l29 238q4 27 18 49t35 34.5t37 19t32 10.5l228 63q16 4 33 12t36 29t23 49l16 133q4 36 4 39q0 54 -38 81.5t-134 27.5q-102 0 -143 -33.5t-49 -97.5l-8 -60q-2 -14 -17 -14h-28q-16 0 -13 14l8 68q10 81 65.5 125.5t190.5 44.5q222 0 222 -146 q0 -7 -4 -43l-17 -137q-7 -60 -44.5 -91.5t-80.5 -41.5l-219 -59q-94 -24 -100 -82l-25 -199h400q12 0 12 -12l-2 -21q0 -14 -15 -14h-442q-12 0 -10 14z" />
<glyph unicode="&#xbe;" horiz-adv-x="1632" d="M281 694q0 9 2 29l2 20q0 13 14 13h29q14 0 14 -13l-2 -14q-2 -18 -2 -24q0 -49 38 -76t130 -27q101 0 143.5 32t50.5 95l17 121q2 18 2 43q0 49 -35 72.5t-127 23.5h-113q-7 0 -11 2.5t-3 9.5l2 19q2 14 17 14h106q107 0 147.5 30.5t45.5 94.5l4 45q6 54 6 58 q0 50 -35.5 76t-124.5 26q-99 0 -140.5 -32t-49.5 -95l-2 -14q-3 -13 -17 -13h-29q-10 0 -10 13l2 20q8 80 64 124t188 44q213 0 213 -137q0 -5 -4 -45l-8 -76q-6 -61 -33.5 -93t-95.5 -46q56 -13 78 -40.5t22 -70.5q0 -9 -4 -49l-14 -133q-8 -80 -65.5 -123t-190.5 -43 q-221 0 -221 139zM610 -86l617 1567q6 12 18 12h31q14 0 8 -12l-616 -1567q-7 -14 -19 -14h-31q-15 0 -8 14zM1051 295l2 14q0 11 6 23l244 489q6 15 20 15h31q14 0 6 -15l-242 -493h361l59 493q0 6 5 10.5t11 4.5h29q12 0 12 -15l-98 -807q-3 -14 -16 -14h-29q-12 0 -12 14 l33 269h-410q-8 0 -10.5 2.5t-1.5 9.5z" />
<glyph unicode="&#xbf;" horiz-adv-x="1163" d="M164 -168q0 29 2 45l22 191q17 152 187 233l110 53q27 13 51 30t49 53.5t31 80.5l23 160q1 10 5 14t13 4h35q19 0 15 -18l-21 -172q-15 -132 -164 -201l-123 -59q-19 -9 -37.5 -21.5t-41.5 -34t-40 -54t-22 -70.5l-25 -185q-2 -14 -2 -39q0 -89 69.5 -136.5t238.5 -47.5 q184 0 263.5 58t92.5 165l14 107q3 18 21 18h33q17 0 14 -18l-14 -113q-8 -64 -31 -111t-70.5 -86.5t-130 -60t-199.5 -20.5q-200 0 -284 62t-84 173zM657 831l19 156q3 19 20 19h33q19 0 16 -19l-18 -153q-3 -21 -20 -21h-35q-18 0 -15 18z" />
<glyph unicode="&#xc0;" horiz-adv-x="1046" d="M59 18l590 1356q9 19 25 19h37q17 0 20 -19l256 -1356q3 -18 -12 -18h-37q-17 0 -20 18l-82 431h-521l-188 -431q-6 -18 -23 -18h-30q-22 0 -15 18zM340 508h487l-118 625l-27 180q-4 -9 -29 -78.5t-37 -95.5zM501 1792q3 6 11 6h37q15 0 22 -14l127 -248q6 -16 -10 -16 h-26q-16 0 -23 10l-137 250q-4 6 -1 12z" />
<glyph unicode="&#xc1;" horiz-adv-x="1046" d="M59 18l590 1356q9 19 25 19h37q17 0 20 -19l256 -1356q3 -18 -12 -18h-37q-17 0 -20 18l-82 431h-521l-188 -431q-6 -18 -23 -18h-30q-22 0 -15 18zM340 508h487l-118 625l-27 180q-4 -9 -29 -78.5t-37 -95.5zM664 1524q-2 4 4 12l188 248q10 14 25 14h39q20 0 6 -18 l-199 -250q-10 -10 -20 -10h-33q-8 0 -10 4z" />
<glyph unicode="&#xc2;" horiz-adv-x="1046" d="M59 18l590 1356q9 19 25 19h37q17 0 20 -19l256 -1356q3 -18 -12 -18h-37q-17 0 -20 18l-82 431h-521l-188 -431q-6 -18 -23 -18h-30q-22 0 -15 18zM340 508h487l-118 625l-27 180q-4 -9 -29 -78.5t-37 -95.5zM486 1525q-3 5 3 13l191 242q14 18 31 18h26q15 0 25 -16 l135 -244q5 -8 2 -13t-12 -5h-27q-14 0 -26 18l-113 211l-168 -211q-14 -18 -25 -18h-30q-9 0 -12 5z" />
<glyph unicode="&#xc3;" horiz-adv-x="1046" d="M59 18l590 1356q9 19 25 19h37q17 0 20 -19l256 -1356q3 -18 -12 -18h-37q-17 0 -20 18l-82 431h-521l-188 -431q-6 -18 -23 -18h-30q-22 0 -15 18zM340 508h487l-118 625l-27 180q-4 -9 -29 -78.5t-37 -95.5zM426 1575l4 31q12 92 45.5 130t93.5 38q53 0 101 -48l80 -79 q35 -35 65 -35q42 0 59.5 25.5t26.5 99.5l2 20q3 17 23 17h18q17 0 14 -19l-4 -31q-11 -92 -45.5 -130t-93.5 -38q-52 0 -100 48l-82 79q-39 35 -64 35q-40 0 -57 -25t-29 -98l-4 -22q-3 -19 -20 -19h-19q-18 0 -14 21z" />
<glyph unicode="&#xc4;" horiz-adv-x="1046" d="M59 18l590 1356q9 19 25 19h37q17 0 20 -19l256 -1356q3 -18 -12 -18h-37q-17 0 -20 18l-82 431h-521l-188 -431q-6 -18 -23 -18h-30q-22 0 -15 18zM340 508h487l-118 625l-27 180q-4 -9 -29 -78.5t-37 -95.5zM578 1556l24 203q3 17 21 17h22q17 0 14 -17l-24 -203 q-1 -10 -5.5 -14t-15.5 -4h-20q-19 0 -16 18zM758 1556l24 203q3 17 21 17h22q18 0 15 -17l-23 -203q-3 -18 -20 -18h-23q-19 0 -16 18z" />
<glyph unicode="&#xc5;" horiz-adv-x="1046" d="M59 18l590 1356q9 19 25 19h37q17 0 20 -19l256 -1356q3 -18 -12 -18h-37q-17 0 -20 18l-82 431h-521l-188 -431q-6 -18 -23 -18h-30q-22 0 -15 18zM340 508h487l-118 625l-27 180q-4 -9 -29 -78.5t-37 -95.5zM526 1604q0 26 2 53l2 18q14 131 195 131q80 0 122 -35 t42 -88q0 -18 -2 -38l-4 -33q-17 -125 -195 -125q-80 0 -121 33t-41 84zM575 1612q0 -80 117 -80q137 0 144 84l2 24q2 18 2 35q0 38 -29.5 61t-89.5 23q-133 0 -143 -88l-3 -24v-35z" />
<glyph unicode="&#xc6;" horiz-adv-x="1722" d="M61 18l949 1356q14 19 34 19h693q17 0 14 -19l-2 -22q-3 -19 -20 -19h-648l-69 -567h608q19 0 16 -18l-2 -23q-3 -18 -20 -18h-608l-82 -648h673q10 0 14 -3.5t3 -12.5l-4 -25q-3 -18 -19 -18h-712q-13 0 -20.5 4.5t-6.5 18.5l53 426h-471l-301 -431q-14 -18 -24 -18h-33 q-28 0 -15 18zM477 508h436l93 762q-33 -56 -80 -121z" />
<glyph unicode="&#xc7;" horiz-adv-x="1110" d="M213 215q0 17 4 49l107 866q7 63 30.5 111t71.5 87.5t131.5 60t200.5 20.5q202 0 288.5 -62t86.5 -173q0 -22 -3 -46l-14 -106q-3 -18 -18 -18h-33q-19 0 -16 18l12 100q2 12 2 39q0 89 -70.5 138t-238.5 49q-186 0 -268 -59t-95 -167l-104 -850q-2 -14 -2 -41 q0 -90 69.5 -138t237.5 -48q186 0 268.5 58.5t95.5 166.5l17 125q3 17 18 17h33q19 0 16 -17l-16 -133q-6 -50 -21.5 -90t-47.5 -76t-79.5 -60t-120.5 -38t-167 -14h-25l-39 -97h84q57 0 101.5 -34t44.5 -103q0 -52 -17.5 -89.5t-46.5 -56.5t-59.5 -27.5t-63.5 -8.5h-243 q-15 0 -15 18v15q0 18 21 18h237q21 0 41 5.5t41 18t34 39.5t13 64q0 49 -31 69.5t-71 20.5h-113q-12 0 -18 6.5t-2 16.5l51 129q-299 19 -299 227z" />
<glyph unicode="&#xc8;" horiz-adv-x="1087" d="M211 18l166 1356q3 19 20 19h699q16 0 16 -19l-2 -24q-3 -19 -20 -19h-648l-69 -565h608q16 0 16 -18l-2 -25q0 -18 -20 -18h-610l-80 -644h673q20 0 17 -18l-4 -25q-3 -18 -19 -18h-727q-17 0 -14 18zM575 1780q-3 6 0 12t11 6h37q15 0 22 -14l127 -248q6 -16 -10 -16 h-27q-15 0 -22 10z" />
<glyph unicode="&#xc9;" horiz-adv-x="1087" d="M211 18l166 1356q3 19 20 19h699q16 0 16 -19l-2 -24q-3 -19 -20 -19h-648l-69 -565h608q16 0 16 -18l-2 -25q0 -18 -20 -18h-610l-80 -644h673q20 0 17 -18l-4 -25q-3 -18 -19 -18h-727q-17 0 -14 18zM709 1524q-2 4 4 12l188 248q11 14 25 14h39q20 0 6 -18l-199 -250 q-10 -10 -20 -10h-33q-8 0 -10 4z" />
<glyph unicode="&#xca;" horiz-adv-x="1087" d="M211 18l166 1356q3 19 20 19h699q16 0 16 -19l-2 -24q-3 -19 -20 -19h-648l-69 -565h608q16 0 16 -18l-2 -25q0 -18 -20 -18h-610l-80 -644h673q20 0 17 -18l-4 -25q-3 -18 -19 -18h-727q-17 0 -14 18zM547.5 1525q-2.5 5 3.5 13l190 242q14 18 31 18h27q14 0 24 -16 l135 -244q5 -8 2 -13t-12 -5h-26q-15 0 -27 18l-113 211l-168 -211q-14 -18 -24 -18h-31q-9 0 -11.5 5z" />
<glyph unicode="&#xcb;" horiz-adv-x="1087" d="M211 18l166 1356q3 19 20 19h699q16 0 16 -19l-2 -24q-3 -19 -20 -19h-648l-69 -565h608q16 0 16 -18l-2 -25q0 -18 -20 -18h-610l-80 -644h673q20 0 17 -18l-4 -25q-3 -18 -19 -18h-727q-17 0 -14 18zM651 1556l25 203q3 17 20 17h23q17 0 14 -17l-24 -203 q-1 -10 -5.5 -14t-15.5 -4h-20q-20 0 -17 18zM831 1556l25 203q3 17 21 17h22q17 0 14 -17l-22 -203q-3 -18 -21 -18h-22q-20 0 -17 18z" />
<glyph unicode="&#xcc;" horiz-adv-x="487" d="M211 18l166 1356q3 19 20 19h35q17 0 14 -19l-165 -1356q-3 -18 -19 -18h-35q-19 0 -16 18zM251 1792q3 6 11 6h37q16 0 23 -14l127 -248q6 -16 -11 -16h-26q-16 0 -23 10l-137 250q-4 6 -1 12z" />
<glyph unicode="&#xcd;" horiz-adv-x="487" d="M211 18l166 1356q3 19 20 19h35q17 0 14 -19l-165 -1356q-3 -18 -19 -18h-35q-19 0 -16 18zM397.5 1524q-2.5 4 3.5 12l189 248q10 14 24 14h39q20 0 6 -18l-198 -250q-10 -10 -21 -10h-32q-8 0 -10.5 4z" />
<glyph unicode="&#xce;" horiz-adv-x="487" d="M211 18l166 1356q3 19 20 19h35q17 0 14 -19l-165 -1356q-3 -18 -19 -18h-35q-19 0 -16 18zM217.5 1525q-2.5 5 3.5 13l191 242q14 18 30 18h27q15 0 25 -16l135 -244q4 -8 1 -13t-12 -5h-26q-15 0 -27 18l-112 211l-168 -211q-14 -18 -25 -18h-31q-9 0 -11.5 5z" />
<glyph unicode="&#xcf;" horiz-adv-x="487" d="M211 18l166 1356q3 19 20 19h35q17 0 14 -19l-165 -1356q-3 -18 -19 -18h-35q-19 0 -16 18zM315 1556l25 203q3 17 20 17h23q17 0 14 -17l-24 -203q-1 -10 -5.5 -14t-15.5 -4h-20q-20 0 -17 18zM496 1556l24 203q3 17 21 17h22q18 0 15 -17l-23 -203q-3 -18 -20 -18h-23 q-19 0 -16 18z" />
<glyph unicode="&#xd0;" horiz-adv-x="1218" d="M111 696l2 21q0 18 20 18h166l78 639q3 19 18 19h393q383 0 383 -238q0 -31 -2 -45l-102 -831q-7 -63 -32 -111t-74.5 -87t-134.5 -60t-203 -21h-396q-19 0 -16 18l80 660h-164q-19 0 -16 18zM285 61h342q186 0 271.5 59.5t98.5 166.5l101 817q2 12 2 37q0 91 -73 140.5 t-245 49.5h-340l-73 -596h315q16 0 16 -18l-2 -21q-6 -18 -22 -18h-316z" />
<glyph unicode="&#xd1;" horiz-adv-x="1239" d="M211 18l166 1356q3 19 20 19h25q13 0 16 -9l496 -1132q45 -101 45 -111l151 1233q3 19 21 19h29q19 0 16 -19l-168 -1356q-3 -18 -18 -18h-27q-13 0 -16 8l-494 1129q-14 32 -45 116l-154 -1235q-3 -18 -18 -18h-29q-19 0 -16 18zM549 1575l4 31q12 92 45.5 130t93.5 38 q53 0 101 -48l79 -79q35 -35 66 -35q42 0 59.5 25.5t26.5 99.5l2 20q3 17 23 17h18q17 0 14 -19l-4 -31q-11 -92 -45.5 -130t-93.5 -38q-52 0 -100 48l-82 79q-39 35 -64 35q-40 0 -57 -25t-29 -98l-4 -22q-3 -19 -20 -19h-19q-17 0 -14 21z" />
<glyph unicode="&#xd2;" horiz-adv-x="1193" d="M213 217q0 15 4 47l107 866q7 63 31.5 111t74 87t134 60t202.5 21q383 0 383 -238q0 -29 -2 -43l-107 -866q-7 -63 -32.5 -111t-75.5 -87t-135 -59.5t-203 -20.5q-381 0 -381 233zM285 236q0 -91 72.5 -141t242.5 -50q187 0 272.5 59t98.5 166l104 850q2 14 2 37 q0 91 -72.5 141t-244.5 50q-185 0 -270.5 -59.5t-98.5 -166.5l-104 -850q-2 -14 -2 -36zM609 1792q3 6 12 6h36q16 0 23 -14l127 -248q6 -16 -10 -16h-27q-15 0 -22 10l-138 250q-4 6 -1 12z" />
<glyph unicode="&#xd3;" horiz-adv-x="1193" d="M213 217q0 15 4 47l107 866q7 63 31.5 111t74 87t134 60t202.5 21q383 0 383 -238q0 -29 -2 -43l-107 -866q-7 -63 -32.5 -111t-75.5 -87t-135 -59.5t-203 -20.5q-381 0 -381 233zM285 236q0 -91 72.5 -141t242.5 -50q187 0 272.5 59t98.5 166l104 850q2 14 2 37 q0 91 -72.5 141t-244.5 50q-185 0 -270.5 -59.5t-98.5 -166.5l-104 -850q-2 -14 -2 -36zM746 1524q-2 4 4 12l188 248q11 14 25 14h38q21 0 7 -18l-199 -250q-10 -10 -21 -10h-32q-8 0 -10 4z" />
<glyph unicode="&#xd4;" horiz-adv-x="1193" d="M213 217q0 15 4 47l107 866q7 63 31.5 111t74 87t134 60t202.5 21q383 0 383 -238q0 -29 -2 -43l-107 -866q-7 -63 -32.5 -111t-75.5 -87t-135 -59.5t-203 -20.5q-381 0 -381 233zM285 236q0 -91 72.5 -141t242.5 -50q187 0 272.5 59t98.5 166l104 850q2 14 2 37 q0 91 -72.5 141t-244.5 50q-185 0 -270.5 -59.5t-98.5 -166.5l-104 -850q-2 -14 -2 -36zM566 1525q-3 5 3 13l191 242q14 18 31 18h26q15 0 25 -16l135 -244q5 -8 2 -13t-12 -5h-27q-15 0 -27 18l-112 211l-168 -211q-14 -18 -25 -18h-30q-9 0 -12 5z" />
<glyph unicode="&#xd5;" horiz-adv-x="1193" d="M213 217q0 15 4 47l107 866q7 63 31.5 111t74 87t134 60t202.5 21q383 0 383 -238q0 -29 -2 -43l-107 -866q-7 -63 -32.5 -111t-75.5 -87t-135 -59.5t-203 -20.5q-381 0 -381 233zM285 236q0 -91 72.5 -141t242.5 -50q187 0 272.5 59t98.5 166l104 850q2 14 2 37 q0 91 -72.5 141t-244.5 50q-185 0 -270.5 -59.5t-98.5 -166.5l-104 -850q-2 -14 -2 -36zM528 1575l4 31q12 92 46 130t94 38q52 0 100 -48l80 -79q35 -35 66 -35q42 0 59.5 25.5t26.5 99.5l2 20q3 17 22 17h19q17 0 14 -19l-4 -31q-11 -92 -45.5 -130t-93.5 -38 q-53 0 -101 48l-82 79q-39 35 -63 35q-40 0 -57 -25t-29 -98l-4 -22q-3 -19 -21 -19h-18q-19 0 -15 21z" />
<glyph unicode="&#xd6;" horiz-adv-x="1193" d="M213 217q0 15 4 47l107 866q7 63 31.5 111t74 87t134 60t202.5 21q383 0 383 -238q0 -29 -2 -43l-107 -866q-7 -63 -32.5 -111t-75.5 -87t-135 -59.5t-203 -20.5q-381 0 -381 233zM285 236q0 -91 72.5 -141t242.5 -50q187 0 272.5 59t98.5 166l104 850q2 14 2 37 q0 91 -72.5 141t-244.5 50q-185 0 -270.5 -59.5t-98.5 -166.5l-104 -850q-2 -14 -2 -36zM662 1556l24 203q3 17 21 17h22q17 0 14 -17l-24 -203q-1 -10 -5.5 -14t-15.5 -4h-20q-19 0 -16 18zM842 1556l24 203q3 17 21 17h22q18 0 15 -17l-23 -203q-3 -18 -20 -18h-23 q-19 0 -16 18z" />
<glyph unicode="&#xd7;" horiz-adv-x="1116" d="M252 496q-9 14 8 24l320 185l-187 321q-9 16 6 25l21 12q15 9 24 -8l187 -320l323 187q14 7 23 -7l12 -20q9 -15 -8 -27l-322 -186l187 -320q7 -12 -8 -24l-19 -12q-15 -10 -24 6l-187 321l-319 -184q-13 -8 -25 8z" />
<glyph unicode="&#xd8;" horiz-adv-x="1193" d="M213 215q0 15 4 47l107 866q7 63 31.5 111t74 87t134 60t202.5 21q179 0 274 -53l41 67q11 19 27 19h20q7 0 9.5 -6.5t-2.5 -12.5l-56 -94q70 -59 70 -158q0 -29 -2 -43l-107 -866q-7 -63 -32.5 -111t-75.5 -87t-135 -59.5t-203 -20.5q-184 0 -275 51l-36 -62 q-13 -22 -27 -22h-20q-9 0 -11 6.5t4 15.5l52 88q-68 54 -68 156zM285 233q0 -66 34 -108l687 1169q-77 52 -246 52q-185 0 -270.5 -59.5t-98.5 -166.5l-104 -850q-2 -14 -2 -37zM354 94q76 -51 246 -51q187 0 272.5 59t98.5 166l104 850q2 14 2 37q0 64 -37 107z" />
<glyph unicode="&#xd9;" horiz-adv-x="1218" d="M225 221q0 31 2 45l138 1108q3 19 18 19h33q21 0 18 -19l-137 -1098q-2 -16 -2 -40q0 -91 73 -141t242 -50q188 0 273 59t98 166l137 1104q3 19 19 19h32q22 0 19 -19l-137 -1112q-8 -63 -33 -110.5t-74.5 -87t-134.5 -60t-203 -20.5q-381 0 -381 237zM611 1792q3 6 12 6 h36q16 0 23 -14l127 -248q6 -16 -10 -16h-27q-15 0 -22 10l-138 250q-4 6 -1 12z" />
<glyph unicode="&#xda;" horiz-adv-x="1218" d="M225 221q0 31 2 45l138 1108q3 19 18 19h33q21 0 18 -19l-137 -1098q-2 -16 -2 -40q0 -91 73 -141t242 -50q188 0 273 59t98 166l137 1104q3 19 19 19h32q22 0 19 -19l-137 -1112q-8 -63 -33 -110.5t-74.5 -87t-134.5 -60t-203 -20.5q-381 0 -381 237zM752 1524 q-2 4 4 12l188 248q11 14 25 14h39q20 0 6 -18l-199 -250q-10 -10 -20 -10h-33q-8 0 -10 4z" />
<glyph unicode="&#xdb;" horiz-adv-x="1218" d="M225 221q0 31 2 45l138 1108q3 19 18 19h33q21 0 18 -19l-137 -1098q-2 -16 -2 -40q0 -91 73 -141t242 -50q188 0 273 59t98 166l137 1104q3 19 19 19h32q22 0 19 -19l-137 -1112q-8 -63 -33 -110.5t-74.5 -87t-134.5 -60t-203 -20.5q-381 0 -381 237zM582.5 1525 q-2.5 5 3.5 13l190 242q14 18 31 18h27q14 0 24 -16l135 -244q5 -8 2 -13t-12 -5h-27q-14 0 -26 18l-113 211l-168 -211q-14 -18 -24 -18h-31q-9 0 -11.5 5z" />
<glyph unicode="&#xdc;" horiz-adv-x="1218" d="M225 221q0 31 2 45l138 1108q3 19 18 19h33q21 0 18 -19l-137 -1098q-2 -16 -2 -40q0 -91 73 -141t242 -50q188 0 273 59t98 166l137 1104q3 19 19 19h32q22 0 19 -19l-137 -1112q-8 -63 -33 -110.5t-74.5 -87t-134.5 -60t-203 -20.5q-381 0 -381 237zM668 1556l24 203 q3 17 21 17h22q18 0 15 -17l-25 -203q-2 -11 -6 -14.5t-14 -3.5h-21q-19 0 -16 18zM848 1556l24 203q3 17 21 17h22q18 0 15 -17l-23 -203q-3 -18 -20 -18h-23q-19 0 -16 18z" />
<glyph unicode="&#xdd;" horiz-adv-x="1026" d="M217 1374q-8 19 14 19h39q15 0 21 -19l280 -667q18 -47 21 -62q2 11 33 62l444 667q15 19 27 19h37q24 0 10 -19l-525 -786l-69 -570q-3 -18 -19 -18h-32q-10 0 -15 4.5t-4 13.5l70 564zM662 1524q-2 4 4 12l188 248q11 14 25 14h39q20 0 6 -18l-199 -250 q-10 -10 -20 -10h-33q-8 0 -10 4z" />
<glyph unicode="&#xde;" horiz-adv-x="1144" d="M211 18l166 1356q3 19 20 19h33q19 0 16 -19l-45 -368h338q381 0 381 -238q0 -27 -2 -41l-28 -227q-8 -63 -33 -111t-74 -87.5t-134.5 -60t-203.5 -20.5h-340l-26 -203q-3 -18 -19 -18h-33q-19 0 -16 18zM311 283h340q187 0 272.5 59t98.5 166l27 213q2 12 2 35 q0 91 -73 140.5t-245 49.5h-340z" />
<glyph unicode="&#xdf;" horiz-adv-x="1189" d="M184 961v20q0 18 21 18l137 5h2l25 206q31 240 393 240q336 0 336 -209q0 -9 -4 -49l-7 -59q-13 -128 -186 -170l-129 -31q-2 0 -17.5 -3.5t-22 -5.5t-22.5 -7.5t-24.5 -10.5t-21.5 -14t-20 -19t-13 -24t-8 -31l-2 -12q-3 -24 -3 -25q0 -79 121 -123l236 -86 q170 -60 170 -170q0 -27 -2 -39l-19 -139q-7 -57 -24.5 -97t-55.5 -74t-106 -51t-166 -17q-164 0 -230.5 48.5t-66.5 141.5q0 29 2 45l4 31q3 18 21 18h24q20 0 17 -18l-4 -31q-2 -14 -2 -37q0 -71 52.5 -109t186.5 -38q79 0 133.5 13.5t85.5 40t45.5 57.5t20.5 73l14 121 q2 18 2 47q0 28 -13.5 51t-38 38t-40.5 21.5t-39 14.5q-4 1 -6 2l-233 84q-21 7 -43 19.5t-48 33t-42.5 51.5t-16.5 66q0 19 2 33l2 18q6 42 27 73.5t54 49t55 25t51 14.5l122 27q141 29 152 129l6 53q4 36 4 43q0 162 -276 162q-297 0 -318 -189l-145 -1188q-3 -18 -21 -18 h-32q-20 0 -17 18l115 926h-139q-15 0 -15 17z" />
<glyph unicode="&#xe0;" d="M182 186q0 13 4 37l70 559q13 111 88 175.5t217 64.5q116 0 204 -39.5t144 -89.5l15 94q6 19 20 19h29q14 0 14 -19l-119 -969q-3 -18 -20 -18h-29q-14 0 -14 18l6 93q-178 -127 -377 -127q-124 0 -188 54t-64 148zM252 201q0 -71 50.5 -113.5t152.5 -42.5q186 0 364 129 l82 655q-138 132 -334 132q-110 0 -172 -51t-73 -134l-68 -547q-2 -10 -2 -28zM476 1444q3 6 13 6h37q16 0 23 -14l125 -248q10 -17 -8 -17h-29q-17 0 -21 11l-139 250q-4 6 -1 12z" />
<glyph unicode="&#xe1;" d="M182 186q0 13 4 37l70 559q13 111 88 175.5t217 64.5q116 0 204 -39.5t144 -89.5l15 94q6 19 20 19h29q14 0 14 -19l-119 -969q-3 -18 -20 -18h-29q-14 0 -14 18l6 93q-178 -127 -377 -127q-124 0 -188 54t-64 148zM252 201q0 -71 50.5 -113.5t152.5 -42.5q186 0 364 129 l82 655q-138 132 -334 132q-110 0 -172 -51t-73 -134l-68 -547q-2 -10 -2 -28zM598 1188l190 248q11 14 23 14h41q20 0 6 -18l-199 -250q-11 -11 -20 -11h-33q-18 0 -8 17z" />
<glyph unicode="&#xe2;" d="M182 186q0 13 4 37l70 559q13 111 88 175.5t217 64.5q116 0 204 -39.5t144 -89.5l15 94q6 19 20 19h29q14 0 14 -19l-119 -969q-3 -18 -20 -18h-29q-14 0 -14 18l6 93q-178 -127 -377 -127q-124 0 -188 54t-64 148zM252 201q0 -71 50.5 -113.5t152.5 -42.5q186 0 364 129 l82 655q-138 132 -334 132q-110 0 -172 -51t-73 -134l-68 -547q-2 -10 -2 -28zM420.5 1176.5q-2.5 5.5 3.5 13.5l190 242q14 18 31 18h27q18 0 26 -16l133 -244q5 -8 2 -13.5t-12 -5.5h-26q-15 0 -25 19l-115 211l-168 -211q-15 -19 -24 -19h-31q-9 0 -11.5 5.5z" />
<glyph unicode="&#xe3;" d="M182 186q0 13 4 37l70 559q13 111 88 175.5t217 64.5q116 0 204 -39.5t144 -89.5l15 94q6 19 20 19h29q14 0 14 -19l-119 -969q-3 -18 -20 -18h-29q-14 0 -14 18l6 93q-178 -127 -377 -127q-124 0 -188 54t-64 148zM252 201q0 -71 50.5 -113.5t152.5 -42.5q186 0 364 129 l82 655q-138 132 -334 132q-110 0 -172 -51t-73 -134l-68 -547q-2 -10 -2 -28zM379 1219l4 30q13 92 46.5 130t92.5 38q57 0 101 -47l79 -80q35 -35 66 -35q42 0 59.5 25.5t26.5 99.5l2 21q3 16 21 16h20q17 0 14 -18l-4 -29q-11 -94 -45.5 -132t-93.5 -38q-53 0 -100 47 l-82 80q-35 35 -64 35q-40 0 -57 -25t-29 -98l-4 -22q-3 -17 -20 -17h-21q-15 0 -12 19z" />
<glyph unicode="&#xe4;" d="M182 186q0 13 4 37l70 559q13 111 88 175.5t217 64.5q116 0 204 -39.5t144 -89.5l15 94q6 19 20 19h29q14 0 14 -19l-119 -969q-3 -18 -20 -18h-29q-14 0 -14 18l6 93q-178 -127 -377 -127q-124 0 -188 54t-64 148zM252 201q0 -71 50.5 -113.5t152.5 -42.5q186 0 364 129 l82 655q-138 132 -334 132q-110 0 -172 -51t-73 -134l-68 -547q-2 -10 -2 -28zM514 1214l25 203q3 19 20 19h23q17 0 14 -19l-25 -203q-3 -18 -20 -18h-21q-19 0 -16 18zM694 1214l25 203q3 19 20 19h23q17 0 14 -19l-24 -203q-3 -18 -21 -18h-20q-20 0 -17 18z" />
<glyph unicode="&#xe5;" d="M182 186q0 13 4 37l70 559q13 111 88 175.5t217 64.5q116 0 204 -39.5t144 -89.5l15 94q6 19 20 19h29q14 0 14 -19l-119 -969q-3 -18 -20 -18h-29q-14 0 -14 18l6 93q-178 -127 -377 -127q-124 0 -188 54t-64 148zM252 201q0 -71 50.5 -113.5t152.5 -42.5q186 0 364 129 l82 655q-138 132 -334 132q-110 0 -172 -51t-73 -134l-68 -547q-2 -10 -2 -28zM492 1262q0 26 2 53l2 18q14 131 194 131q80 0 122 -35t42 -88q0 -18 -2 -38l-4 -33q-17 -125 -195 -125q-80 0 -120.5 33t-40.5 84zM541 1270q0 -80 116 -80q137 0 144 84l2 24q2 18 2 35 q0 38 -29.5 61t-89.5 23q-133 0 -143 -88l-2 -24v-35z" />
<glyph unicode="&#xe6;" horiz-adv-x="1617" d="M166 180q0 25 2 37l10 90q11 103 82 166.5t191 63.5h391l28 229q4 32 4 45q0 74 -58 115t-198 41q-154 0 -221 -48t-80 -137l-6 -39q-1 -10 -5 -14t-13 -4h-29q-19 0 -16 18l4 39q11 115 96 177.5t277 62.5q247 0 295 -129q74 129 331 129q324 0 324 -203q0 -25 -2 -37 l-33 -256q-3 -18 -18 -18h-615l-35 -268q-4 -32 -4 -43q0 -74 61 -115t204 -41q155 0 223.5 48t81.5 136l8 54q3 18 20 18h27q19 0 16 -18l-8 -56q-6 -44 -20 -78.5t-41.5 -65.5t-68 -51t-102.5 -32t-143 -12q-284 0 -317 153q-36 -29 -63.5 -48t-79 -47t-114.5 -43 t-132 -15q-120 0 -187 52t-67 144zM233 197q0 -73 50.5 -113.5t150.5 -40.5q62 0 121.5 16t112 46t75.5 45.5t58 42.5l35 288h-385q-90 0 -144.5 -50.5t-62.5 -129.5l-8 -78q-3 -18 -3 -26zM911 563h568l28 217v29q0 156 -260 156q-157 0 -226 -48.5t-81 -136.5z" />
<glyph unicode="&#xe7;" horiz-adv-x="966" d="M182 184q0 25 2 39l70 559q7 56 28 97.5t63 75t113 50.5t171 17q171 0 244 -52.5t73 -148.5q0 -23 -2 -41l-6 -39q-2 -11 -5.5 -14.5t-12.5 -3.5h-31q-9 0 -13.5 4.5t-3.5 11.5l5 39q2 14 2 33q0 74 -57.5 114t-198.5 40q-155 0 -223 -49.5t-78 -137.5l-68 -547 q-2 -20 -2 -36q0 -73 57.5 -112.5t198.5 -39.5q155 0 221.5 48t79.5 136l8 56q3 18 21 18h30q18 0 15 -18l-9 -60q-7 -55 -27 -95t-59.5 -73.5t-108 -51.5t-165.5 -19l-39 -97h84q57 0 101.5 -34t44.5 -103q0 -52 -17.5 -89.5t-46.5 -56.5t-59.5 -27.5t-63.5 -8.5h-244 q-14 0 -14 18v15q0 18 21 18h237q21 0 41 5.5t41 18t34 39.5t13 64q0 49 -31 69.5t-71 20.5h-113q-12 0 -18 6.5t-2 16.5l51 127q-150 6 -215.5 57t-65.5 141z" />
<glyph unicode="&#xe8;" horiz-adv-x="999" d="M182 186q0 21 2 37l70 559q7 56 28.5 97.5t64 75t114.5 50.5t172 17q323 0 323 -203q0 -25 -2 -37l-32 -256q-3 -18 -19 -18h-614l-37 -279q-2 -16 -2 -32q0 -75 59.5 -115.5t202.5 -40.5q156 0 226.5 48.5t80.5 135.5l6 54q3 18 23 18h29q17 0 14 -18l-6 -56 q-13 -115 -98 -177t-279 -62q-326 0 -326 202zM293 563h567l29 215q2 14 2 31q0 156 -264 156q-105 0 -172.5 -25t-96 -64t-36.5 -96zM480.5 1444q3.5 6 13.5 6h36q16 0 23 -14l125 -248q10 -17 -8 -17h-29q-16 0 -20 11l-140 250q-4 6 -0.5 12z" />
<glyph unicode="&#xe9;" horiz-adv-x="999" d="M182 186q0 21 2 37l70 559q7 56 28.5 97.5t64 75t114.5 50.5t172 17q323 0 323 -203q0 -25 -2 -37l-32 -256q-3 -18 -19 -18h-614l-37 -279q-2 -16 -2 -32q0 -75 59.5 -115.5t202.5 -40.5q156 0 226.5 48.5t80.5 135.5l6 54q3 18 23 18h29q17 0 14 -18l-6 -56 q-13 -115 -98 -177t-279 -62q-326 0 -326 202zM293 563h567l29 215q2 14 2 31q0 156 -264 156q-105 0 -172.5 -25t-96 -64t-36.5 -96zM612.5 1175.5q-2.5 4.5 1.5 12.5l191 248q11 14 22 14h41q20 0 6 -18l-198 -250q-11 -11 -21 -11h-32q-8 0 -10.5 4.5z" />
<glyph unicode="&#xea;" horiz-adv-x="999" d="M182 186q0 21 2 37l70 559q7 56 28.5 97.5t64 75t114.5 50.5t172 17q323 0 323 -203q0 -25 -2 -37l-32 -256q-3 -18 -19 -18h-614l-37 -279q-2 -16 -2 -32q0 -75 59.5 -115.5t202.5 -40.5q156 0 226.5 48.5t80.5 135.5l6 54q3 18 23 18h29q17 0 14 -18l-6 -56 q-13 -115 -98 -177t-279 -62q-326 0 -326 202zM293 563h567l29 215q2 14 2 31q0 156 -264 156q-105 0 -172.5 -25t-96 -64t-36.5 -96zM434.5 1176.5q-2.5 5.5 3.5 13.5l191 242q14 18 30 18h27q19 0 27 -16l133 -244q5 -8 2 -13.5t-12 -5.5h-27q-15 0 -25 19l-114 211 l-168 -211q-15 -19 -25 -19h-31q-9 0 -11.5 5.5z" />
<glyph unicode="&#xeb;" horiz-adv-x="999" d="M182 186q0 21 2 37l70 559q7 56 28.5 97.5t64 75t114.5 50.5t172 17q323 0 323 -203q0 -25 -2 -37l-32 -256q-3 -18 -19 -18h-614l-37 -279q-2 -16 -2 -32q0 -75 59.5 -115.5t202.5 -40.5q156 0 226.5 48.5t80.5 135.5l6 54q3 18 23 18h29q17 0 14 -18l-6 -56 q-13 -115 -98 -177t-279 -62q-326 0 -326 202zM293 563h567l29 215q2 14 2 31q0 156 -264 156q-105 0 -172.5 -25t-96 -64t-36.5 -96zM522 1214l25 203q3 19 20 19h23q17 0 14 -19l-24 -203q-3 -18 -21 -18h-20q-20 0 -17 18zM702 1214l25 203q3 19 21 19h22q17 0 14 -19 l-24 -203q-3 -18 -21 -18h-20q-20 0 -17 18z" />
<glyph unicode="&#xec;" horiz-adv-x="438" d="M181.5 1444q3.5 6 13.5 6h36q16 0 23 -14l125 -248q10 -17 -8 -17h-29q-16 0 -20 11l-140 250q-4 6 -0.5 12zM188 18l119 969q0 19 19 19h32q20 0 17 -19l-119 -969q-3 -18 -20 -18h-33q-20 0 -15 18z" />
<glyph unicode="&#xed;" horiz-adv-x="438" d="M188 18l119 969q0 19 19 19h32q20 0 17 -19l-119 -969q-3 -18 -20 -18h-33q-20 0 -15 18zM332 1188l190 248q10 14 23 14h41q20 0 6 -18l-199 -250q-11 -11 -20 -11h-33q-18 0 -8 17z" />
<glyph unicode="&#xee;" horiz-adv-x="438" d="M154.5 1176.5q-2.5 5.5 3.5 13.5l190 242q14 18 31 18h27q18 0 26 -16l133 -244q5 -8 2 -13.5t-12 -5.5h-27q-14 0 -24 19l-115 211l-168 -211q-15 -19 -24 -19h-31q-9 0 -11.5 5.5zM188 18l119 969q0 19 19 19h32q20 0 17 -19l-119 -969q-3 -18 -20 -18h-33 q-20 0 -15 18z" />
<glyph unicode="&#xef;" horiz-adv-x="438" d="M188 18l119 969q0 19 19 19h32q20 0 17 -19l-119 -969q-3 -18 -20 -18h-33q-20 0 -15 18zM252 1214l24 203q3 19 21 19h22q18 0 15 -19l-25 -203q-3 -18 -20 -18h-21q-19 0 -16 18zM432 1214l25 203q3 19 20 19h23q17 0 14 -19l-25 -203q-3 -18 -20 -18h-20q-20 0 -17 18 z" />
<glyph unicode="&#xf0;" horiz-adv-x="1122" d="M182 186q0 25 2 37l68 559q13 111 89 175.5t218 64.5q197 0 346 -127l39 307q0 3 1 13t1 14q0 33 -12 63l-203 -80q-17 -7 -22 7l-4 14q-3 14 12 20l198 78q-56 66 -229 66h-174q-9 0 -13 3t-3 11l2 21q3 18 20 18h176q217 0 283 -88l121 49q15 7 20 -6l6 -14 q7 -13 -12 -21l-113 -47q13 -30 13 -72q0 -29 -2 -41l-119 -987q-13 -114 -100.5 -176.5t-280.5 -62.5q-328 0 -328 202zM252 199q0 -76 60.5 -117t203.5 -41q157 0 228 48.5t81 137.5l74 604q-20 19 -46 37.5t-68 42t-100 38t-120 14.5q-112 0 -174 -52t-72 -135l-65 -549 q-2 -10 -2 -28z" />
<glyph unicode="&#xf1;" horiz-adv-x="1064" d="M188 18l119 969q3 19 19 19h28q20 0 17 -19l-9 -94q174 129 377 129q124 0 188 -54.5t64 -146.5q0 -25 -2 -37l-94 -766q-3 -18 -21 -18h-32q-18 0 -15 18l93 756q4 16 4 29q0 73 -50 115.5t-153 42.5q-190 0 -367 -130l-98 -813q-3 -18 -20 -18h-33q-18 0 -15 18z M422 1219l4 30q13 92 46.5 130t92.5 38q57 0 101 -47l79 -80q35 -35 66 -35q42 0 59.5 25.5t26.5 99.5l2 21q3 16 21 16h20q17 0 14 -18l-4 -29q-11 -94 -45.5 -132t-93.5 -38q-53 0 -100 47l-82 80q-35 35 -64 35q-40 0 -57 -25t-29 -98l-4 -22q-3 -17 -20 -17h-21 q-15 0 -12 19z" />
<glyph unicode="&#xf2;" horiz-adv-x="1030" d="M182 188q0 23 2 35l70 559q7 56 29.5 97.5t65.5 75t115.5 50.5t172.5 17q326 0 326 -203q0 -19 -2 -37l-68 -559q-6 -55 -28.5 -96.5t-66 -74.5t-116 -50.5t-172.5 -17.5q-328 0 -328 204zM252 199q0 -75 60.5 -115.5t203.5 -40.5q288 0 309 184l68 551q2 18 2 29 q0 158 -264 158q-288 0 -309 -187l-68 -551q-2 -16 -2 -28zM462 1444q3 6 13 6h37q16 0 23 -14l124 -248q10 -17 -8 -17h-28q-17 0 -21 11l-139 250q-4 6 -1 12z" />
<glyph unicode="&#xf3;" horiz-adv-x="1030" d="M182 188q0 23 2 35l70 559q7 56 29.5 97.5t65.5 75t115.5 50.5t172.5 17q326 0 326 -203q0 -19 -2 -37l-68 -559q-6 -55 -28.5 -96.5t-66 -74.5t-116 -50.5t-172.5 -17.5q-328 0 -328 204zM252 199q0 -75 60.5 -115.5t203.5 -40.5q288 0 309 184l68 551q2 18 2 29 q0 158 -264 158q-288 0 -309 -187l-68 -551q-2 -16 -2 -28zM614.5 1175.5q-2.5 4.5 1.5 12.5l191 248q11 14 22 14h41q21 0 7 -18l-199 -250q-11 -11 -21 -11h-32q-8 0 -10.5 4.5z" />
<glyph unicode="&#xf4;" horiz-adv-x="1030" d="M182 188q0 23 2 35l70 559q7 56 29.5 97.5t65.5 75t115.5 50.5t172.5 17q326 0 326 -203q0 -19 -2 -37l-68 -559q-6 -55 -28.5 -96.5t-66 -74.5t-116 -50.5t-172.5 -17.5q-328 0 -328 204zM252 199q0 -75 60.5 -115.5t203.5 -40.5q288 0 309 184l68 551q2 18 2 29 q0 158 -264 158q-288 0 -309 -187l-68 -551q-2 -16 -2 -28zM445.5 1176.5q-2.5 5.5 3.5 13.5l190 242q14 18 31 18h26q19 0 27 -16l133 -244q5 -8 2 -13.5t-12 -5.5h-27q-15 0 -24 19l-115 211l-168 -211q-15 -19 -25 -19h-30q-9 0 -11.5 5.5z" />
<glyph unicode="&#xf5;" horiz-adv-x="1030" d="M182 188q0 23 2 35l70 559q7 56 29.5 97.5t65.5 75t115.5 50.5t172.5 17q326 0 326 -203q0 -19 -2 -37l-68 -559q-6 -55 -28.5 -96.5t-66 -74.5t-116 -50.5t-172.5 -17.5q-328 0 -328 204zM252 199q0 -75 60.5 -115.5t203.5 -40.5q288 0 309 184l68 551q2 18 2 29 q0 158 -264 158q-288 0 -309 -187l-68 -551q-2 -16 -2 -28zM387 1219l4 30q13 92 46.5 130t92.5 38q57 0 101 -47l80 -80q35 -35 65 -35q42 0 59.5 25.5t26.5 99.5l2 21q3 16 21 16h20q18 0 15 -18l-5 -29q-11 -94 -45.5 -132t-93.5 -38q-53 0 -100 47l-82 80q-35 35 -64 35 q-40 0 -57 -25t-29 -98l-4 -22q-3 -17 -20 -17h-21q-15 0 -12 19z" />
<glyph unicode="&#xf6;" horiz-adv-x="1030" d="M182 188q0 23 2 35l70 559q7 56 29.5 97.5t65.5 75t115.5 50.5t172.5 17q326 0 326 -203q0 -19 -2 -37l-68 -559q-6 -55 -28.5 -96.5t-66 -74.5t-116 -50.5t-172.5 -17.5q-328 0 -328 204zM252 199q0 -75 60.5 -115.5t203.5 -40.5q288 0 309 184l68 551q2 18 2 29 q0 158 -264 158q-288 0 -309 -187l-68 -551q-2 -16 -2 -28zM526 1214l25 203q3 19 20 19h23q17 0 14 -19l-24 -203q-3 -18 -21 -18h-20q-20 0 -17 18zM707 1214l24 203q3 19 21 19h22q17 0 14 -19l-24 -203q-3 -18 -21 -18h-20q-19 0 -16 18z" />
<glyph unicode="&#xf7;" horiz-adv-x="1214" d="M266 670v24q0 19 17 19h809q18 0 18 -17v-26q0 -19 -18 -19h-807q-19 0 -19 19zM653 276v156q0 19 17 19h35q16 0 16 -19v-156q0 -18 -16 -18h-35q-17 0 -17 18zM653 936v156q0 18 17 18h35q16 0 16 -18v-156q0 -18 -16 -18h-35q-17 0 -17 18z" />
<glyph unicode="&#xf8;" horiz-adv-x="1030" d="M171 -43q-2 6 3 12l62 88q-54 51 -54 131q0 23 2 35l70 559q7 56 29.5 97.5t65.5 75t115.5 50.5t172.5 17q151 0 237 -47l48 67q13 19 24 19h21q17 0 6 -19l-64 -92q54 -51 54 -131q0 -25 -2 -37l-68 -559q-10 -74 -46 -124.5t-120.5 -82.5t-216.5 -32q-158 0 -242 49 l-43 -64q-11 -18 -26 -18h-19q-7 0 -9 6zM252 199q0 -51 24 -84l560 805q-64 45 -205 45q-155 0 -226 -49.5t-83 -137.5l-68 -551q-2 -10 -2 -28zM307 86q65 -43 209 -43q156 0 227 48.5t82 135.5l68 549q2 10 2 31q0 47 -27 84z" />
<glyph unicode="&#xf9;" horiz-adv-x="1052" d="M195 184q0 17 2 35l94 768q3 19 20 19h33q18 0 16 -19l-94 -756q-2 -16 -2 -28q0 -73 50 -115.5t153 -42.5q192 0 352 129l99 813q3 19 20 19h33q19 0 16 -19l-121 -969q-3 -18 -16 -18h-29q-21 0 -18 18l8 93q-158 -127 -362 -127q-125 0 -189.5 54t-64.5 146z M480.5 1444q3.5 6 13.5 6h36q16 0 23 -14l125 -248q10 -17 -8 -17h-29q-16 0 -20 11l-140 250q-4 6 -0.5 12z" />
<glyph unicode="&#xfa;" horiz-adv-x="1052" d="M195 184q0 17 2 35l94 768q3 19 20 19h33q18 0 16 -19l-94 -756q-2 -16 -2 -28q0 -73 50 -115.5t153 -42.5q192 0 352 129l99 813q3 19 20 19h33q19 0 16 -19l-121 -969q-3 -18 -16 -18h-29q-21 0 -18 18l8 93q-158 -127 -362 -127q-125 0 -189.5 54t-64.5 146zM610 1188 l191 248q11 14 22 14h41q20 0 6 -18l-198 -250q-11 -11 -21 -11h-33q-18 0 -8 17z" />
<glyph unicode="&#xfb;" horiz-adv-x="1052" d="M195 184q0 17 2 35l94 768q3 19 20 19h33q18 0 16 -19l-94 -756q-2 -16 -2 -28q0 -73 50 -115.5t153 -42.5q192 0 352 129l99 813q3 19 20 19h33q19 0 16 -19l-121 -969q-3 -18 -16 -18h-29q-21 0 -18 18l8 93q-158 -127 -362 -127q-125 0 -189.5 54t-64.5 146z M441 1176.5q-3 5.5 3 13.5l191 242q14 18 31 18h26q19 0 27 -16l133 -244q5 -8 2 -13.5t-12 -5.5h-27q-15 0 -24 19l-115 211l-168 -211q-15 -19 -25 -19h-30q-9 0 -12 5.5z" />
<glyph unicode="&#xfc;" horiz-adv-x="1052" d="M195 184q0 17 2 35l94 768q3 19 20 19h33q18 0 16 -19l-94 -756q-2 -16 -2 -28q0 -73 50 -115.5t153 -42.5q192 0 352 129l99 813q3 19 20 19h33q19 0 16 -19l-121 -969q-3 -18 -16 -18h-29q-21 0 -18 18l8 93q-158 -127 -362 -127q-125 0 -189.5 54t-64.5 146zM541 1214 l24 203q3 19 21 19h22q18 0 15 -19l-25 -203q-3 -18 -20 -18h-21q-19 0 -16 18zM721 1214l24 203q3 19 21 19h22q18 0 15 -19l-25 -203q-3 -18 -20 -18h-21q-19 0 -16 18z" />
<glyph unicode="&#xfd;" horiz-adv-x="835" d="M168 987q-4 19 14 19h35q16 0 19 -19l178 -803q1 -8 5.5 -30.5t7.5 -39t3 -20.5q11 35 35 90l375 803q10 19 22 19h33q10 0 14 -5t0 -14l-649 -1399q-7 -18 -24 -18h-29q-21 0 -12 18l190 414zM510 1188l190 248q10 14 23 14h41q20 0 6 -18l-199 -250q-11 -11 -20 -11 h-33q-18 0 -8 17z" />
<glyph unicode="&#xfe;" d="M133 -412l225 1825q3 19 19 19h33q19 0 16 -19l-64 -518q178 127 377 127q124 0 188 -54.5t64 -148.5q0 -19 -4 -51l-67 -545q-14 -112 -89 -175.5t-217 -63.5q-119 0 -207 39t-141 88l-65 -523q-3 -18 -19 -18h-32q-20 0 -17 18zM272 174q142 -129 334 -129 q112 0 173.5 50.5t72.5 133.5l66 533q4 36 4 43q0 71 -51 114.5t-152 43.5q-197 0 -363 -132z" />
<glyph unicode="&#xff;" horiz-adv-x="835" d="M168 987q-4 19 14 19h35q16 0 19 -19l178 -803q1 -8 5.5 -30.5t7.5 -39t3 -20.5q11 35 35 90l375 803q10 19 22 19h33q10 0 14 -5t0 -14l-649 -1399q-7 -18 -24 -18h-29q-21 0 -12 18l190 414zM424 1214l25 203q3 19 20 19h23q17 0 14 -19l-25 -203q-3 -18 -20 -18h-21 q-19 0 -16 18zM604 1214l25 203q3 19 20 19h23q17 0 14 -19l-24 -203q-3 -18 -21 -18h-20q-20 0 -17 18z" />
<glyph unicode="&#x152;" horiz-adv-x="1816" d="M213 217q0 15 4 47l107 866q7 63 31.5 111t73.5 87t132.5 60t198.5 21q252 0 336 -111l10 76q3 19 20 19h699q16 0 16 -19l-2 -24q-3 -17 -20 -17h-648l-69 -567h606q18 0 18 -16l-2 -25q-3 -18 -20 -18h-610l-80 -648h674q17 0 14 -16l-2 -25q0 -18 -19 -18h-727 q-17 0 -14 18l8 72q-106 -106 -354 -106q-381 0 -381 233zM285 233q0 -91 72 -140.5t243 -49.5q187 0 272.5 58.5t96.5 164.5l104 850l4 25v18q0 91 -72.5 141t-244.5 50q-341 0 -369 -226l-104 -854q-2 -12 -2 -37z" />
<glyph unicode="&#x153;" horiz-adv-x="1638" d="M182 186q0 25 2 37l70 559q7 56 29 97.5t65 75t115 50.5t172 17q253 0 303 -127q79 127 336 127q321 0 321 -203q0 -25 -2 -37l-32 -254q-3 -18 -19 -18h-614l-37 -285q-2 -14 -2 -28q0 -158 264 -158q154 0 223 48.5t82 135.5l8 56q3 16 21 16h29q17 0 14 -16l-8 -56 q-6 -44 -20 -78.5t-41.5 -65.5t-68 -51t-102.5 -32t-143 -12q-250 0 -307 120q-79 -120 -330 -120q-328 0 -328 202zM252 199q0 -76 60.5 -117t203.5 -41q156 0 227 48.5t82 137.5l68 551q2 10 2 29q0 158 -264 158q-156 0 -227 -49t-82 -138l-68 -551q-2 -10 -2 -28z M932 563h567l29 217q2 10 2 29q0 158 -262 158q-155 0 -225 -49.5t-82 -137.5z" />
<glyph unicode="&#x178;" horiz-adv-x="1026" d="M217 1374q-8 19 14 19h39q15 0 21 -19l280 -667q18 -47 21 -62q2 11 33 62l444 667q15 19 27 19h37q24 0 10 -19l-525 -786l-69 -570q-3 -18 -19 -18h-32q-10 0 -15 4.5t-4 13.5l70 564zM561 1556l25 203q3 17 20 17h23q17 0 14 -17l-25 -203q-2 -11 -6 -14.5t-14 -3.5 h-20q-20 0 -17 18zM741 1556l25 203q3 17 20 17h23q17 0 14 -17l-22 -203q-3 -18 -21 -18h-22q-20 0 -17 18z" />
<glyph unicode="&#x2c6;" horiz-adv-x="700" d="M285.5 1176.5q-2.5 5.5 3.5 13.5l190 242q14 18 31 18h27q18 0 26 -16l133 -244q5 -8 2 -13.5t-12 -5.5h-27q-15 0 -24 19l-115 211l-168 -211q-15 -19 -24 -19h-31q-9 0 -11.5 5.5z" />
<glyph unicode="&#x2dc;" horiz-adv-x="880" d="M330 1219l4 30q13 92 46.5 130t92.5 38q56 0 100 -47l80 -80q35 -35 66 -35q42 0 59.5 25.5t26.5 99.5l2 21q3 16 20 16h21q17 0 14 -18l-4 -29q-11 -94 -45.5 -132t-93.5 -38q-54 0 -101 47l-81 80q-35 35 -64 35q-40 0 -57 -25t-29 -98l-4 -22q-3 -17 -21 -17h-20 q-15 0 -12 19z" />
<glyph unicode="&#x2000;" horiz-adv-x="903" />
<glyph unicode="&#x2001;" horiz-adv-x="1806" />
<glyph unicode="&#x2002;" horiz-adv-x="903" />
<glyph unicode="&#x2003;" horiz-adv-x="1806" />
<glyph unicode="&#x2004;" horiz-adv-x="602" />
<glyph unicode="&#x2005;" horiz-adv-x="451" />
<glyph unicode="&#x2006;" horiz-adv-x="301" />
<glyph unicode="&#x2007;" horiz-adv-x="301" />
<glyph unicode="&#x2008;" horiz-adv-x="225" />
<glyph unicode="&#x2009;" horiz-adv-x="361" />
<glyph unicode="&#x200a;" horiz-adv-x="100" />
<glyph unicode="&#x2010;" horiz-adv-x="956" d="M254 582v22q0 19 18 19h551q17 0 17 -19v-22q0 -19 -17 -19h-551q-18 0 -18 19z" />
<glyph unicode="&#x2011;" horiz-adv-x="956" d="M254 582v22q0 19 18 19h551q17 0 17 -19v-22q0 -19 -17 -19h-551q-18 0 -18 19z" />
<glyph unicode="&#x2012;" horiz-adv-x="956" d="M254 582v22q0 19 18 19h551q17 0 17 -19v-22q0 -19 -17 -19h-551q-18 0 -18 19z" />
<glyph unicode="&#x2013;" horiz-adv-x="1132" d="M254 582v22q0 19 18 19h725q19 0 19 -19v-22q0 -19 -19 -19h-725q-18 0 -18 19z" />
<glyph unicode="&#x2014;" horiz-adv-x="1765" d="M254 582v22q0 19 18 19h1358q19 0 19 -19v-22q0 -19 -19 -19h-1358q-18 0 -18 19z" />
<glyph unicode="&#x2018;" horiz-adv-x="430" d="M301 1128l16 119q9 80 51.5 132.5t127.5 82.5q14 6 20 -8l8 -24q5 -16 -12 -25q-63 -28 -91 -65.5t-36 -94.5l-14 -117q-3 -18 -21 -18h-33q-19 0 -16 18z" />
<glyph unicode="&#x2019;" horiz-adv-x="430" d="M217 1145q-5 15 12 24q63 28 91 65.5t36 94.5l15 117q3 18 20 18h33q19 0 16 -18l-16 -119q-9 -80 -51.5 -132.5t-126.5 -82.5q-15 -6 -21 8z" />
<glyph unicode="&#x201a;" horiz-adv-x="430" d="M53 -127q-5 16 13 25q63 28 91 65t36 94l14 117q3 19 20 19h33q19 0 16 -19l-16 -119q-9 -80 -51.5 -132.5t-126.5 -82.5q-15 -6 -21 8z" />
<glyph unicode="&#x201c;" horiz-adv-x="679" d="M301 1128l16 119q9 80 51.5 132.5t127.5 82.5q14 6 20 -8l8 -24q5 -16 -12 -25q-63 -28 -91 -65.5t-36 -94.5l-14 -117q-3 -18 -21 -18h-33q-19 0 -16 18zM553 1128l16 119q9 80 51.5 132.5t127.5 82.5q14 6 20 -8l8 -24q5 -16 -12 -25q-63 -28 -91 -65.5t-36 -94.5 l-14 -117q-3 -18 -21 -18h-33q-19 0 -16 18z" />
<glyph unicode="&#x201d;" horiz-adv-x="679" d="M217 1145q-5 15 12 24q63 28 91 65.5t36 94.5l15 117q3 18 20 18h33q19 0 16 -18l-16 -119q-9 -80 -51.5 -132.5t-126.5 -82.5q-15 -6 -21 8zM469 1145q-5 15 12 24q63 28 91 65.5t36 94.5l15 117q3 18 20 18h33q19 0 16 -18l-16 -119q-9 -80 -51.5 -132.5t-126.5 -82.5 q-15 -6 -21 8z" />
<glyph unicode="&#x201e;" horiz-adv-x="679" d="M53 -127q-5 16 13 25q63 28 91 65t36 94l14 117q3 19 20 19h33q19 0 16 -19l-16 -119q-9 -80 -51.5 -132.5t-126.5 -82.5q-15 -6 -21 8zM305 -127q-5 16 12 25q63 28 91 65t36 94l15 117q3 19 20 19h33q19 0 16 -19l-16 -119q-9 -80 -51.5 -132.5t-126.5 -82.5 q-15 -6 -21 8z" />
<glyph unicode="&#x2022;" horiz-adv-x="487" d="M258 403l29 246q3 19 20 19h33q16 0 16 -19l-30 -246q-3 -18 -21 -18h-33q-17 0 -14 18z" />
<glyph unicode="&#x2026;" horiz-adv-x="1431" d="M176 18l19 156q4 19 20 19h35q17 0 14 -19l-18 -156q-3 -18 -19 -18h-32q-10 0 -15 4t-4 14zM684 18l18 156q4 19 21 19h35q17 0 14 -19l-18 -156q-3 -18 -19 -18h-33q-21 0 -18 18zM1190 18l18 156q4 19 21 19h35q17 0 14 -19l-18 -156q-3 -18 -19 -18h-33q-21 0 -18 18 z" />
<glyph unicode="&#x202f;" horiz-adv-x="361" />
<glyph unicode="&#x2039;" horiz-adv-x="841" d="M231 489l5 27q3 17 20 27l416 291q6 5 12.5 3t5.5 -12l-6 -39q-2 -14 -20 -28l-371 -256l307 -254q16 -16 14 -27l-4 -41q-1 -7 -7.5 -10t-10.5 2l-348 293q-15 15 -13 24z" />
<glyph unicode="&#x203a;" horiz-adv-x="841" d="M233 180l7 39q3 15 20 29l371 256l-307 254q-17 17 -15 26l4 41q1 7 8 10.5t11 -1.5l348 -293q14 -14 12 -25l-4 -27q-3 -16 -20 -26l-416 -291q-6 -5 -13 -3.5t-6 11.5z" />
<glyph unicode="&#x205f;" horiz-adv-x="451" />
<glyph unicode="&#x20ac;" horiz-adv-x="1101" d="M141 571v17q0 18 21 18h172l22 185h-172q-19 0 -16 16l2 16q3 19 20 19h172l37 288q7 63 31 111t72 87.5t131.5 60t200.5 20.5q202 0 288 -62t86 -173q0 -30 -2 -46l-14 -106q-3 -18 -18 -18h-33q-20 0 -17 18l13 100q2 12 2 39q0 89 -71 138t-239 49q-186 0 -267.5 -59 t-94.5 -167l-35 -280h326q16 0 16 -19v-16q0 -16 -22 -16h-326l-23 -185h326q19 0 16 -18l-2 -17q-3 -16 -18 -16h-328l-35 -283q-2 -14 -2 -41q0 -90 70 -138t238 -48q186 0 268.5 58.5t95.5 166.5l17 125q3 17 18 17h33q19 0 16 -17l-16 -133q-6 -50 -21.5 -90t-47.5 -76 t-79.5 -60t-120.5 -38t-167 -14q-375 0 -375 231q0 17 4 49l35 291h-170q-17 0 -17 16z" />
<glyph unicode="&#x2122;" horiz-adv-x="1798" d="M315 1354l2 24q0 15 17 15h551q17 0 14 -15l-2 -24q0 -15 -16 -15h-246l-96 -768q0 -14 -15 -14h-32q-15 0 -15 14l94 768h-239q-17 0 -17 15zM903 571l98 807q4 15 17 15h29q8 0 12 -15l201 -579l12 -49q17 34 26 49l336 581q6 13 19 13h33q12 0 12 -15l-101 -807 q0 -14 -14 -14h-31q-14 0 -14 14l84 693l-25 -50l-297 -516q-10 -14 -22 -14h-27q-11 0 -18 14l-176 521l-10 47l-86 -695q0 -14 -15 -14h-31q-12 0 -12 14z" />
<glyph unicode="&#x25fc;" horiz-adv-x="1003" d="M0 0v1004h1004v-1004h-1004z" />
</font>
</defs>
</svg>
