<?xml version="1.0" standalone="no"?>
<!DOCTYPE svg PUBLIC "-//W3C//DTD SVG 1.1//EN" "http://www.w3.org/Graphics/SVG/1.1/DTD/svg11.dtd" >
<svg xmlns="http://www.w3.org/2000/svg" xmlns:xlink="http://www.w3.org/1999/xlink" version="1.1">
<metadata></metadata>
<defs>
<font id="geogrotesqueregular_italic" horiz-adv-x="1073" >
<font-face units-per-em="2048" ascent="1536" descent="-512" />
<missing-glyph horiz-adv-x="458" />
<glyph unicode="&#xfb01;" horiz-adv-x="1107" d="M168 -391l160 1282h-127q-30 0 -27 31l4 49q3 27 33 30l113 7h18l18 159q14 127 109.5 196t296.5 69h299q34 0 29 -31l-9 -60q-3 -17 -10 -23.5t-22 -6.5h-291q-131 0 -190.5 -40.5t-69.5 -117.5l-19 -145h572q17 0 22.5 -6.5t3.5 -24.5l-116 -946q-3 -31 -31 -31h-84 q-30 0 -27 31l107 860h-461l-160 -1282q-2 -18 -7.5 -24.5t-22.5 -6.5h-82q-32 0 -29 31z" />
<glyph unicode="&#xfb02;" horiz-adv-x="1126" d="M168 -391l160 1282h-127q-30 0 -27 31l4 49q3 27 33 30l113 7h18l18 159q14 127 109 196t297 69h340q17 0 23 -7t4 -24l-168 -1370q-3 -31 -31 -31h-84q-30 0 -27 31l158 1280h-219q-131 0 -190.5 -40.5t-69.5 -117.5l-19 -145h222q31 0 28 -29l-8 -57q-3 -31 -33 -31 h-223l-160 -1282q-2 -18 -7.5 -24.5t-22.5 -6.5h-82q-32 0 -29 31z" />
<glyph unicode="&#xfb03;" horiz-adv-x="1699" d="M176 -393l160 1286h-129q-30 0 -27 31l4 47q3 27 35 30l111 7h16l23 170q16 126 111.5 194t299.5 68h15q18 0 24.5 -7t3.5 -24l-8 -57q-3 -17 -10.5 -23t-24.5 -6h-12q-128 0 -188 -41.5t-70 -118.5l-21 -155h461l19 161q14 125 109.5 194t297.5 69h299q32 0 27 -31 l-8 -58q-3 -28 -33 -28h-291q-131 0 -190.5 -41.5t-69.5 -118.5l-18 -147h571q17 0 23 -7t4 -24l-117 -946q-3 -31 -31 -31h-84q-29 0 -26 31l106 862h-461l-157 -1286q-3 -29 -33 -29h-82q-32 0 -29 29l160 1286h-459l-160 -1286q-3 -29 -32 -29h-82q-17 0 -23 7t-4 22z " />
<glyph unicode="&#xfb04;" horiz-adv-x="1734" d="M174 -393l160 1286h-129q-30 0 -27 31l6 47q3 27 33 30l111 7h18l23 170q16 126 111 194t298 68h17q17 0 22.5 -6.5t3.5 -24.5l-6 -57q-3 -29 -35 -29h-12q-130 0 -190 -41.5t-70 -118.5l-21 -155h463l19 161q14 126 109 194.5t298 68.5h338q17 0 23.5 -7t5.5 -24 l-170 -1370q-3 -31 -31 -31h-84q-29 0 -26 31l157 1284h-219q-131 0 -190.5 -41.5t-69.5 -118.5l-18 -147h223q29 0 26 -29l-8 -55q-3 -31 -33 -31h-223l-157 -1286q-3 -29 -33 -29h-82q-32 0 -29 29l160 1286h-461l-158 -1286q-3 -29 -34 -29h-82q-30 0 -27 29z" />
<glyph horiz-adv-x="0" />
<glyph horiz-adv-x="0" />
<glyph horiz-adv-x="682" />
<glyph unicode="&#xd;" horiz-adv-x="0" />
<glyph unicode=" "  horiz-adv-x="458" />
<glyph unicode="&#x09;" horiz-adv-x="458" />
<glyph unicode="&#xa0;" horiz-adv-x="458" />
<glyph unicode="!" horiz-adv-x="520" d="M190 31l21 159q3 31 33 31h86q29 0 26 -31l-20 -159q-1 -17 -9.5 -24t-25.5 -7h-84q-17 0 -23 7t-4 24zM246 362l39 437l67 563q3 31 35 31h88q30 0 27 -31l-68 -563l-69 -437q-6 -30 -33 -30h-62q-16 0 -21 7t-3 23z" />
<glyph unicode="&#x22;" horiz-adv-x="751" d="M297 1012l31 350q3 31 32 31h84q31 0 25 -31l-55 -350q-3 -16 -10 -23.5t-23 -7.5h-57q-30 0 -27 31zM582 1012l30 350q3 31 35 31h82q31 0 25 -31l-56 -350q-3 -17 -9.5 -24t-22.5 -7h-58q-29 0 -26 31z" />
<glyph unicode="#" horiz-adv-x="1337" d="M227 479l4 45q3 29 33 29h168l90 223h-143q-30 0 -27 31l4 47q3 29 35 29h174l80 196q14 31 41 31h64q28 0 16 -31l-80 -196h313l78 196q14 31 43 31h62q30 0 18 -31l-80 -196h125q17 0 23 -7t4 -22l-4 -47q-3 -31 -35 -31h-154l-92 -223h133q30 0 27 -29l-4 -45 q-3 -30 -35 -30h-162l-78 -193q-13 -33 -39 -33h-65q-14 0 -19.5 9t0.5 24l78 193h-311l-78 -193q-13 -33 -39 -33h-65q-14 0 -19.5 9t0.5 24l78 193h-137q-28 0 -25 30zM555 553h311l92 223h-313z" />
<glyph unicode="$" horiz-adv-x="1083" d="M246 377q0 19 2 33l6 51q3 28 31 28h77q23 0 21 -28l-4 -33q-2 -12 -2 -39q0 -51 58 -79.5t165 -28.5q118 0 185 32.5t75 94.5l8 71q2 14 2 33q0 59 -106 94l-295 101q-65 23 -104 69t-39 109q0 15 2 33l8 75q10 93 85 153.5t230 70.5l19 145q3 31 35 31h81q28 0 25 -31 l-20 -148q128 -14 192 -70t64 -132q0 -2 -3 -37l-4 -49q-3 -27 -32 -27h-76q-28 0 -25 27l6 43q2 16 2 37q0 47 -52.5 77.5t-157.5 30.5q-223 0 -238 -123l-6 -45q-2 -16 -2 -28q0 -73 88 -101l305 -100q74 -24 114 -68.5t40 -99.5q0 -13 -5 -43l-10 -111q-10 -90 -90 -149 t-237 -70l-19 -145q-3 -31 -31 -31h-82q-31 0 -28 31l18 145q-138 11 -207 66.5t-69 134.5z" />
<glyph unicode="%" horiz-adv-x="1589" d="M287 961q0 14 4 38l24 213q11 94 80 144.5t219 50.5q130 0 194 -43.5t64 -120.5q0 -13 -4 -41l-24 -213q-11 -94 -79.5 -144t-217.5 -50q-133 0 -196.5 44t-63.5 122zM408 977q0 -84 147 -84q160 0 170 100l23 207q2 14 2 23q0 86 -148 86q-154 0 -168 -101l-26 -211v-20 zM413 11q-2 11 5 20l782 1331q17 31 47 31h78q14 0 17 -9.5t-5 -21.5l-784 -1331q-19 -31 -45 -31h-80q-13 0 -15 11zM885 147q0 13 4 37l24 215q11 95 79 145t218 50q132 0 196 -43.5t64 -120.5q0 -9 -4 -41l-26 -213q-11 -94 -78.5 -144t-216.5 -50q-260 0 -260 165z M1006 166q0 -86 147 -86q155 0 168 102l25 205q0 4 1 13t1 12q0 84 -146 84q-160 0 -170 -101l-24 -207q-2 -16 -2 -22z" />
<glyph unicode="&#x26;" horiz-adv-x="1376" d="M205 242q0 25 2 39l29 221q13 98 61.5 154.5t161.5 82.5q-85 22 -120.5 67t-35.5 114q0 1 4 47l19 149q6 53 21 94t46.5 79.5t78 64t120.5 40.5t170 15q175 0 276 -61t101 -185q0 -28 -2 -55l-4 -41q-1 -17 -9 -23t-26 -6h-84q-28 0 -25 29l4 49v21q0 46 -20.5 77.5 t-57.5 46.5t-76 21t-89 6q-130 0 -199.5 -42t-83.5 -152l-14 -107q-4 -29 -4 -45q0 -73 56 -109t191 -36h660q18 0 23 -7.5t3 -23.5l-6 -61q-3 -29 -35 -29h-151l-49 -395q-36 -297 -500 -297q-226 0 -331 70t-105 188zM352 268q0 -80 77.5 -122t223.5 -42q325 0 348 195 l46 377h-379q-107 0 -170.5 -23.5t-88 -63t-32.5 -104.5l-23 -186q-2 -14 -2 -31z" />
<glyph unicode="'" horiz-adv-x="464" d="M297 1012l31 350q3 31 32 31h84q31 0 25 -31l-55 -350q-3 -16 -10 -23.5t-23 -7.5h-57q-30 0 -27 31z" />
<glyph unicode="(" horiz-adv-x="724" d="M150 -213q0 13 4 41l168 1358q8 67 31 114t69 82t119.5 51.5t179.5 16.5h27q28 0 26 -31l-6 -59q-1 -17 -9.5 -24t-25.5 -7h-10q-131 0 -188.5 -40t-67.5 -118l-166 -1331q-4 -20 -4 -33q0 -65 51 -99t170 -34h12q30 0 27 -30l-8 -60q-3 -30 -33 -30h-10 q-180 0 -268 61.5t-88 171.5z" />
<glyph unicode=")" horiz-adv-x="724" d="M70 -416l6 60q3 30 35 30h10q130 0 189 40.5t69 117.5l164 1331q4 32 4 35q0 65 -51.5 98t-169.5 33h-13q-27 0 -24 31l6 59q3 31 33 31h10q180 0 268 -61.5t88 -171.5q0 -13 -4 -41l-168 -1358q-8 -67 -31 -114t-69 -82t-119.5 -51.5t-179.5 -16.5h-27q-28 0 -26 30z " />
<glyph unicode="*" horiz-adv-x="1044" d="M303 913q-12 27 16 41l244 125l-211 129q-14 9 -16 17.5t6 21.5l25 39q19 29 45 12l211 -149l22 274q3 31 35 31h45q31 0 25 -31l-45 -272l241 149q29 17 41 -10l19 -43q12 -24 -17 -39l-248 -129l215 -125q26 -14 9 -41l-25 -39q-18 -29 -43 -10l-209 146l-22 -262 q-2 -17 -9 -24t-24 -7h-45q-31 0 -25 31l43 264l-248 -150q-26 -17 -39 12z" />
<glyph unicode="+" horiz-adv-x="1185" d="M240 664v61q0 31 30 31h340v338q0 32 29 32h59q31 0 31 -32v-338h342q31 0 31 -31v-61q0 -31 -31 -31h-342v-340q0 -29 -31 -29h-59q-29 0 -29 29v340h-340q-30 0 -30 31z" />
<glyph unicode="," horiz-adv-x="487" d="M51 -113q-5 27 25 39q62 27 87.5 58.5t31.5 81.5l16 124q3 31 33 31h86q27 0 24 -31l-16 -131q-10 -96 -67.5 -155.5t-168.5 -93.5q-15 -5 -22.5 -1t-11.5 19z" />
<glyph unicode="-" horiz-adv-x="933" d="M227 563v60q0 28 31 28h549q17 0 24 -6.5t7 -21.5v-60q0 -17 -7 -24t-24 -7h-549q-31 0 -31 31z" />
<glyph unicode="." horiz-adv-x="452" d="M158 31l18 159q3 31 33 31h88q25 0 22 -31l-18 -159q-3 -31 -33 -31h-84q-29 0 -26 31z" />
<glyph unicode="/" horiz-adv-x="755" d="M46.5 -294.5q-5.5 8.5 0.5 22.5l647 1673q10 31 37 31h94q35 0 23 -31l-649 -1673q-12 -31 -39 -31h-94q-14 0 -19.5 8.5z" />
<glyph unicode="0" horiz-adv-x="1110" d="M162 236q0 21 4 53l100 821q6 52 22 94t49 81.5t82 66t125 42t175 15.5q107 0 185.5 -19.5t123 -55t65.5 -80t21 -99.5q0 -15 -4 -51l-98 -821q-8 -66 -33 -116.5t-75 -93.5t-137.5 -66t-209.5 -23q-208 0 -301.5 68.5t-93.5 183.5zM309 270q0 -79 59.5 -120t198.5 -41 q153 0 220.5 50t78.5 146l97 774q2 16 2 43q0 79 -59 120.5t-195 41.5q-153 0 -221.5 -50.5t-79.5 -146.5l-93 -753q-8 -62 -8 -64z" />
<glyph unicode="1" horiz-adv-x="1110" d="M154 31l6 65q3 29 33 29h325l141 1128l-335 -86q-14 -3 -21 3.5t-6 23.5l6 66q3 26 35 32l455 107q12 3 19.5 -3.5t6.5 -23.5l-155 -1247h325q30 0 27 -29l-8 -65q-1 -17 -9.5 -24t-25.5 -7h-795q-15 0 -20.5 7t-3.5 24z" />
<glyph unicode="2" horiz-adv-x="1110" d="M172 31l49 399q5 36 21.5 66t34.5 47.5t47 33.5t45 22t43 15l399 129q19 6 36.5 14.5t40 25t38.5 43t20 59.5l25 198q2 16 2 45q0 77 -58 117.5t-194 40.5q-105 0 -169 -26t-90 -67t-36 -106l-14 -94q-3 -18 -9.5 -25t-21.5 -7h-84q-30 0 -27 32l15 117q8 67 31.5 117 t72 93t134.5 66t208 23q389 0 389 -252q0 -21 -4 -53l-26 -221q-23 -191 -213 -252l-363 -113q-22 -6 -36.5 -11t-37 -16.5t-36.5 -24.5t-26.5 -34t-15.5 -47l-34 -260h643q30 0 26 -29l-6 -65q-3 -31 -35 -31h-759q-28 0 -25 31z" />
<glyph unicode="3" horiz-adv-x="1110" d="M156 236q0 29 2 45l6 45q3 28 33 28h84q17 0 21.5 -7t2.5 -21l-2 -27q-2 -14 -2 -39q0 -76 59.5 -116t194.5 -40q150 0 218 49.5t79 145.5l22 186q1 7 3 22.5t2 22.5q0 72 -56.5 109t-189.5 37h-184q-30 0 -27 29l6 61q1 17 9.5 24t25.5 7h170q105 0 167.5 23.5 t87.5 62.5t34 104l14 107q2 16 2 39q0 76 -55.5 115.5t-186.5 39.5q-148 0 -214 -49.5t-72 -144.5l-2 -27q-3 -29 -33 -29h-82q-30 0 -27 29l4 45q6 65 29 115.5t71.5 93t134.5 65.5t206 23q374 0 374 -246q0 -15 -4 -55l-18 -143q-11 -94 -55.5 -147.5t-147.5 -78.5 q89 -24 126.5 -71t37.5 -119q0 -19 -4 -55l-27 -220q-8 -66 -32 -115.5t-73 -90.5t-134.5 -62.5t-206.5 -21.5q-391 0 -391 252z" />
<glyph unicode="4" horiz-adv-x="1110" d="M154 469l6 59q1 12 12 39l381 795q15 31 43 31h88q15 0 19.5 -8.5t-1.5 -22.5l-383 -797h541l98 797q3 31 35 31h88q26 0 23 -31l-162 -1331q-3 -31 -31 -31h-88q-29 0 -26 31l51 409h-668q-29 0 -26 29z" />
<glyph unicode="5" horiz-adv-x="1110" d="M180 233q0 32 2 46l6 45q1 17 8.5 23.5t22.5 6.5h84q30 0 27 -30l-2 -25q-2 -10 -2 -41q0 -76 53 -115t188 -39q150 0 211 48t72 147l29 236q1 9 2 19.5t1.5 16t0.5 9.5q0 149 -246 149h-336q-28 0 -25 31l74 602q3 31 31 31h684q32 0 27 -31l-9 -64q-1 -17 -8.5 -23.5 t-23.5 -6.5h-566l-53 -418h219q184 0 282.5 -65t98.5 -177q0 -11 -4 -51l-33 -278q-6 -53 -20.5 -94.5t-46 -80.5t-79 -65t-122.5 -41.5t-172 -15.5q-106 0 -181.5 19t-116.5 54.5t-59 78.5t-18 99z" />
<glyph unicode="6" horiz-adv-x="1110" d="M174 233q0 22 4 50l103 837q5 47 19 85.5t45.5 77.5t78 66t123 43.5t174.5 16.5q106 0 182 -20.5t117 -56.5t59.5 -78t18.5 -93q0 -26 -4 -51l-4 -27q-3 -16 -10 -23t-23 -7h-84q-28 0 -25 30l2 19q2 20 2 31q0 73 -53.5 114t-189.5 41q-77 0 -132.5 -14t-87 -41 t-47 -58.5t-20.5 -72.5l-47 -375q85 102 301 102q191 0 277.5 -68.5t86.5 -182.5q0 -22 -4 -54l-26 -241q-7 -66 -31 -116.5t-73.5 -93.5t-136 -66t-208.5 -23q-387 0 -387 249zM322 262q0 -77 56.5 -117.5t192.5 -40.5q152 0 217 50t78 147l25 211q4 32 4 39 q0 77 -58 117.5t-196 40.5q-268 0 -289 -181l-26 -219q-4 -36 -4 -47z" />
<glyph unicode="7" horiz-adv-x="1110" d="M264 1298l8 64q3 31 35 31h840q30 0 27 -31l-9 -62q-4 -20 -10 -32l-676 -1237q-19 -31 -41 -31h-102q-38 0 -19 31l676 1237h-700q-32 0 -29 30z" />
<glyph unicode="8" horiz-adv-x="1110" d="M170 236q0 7 4 47l27 221q11 96 62 153t165 84q-158 39 -158 189q0 13 4 53l15 127q6 54 19 94.5t42.5 81t75 66t119 41.5t172.5 16q105 0 179 -18.5t115 -53.5t58.5 -78t17.5 -98q0 -19 -4 -51l-16 -133q-11 -99 -58 -155t-157 -81q176 -44 176 -198q0 -13 -4 -45 l-25 -215q-7 -67 -30 -117t-71 -93t-134.5 -66t-208.5 -23q-385 0 -385 252zM315 260q0 -76 56.5 -116t191.5 -40q153 0 218.5 50t76.5 147l23 176q2 16 2 45q0 77 -57 117.5t-193 40.5q-152 0 -216 -49.5t-75 -147.5l-23 -182q-4 -32 -4 -41zM414 954q0 -77 51 -116 t182 -39q151 0 209.5 48.5t71.5 149.5l12 95q4 36 4 43q0 76 -52.5 114.5t-184.5 38.5q-149 0 -206.5 -48t-70.5 -148l-12 -95q-4 -36 -4 -43z" />
<glyph unicode="9" horiz-adv-x="1110" d="M178 231q0 27 4 52l4 26q3 16 10 23.5t23 7.5h82q30 0 27 -31l-2 -18q-2 -20 -2 -31q0 -72 54.5 -114t190.5 -42q148 0 210.5 50t72.5 137l47 375q-83 -103 -299 -103q-191 0 -277.5 69t-86.5 183q0 21 4 53l28 242q6 53 21 94.5t47 81t80 66t123.5 42t173.5 15.5 q106 0 183.5 -19t121.5 -54t64 -78.5t20 -98.5q0 -21 -4 -49l-103 -838q-7 -60 -28 -106.5t-67 -90t-132 -67.5t-207 -24q-107 0 -184.5 20t-119 56t-60.5 78t-19 93zM381 844q0 -78 58 -119t194 -41q270 0 291 180l26 219q4 36 4 47q0 77 -56.5 117.5t-190.5 40.5 q-154 0 -220 -49.5t-77 -146.5l-25 -211q-4 -32 -4 -37z" />
<glyph unicode=":" horiz-adv-x="452" d="M158 31l18 159q3 31 35 31h84q27 0 24 -31l-18 -159q-3 -31 -33 -31h-86q-17 0 -21.5 6.5t-2.5 24.5zM254 819l20 162q3 31 33 31h86q28 0 25 -31l-21 -162q-2 -15 -8.5 -21.5t-23.5 -6.5h-86q-28 0 -25 28z" />
<glyph unicode=";" horiz-adv-x="552" d="M121 -113q-6 28 22 39q60 26 87 60t32 80l14 124q3 31 35 31h86q28 0 25 -31l-16 -131q-12 -96 -69.5 -156.5t-166.5 -92.5q-29 -10 -35 18zM354 819l19 162q3 31 37 31h84q27 0 24 -31l-18 -162q-3 -28 -33 -28h-86q-30 0 -27 28z" />
<glyph unicode="&#x3c;" horiz-adv-x="1103" d="M240 651v92q0 19 28 33l721 326q13 6 22 -2t9 -25v-82q0 -12 -7 -18.5t-24 -13.5l-608 -265l608 -264q16 -7 23.5 -14t7.5 -19v-82q0 -17 -9 -24.5t-22 -1.5l-721 325q-21 11 -25 19q-3 7 -3 16z" />
<glyph unicode="=" horiz-adv-x="1204" d="M215 465v61q0 29 31 29h819q31 0 31 -29v-61q0 -29 -31 -29h-819q-31 0 -31 29zM215 831v62q0 29 31 29h819q31 0 31 -29v-62q0 -17 -7 -23.5t-24 -6.5h-819q-31 0 -31 30z" />
<glyph unicode="&#x3e;" horiz-adv-x="1103" d="M197 315v84q0 11 4.5 18t9 9.5t16.5 7.5l611 262l-611 262q-30 13 -30 35v84q0 17 8.5 25t21.5 2l723 -326q14 -7 20.5 -14t6.5 -21v-94q0 -11 -4 -18t-8 -9t-15 -8l-723 -325q-13 -6 -21.5 1.5t-8.5 24.5z" />
<glyph unicode="?" horiz-adv-x="1161" d="M274 993l15 117q6 52 22.5 94.5t50.5 81.5t84 65.5t126.5 42t175.5 15.5q209 0 303 -72t94 -188q0 -29 -2 -45l-21 -156q-25 -180 -200 -260l-117 -53q-108 -53 -119 -146l-16 -127q-3 -30 -33 -30h-86q-30 0 -27 30l21 160q6 43 23.5 78t44 58t46.5 36t46 25l149 74 q112 54 125 157l18 137q2 18 2 41q0 158 -264 158q-152 0 -221.5 -51t-83.5 -148l-14 -94q-3 -18 -9.5 -25t-21.5 -7h-84q-30 0 -27 32zM483 31l19 157q3 33 35 33h88q25 0 22 -31l-18 -159q-3 -31 -33 -31h-86q-16 0 -22 6.5t-5 24.5z" />
<glyph unicode="@" horiz-adv-x="1744" d="M195 63q0 22 6 76l96 781q6 51 22 93t48 84t86 73.5t130.5 56.5t188 38t252.5 13q151 0 266 -16.5t187 -44t117.5 -68t63 -84.5t17.5 -98q0 -16 -4 -56l-72 -573q-16 -130 -84 -200t-212 -70q-91 0 -146.5 35t-69.5 96q-178 -131 -342 -131q-111 0 -165 48t-54 134 q0 40 9 80l77 346q30 129 99.5 195.5t206.5 66.5q147 0 282 -115l19 70q9 29 34 29h72q15 0 21.5 -8.5t3.5 -20.5l-121 -531q-12 -58 -12 -79q0 -107 104 -107q122 0 143 178l68 551q2 14 2 39q0 51 -25 89t-82.5 67.5t-161 45t-251.5 15.5q-129 0 -226.5 -12t-161.5 -33 t-106 -52.5t-61 -68t-25 -82.5l-96 -776q-6 -42 -6 -51q0 -70 44.5 -116t162.5 -73.5t315 -27.5h377q28 0 24 -29l-4 -59q-3 -31 -34 -31h-373q-151 0 -266 16.5t-186.5 44.5t-116.5 69t-62.5 85t-17.5 98zM670 297q0 -100 141 -100q130 0 268 100q0 17 4 37l86 373 q-104 104 -225 104q-165 0 -199 -160l-67 -299q-8 -32 -8 -55z" />
<glyph unicode="A" horiz-adv-x="1077" d="M51 31l570 1331q12 31 43 31h88q28 0 34 -31l244 -1331q6 -31 -22 -31h-90q-27 0 -33 31l-68 364h-469l-155 -364q-12 -31 -39 -31h-82q-35 0 -21 31zM397 512h402l-88 479q-4 26 -10 89t-9 113l-4 50q-3 -8 -18 -58t-33 -105.5t-31 -84.5z" />
<glyph unicode="B" horiz-adv-x="1191" d="M188 31l164 1331q3 31 33 31h350q215 0 314.5 -69t99.5 -185q0 -13 -4 -45l-17 -127q-11 -91 -61.5 -149.5t-153.5 -88.5q107 -25 161 -84.5t54 -138.5q0 -27 -2 -41l-22 -176q-8 -64 -35 -114t-80 -90.5t-144 -62.5t-216 -22h-414q-29 0 -27 31zM346 121h291 q303 0 326 192l18 144q2 14 2 37q0 165 -276 165h-295zM426 774h256q277 0 303 195l14 106q2 12 2 37q0 160 -274 160h-240z" />
<glyph unicode="C" horiz-adv-x="1130" d="M193 240q0 13 4 49l98 821q6 52 23 94.5t51 81.5t85 65.5t128.5 42t177.5 15.5q213 0 308 -69.5t95 -186.5q0 -17 -4 -49l-12 -98q-3 -33 -31 -33h-84q-30 0 -26 33l10 75q2 12 2 39q0 79 -62.5 121.5t-203.5 42.5q-155 0 -229 -51t-85 -146l-94 -774q-2 -14 -2 -41 q0 -79 62 -121t202 -42q293 0 316 196l12 109q3 30 33 30h82q17 0 22.5 -7.5t3.5 -22.5l-14 -131q-7 -66 -33 -117t-77.5 -93.5t-141.5 -65.5t-215 -23q-401 0 -401 256z" />
<glyph unicode="D" horiz-adv-x="1232" d="M188 31l164 1331q3 31 33 31h408q216 0 315.5 -72.5t99.5 -190.5q0 -23 -4 -51l-94 -780q-8 -66 -35 -117t-79.5 -93.5t-144 -65.5t-216.5 -23h-422q-28 0 -25 31zM346 125h297q299 0 322 197l92 737q2 16 2 41q0 168 -275 168h-297z" />
<glyph unicode="E" d="M188 31l164 1331q3 31 33 31h700q30 0 27 -31l-8 -64q-3 -30 -33 -30h-584l-59 -477h547q31 0 26 -31l-8 -60q-3 -17 -10 -23.5t-22 -6.5h-547l-68 -545h606q32 0 29 -29l-8 -65q-3 -31 -33 -31h-725q-30 0 -27 31z" />
<glyph unicode="F" horiz-adv-x="1081" d="M188 31l164 1331q3 31 33 31h754q29 0 26 -31l-8 -64q-3 -30 -35 -30h-635l-61 -480h600q30 0 27 -30l-9 -66q-3 -30 -32 -30h-598l-80 -631q-3 -31 -31 -31h-88q-30 0 -27 31z" />
<glyph unicode="G" horiz-adv-x="1161" d="M193 240q0 17 4 49l98 821q6 52 23 94.5t51 81.5t85 65.5t128.5 42t177.5 15.5q214 0 308.5 -70.5t94.5 -189.5q0 -11 -4 -47l-10 -90q-3 -29 -33 -29h-84q-27 0 -24 29l8 75q2 12 2 35q0 78 -62 120t-204 42q-291 0 -314 -197l-94 -774q-4 -28 -4 -41q0 -79 61.5 -121 t202.5 -42q158 0 231.5 49.5t84.5 144.5l30 242h-274q-28 0 -25 30l6 66q3 29 33 29h385q32 0 29 -29l-43 -358q-6 -52 -23 -94.5t-51.5 -81.5t-85 -65.5t-129 -42t-178.5 -15.5q-401 0 -401 256z" />
<glyph unicode="H" horiz-adv-x="1255" d="M188 31l164 1331q3 31 33 31h88q28 0 25 -31l-68 -563h594l68 563q3 31 36 31h86q28 0 25 -31l-164 -1331q-3 -31 -31 -31h-86q-31 0 -28 31l80 645h-596l-80 -645q-3 -31 -31 -31h-88q-30 0 -27 31z" />
<glyph unicode="I" horiz-adv-x="516" d="M188 31l164 1331q3 31 33 31h88q28 0 25 -31l-164 -1331q-3 -31 -31 -31h-88q-30 0 -27 31z" />
<glyph unicode="J" horiz-adv-x="1015" d="M90 236q0 23 4 59l10 80q3 33 35 33h84q28 0 25 -33l-8 -66q-4 -24 -4 -45q0 -75 52.5 -115t176.5 -40q138 0 196.5 49.5t69.5 146.5l131 1057q3 31 33 31h88q28 0 25 -31l-131 -1079q-8 -67 -30.5 -117t-68.5 -93t-127 -66t-196 -23q-192 0 -278.5 68.5t-86.5 183.5z " />
<glyph unicode="K" horiz-adv-x="1124" d="M186 31l164 1331q3 31 35 31h86q16 0 21.5 -7.5t3.5 -23.5l-74 -610h59l549 612q29 29 53 29h99q15 0 18.5 -9.5t-8.5 -21.5l-590 -655l483 -676q8 -11 2.5 -21t-18.5 -10h-111q-11 0 -20 5.5t-12.5 9.5t-12.5 16l-438 610h-67l-76 -610q-2 -16 -8.5 -23.5t-22.5 -7.5 h-86q-32 0 -29 31z" />
<glyph unicode="L" horiz-adv-x="1003" d="M188 31l164 1331q3 31 33 31h88q28 0 25 -31l-152 -1237h574q29 0 26 -29l-8 -65q-3 -31 -33 -31h-692q-28 0 -25 31z" />
<glyph unicode="M" horiz-adv-x="1486" d="M186 31l164 1331q3 31 33 31h76q19 0 26 -17l275 -905q15 -48 26 -106q12 34 50 104l491 907q9 17 29 17h86q16 0 21 -7.5t3 -23.5l-161 -1331q-3 -31 -33 -31h-82q-32 0 -29 31l131 1056q-20 -57 -55 -126l-387 -717q-16 -31 -45 -31h-72q-30 0 -39 31l-219 735 q-10 29 -20 106l-131 -1054q-3 -31 -31 -31h-78q-32 0 -29 31z" />
<glyph unicode="N" horiz-adv-x="1255" d="M186 31l164 1331q3 31 35 31h72q21 0 26 -13l432 -977q45 -100 50 -122l131 1081q3 31 32 31h80q28 0 25 -31l-164 -1331q-3 -31 -31 -31h-73q-23 0 -29 14l-426 963q-31 67 -53 135l-133 -1081q-3 -31 -31 -31h-78q-32 0 -29 31z" />
<glyph unicode="O" horiz-adv-x="1210" d="M193 242q0 11 4 47l98 821q36 299 475 299q214 0 314 -71.5t100 -188.5q0 -29 -2 -45l-101 -821q-36 -299 -477 -299q-214 0 -312.5 70.5t-98.5 187.5zM340 276q0 -81 65.5 -124t210.5 -43q299 0 322 196l96 774q2 14 2 37q0 168 -276 168q-299 0 -322 -197l-94 -774 q-4 -28 -4 -37z" />
<glyph unicode="P" horiz-adv-x="1159" d="M188 31l164 1331q3 31 33 31h401q214 0 313 -74.5t99 -196.5q0 -9 -4 -49l-29 -244q-8 -68 -35 -119t-80.5 -91t-143.5 -61t-216 -21h-293l-63 -506q-3 -31 -31 -31h-88q-30 0 -27 31zM414 662h286q160 0 236.5 47.5t87.5 140.5l25 205q2 14 2 39q0 86 -62.5 130 t-210.5 44h-291z" />
<glyph unicode="Q" horiz-adv-x="1208" d="M193 242q0 11 4 47l98 821q36 299 475 299q214 0 314 -71.5t100 -188.5q0 -29 -2 -45l-101 -821q-32 -251 -342 -291l244 -250q19 -22 -2 -43l-49 -47q-26 -22 -43 -2l-320 336q-196 6 -286 75t-90 181zM340 276q0 -81 65.5 -124t210.5 -43q299 0 322 196l96 774 q2 14 2 37q0 168 -276 168q-299 0 -322 -197l-94 -774q-4 -28 -4 -37z" />
<glyph unicode="R" horiz-adv-x="1208" d="M188 31l164 1331q3 31 33 31h399q214 0 314 -75.5t100 -197.5q0 -29 -2 -43l-27 -221q-28 -221 -286 -272l196 -553q4 -13 -4.5 -22t-23.5 -9h-88q-21 0 -33 31l-189 536h-49h-293l-65 -536q-3 -31 -31 -31h-88q-29 0 -27 31zM416 690h289q159 0 235.5 48t87.5 141 l21 176q2 14 2 37q0 87 -64 131.5t-209 44.5h-291z" />
<glyph unicode="S" horiz-adv-x="1157" d="M174 242q0 29 2 47l12 106q3 31 33 31h84q30 0 27 -31l-10 -88q-3 -24 -3 -39q0 -164 273 -164q296 0 319 197l17 131q2 12 2 27q0 54 -39.5 87.5t-110.5 61.5l-323 131q-82 33 -129 92.5t-47 135.5q0 25 2 39l12 104q6 52 21.5 94.5t48.5 81.5t82.5 65.5t126.5 42 t176 15.5q87 0 155.5 -13t113 -36t73.5 -56t41 -70t12 -81q0 -29 -2 -43l-10 -96q-3 -31 -35 -31h-84q-30 0 -25 31l10 78q2 16 2 34q0 162 -262 162q-154 0 -224 -49.5t-81 -144.5l-8 -70q-2 -12 -2 -27q0 -51 27.5 -79t74.5 -46l361 -145q188 -74 188 -240q0 -27 -2 -41 l-18 -163q-33 -299 -471 -299q-214 0 -312 70.5t-98 187.5z" />
<glyph unicode="T" horiz-adv-x="989" d="M195 1298l6 64q3 31 35 31h851q30 0 27 -31l-6 -64q-3 -30 -33 -30h-354l-154 -1237q-3 -31 -30 -31h-88q-30 0 -27 31l153 1237h-354q-15 0 -21 6.5t-5 23.5z" />
<glyph unicode="U" horiz-adv-x="1232" d="M203 246q0 17 4 49l131 1067q3 31 33 31h86q29 0 26 -31l-129 -1036q-4 -40 -4 -50q0 -167 277 -167q298 0 321 196l131 1057q3 31 31 31h88q30 0 27 -31l-133 -1079q-36 -299 -476 -299q-214 0 -313.5 71.5t-99.5 190.5z" />
<glyph unicode="V" horiz-adv-x="1077" d="M213 1362q-3 15 5 23t24 8h92q16 0 23 -7.5t10 -23.5l174 -961q20 -110 20 -217q2 10 32 97.5t42 115.5l412 965q12 31 40 31h89q32 0 20 -31l-571 -1331q-12 -31 -41 -31h-88q-31 0 -37 31z" />
<glyph unicode="W" horiz-adv-x="1640" d="M213 1362q-3 31 29 31h86q29 0 32 -31l125 -963q6 -44 15 -151q9 39 51 151l364 963q12 31 39 31h82q30 0 33 -31l125 -963q12 -102 12 -161q6 35 54 161l362 963q12 31 41 31h78q30 0 18 -31l-499 -1331q-12 -31 -41 -31h-86q-30 0 -33 31l-127 979q-10 98 -10 134v11 q-17 -76 -45 -147l-371 -977q-12 -31 -41 -31h-86q-30 0 -33 31z" />
<glyph unicode="X" horiz-adv-x="1130" d="M84 11.5q-3 11.5 6 23.5l475 676l-303 649q-7 12 -2 22.5t21 10.5h100q23 0 39 -31l250 -528l364 528q21 31 49 31h97q34 0 10 -31l-463 -655l317 -676q7 -12 2.5 -21.5t-20.5 -9.5h-100q-26 0 -41 31l-260 549l-381 -549q-19 -31 -45 -31h-99q-13 0 -16 11.5z" />
<glyph unicode="Y" horiz-adv-x="1058" d="M209 1362q-6 14 1 22.5t23 8.5h99q23 0 33 -31l227 -594q13 -34 20 -78q20 46 41 78l381 594q19 31 41 31h90q16 0 21.5 -8t-4.5 -23l-510 -795l-66 -536q-3 -31 -33 -31h-86q-29 0 -26 31l63 520z" />
<glyph unicode="Z" horiz-adv-x="1030" d="M106 29l9 63q2 13 14 33l762 1143h-565q-30 0 -27 30l8 64q3 31 33 31h715q29 0 26 -31l-6 -59q-3 -21 -14 -35l-764 -1143h635q29 0 26 -29l-8 -65q-1 -17 -8 -24t-22 -7h-785q-32 0 -29 29z" />
<glyph unicode="[" horiz-adv-x="749" d="M127 -401l221 1802q3 31 35 31h381q30 0 27 -31l-9 -64q-1 -17 -9 -23.5t-25 -6.5h-265l-200 -1614h266q29 0 26 -31l-6 -63q-3 -31 -32 -31h-383q-30 0 -27 31z" />
<glyph unicode="\" horiz-adv-x="755" d="M252 1401q-3 31 27 31h88q29 0 34 -31l234 -1671q1 -15 -6 -24t-21 -9h-88q-30 0 -33 31z" />
<glyph unicode="]" horiz-adv-x="749" d="M80 -401l8 63q3 31 33 31h266l199 1614h-264q-30 0 -27 30l6 64q3 31 33 31h383q29 0 26 -31l-223 -1802q-3 -31 -33 -31h-381q-29 0 -26 31z" />
<glyph unicode="^" horiz-adv-x="1140" d="M242 643l323 721q7 15 14 22t21 7h92q19 0 31 -26l1.5 -1.5t0.5 -1.5l328 -721q6 -14 -2.5 -23.5t-24.5 -9.5h-82q-14 0 -21 8t-14 25l-264 606l-262 -606q-7 -17 -14 -25t-19 -8h-84q-15 0 -22.5 9t-1.5 24z" />
<glyph unicode="_" horiz-adv-x="886" d="M10 -203q0 29 31 29h733q31 0 31 -29v-61q0 -29 -31 -29h-733q-31 0 -31 29v61z" />
<glyph unicode="`" horiz-adv-x="677" d="M363.5 1440.5q5.5 9.5 21.5 9.5h86q11 0 18.5 -4.5t10.5 -9t8 -15.5l108 -229q6 -14 1 -21.5t-19 -7.5h-66q-23 0 -34 19l-133 237q-7 12 -1.5 21.5z" />
<glyph unicode="a" d="M164 203q0 15 4 43l63 520q34 262 314 262q197 0 338 -125l14 78q3 16 10 23.5t23 7.5h76q27 0 24 -31l-117 -950q-3 -31 -32 -31h-76q-27 0 -27 31l6 75q-171 -122 -362 -122q-126 0 -192 58.5t-66 160.5zM307 238q0 -59 40.5 -93t125.5 -34q162 0 322 114l69 559 q-130 117 -293 117q-93 0 -141.5 -43t-58.5 -113l-62 -479q-2 -10 -2 -28z" />
<glyph unicode="b" d="M166 31l168 1370q3 31 33 31h84q28 0 24 -31l-59 -494q169 121 356 121q127 0 193.5 -59t66.5 -164q0 -27 -2 -39l-65 -520q-16 -123 -93.5 -192.5t-222.5 -69.5q-198 0 -336 122l-14 -75q-6 -31 -33 -31h-76q-27 0 -24 31zM332 225q127 -114 293 -114q94 0 142 42.5 t56 112.5l62 479q2 12 2 29q0 59 -40 93t-124 34q-163 0 -324 -117z" />
<glyph unicode="c" horiz-adv-x="980" d="M164 209q0 25 2 39l63 516q7 62 30.5 108.5t69.5 82.5t122 54.5t182 18.5q344 0 344 -225q0 -29 -2 -41l-6 -37q-6 -31 -33 -31h-78q-27 0 -24 31l2 31q0 3 1 14.5t1 15.5q0 61 -48 93t-165 32q-130 0 -187 -39.5t-67 -115.5l-62 -486q-2 -14 -2 -41q0 -64 49 -96.5 t166 -32.5q131 0 187.5 40t66.5 118l6 45q3 31 33 31h76q30 0 27 -31l-7 -55q-13 -126 -105 -195t-298 -69q-344 0 -344 225z" />
<glyph unicode="d" d="M164 203q0 15 4 43l63 520q14 123 91 192.5t223 69.5q109 0 194 -37t140 -84l59 494q3 31 35 31h84q27 0 24 -31l-168 -1370q-3 -31 -32 -31h-76q-30 0 -27 31l4 75q-171 -122 -360 -122q-126 0 -192 58.5t-66 160.5zM307 238q0 -58 41 -92.5t125 -34.5q162 0 322 114 l69 559q-130 117 -293 117q-94 0 -143 -43t-57 -113l-60 -475q-4 -24 -4 -32z" />
<glyph unicode="e" horiz-adv-x="1007" d="M164 209q0 27 2 39l63 516q7 62 31 108.5t70.5 82.5t123 54.5t181.5 18.5q344 0 344 -225q0 -27 -2 -39l-31 -252q-3 -29 -31 -29h-581l-29 -217q-2 -18 -2 -39q0 -64 50 -97.5t169 -33.5q244 0 258 152l4 43q3 28 35 28h72q30 0 27 -28l-7 -43q-9 -63 -31.5 -108.5 t-66.5 -82t-118.5 -55t-180.5 -18.5q-350 0 -350 225zM346 592h475l23 160q2 14 2 32q0 131 -221 131q-129 0 -187.5 -40.5t-68.5 -114.5z" />
<glyph unicode="f" horiz-adv-x="659" d="M170 -391l160 1282h-129q-30 0 -27 31l6 49q2 15 9 22t24 8l111 7h18l20 168q14 127 110.5 195.5t301.5 68.5h17q29 0 26 -31l-6 -59q-3 -31 -37 -31h-10q-131 0 -191.5 -40.5t-70.5 -117.5l-19 -153h224q31 0 28 -29l-8 -57q-3 -31 -33 -31h-223l-160 -1282 q-3 -31 -32 -31h-84q-15 0 -20.5 7t-4.5 24z" />
<glyph unicode="g" d="M164 205q0 17 4 41l63 520q34 262 314 262q197 0 338 -125l14 78q5 31 33 31h76q27 0 24 -31l-139 -1139q-7 -62 -31.5 -108.5t-72 -82.5t-125.5 -54.5t-185 -18.5h-278q-32 0 -29 29l6 61q3 29 35 29h278q131 0 191 41t70 117l30 247q-173 -118 -356 -118 q-127 0 -193.5 59t-66.5 162zM307 240q0 -129 166 -129q158 0 324 114l67 559q-130 117 -293 117q-93 0 -142.5 -43t-57.5 -113l-60 -471q-4 -24 -4 -34z" />
<glyph unicode="h" horiz-adv-x="1083" d="M166 31l168 1370q3 31 33 31h84q27 0 24 -31l-59 -494q156 121 356 121q123 0 191.5 -59.5t68.5 -157.5q0 -23 -2 -35l-90 -745q-3 -31 -35 -31h-82q-29 0 -26 31l86 714q2 10 2 29q0 127 -164 127q-163 0 -322 -115l-90 -755q-3 -31 -35 -31h-84q-27 0 -24 31z" />
<glyph unicode="i" horiz-adv-x="466" d="M166 31l119 950q3 31 30 31h82q32 0 29 -31l-117 -950q-3 -31 -35 -31h-84q-27 0 -24 31zM311 1210l23 191q3 31 33 31h84q15 0 20.5 -7t3.5 -24l-22 -191q-3 -30 -33 -30h-84q-28 0 -25 30z" />
<glyph unicode="j" horiz-adv-x="464" d="M-170 -393l8 61q3 29 33 29h12q128 0 188 41t70 117l140 1126q3 31 32 31h84q28 0 25 -31l-141 -1139q-16 -130 -110 -197t-296 -67h-18q-30 0 -27 29zM309 1210l23 191q3 31 33 31h84q27 0 24 -31l-22 -191q-3 -30 -33 -30h-82q-30 0 -27 30z" />
<glyph unicode="k" horiz-adv-x="940" d="M164 31l168 1370q3 31 33 31h84q16 0 21 -7.5t3 -23.5l-94 -778h61l394 358q2 2 9 8.5t10.5 9t9.5 6.5t11 5.5t11 1.5h98q17 0 20 -11t-8 -20l-440 -408l369 -542q8 -12 2 -21.5t-21 -9.5h-92q-20 0 -43 31l-336 483h-69l-60 -483q-3 -31 -33 -31h-84q-27 0 -24 31z" />
<glyph unicode="l" horiz-adv-x="466" d="M166 31l168 1370q3 31 33 31h84q27 0 24 -31l-168 -1370q-3 -31 -33 -31h-84q-27 0 -24 31z" />
<glyph unicode="m" horiz-adv-x="1691" d="M166 31l119 950q3 31 30 31h76q30 0 27 -31l-6 -76q154 123 348 123q98 0 163.5 -37.5t84.5 -101.5q81 61 132 86q110 53 238 53q123 0 192.5 -58.5t69.5 -154.5q0 -25 -2 -39l-92 -745q-3 -31 -35 -31h-81q-30 0 -27 31l88 706q2 14 2 35q0 61 -40.5 95t-123.5 34 q-70 0 -140 -23.5t-107 -47t-66 -48.5v-37l-88 -714q-3 -31 -33 -31h-84q-30 0 -27 31l86 704q4 32 4 37q0 129 -163 129q-160 0 -312 -115l-90 -755q-3 -31 -33 -31h-86q-27 0 -24 31z" />
<glyph unicode="n" horiz-adv-x="1083" d="M166 31l119 950q3 31 30 31h76q30 0 27 -31l-6 -78q168 125 360 125q123 0 191.5 -59.5t68.5 -157.5q0 -27 -2 -41l-90 -739q-3 -31 -35 -31h-82q-31 0 -26 31l88 706q0 7 1 19t1 16q0 129 -164 129q-165 0 -324 -115l-90 -755q-3 -31 -35 -31h-84q-29 0 -24 31z" />
<glyph unicode="o" horiz-adv-x="1050" d="M164 211q0 25 2 37l63 516q30 264 416 264q182 0 270.5 -60t88.5 -167q0 -19 -3 -37l-63 -516q-14 -126 -112 -195t-304 -69q-182 0 -270 60.5t-88 166.5zM307 233q0 -66 54 -99.5t174 -33.5q130 0 191 40.5t71 117.5l63 496v22q0 135 -225 135q-131 0 -192.5 -40.5 t-71.5 -116.5l-62 -496q-2 -8 -2 -25z" />
<glyph unicode="p" d="M115 -391l168 1372q3 31 32 31h76q30 0 27 -31l-8 -78q34 24 63 40.5t76.5 38.5t104.5 34t118 12q128 0 194 -58.5t66 -162.5q0 -27 -2 -41l-65 -520q-34 -262 -312 -262q-194 0 -338 118l-59 -493q-2 -17 -9 -24t-24 -7h-82q-15 0 -21 6.5t-5 24.5zM332 225 q127 -114 293 -114q94 0 142 42.5t56 112.5l60 475q4 24 4 33q0 59 -40 93t-124 34q-167 0 -322 -117z" />
<glyph unicode="q" d="M164 205q0 17 4 41l63 520q14 123 91 192.5t223 69.5q195 0 336 -125l14 78q6 31 35 31h76q27 0 24 -31l-168 -1372q-3 -31 -33 -31h-84q-28 0 -24 31l59 493q-173 -118 -356 -118q-127 0 -193.5 59t-66.5 162zM307 240q0 -129 166 -129q158 0 324 114l67 559 q-130 117 -293 117q-93 0 -142.5 -43t-57.5 -113l-60 -471q-4 -24 -4 -34z" />
<glyph unicode="r" horiz-adv-x="706" d="M166 31l119 950q3 31 30 31h76q30 0 27 -31l-8 -100q181 145 352 145q34 0 29 -31l-9 -67q-1 -16 -8.5 -21.5t-25.5 -7.5q-97 -4 -194 -48t-157 -89l-88 -731q-3 -31 -35 -31h-84q-27 0 -24 31z" />
<glyph unicode="s" horiz-adv-x="952" d="M137 186q0 19 2 33l6 51q3 29 31 29h78q23 0 20 -29l-4 -32q-2 -12 -2 -39q0 -51 58.5 -80t165.5 -29q118 0 185 32.5t75 94.5l8 72q2 14 2 33q0 59 -107 94l-295 100q-65 23 -104 69t-39 109q0 15 2 33l8 76q12 102 101 163.5t276 61.5q167 0 250.5 -59t83.5 -148 q0 -14 -2 -37l-4 -49q-3 -26 -33 -26h-76q-27 0 -24 26l6 43q2 16 2 37q0 47 -53 78t-158 31q-223 0 -238 -123l-6 -45q-2 -16 -2 -29q0 -72 88 -100l305 -101q74 -24 114 -68.5t40 -99.5q0 -19 -4 -43l-10 -110q-10 -99 -108.5 -160t-289.5 -61q-173 0 -260.5 57t-87.5 145 z" />
<glyph unicode="t" horiz-adv-x="710" d="M164 922l6 49q3 27 33 30l123 7h2l26 217q3 30 35 30h82q16 0 21.5 -7t3.5 -23l-27 -217h231q28 0 25 -29l-4 -59q-3 -29 -35 -29h-231l-74 -606q-2 -14 -2 -35q0 -63 49.5 -96t169.5 -33h35q29 0 26 -31l-6 -59q-1 -17 -9.5 -24t-25.5 -7h-53q-179 0 -255.5 54.5 t-76.5 160.5q0 25 3 49l77 627h-123q-29 0 -26 31z" />
<glyph unicode="u" horiz-adv-x="1071" d="M174 199q0 22 2 34l92 748q3 31 33 31h82q29 0 27 -31l-88 -715q-3 -15 -3 -30q0 -125 164 -125q158 0 312 112l90 758q3 31 35 31h84q27 0 24 -31l-117 -950q-2 -18 -8.5 -24.5t-23.5 -6.5h-76q-30 0 -27 31l4 73q-151 -120 -346 -120q-125 0 -192.5 58.5t-67.5 156.5z " />
<glyph unicode="v" horiz-adv-x="884" d="M158 979q-3 14 4 23.5t24 9.5h86q14 0 19.5 -7.5t9.5 -23.5l145 -678q2 -9 17 -129q33 98 45 127l315 680q14 31 39 31h80q17 0 24 -8.5t1 -22.5l-445 -952q-6 -12 -9.5 -17t-9.5 -8.5t-16 -3.5h-94q-14 0 -19.5 6.5t-8.5 22.5z" />
<glyph unicode="w" horiz-adv-x="1343" d="M152 981q-2 14 6.5 22.5t23.5 8.5h82q28 0 31 -31l102 -713q9 -65 9 -84q9 37 28 84l285 713q14 31 37 31h90q28 0 31 -31l94 -713l8 -82l12 36t17 46l280 713q7 16 15 23.5t24 7.5h70q15 0 22.5 -9t1.5 -22l-385 -952q-12 -29 -35 -29h-98q-26 0 -29 29l-96 692 q-8 66 -8 96l-37 -98l-280 -690q-13 -29 -37 -29h-97q-23 0 -26 29z" />
<glyph unicode="x" horiz-adv-x="948" d="M61 10q-3 10 7 21l389 485l-258 465q-7 11 -3 21t21 10h92q20 0 39 -31l211 -367l283 367q23 31 49 31h88q14 0 16 -10t-8 -21l-375 -471l271 -477q7 -12 2 -22.5t-21 -10.5h-92q-23 0 -41 31l-215 381l-303 -381q-27 -31 -49 -31h-84q-16 0 -19 10z" />
<glyph unicode="y" horiz-adv-x="884" d="M158 981q-3 13 5 22t23 9h84q24 0 31 -31l148 -680q16 -72 16 -111v-12q28 81 45 119l317 684q14 31 37 31h78q18 0 25 -8t0 -23l-637 -1374q-16 -31 -37 -31h-66q-16 0 -22.5 8t0.5 23l172 385z" />
<glyph unicode="z" horiz-adv-x="929" d="M109 31l6 57q4 18 20 39l606 766h-471q-31 0 -26 31l8 59q3 29 35 29h614q28 0 25 -29l-6 -57q-4 -20 -13 -29l-616 -778h528q30 0 27 -31l-6 -57q-3 -31 -35 -31h-672q-15 0 -20.5 7t-3.5 24z" />
<glyph unicode="{" horiz-adv-x="917" d="M172 479l8 60q5 30 33 30h4q118 0 174 41t66 117l55 459q16 127 110.5 195.5t297.5 68.5h18q30 0 27 -31l-7 -59q-3 -31 -32 -31h-13q-130 0 -188 -40.5t-68 -117.5l-57 -458q-10 -86 -56 -134t-134 -69q72 -20 107.5 -64t35.5 -106q0 -17 -4 -53l-55 -434q-5 -40 -5 -50 q0 -62 50.5 -95.5t169.5 -33.5h14q29 0 25 -30l-9 -60q-2 -17 -8.5 -23.5t-23.5 -6.5h-9q-180 0 -268 60.5t-88 170.5q0 31 4 55l55 434q5 40 5 48q0 62 -48 94.5t-157 32.5h-2q-30 0 -27 30z" />
<glyph unicode="|" horiz-adv-x="516" d="M227 -401v1802q0 31 31 31h86q29 0 29 -31v-1802q0 -31 -29 -31h-86q-31 0 -31 31z" />
<glyph unicode="}" horiz-adv-x="917" d="M74 -416l4 60q3 30 35 30h14q128 0 186 40.5t68 117.5l57 473q10 86 57.5 134.5t135.5 70.5q-144 34 -144 170q0 8 7 57l51 424q4 32 4 41q0 127 -219 127h-13q-29 0 -26 31l8 59q3 18 9.5 24.5t23.5 6.5h10q179 0 265.5 -60.5t86.5 -170.5q0 -36 -2 -52l-53 -424 q-4 -28 -4 -45q0 -129 205 -129h2q27 0 24 -30l-6 -60q-1 -17 -9 -23.5t-26 -6.5h-2q-219 0 -239 -156l-58 -475q-16 -127 -111 -195.5t-296 -68.5h-19q-17 0 -22.5 7t-3.5 23z" />
<glyph unicode="~" horiz-adv-x="995" d="M217 473l4 57q6 91 46.5 134t99.5 43q40 0 100 -29l176 -92q60 -29 86 -29q33 0 44 23.5t11 74.5v17q0 26 33 26h45q17 0 23 -7.5t4 -26.5l-4 -56q-7 -94 -46 -135t-96 -41q-52 0 -112 31l-180 92q-45 25 -72 25q-32 0 -41.5 -17.5t-15.5 -77.5l-3 -18q-3 -27 -32 -27 h-43q-30 0 -27 33z" />
<glyph unicode="&#xa1;" horiz-adv-x="520" d="M141 -350l68 563l70 436q6 31 32 31h62q16 0 21 -7.5t3 -23.5l-39 -436l-67 -563q-3 -31 -35 -31h-88q-30 0 -27 31zM287 821l20 160q1 17 9.5 24t25.5 7h84q17 0 23 -7t4 -24l-21 -160q-3 -30 -33 -30h-86q-17 0 -22.5 7t-3.5 23z" />
<glyph unicode="&#xa2;" horiz-adv-x="1083" d="M217 399q0 25 2 39l64 516q13 116 89.5 184t243.5 79l19 145q3 31 33 31h84q27 0 24 -31l-16 -148q270 -22 270 -221q0 -29 -2 -41l-6 -37q-6 -30 -33 -30h-78q-27 0 -24 30l2 31q0 3 1 15t1 16q0 61 -48 93t-165 32q-89 0 -144.5 -20t-79.5 -53t-30 -83l-62 -485 q-2 -14 -2 -41q0 -64 49 -96.5t166 -32.5q131 0 187.5 40t66.5 118l7 45q1 17 8.5 23.5t23.5 6.5h76q30 0 27 -30l-6 -56q-13 -115 -89.5 -183t-244.5 -79l-19 -145q-3 -31 -30 -31h-84q-30 0 -27 31l18 145q-272 22 -272 223z" />
<glyph unicode="&#xa3;" horiz-adv-x="1355" d="M172 31l6 61q3 29 35 29h119l65 516h-121q-16 0 -21 7.5t-3 23.5l6 61q3 29 33 29h121l45 364q6 53 20.5 93.5t45 78t77 62t120 39t171.5 14.5q379 0 379 -238q0 -13 -4 -49l-9 -59q-3 -31 -30 -31h-82q-29 0 -25 33l4 35q2 14 2 43q0 72 -54.5 106.5t-190.5 34.5 q-103 0 -164 -22t-86.5 -60.5t-32.5 -101.5l-41 -342h313q33 0 29 -29l-8 -61q-1 -17 -9.5 -24t-25.5 -7h-313l-66 -516h402q95 0 149.5 46t61.5 161l2 30q3 33 32 33h78q30 0 27 -33l-2 -39q-4 -89 -33.5 -153t-77 -99t-101.5 -51t-118 -16h-700q-28 0 -25 31z" />
<glyph unicode="&#xa4;" horiz-adv-x="1175" d="M164 553l4 35q3 30 35 30h135l18 156h-135q-17 0 -22.5 6.5t-3.5 24.5l4 37q3 28 32 28h136l30 240q6 52 23 94.5t51 81.5t85 65.5t128.5 42t177.5 15.5q213 0 308.5 -69.5t95.5 -186.5q0 -17 -4 -49l-13 -98q-3 -33 -30 -33h-84q-31 0 -27 33l10 75q2 12 2 39 q0 79 -62.5 121.5t-203.5 42.5q-155 0 -228.5 -51t-84.5 -146l-27 -217h277q29 0 26 -28l-2 -37q-3 -31 -35 -31h-278l-19 -156h277q15 0 21 -6.5t5 -23.5l-4 -35q-3 -31 -32 -31h-279l-25 -209q-2 -14 -2 -41q0 -163 265 -163q156 0 230 50.5t85 145.5l12 109q3 30 33 30 h82q30 0 27 -30l-15 -131q-7 -66 -33 -117t-77.5 -93.5t-141.5 -65.5t-215 -23q-401 0 -401 256q0 13 4 49l27 233h-136q-29 0 -26 31z" />
<glyph unicode="&#xa5;" horiz-adv-x="1071" d="M190 569l5 37q3 29 32 29h271l-62 156h-188q-30 0 -27 30l2 37q3 29 35 29h141l-184 475q-6 14 1.5 22.5t23.5 8.5h98q23 0 33 -31l227 -594q13 -34 20 -78q20 46 41 78l381 594q19 31 41 31h90q16 0 21.5 -8t-4.5 -23l-305 -475h145q32 0 29 -29l-4 -37q-3 -30 -35 -30 h-197l-100 -156h276q32 0 29 -29l-4 -37q-3 -30 -35 -30h-313l-62 -508q-3 -31 -32 -31h-86q-30 0 -27 31l61 508h-311q-17 0 -23 6.5t-4 23.5z" />
<glyph unicode="&#xa6;" horiz-adv-x="466" d="M233 287q0 30 31 30h82q29 0 29 -30v-688q0 -31 -29 -31h-82q-31 0 -31 31v688zM233 674v688q0 31 31 31h82q29 0 29 -31v-688q0 -31 -29 -31h-82q-31 0 -31 31z" />
<glyph unicode="&#xa7;" horiz-adv-x="1124" d="M162 -211q0 21 2 41l2 25q1 17 9 23.5t26 6.5h71q30 0 27 -32l-2 -21q-2 -20 -2 -31q0 -66 51 -100.5t170 -34.5q130 0 189 40.5t69 117.5l19 139q2 12 2 33q0 82 -121 115l-264 79q-66 20 -111 67.5t-45 123.5q0 31 2 47l25 195q1 17 8.5 23.5t23.5 6.5h74q30 0 27 -30 l-23 -174q-2 -12 -2 -39q0 -47 30.5 -74t67.5 -37l269 -82q30 -9 57 -22.5t57.5 -36.5t49 -59.5t18.5 -80.5q0 -19 -4 -47l-16 -141q-15 -125 -109.5 -193.5t-296.5 -68.5q-350 0 -350 221zM305 961q0 17 4 45l17 143q13 123 107 191.5t298 68.5q350 0 350 -221q0 -8 -2 -39 l-2 -25q-3 -30 -35 -30h-73q-30 0 -27 30l2 21q1 8 2.5 19t1.5 18q0 62 -51.5 94.5t-171.5 32.5q-130 0 -189 -39.5t-69 -114.5l-18 -141q-3 -18 -3 -33q0 -78 121 -113l264 -82q65 -20 110.5 -67t45.5 -123q0 -31 -2 -47l-22 -195q-6 -30 -35 -30h-74q-30 0 -27 30l23 174 q4 24 4 39q0 46 -31.5 73t-68.5 38l-269 82q-30 9 -57 22.5t-57 37t-48 60t-18 81.5z" />
<glyph unicode="&#xa8;" horiz-adv-x="663" d="M313 1210l25 199q3 31 33 31h51q27 0 24 -31l-24 -199q-2 -15 -9 -21.5t-24 -6.5h-49q-17 0 -23 6.5t-4 21.5zM532 1210l25 199q3 31 33 31h51q16 0 21.5 -7.5t3.5 -23.5l-23 -199q-3 -28 -35 -28h-49q-17 0 -23 6.5t-4 21.5z" />
<glyph unicode="&#xa9;" horiz-adv-x="1490" d="M221 350v692q0 62 12 111t48 99t96 83t162.5 53.5t240.5 20.5q140 0 243 -21t163 -53.5t96 -82.5t47.5 -99t11.5 -111v-692q0 -62 -11.5 -111t-47.5 -98.5t-96 -82.5t-163 -53.5t-243 -20.5q-138 0 -240.5 20.5t-162.5 53.5t-96 82.5t-48 98.5t-12 111zM330 334 q0 -58 22 -102t72 -79.5t139.5 -54t216.5 -18.5q128 0 218.5 18.5t141 54t73 79.5t22.5 102v727q0 57 -22.5 101.5t-73 79.5t-141.5 54t-218 19t-216.5 -19t-139.5 -54.5t-72 -80t-22 -102.5v-725zM487 520v350q0 62 12.5 106.5t44.5 79.5t91 52.5t147 17.5t147 -17.5 t91 -52.5t44.5 -79.5t12.5 -106.5v-30q0 -17 -6.5 -24t-23.5 -7h-68q-29 0 -29 31v28q0 78 -34.5 117t-133.5 39q-100 0 -133 -38.5t-33 -117.5v-344q0 -81 33 -119t133 -38q99 0 133.5 38.5t34.5 118.5v43q0 33 29 33h68q17 0 23.5 -7.5t6.5 -25.5v-47q0 -62 -12.5 -106.5 t-44.5 -79.5t-91 -52.5t-147 -17.5t-147 17.5t-91 52.5t-44.5 79.5t-12.5 106.5z" />
<glyph unicode="&#xaa;" horiz-adv-x="720" d="M236 913q0 21 2 35l38 303q9 74 58.5 116t138.5 42q113 0 203 -74l8 41q6 23 23 23h63q20 0 16 -21l-69 -569q-3 -18 -21 -18h-67q-15 0 -15 18v45q-100 -74 -215 -74q-76 0 -119.5 35.5t-43.5 97.5zM348 938q0 -72 92 -72q100 0 183 72l39 311q-72 72 -164 72 q-105 0 -115 -88l-33 -258q-2 -18 -2 -37z" />
<glyph unicode="&#xab;" horiz-adv-x="1234" d="M207 461l8 84q2 19 33 41l414 284q11 8 20 3.5t8 -19.5l-12 -92q-2 -23 -35 -45l-319 -217l266 -215q28 -23 26 -45l-12 -86q-3 -17 -13 -21t-20 4l-344 285q-23 19 -20 39zM627 461l8 84q2 19 33 41l413 284q11 8 20.5 3t8.5 -19l-12 -92q-2 -23 -35 -45l-320 -217 l267 -215q28 -23 26 -45l-12 -86q-3 -17 -13 -21t-20 4l-344 285q-23 19 -20 39z" />
<glyph unicode="&#xac;" horiz-adv-x="776" d="M156 643q0 95 67 163t162 68q96 0 163.5 -67.5t67.5 -163.5q0 -95 -67 -162t-164 -67q-95 0 -162 67t-67 162z" />
<glyph unicode="&#xad;" horiz-adv-x="933" d="M227 563v60q0 28 31 28h549q31 0 31 -28v-60q0 -31 -31 -31h-549q-31 0 -31 31z" />
<glyph unicode="&#xae;" horiz-adv-x="1273" d="M274 760v366q0 283 453 283t453 -283v-366q0 -283 -453 -283t-453 283zM373 752q0 -29 8.5 -53.5t32.5 -50t62.5 -43.5t102.5 -29t148 -11q354 0 354 185v385q0 184 -354 184t-354 -184v-383zM528 686v502q0 22 21 22h201q202 0 202 -151v-47q0 -104 -98 -135l80 -191 q3 -9 -3 -15.5t-18 -6.5h-59q-14 0 -23 22l-73 176h-129v-176q0 -22 -23 -22h-57q-21 0 -21 22zM629 938h112q53 0 82 22.5t29 55.5v37q0 36 -28 58t-83 22h-112v-195z" />
<glyph unicode="&#xaf;" horiz-adv-x="851" d="M291 1253l6 52q3 28 35 28h512q17 0 23.5 -6t4.5 -20l-6 -54q-3 -30 -35 -30h-514q-15 0 -21 6.5t-5 23.5z" />
<glyph unicode="&#xb0;" horiz-adv-x="829" d="M252 985q0 25 2 41l22 186q11 96 79.5 145.5t228.5 49.5q124 0 193 -41.5t69 -126.5q0 -27 -2 -39l-23 -186q-11 -96 -78.5 -145.5t-224.5 -49.5q-266 0 -266 166zM377 1004q0 -86 149 -86q161 0 174 102l23 176v23q0 90 -152 90q-162 0 -172 -101l-20 -180 q-2 -18 -2 -24z" />
<glyph unicode="&#xb1;" horiz-adv-x="1185" d="M186 223v60q0 17 7 23.5t24 6.5h801q31 0 31 -30v-60q0 -30 -31 -30h-801q-17 0 -24 6.5t-7 23.5zM186 750v61q0 29 31 29h340v250q0 30 29 30h59q31 0 31 -30v-250h342q31 0 31 -29v-61q0 -31 -31 -31h-342v-252q0 -31 -31 -31h-59q-29 0 -29 31v252h-340q-17 0 -24 7 t-7 24z" />
<glyph unicode="&#xb2;" horiz-adv-x="765" d="M207 586l29 231q3 26 14 46t29.5 32.5t32 19t34.5 13.5l244 84q70 24 76 80l12 104q2 14 2 31q0 90 -141 90q-83 0 -118 -27.5t-42 -81.5l-6 -55q-3 -25 -25 -25h-67q-22 0 -19 25l8 70q23 186 279 186q127 0 185.5 -45.5t58.5 -118.5q0 -21 -2 -37l-15 -112 q-14 -119 -133 -158l-225 -78q-1 0 -10.5 -3.5t-15 -5.5t-15 -7.5t-15.5 -11t-11.5 -14.5t-6.5 -19l-18 -144h379q20 0 18 -22l-6 -47q-3 -23 -25 -23h-467q-21 0 -18 23z" />
<glyph unicode="&#xb3;" horiz-adv-x="763" d="M209 709q0 16 2 34l2 25q3 20 25 20h65q24 0 21 -20l-2 -18v-13q0 -46 32.5 -69t106.5 -23q80 0 118 27.5t44 81.5l10 88q4 28 4 32q0 44 -31.5 64t-105.5 20h-103q-23 0 -20 23l4 45q3 23 27 23h94q85 0 121 25t41 81l4 43q2 23 2 31q0 47 -30 69.5t-103 22.5 q-79 0 -113.5 -26t-42.5 -83l-2 -14q-3 -20 -23 -20h-65q-19 0 -19 20l2 31q5 80 69 131t208 51q124 0 179.5 -42.5t55.5 -111.5q0 -12 -4 -40l-8 -78q-6 -57 -32.5 -86.5t-86.5 -44.5q95 -30 95 -115q0 -1 -5 -41l-14 -119q-10 -83 -72 -130.5t-206 -47.5q-128 0 -186 43 t-58 111z" />
<glyph unicode="&#xb4;" horiz-adv-x="677" d="M341.5 1170.5q-3.5 7.5 6.5 21.5l164 229q18 29 43 29h92q17 0 20 -9.5t-8 -21.5l-190 -237q-14 -19 -39 -19h-72q-13 0 -16.5 7.5z" />
<glyph unicode="&#xb5;" d="M100 -393l170 1374q3 31 35 31h80q29 0 27 -31l-84 -692q-1 -13 -3.5 -31t-2.5 -22q0 -130 165 -130q158 0 310 115l92 760q3 31 33 31h84q27 0 24 -31l-117 -950q-3 -31 -32 -31h-76q-30 0 -27 31l6 73q-156 -120 -346 -120q-121 0 -149 71l-47 -448q-3 -31 -31 -31h-84 q-30 0 -27 31z" />
<glyph unicode="&#xb6;" horiz-adv-x="1320" d="M274 807q0 16 5 51l32 266q6 49 20.5 87.5t45.5 73.5t77 58t118 36.5t167 13.5h209q30 0 27 -29l-217 -1755q-3 -31 -33 -31h-86q-30 0 -27 31l119 969h-92q-365 0 -365 229zM932 -391l215 1753q3 31 33 31h88q27 0 24 -31l-215 -1753q-3 -18 -11 -24.5t-24 -6.5h-86 q-29 0 -24 31z" />
<glyph unicode="&#xb7;" horiz-adv-x="452" d="M209 463l18 160q3 30 33 30h88q26 0 23 -30l-19 -160q-3 -31 -33 -31h-83q-30 0 -27 31z" />
<glyph unicode="&#xb8;" horiz-adv-x="378" d="M-55 -401l4 30q3 29 31 29h217q96 0 96 82q0 61 -78 61h-125q-22 0 -33 10t-4 29l68 170q13 30 37 27l41 -6q14 -1 17 -14t-3 -23l-41 -103h74q64 0 107.5 -36t43.5 -107q0 -93 -54.5 -136.5t-135.5 -43.5h-238q-28 0 -24 31z" />
<glyph unicode="&#xb9;" horiz-adv-x="768" d="M193 590l6 47q2 22 24 22h187l77 639l-186 -43q-12 -3 -17.5 1t-4.5 16l4 51q1 10 6.5 15t19.5 8l283 61q10 2 15.5 -3t4.5 -18l-90 -727h185q21 0 18 -20l-6 -49q-1 -13 -6.5 -18t-16.5 -5h-483q-23 0 -20 23z" />
<glyph unicode="&#xba;" horiz-adv-x="733" d="M236 924q0 17 6 47l34 272q20 166 259 166q111 0 170 -38.5t59 -104.5q0 -9 -4 -41l-35 -281q-20 -164 -260 -164q-113 0 -171 38t-58 106zM348 940q0 -74 125 -74q130 0 143 88l35 273q2 18 2 24q0 72 -125 72q-133 0 -143 -84l-33 -264q-4 -32 -4 -35z" />
<glyph unicode="&#xbb;" horiz-adv-x="1253" d="M207 166l12 92q2 23 35 45l319 217l-266 215q-28 23 -26 45l12 86q3 17 13 21t20 -4l344 -285q23 -19 20 -39l-8 -84q-2 -19 -33 -41l-413 -284q-11 -8 -20.5 -3t-8.5 19zM647 166l12 92q2 23 35 45l320 217l-266 215q-29 23 -27 45l12 86q3 17 13 21t20 -4l344 -285 q23 -19 20 -39l-8 -84q-2 -20 -32 -41l-414 -284q-11 -8 -20.5 -3t-8.5 19z" />
<glyph unicode="&#xbc;" horiz-adv-x="1710" d="M254 590l6 47q2 22 25 22h186l78 639l-187 -43q-12 -3 -17.5 1t-4.5 16l4 51q3 18 27 23l282 61q10 2 16 -3t5 -18l-90 -727h184q21 0 18 -20l-6 -49q-1 -13 -6 -18t-16 -5h-484q-23 0 -20 23zM627 -78l596 1548q9 23 26 23h76q9 0 12.5 -6.5t-0.5 -16.5l-594 -1548 q-9 -22 -26 -22h-74q-25 0 -16 22zM1096 276l2 35q0 9 12 39l215 463q10 23 33 23h69q23 0 13 -23l-213 -467h293l57 467q3 23 25 23h67q24 0 21 -23l-99 -790q-3 -23 -24 -23h-70q-21 0 -18 23l28 231h-393q-18 0 -18 22z" />
<glyph unicode="&#xbd;" horiz-adv-x="1742" d="M254 590l6 47q2 22 25 22h186l78 639l-187 -43q-12 -3 -17.5 1t-4.5 16l4 51q3 18 27 23l282 61q10 2 16 -3t5 -18l-90 -727h184q21 0 18 -20l-6 -49q-1 -13 -6 -18t-16 -5h-484q-23 0 -20 23zM616 -78l596 1548q9 23 27 23h74q11 0 14.5 -6.5t-0.5 -16.5l-596 -1548 q-9 -22 -26 -22h-72q-26 0 -17 22zM1176 23l28 231q3 26 14 46t30 32.5t32.5 19t34.5 13.5l244 84q69 24 75 79l13 105q2 14 2 31q0 90 -142 90q-83 0 -117.5 -27.5t-41.5 -81.5l-7 -55q-3 -25 -24 -25h-68q-21 0 -18 25l8 69q23 187 279 187q127 0 185 -45.5t58 -118.5 q0 -21 -2 -37l-14 -113q-14 -118 -133 -157l-226 -78l-10 -3l-15 -6t-15 -7.5t-15.5 -11t-11 -14.5t-6.5 -19l-19 -144h379q21 0 19 -22l-6 -47q-3 -23 -25 -23h-467q-21 0 -18 23z" />
<glyph unicode="&#xbe;" horiz-adv-x="1714" d="M268 709q0 16 2 34l2 25q3 20 25 20h65q24 0 21 -20l-2 -18v-13q0 -46 32.5 -69t106.5 -23q80 0 118 27.5t44 81.5l10 88q4 28 4 32q0 44 -31.5 64t-105.5 20h-102q-24 0 -21 23l4 45q3 23 27 23h94q85 0 121 25t41 81l4 43q2 23 2 31q0 47 -30 69.5t-103 22.5 q-79 0 -113.5 -26t-42.5 -83l-2 -14q-3 -20 -22 -20h-66q-18 0 -18 20l2 31q5 80 68.5 131t207.5 51q124 0 180 -42.5t56 -111.5q0 -12 -4 -40l-8 -78q-6 -57 -32.5 -86.5t-86.5 -44.5q52 -16 73 -44.5t21 -70.5q0 -9 -4 -41l-14 -119q-10 -83 -72.5 -130.5t-206.5 -47.5 q-128 0 -186 43t-58 111zM629 -78l594 1548q9 23 28 23h72q11 0 14.5 -6.5t-0.5 -16.5l-594 -1548q-9 -22 -26 -22h-74q-23 0 -14 22zM1098 276l4 35q4 24 10 39l217 463q10 23 31 23h70q22 0 12 -23l-213 -467h293l55 467q3 23 27 23h67q24 0 21 -23l-97 -790 q-3 -23 -26 -23h-68q-23 0 -20 23l28 231h-391q-23 0 -20 22z" />
<glyph unicode="&#xbf;" horiz-adv-x="1161" d="M137 -137q0 29 2 45l21 155q25 181 200 261l117 53q21 10 37.5 21t35 28t30.5 41.5t16 54.5l16 127q3 31 33 31h86q30 0 27 -31l-21 -160q-6 -43 -23 -78t-43.5 -58t-46.5 -35.5t-46 -24.5l-150 -74q-112 -54 -125 -158l-18 -137q-2 -18 -2 -41q0 -157 264 -157 q152 0 221.5 50.5t83.5 147.5l14 94q3 18 9.5 25.5t21.5 7.5h84q30 0 27 -33l-15 -116q-6 -52 -22.5 -94.5t-50.5 -81.5t-83.5 -65.5t-126 -42t-175.5 -15.5q-209 0 -303.5 72t-94.5 188zM635 821l18 160q3 31 33 31h86q16 0 22 -6.5t5 -24.5l-19 -158q-3 -32 -35 -32h-88 q-25 0 -22 30z" />
<glyph unicode="&#xc0;" horiz-adv-x="1077" d="M51 31l570 1331q12 31 43 31h88q28 0 34 -31l244 -1331q6 -31 -22 -31h-90q-27 0 -33 31l-68 364h-469l-155 -364q-12 -31 -39 -31h-82q-35 0 -21 31zM397 512h402l-88 479q-4 26 -10 89t-9 113l-4 50q-3 -8 -18 -58t-33 -105.5t-31 -84.5zM492.5 1788.5 q5.5 9.5 21.5 9.5h86q26 0 39 -26l106 -232q6 -14 1 -21.5t-19 -7.5h-65q-24 0 -35 19l-133 237q-7 12 -1.5 21.5z" />
<glyph unicode="&#xc1;" horiz-adv-x="1077" d="M51 31l570 1331q12 31 43 31h88q28 0 34 -31l244 -1331q6 -31 -22 -31h-90q-27 0 -33 31l-68 364h-469l-155 -364q-12 -31 -39 -31h-82q-35 0 -21 31zM397 512h402l-88 479q-4 26 -10 89t-9 113l-4 50q-3 -8 -18 -58t-33 -105.5t-31 -84.5zM656 1518.5q-4 7.5 6 21.5 l165 229q22 29 43 29h93q17 0 19 -9.5t-9 -21.5l-189 -237q-19 -19 -39 -19h-71q-14 0 -18 7.5z" />
<glyph unicode="&#xc2;" horiz-adv-x="1077" d="M51 31l570 1331q12 31 43 31h88q28 0 34 -31l244 -1331q6 -31 -22 -31h-90q-27 0 -33 31l-68 364h-469l-155 -364q-12 -31 -39 -31h-82q-35 0 -21 31zM397 512h402l-88 479q-4 26 -10 89t-9 113l-4 50q-3 -8 -18 -58t-33 -105.5t-31 -84.5zM471.5 1519.5 q-3.5 8.5 5.5 20.5l185 227q27 31 53 31h51q25 0 43 -29l131 -229q8 -12 2.5 -20.5t-20.5 -8.5h-64q-26 0 -41 29l-86 168l-129 -168q-21 -29 -43 -29h-67q-17 0 -20.5 8.5z" />
<glyph unicode="&#xc3;" horiz-adv-x="1077" d="M51 31l570 1331q12 31 43 31h88q28 0 34 -31l244 -1331q6 -31 -22 -31h-90q-27 0 -33 31l-68 364h-469l-155 -364q-12 -31 -39 -31h-82q-35 0 -21 31zM397 512h402l-88 479q-4 26 -10 89t-9 113l-4 50q-3 -8 -18 -58t-33 -105.5t-31 -84.5zM399 1571l11 49 q19 88 57.5 127t103.5 39q64 0 113 -41l84 -66q41 -32 66 -32q32 0 44.5 19t20.5 77l2 18q3 27 35 27h45q17 0 21.5 -8.5t1.5 -26.5l-9 -47q-14 -88 -57.5 -128t-106.5 -40q-58 0 -114 43l-84 66q-38 30 -66 30q-29 0 -41 -18t-20 -66l-6 -30q-5 -27 -35 -27h-43 q-30 0 -23 35z" />
<glyph unicode="&#xc4;" horiz-adv-x="1077" d="M51 31l570 1331q12 31 43 31h88q28 0 34 -31l244 -1331q6 -31 -22 -31h-90q-27 0 -33 31l-68 364h-469l-155 -364q-12 -31 -39 -31h-82q-35 0 -21 31zM397 512h402l-88 479q-4 26 -10 89t-9 113l-4 50q-3 -8 -18 -58t-33 -105.5t-31 -84.5zM549 1554l22 199q3 29 35 29 h51q28 0 25 -29l-25 -199q-1 -17 -8.5 -23.5t-23.5 -6.5h-52q-15 0 -20 6.5t-4 23.5zM768 1554l25 199q3 29 32 29h52q27 0 24 -29l-24 -199q-3 -30 -33 -30h-51q-15 0 -20.5 6.5t-4.5 23.5z" />
<glyph unicode="&#xc5;" horiz-adv-x="1077" d="M51 31l570 1331q12 31 43 31h88q28 0 34 -31l244 -1331q6 -31 -22 -31h-90q-27 0 -33 31l-68 364h-469l-155 -364q-12 -31 -39 -31h-82q-35 0 -21 31zM397 512h402l-88 479q-4 26 -10 89t-9 113l-4 50q-3 -8 -18 -58t-33 -105.5t-31 -84.5zM530 1599q0 16 2 39l5 39 q6 64 56.5 102t145.5 38q82 0 129 -35.5t47 -85.5q0 -6 -2 -31l-4 -53q-5 -63 -54 -99t-144 -36q-86 0 -133.5 34.5t-47.5 87.5zM614 1616q0 -66 97 -66q110 0 116 76l2 25v26q0 64 -98 64q-108 0 -115 -76l-2 -27v-22z" />
<glyph unicode="&#xc6;" horiz-adv-x="1718" d="M51 8q-7 8 2 23l940 1331q21 31 54 31h688q29 0 26 -29l-8 -61q-3 -31 -35 -31h-581l-60 -484h545q17 0 24 -6.5t5 -21.5l-9 -58q-3 -17 -10 -23.5t-22 -6.5h-547l-70 -551h609q29 0 26 -29l-8 -61q-2 -17 -9 -24t-24 -7h-708q-19 0 -28.5 7t-6.5 26l45 362h-434 l-256 -364q-23 -31 -41 -31h-84q-16 0 -23 8zM539 512h364l80 641q-5 -8 -84 -125z" />
<glyph unicode="&#xc7;" horiz-adv-x="1130" d="M193 240q0 13 4 49l98 821q6 52 23 94.5t51 81.5t85 65.5t128.5 42t177.5 15.5q213 0 308 -69.5t95 -186.5q0 -17 -4 -49l-12 -98q-3 -33 -31 -33h-84q-30 0 -26 33l10 75q2 12 2 39q0 79 -62.5 121.5t-203.5 42.5q-155 0 -229 -51t-85 -146l-94 -774q-2 -14 -2 -41 q0 -79 62 -121t202 -42q293 0 316 196l12 109q3 30 33 30h82q17 0 22.5 -7.5t3.5 -22.5l-14 -131q-7 -66 -33 -117t-77.5 -93.5t-141.5 -65.5t-215 -23h-6l-37 -93h74q64 0 107.5 -36t43.5 -107q0 -93 -54.5 -136.5t-135.5 -43.5h-238q-28 0 -24 31l4 30q3 29 30 29h217 q97 0 97 82q0 61 -78 61h-125q-22 0 -33 10t-4 29l60 150q-299 31 -299 250z" />
<glyph unicode="&#xc8;" d="M188 31l164 1331q3 31 33 31h700q30 0 27 -31l-8 -64q-3 -30 -33 -30h-584l-59 -477h547q31 0 26 -31l-8 -60q-3 -17 -10 -23.5t-22 -6.5h-547l-68 -545h606q32 0 29 -29l-8 -65q-3 -31 -33 -31h-725q-30 0 -27 31zM535.5 1788.5q5.5 9.5 21.5 9.5h86q26 0 39 -26 l106 -232q6 -14 1 -21.5t-19 -7.5h-65q-24 0 -35 19l-133 237q-7 12 -1.5 21.5z" />
<glyph unicode="&#xc9;" d="M188 31l164 1331q3 31 33 31h700q30 0 27 -31l-8 -64q-3 -30 -33 -30h-584l-59 -477h547q31 0 26 -31l-8 -60q-3 -17 -10 -23.5t-22 -6.5h-547l-68 -545h606q32 0 29 -29l-8 -65q-3 -31 -33 -31h-725q-30 0 -27 31zM668 1518.5q-4 7.5 6 21.5l166 229q22 29 43 29h92 q17 0 19 -9.5t-9 -21.5l-188 -237q-19 -19 -39 -19h-72q-14 0 -18 7.5z" />
<glyph unicode="&#xca;" d="M188 31l164 1331q3 31 33 31h700q30 0 27 -31l-8 -64q-3 -30 -33 -30h-584l-59 -477h547q31 0 26 -31l-8 -60q-3 -17 -10 -23.5t-22 -6.5h-547l-68 -545h606q32 0 29 -29l-8 -65q-3 -31 -33 -31h-725q-30 0 -27 31zM503.5 1519.5q-3.5 8.5 6.5 20.5l184 227q27 31 54 31 h51q25 0 43 -29l131 -229q7 -12 1.5 -20.5t-20.5 -8.5h-63q-27 0 -41 29l-86 168l-129 -168q-21 -29 -43 -29h-68q-17 0 -20.5 8.5z" />
<glyph unicode="&#xcb;" d="M188 31l164 1331q3 31 33 31h700q30 0 27 -31l-8 -64q-3 -30 -33 -30h-584l-59 -477h547q31 0 26 -31l-8 -60q-3 -17 -10 -23.5t-22 -6.5h-547l-68 -545h606q32 0 29 -29l-8 -65q-3 -31 -33 -31h-725q-30 0 -27 31zM592 1554l22 199q3 29 35 29h51q28 0 25 -29l-25 -199 q-1 -17 -8.5 -23.5t-23.5 -6.5h-52q-15 0 -20 6.5t-4 23.5zM811 1554l25 199q3 29 32 29h52q27 0 24 -29l-24 -199q-3 -30 -33 -30h-51q-15 0 -20.5 6.5t-4.5 23.5z" />
<glyph unicode="&#xcc;" horiz-adv-x="516" d="M188 31l164 1331q3 31 33 31h88q28 0 25 -31l-164 -1331q-3 -31 -31 -31h-88q-30 0 -27 31zM234.5 1788.5q5.5 9.5 21.5 9.5h86q26 0 39 -26l106 -232q6 -14 1 -21.5t-19 -7.5h-66q-23 0 -34 19l-133 237q-7 12 -1.5 21.5z" />
<glyph unicode="&#xcd;" horiz-adv-x="516" d="M188 31l164 1331q3 31 33 31h88q28 0 25 -31l-164 -1331q-3 -31 -31 -31h-88q-30 0 -27 31zM381 1518.5q-4 7.5 6 21.5l166 229q22 29 43 29h92q17 0 19 -9.5t-9 -21.5l-188 -237q-19 -19 -39 -19h-72q-14 0 -18 7.5z" />
<glyph unicode="&#xce;" horiz-adv-x="516" d="M188 31l164 1331q3 31 33 31h88q28 0 25 -31l-164 -1331q-3 -31 -31 -31h-88q-30 0 -27 31zM202.5 1519.5q-3.5 8.5 6.5 20.5l184 227q27 31 53 31h52q25 0 43 -29l131 -229q7 -12 1.5 -20.5t-20.5 -8.5h-63q-26 0 -41 29l-86 168l-129 -168q-21 -29 -43 -29h-68 q-17 0 -20.5 8.5z" />
<glyph unicode="&#xcf;" horiz-adv-x="516" d="M188 31l164 1331q3 31 33 31h88q28 0 25 -31l-164 -1331q-3 -31 -31 -31h-88q-30 0 -27 31zM283 1554l22 199q3 29 35 29h51q28 0 25 -29l-25 -199q-3 -30 -33 -30h-51q-15 0 -20 6.5t-4 23.5zM502 1554l24 199q3 29 33 29h51q28 0 25 -29l-25 -199q-1 -17 -8.5 -23.5 t-23.5 -6.5h-52q-15 0 -20 6.5t-4 23.5z" />
<glyph unicode="&#xd0;" horiz-adv-x="1232" d="M94 678l6 53q3 29 35 29h141l76 602q3 31 33 31h408q216 0 315.5 -72.5t99.5 -190.5q0 -23 -4 -51l-94 -780q-8 -66 -35 -117t-79.5 -93.5t-144 -65.5t-216.5 -23h-422q-28 0 -25 31l76 618h-143q-30 0 -27 29zM346 125h297q299 0 322 197l92 737q2 16 2 41 q0 168 -275 168h-297l-63 -508h260q30 0 27 -29l-6 -53q-3 -29 -35 -29h-260z" />
<glyph unicode="&#xd1;" horiz-adv-x="1255" d="M186 31l164 1331q3 31 35 31h72q21 0 26 -13l432 -977q40 -88 50 -122l131 1081q3 31 32 31h80q28 0 25 -31l-164 -1331q-3 -31 -31 -31h-73q-23 0 -29 14l-426 963q-31 67 -53 135l-133 -1081q-3 -31 -31 -31h-78q-32 0 -29 31zM524 1571l11 49q19 88 57.5 127t103.5 39 q64 0 113 -41l84 -66q41 -32 65 -32q32 0 45 19.5t21 76.5l2 18q3 27 35 27h45q16 0 20.5 -8.5t1.5 -26.5l-8 -47q-14 -88 -57.5 -128t-106.5 -40q-58 0 -114 43l-84 66q-38 30 -66 30q-29 0 -41 -18t-20 -66l-6 -30q-5 -27 -35 -27h-43q-30 0 -23 35z" />
<glyph unicode="&#xd2;" horiz-adv-x="1210" d="M193 242q0 11 4 47l98 821q36 299 475 299q214 0 314 -71.5t100 -188.5q0 -29 -2 -45l-101 -821q-36 -299 -477 -299q-214 0 -312.5 70.5t-98.5 187.5zM340 276q0 -81 65.5 -124t210.5 -43q299 0 322 196l96 774q2 14 2 37q0 168 -276 168q-299 0 -322 -197l-94 -774 q-4 -28 -4 -37zM580.5 1788.5q5.5 9.5 21.5 9.5h86q26 0 39 -26l107 -232q6 -14 0.5 -21.5t-19.5 -7.5h-65q-24 0 -35 19l-133 237q-7 12 -1.5 21.5z" />
<glyph unicode="&#xd3;" horiz-adv-x="1210" d="M193 242q0 11 4 47l98 821q36 299 475 299q214 0 314 -71.5t100 -188.5q0 -29 -2 -45l-101 -821q-36 -299 -477 -299q-214 0 -312.5 70.5t-98.5 187.5zM340 276q0 -81 65.5 -124t210.5 -43q299 0 322 196l96 774q2 14 2 37q0 168 -276 168q-299 0 -322 -197l-94 -774 q-4 -28 -4 -37zM719 1518.5q-4 7.5 6 21.5l166 229q22 29 43 29h92q17 0 19 -9.5t-9 -21.5l-188 -237q-19 -19 -39 -19h-72q-14 0 -18 7.5z" />
<glyph unicode="&#xd4;" horiz-adv-x="1210" d="M193 242q0 11 4 47l98 821q36 299 475 299q214 0 314 -71.5t100 -188.5q0 -29 -2 -45l-101 -821q-36 -299 -477 -299q-214 0 -312.5 70.5t-98.5 187.5zM340 276q0 -81 65.5 -124t210.5 -43q299 0 322 196l96 774q2 14 2 37q0 168 -276 168q-299 0 -322 -197l-94 -774 q-4 -28 -4 -37zM546.5 1519.5q-3.5 8.5 6.5 20.5l184 227q27 31 54 31h51q25 0 43 -29l131 -229q7 -12 1.5 -20.5t-20.5 -8.5h-63q-26 0 -41 29l-86 168l-129 -168q-21 -29 -43 -29h-68q-17 0 -20.5 8.5z" />
<glyph unicode="&#xd5;" horiz-adv-x="1210" d="M193 242q0 11 4 47l98 821q36 299 475 299q214 0 314 -71.5t100 -188.5q0 -29 -2 -45l-101 -821q-36 -299 -477 -299q-214 0 -312.5 70.5t-98.5 187.5zM340 276q0 -81 65.5 -124t210.5 -43q299 0 322 196l96 774q2 14 2 37q0 168 -276 168q-299 0 -322 -197l-94 -774 q-4 -28 -4 -37zM500 1571l10 49q18 88 57 127t105 39q63 0 112 -41l84 -66q41 -32 66 -32q32 0 44.5 19t20.5 77l2 18q3 27 35 27h45q17 0 21.5 -8.5t1.5 -26.5l-8 -47q-14 -88 -57.5 -128t-106.5 -40q-59 0 -115 43l-84 66q-38 30 -65 30q-30 0 -42 -18t-20 -66l-6 -30 q-5 -27 -35 -27h-43q-29 0 -22 35z" />
<glyph unicode="&#xd6;" horiz-adv-x="1210" d="M193 242q0 11 4 47l98 821q36 299 475 299q214 0 314 -71.5t100 -188.5q0 -29 -2 -45l-101 -821q-36 -299 -477 -299q-214 0 -312.5 70.5t-98.5 187.5zM340 276q0 -81 65.5 -124t210.5 -43q299 0 322 196l96 774q2 14 2 37q0 168 -276 168q-299 0 -322 -197l-94 -774 q-4 -28 -4 -37zM627 1554l22 199q3 29 35 29h51q28 0 25 -29l-25 -199q-3 -30 -33 -30h-51q-15 0 -20 6.5t-4 23.5zM846 1554l24 199q3 29 33 29h51q28 0 25 -29l-25 -199q-1 -17 -8.5 -23.5t-23.5 -6.5h-52q-15 0 -20 6.5t-4 23.5z" />
<glyph unicode="&#xd7;" horiz-adv-x="1114" d="M233 506q-15 27 11 41l295 168l-170 297q-15 26 10 41l51 30q25 15 41 -12l170 -295l297 170q28 16 41 -10l29 -51q16 -28 -11 -43l-297 -172l170 -293q13 -24 -12 -41l-49 -31q-26 -15 -41 12l-170 293l-295 -170q-26 -14 -41 13z" />
<glyph unicode="&#xd8;" horiz-adv-x="1210" d="M193 242q0 11 4 47l98 821q36 299 475 299q168 0 272 -49l35 59q19 31 41 31h37q14 0 15.5 -10t-5.5 -21l-59 -98q78 -69 78 -172q0 -29 -2 -45l-101 -821q-36 -299 -477 -299q-172 0 -272 47l-31 -54q-12 -19 -20.5 -26.5t-22.5 -7.5h-37q-12 0 -13.5 10.5t7.5 23.5 l55 93q-77 63 -77 172zM340 276q0 -40 12 -67l619 1032q-72 43 -211 43q-299 0 -322 -197l-94 -774q-4 -28 -4 -37zM406 152q64 -43 210 -43q299 0 322 196l96 774q2 14 2 37q0 41 -14 66z" />
<glyph unicode="&#xd9;" horiz-adv-x="1232" d="M203 246q0 17 4 49l131 1067q3 31 33 31h86q29 0 26 -31l-129 -1036q-4 -40 -4 -50q0 -167 277 -167q298 0 321 196l131 1057q3 31 31 31h88q30 0 27 -31l-133 -1079q-36 -299 -476 -299q-214 0 -313.5 71.5t-99.5 190.5zM592.5 1788.5q5.5 9.5 21.5 9.5h86q26 0 39 -26 l107 -232q6 -14 0.5 -21.5t-19.5 -7.5h-65q-24 0 -35 19l-133 237q-7 12 -1.5 21.5z" />
<glyph unicode="&#xda;" horiz-adv-x="1232" d="M203 246q0 17 4 49l131 1067q3 31 33 31h86q29 0 26 -31l-129 -1036q-4 -40 -4 -50q0 -167 277 -167q298 0 321 196l131 1057q3 31 31 31h88q30 0 27 -31l-133 -1079q-36 -299 -476 -299q-214 0 -313.5 71.5t-99.5 190.5zM731.5 1518.5q-4.5 7.5 5.5 21.5l166 229 q22 29 43 29h92q17 0 19.5 -9.5t-8.5 -21.5l-189 -237q-19 -19 -39 -19h-71q-14 0 -18.5 7.5z" />
<glyph unicode="&#xdb;" horiz-adv-x="1232" d="M203 246q0 17 4 49l131 1067q3 31 33 31h86q29 0 26 -31l-129 -1036q-4 -40 -4 -50q0 -167 277 -167q298 0 321 196l131 1057q3 31 31 31h88q30 0 27 -31l-133 -1079q-36 -299 -476 -299q-214 0 -313.5 71.5t-99.5 190.5zM557.5 1519.5q-3.5 8.5 5.5 20.5l185 227 q27 31 53 31h51q25 0 43 -29l131 -229q8 -12 2.5 -20.5t-20.5 -8.5h-64q-26 0 -41 29l-86 168l-129 -168q-21 -29 -43 -29h-67q-17 0 -20.5 8.5z" />
<glyph unicode="&#xdc;" horiz-adv-x="1232" d="M203 246q0 17 4 49l131 1067q3 31 33 31h86q29 0 26 -31l-129 -1036q-4 -40 -4 -50q0 -167 277 -167q298 0 321 196l131 1057q3 31 31 31h88q30 0 27 -31l-133 -1079q-36 -299 -476 -299q-214 0 -313.5 71.5t-99.5 190.5zM633 1554l22 199q3 29 35 29h51q28 0 25 -29 l-25 -199q-1 -17 -8.5 -23.5t-23.5 -6.5h-52q-15 0 -20 6.5t-4 23.5zM852 1554l25 199q3 29 32 29h52q27 0 24 -29l-24 -199q-3 -30 -33 -30h-51q-15 0 -20.5 6.5t-4.5 23.5z" />
<glyph unicode="&#xdd;" horiz-adv-x="1058" d="M209 1362q-6 14 1 22.5t23 8.5h99q23 0 33 -31l227 -594q13 -34 20 -78q20 46 41 78l381 594q19 31 41 31h90q16 0 21.5 -8t-4.5 -23l-510 -795l-66 -536q-3 -31 -33 -31h-86q-29 0 -26 31l63 520zM653.5 1518.5q-4.5 7.5 5.5 21.5l166 229q22 29 43 29h93q17 0 19 -9.5 t-9 -21.5l-189 -237q-19 -19 -39 -19h-71q-14 0 -18.5 7.5z" />
<glyph unicode="&#xde;" horiz-adv-x="1159" d="M186 31l164 1331q3 31 35 31h86q28 0 25 -31l-41 -350h284q214 0 313 -71.5t99 -188.5q0 -29 -2 -41l-27 -207q-6 -52 -23.5 -94t-53 -81t-87.5 -65t-131 -41.5t-180 -15.5h-293l-22 -176q-2 -16 -8.5 -23.5t-22.5 -7.5h-86q-31 0 -29 31zM369 328h290q299 0 322 198 l20 164q3 15 3 31q0 82 -65 125t-212 43h-289z" />
<glyph unicode="&#xdf;" horiz-adv-x="1234" d="M168 920l6 51q3 30 33 30l127 7h2l22 178q30 264 433 264q187 0 275.5 -60t88.5 -167q0 -26 -2 -49l-8 -62q-4 -39 -23 -71.5t-47.5 -53.5t-53.5 -33.5t-52 -21.5l-135 -41q-1 0 -15 -4t-18 -5t-17.5 -6t-19.5 -8.5t-16 -11t-15 -15t-10 -18.5t-6 -24l-2 -19v-12 q0 -34 32 -59.5t64 -36.5l231 -94q164 -72 164 -179q0 -17 -2 -37l-14 -120q-6 -48 -19 -85.5t-39.5 -71t-66.5 -55t-101.5 -34t-142.5 -12.5q-166 0 -235.5 52t-69.5 152q0 14 2 43l2 29q3 33 35 33h57q30 0 27 -33l-2 -27q-2 -16 -2 -30q0 -60 43 -91.5t151 -31.5 q120 0 171 39.5t59 113.5l10 95q2 14 2 39q0 10 -2.5 19.5t-6 16.5t-10.5 14.5t-12 12.5t-14.5 11t-14 9t-15.5 7.5t-14 6t-14 5.5l-10 4l-221 86q-57 23 -102 67.5t-45 112.5q0 19 2 35l4 27q5 40 23.5 71t47.5 50.5t52 30t53 20.5l113 33q122 34 131 114l4 47q2 23 2 39 q0 64 -57.5 102t-184.5 38q-259 0 -280 -166l-142 -1149q-3 -31 -32 -31h-84q-15 0 -20.5 7t-4.5 24l105 860h-127q-30 0 -27 29z" />
<glyph unicode="&#xe0;" d="M164 203q0 15 4 43l63 520q34 262 314 262q197 0 338 -125l14 78q3 16 10 23.5t23 7.5h76q27 0 24 -31l-117 -950q-3 -31 -32 -31h-76q-27 0 -27 31l6 75q-171 -122 -362 -122q-126 0 -192 58.5t-66 160.5zM307 238q0 -59 40.5 -93t125.5 -34q162 0 322 114l69 559 q-130 117 -293 117q-93 0 -141.5 -43t-58.5 -113l-62 -479q-2 -10 -2 -28zM461.5 1440.5q5.5 9.5 21.5 9.5h86q11 0 18.5 -4.5t10.5 -9t8 -15.5l109 -229q6 -14 0.5 -21.5t-19.5 -7.5h-65q-24 0 -35 19l-133 237q-7 12 -1.5 21.5z" />
<glyph unicode="&#xe1;" d="M164 203q0 15 4 43l63 520q34 262 314 262q197 0 338 -125l14 78q3 16 10 23.5t23 7.5h76q27 0 24 -31l-117 -950q-3 -31 -32 -31h-76q-27 0 -27 31l6 75q-171 -122 -362 -122q-126 0 -192 58.5t-66 160.5zM307 238q0 -59 40.5 -93t125.5 -34q162 0 322 114l69 559 q-130 117 -293 117q-93 0 -141.5 -43t-58.5 -113l-62 -479q-2 -10 -2 -28zM579.5 1170.5q-3.5 7.5 6.5 21.5l164 229q18 29 43 29h92q17 0 20 -9.5t-8 -21.5l-190 -237q-14 -19 -39 -19h-72q-13 0 -16.5 7.5z" />
<glyph unicode="&#xe2;" d="M164 203q0 15 4 43l63 520q34 262 314 262q197 0 338 -125l14 78q3 16 10 23.5t23 7.5h76q27 0 24 -31l-117 -950q-3 -31 -32 -31h-76q-27 0 -27 31l6 75q-171 -122 -362 -122q-126 0 -192 58.5t-66 160.5zM307 238q0 -59 40.5 -93t125.5 -34q162 0 322 114l69 559 q-130 117 -293 117q-93 0 -141.5 -43t-58.5 -113l-62 -479q-2 -10 -2 -28zM410 1171.5q-3 8.5 6 20.5l184 227q27 31 51 31h54q25 0 43 -29l131 -229q7 -12 1.5 -20.5t-20.5 -8.5h-63q-27 0 -41 29l-86 168l-129 -168q-21 -29 -45 -29h-68q-15 0 -18 8.5z" />
<glyph unicode="&#xe3;" d="M164 203q0 15 4 43l63 520q34 262 314 262q197 0 338 -125l14 78q3 16 10 23.5t23 7.5h76q27 0 24 -31l-117 -950q-3 -31 -32 -31h-76q-27 0 -27 31l6 75q-171 -122 -362 -122q-126 0 -192 58.5t-66 160.5zM307 238q0 -59 40.5 -93t125.5 -34q162 0 322 114l69 559 q-130 117 -293 117q-93 0 -141.5 -43t-58.5 -113l-62 -479q-2 -10 -2 -28zM362 1210l11 52q28 165 162 165q59 0 112 -41l84 -67q47 -33 66 -33q32 0 44.5 19t20.5 77l2 19q5 26 35 26h45q31 0 25 -32l-11 -49q-18 -88 -58.5 -127t-104.5 -39q-65 0 -115 41l-84 67 q-42 29 -64 29q-31 0 -43 -18t-20 -66l-6 -29q-3 -16 -11 -22t-24 -6h-43q-30 0 -23 34z" />
<glyph unicode="&#xe4;" d="M164 203q0 15 4 43l63 520q34 262 314 262q197 0 338 -125l14 78q3 16 10 23.5t23 7.5h76q27 0 24 -31l-117 -950q-3 -31 -32 -31h-76q-27 0 -27 31l6 75q-171 -122 -362 -122q-126 0 -192 58.5t-66 160.5zM307 238q0 -59 40.5 -93t125.5 -34q162 0 322 114l69 559 q-130 117 -293 117q-93 0 -141.5 -43t-58.5 -113l-62 -479q-2 -10 -2 -28zM489 1210l25 199q3 31 33 31h51q28 0 25 -31l-25 -199q-2 -15 -9 -21.5t-24 -6.5h-49q-17 0 -23 6.5t-4 21.5zM709 1210l24 199q3 31 33 31h51q16 0 21.5 -7.5t3.5 -23.5l-23 -199q-3 -28 -35 -28 h-49q-17 0 -22.5 6.5t-3.5 21.5z" />
<glyph unicode="&#xe5;" d="M164 203q0 15 4 43l63 520q34 262 314 262q197 0 338 -125l14 78q3 16 10 23.5t23 7.5h76q27 0 24 -31l-117 -950q-3 -31 -32 -31h-76q-27 0 -27 31l6 75q-171 -122 -362 -122q-126 0 -192 58.5t-66 160.5zM307 238q0 -59 40.5 -93t125.5 -34q162 0 322 114l69 559 q-130 117 -293 117q-93 0 -141.5 -43t-58.5 -113l-62 -479q-2 -10 -2 -28zM494 1257q0 16 2 39l4 39q6 64 56.5 102t145.5 38q82 0 129.5 -35.5t47.5 -85.5q0 -6 -2 -31l-5 -53q-5 -63 -54 -99t-144 -36q-86 0 -133 34.5t-47 87.5zM578 1274q0 -66 96 -66q111 0 117 76l2 25 v26q0 30 -25.5 47t-73.5 17q-107 0 -114 -76l-2 -27v-22z" />
<glyph unicode="&#xe6;" horiz-adv-x="1613" d="M147 190q0 17 3 35l12 101q11 101 87.5 168t207.5 67h352l22 187q1 6 2 14.5t2 15t1 10.5q0 132 -213 132q-129 0 -184 -39t-68 -115l-6 -33q-3 -18 -10 -25.5t-23 -7.5h-72q-34 0 -29 33l7 35q11 62 34 107t66.5 81t116.5 54t176 18q225 0 287 -110q88 110 323 110 q344 0 344 -225q0 -27 -2 -39l-31 -252q-3 -29 -30 -29h-582l-29 -221q-4 -32 -4 -35q0 -63 52 -97t171 -34q128 0 184.5 39t69.5 113l9 43q3 15 10 21.5t22 6.5h70q30 0 27 -28l-6 -47q-16 -127 -104 -193.5t-292 -66.5q-275 0 -332 143q-34 -27 -62 -46t-76 -44.5 t-107 -39t-125 -13.5q-117 0 -194 53t-77 153zM289 227q0 -127 162 -127q148 0 317 129l29 220h-330q-75 0 -119.5 -40t-50.5 -104l-6 -61q0 -4 -1 -10t-1 -7zM950 592h477l23 168v24q0 63 -50.5 97t-168.5 34q-237 0 -258 -155z" />
<glyph unicode="&#xe7;" horiz-adv-x="980" d="M164 209q0 25 2 39l63 516q7 62 30.5 108.5t69.5 82.5t122 54.5t182 18.5q344 0 344 -225q0 -29 -2 -41l-6 -37q-6 -31 -33 -31h-78q-27 0 -24 31l2 31q0 3 1 14.5t1 15.5q0 61 -48 93t-165 32q-130 0 -187 -39.5t-67 -115.5l-62 -486q-2 -14 -2 -41q0 -64 49 -96.5 t166 -32.5q131 0 187.5 40t66.5 118l6 45q3 31 33 31h76q30 0 27 -31l-7 -55q-13 -122 -100.5 -191t-280.5 -73l-36 -93h73q64 0 108 -36t44 -107q0 -93 -55 -136.5t-136 -43.5h-237q-29 0 -25 31l4 30q3 29 31 29h217q96 0 96 82q0 61 -77 61h-125q-22 0 -33 10t-4 29 l57 148q-268 19 -268 221z" />
<glyph unicode="&#xe8;" horiz-adv-x="1007" d="M164 209q0 27 2 39l63 516q7 62 31 108.5t70.5 82.5t123 54.5t181.5 18.5q344 0 344 -225q0 -27 -2 -39l-31 -252q-3 -29 -31 -29h-581l-29 -217q-2 -18 -2 -39q0 -64 50 -97.5t169 -33.5q244 0 258 152l4 43q3 28 35 28h72q30 0 27 -28l-7 -43q-9 -63 -31.5 -108.5 t-66.5 -82t-118.5 -55t-180.5 -18.5q-350 0 -350 225zM346 592h475l23 160q2 14 2 32q0 131 -221 131q-129 0 -187.5 -40.5t-68.5 -114.5zM449.5 1440.5q5.5 9.5 21.5 9.5h86q11 0 18.5 -4.5t10.5 -9t8 -15.5l108 -229q6 -14 1 -21.5t-19 -7.5h-66q-23 0 -34 19l-133 237 q-7 12 -1.5 21.5z" />
<glyph unicode="&#xe9;" horiz-adv-x="1007" d="M164 209q0 27 2 39l63 516q7 62 31 108.5t70.5 82.5t123 54.5t181.5 18.5q344 0 344 -225q0 -27 -2 -39l-31 -252q-3 -29 -31 -29h-581l-29 -217q-2 -18 -2 -39q0 -64 50 -97.5t169 -33.5q244 0 258 152l4 43q3 28 35 28h72q30 0 27 -28l-7 -43q-9 -63 -31.5 -108.5 t-66.5 -82t-118.5 -55t-180.5 -18.5q-350 0 -350 225zM346 592h475l23 160q2 14 2 32q0 131 -221 131q-129 0 -187.5 -40.5t-68.5 -114.5zM581.5 1170.5q-3.5 7.5 6.5 21.5l164 229q18 29 43 29h92q17 0 20 -9.5t-8 -21.5l-190 -237q-14 -19 -39 -19h-72q-13 0 -16.5 7.5z " />
<glyph unicode="&#xea;" horiz-adv-x="1007" d="M164 209q0 27 2 39l63 516q7 62 31 108.5t70.5 82.5t123 54.5t181.5 18.5q344 0 344 -225q0 -27 -2 -39l-31 -252q-3 -29 -31 -29h-581l-29 -217q-2 -18 -2 -39q0 -64 50 -97.5t169 -33.5q244 0 258 152l4 43q3 28 35 28h72q30 0 27 -28l-7 -43q-9 -63 -31.5 -108.5 t-66.5 -82t-118.5 -55t-180.5 -18.5q-350 0 -350 225zM346 592h475l23 160q2 14 2 32q0 131 -221 131q-129 0 -187.5 -40.5t-68.5 -114.5zM408 1171.5q-3 8.5 6 20.5l184 227q27 31 51 31h53q25 0 43 -29l132 -229q7 -12 1.5 -20.5t-20.5 -8.5h-63q-27 0 -41 29l-86 168 l-129 -168q-21 -29 -45 -29h-68q-15 0 -18 8.5z" />
<glyph unicode="&#xeb;" horiz-adv-x="1007" d="M164 209q0 27 2 39l63 516q7 62 31 108.5t70.5 82.5t123 54.5t181.5 18.5q344 0 344 -225q0 -27 -2 -39l-31 -252q-3 -29 -31 -29h-581l-29 -217q-2 -18 -2 -39q0 -64 50 -97.5t169 -33.5q244 0 258 152l4 43q3 28 35 28h72q30 0 27 -28l-7 -43q-9 -63 -31.5 -108.5 t-66.5 -82t-118.5 -55t-180.5 -18.5q-350 0 -350 225zM346 592h475l23 160q2 14 2 32q0 131 -221 131q-129 0 -187.5 -40.5t-68.5 -114.5zM477 1210l25 199q3 31 33 31h51q27 0 24 -31l-24 -199q-2 -15 -9 -21.5t-24 -6.5h-49q-17 0 -23 6.5t-4 21.5zM696 1210l25 199 q3 31 33 31h51q16 0 21 -7.5t3 -23.5l-22 -199q-3 -28 -35 -28h-49q-17 0 -23 6.5t-4 21.5z" />
<glyph unicode="&#xec;" horiz-adv-x="464" d="M166 31l117 950q3 31 32 31h82q30 0 27 -31l-117 -950q-3 -31 -33 -31h-84q-15 0 -20.5 7t-3.5 24zM166.5 1440.5q5.5 9.5 21.5 9.5h86q11 0 18.5 -4.5t10.5 -9t8 -15.5l109 -229q6 -14 0.5 -21.5t-19.5 -7.5h-65q-24 0 -35 19l-133 237q-7 12 -1.5 21.5z" />
<glyph unicode="&#xed;" horiz-adv-x="464" d="M166 31l117 950q3 31 32 31h82q30 0 27 -31l-117 -950q-3 -31 -33 -31h-84q-15 0 -20.5 7t-3.5 24zM313 1170.5q-4 7.5 6 21.5l164 229q18 29 43 29h92q17 0 20.5 -9.5t-7.5 -21.5l-191 -237q-14 -19 -39 -19h-71q-13 0 -17 7.5z" />
<glyph unicode="&#xee;" horiz-adv-x="464" d="M139.5 1171.5q-3.5 8.5 5.5 20.5l185 227q27 31 51 31h53q25 0 43 -29l131 -229q8 -12 2.5 -20.5t-20.5 -8.5h-64q-26 0 -41 29l-86 168l-129 -168q-21 -29 -45 -29h-67q-15 0 -18.5 8.5zM166 31l117 950q3 31 32 31h82q30 0 27 -31l-117 -950q-3 -31 -33 -31h-84 q-15 0 -20.5 7t-3.5 24z" />
<glyph unicode="&#xef;" horiz-adv-x="464" d="M166 31l117 950q3 31 32 31h82q30 0 27 -31l-117 -950q-3 -31 -33 -31h-84q-15 0 -20.5 7t-3.5 24zM221 1210l25 199q3 31 33 31h51q27 0 24 -31l-24 -199q-2 -15 -9 -21.5t-24 -6.5h-49q-17 0 -23 6.5t-4 21.5zM440 1210l25 199q3 31 33 31h51q16 0 21 -7.5t3 -23.5 l-22 -199q-3 -28 -35 -28h-49q-17 0 -23 6.5t-4 21.5z" />
<glyph unicode="&#xf0;" horiz-adv-x="1136" d="M164 211q0 23 2 35l63 520q14 123 91 192.5t223 69.5q195 0 334 -123l32 256v21q0 26 -8 45l-156 -64q-29 -11 -38 11l-9 20q-4 10 1.5 21t17.5 16l162 67q-50 50 -189 50h-182q-13 0 -20.5 6t-6.5 20l4 45q3 31 35 31h185q214 0 296 -88l111 49q26 11 37 -10l10 -21 q10 -24 -20 -39l-101 -45q11 -27 11 -65q0 -31 -2 -43l-115 -942q-7 -61 -31.5 -107t-71 -82t-123.5 -54.5t-182 -18.5q-183 0 -271.5 60.5t-88.5 166.5zM307 231q0 -133 228 -133q244 0 264 158l63 530q-132 119 -293 119q-94 0 -143 -43.5t-57 -113.5l-60 -492 q0 -3 -1 -12t-1 -13z" />
<glyph unicode="&#xf1;" horiz-adv-x="1085" d="M166 31l119 950q3 31 30 31h76q30 0 27 -31l-6 -78q168 125 360 125q123 0 191.5 -59.5t68.5 -157.5q0 -27 -2 -41l-90 -739q-3 -31 -35 -31h-82q-31 0 -26 31l88 706q0 7 1 19t1 16q0 129 -164 129q-165 0 -324 -115l-90 -755q-3 -31 -35 -31h-84q-29 0 -24 31z M395 1210l11 52q28 165 161 165q60 0 113 -41l84 -67q47 -33 65 -33q32 0 45 19.5t21 76.5l2 19q5 26 35 26h45q30 0 24 -32l-10 -49q-18 -88 -59 -127t-105 -39t-114 41l-84 67q-42 29 -64 29q-31 0 -43 -18t-20 -66l-6 -29q-3 -16 -11 -22t-24 -6h-43q-30 0 -23 34z" />
<glyph unicode="&#xf2;" horiz-adv-x="1050" d="M164 211q0 25 2 37l63 516q30 264 416 264q182 0 270.5 -60t88.5 -167q0 -19 -3 -37l-63 -516q-14 -126 -112 -195t-304 -69q-182 0 -270 60.5t-88 166.5zM307 233q0 -66 54 -99.5t174 -33.5q130 0 191 40.5t71 117.5l63 496v22q0 135 -225 135q-131 0 -192.5 -40.5 t-71.5 -116.5l-62 -496q-2 -8 -2 -25zM449.5 1440.5q5.5 9.5 21.5 9.5h86q11 0 18.5 -4.5t10.5 -9t8 -15.5l108 -229q6 -14 1 -21.5t-19 -7.5h-66q-23 0 -34 19l-133 237q-7 12 -1.5 21.5z" />
<glyph unicode="&#xf3;" horiz-adv-x="1050" d="M164 211q0 25 2 37l63 516q30 264 416 264q182 0 270.5 -60t88.5 -167q0 -19 -3 -37l-63 -516q-14 -126 -112 -195t-304 -69q-182 0 -270 60.5t-88 166.5zM307 233q0 -66 54 -99.5t174 -33.5q130 0 191 40.5t71 117.5l63 496v22q0 135 -225 135q-131 0 -192.5 -40.5 t-71.5 -116.5l-62 -496q-2 -8 -2 -25zM591.5 1170.5q-3.5 7.5 6.5 21.5l164 229q18 29 43 29h92q17 0 20 -9.5t-8 -21.5l-190 -237q-14 -19 -39 -19h-72q-13 0 -16.5 7.5z" />
<glyph unicode="&#xf4;" horiz-adv-x="1050" d="M164 211q0 25 2 37l63 516q30 264 416 264q182 0 270.5 -60t88.5 -167q0 -19 -3 -37l-63 -516q-14 -126 -112 -195t-304 -69q-182 0 -270 60.5t-88 166.5zM307 233q0 -66 54 -99.5t174 -33.5q130 0 191 40.5t71 117.5l63 496v22q0 135 -225 135q-131 0 -192.5 -40.5 t-71.5 -116.5l-62 -496q-2 -8 -2 -25zM426 1171.5q-3 8.5 6 20.5l184 227q27 31 52 31h53q25 0 43 -29l131 -229q8 -12 2.5 -20.5t-20.5 -8.5h-64q-27 0 -41 29l-86 168l-129 -168q-21 -29 -45 -29h-68q-15 0 -18 8.5z" />
<glyph unicode="&#xf5;" horiz-adv-x="1050" d="M164 211q0 25 2 37l63 516q30 264 416 264q182 0 270.5 -60t88.5 -167q0 -19 -3 -37l-63 -516q-14 -126 -112 -195t-304 -69q-182 0 -270 60.5t-88 166.5zM307 233q0 -66 54 -99.5t174 -33.5q130 0 191 40.5t71 117.5l63 496v22q0 135 -225 135q-131 0 -192.5 -40.5 t-71.5 -116.5l-62 -496q-2 -8 -2 -25zM356 1210l11 52q28 165 161 165q60 0 113 -41l84 -67q47 -33 66 -33q32 0 44.5 19t20.5 77l2 19q5 26 35 26h45q31 0 25 -32l-11 -49q-18 -88 -59 -127t-105 -39t-114 41l-84 67q-42 29 -64 29q-31 0 -43 -18t-20 -66l-6 -29 q-3 -16 -11 -22t-24 -6h-43q-30 0 -23 34z" />
<glyph unicode="&#xf6;" horiz-adv-x="1050" d="M164 211q0 25 2 37l63 516q30 264 416 264q182 0 270.5 -60t88.5 -167q0 -19 -3 -37l-63 -516q-14 -126 -112 -195t-304 -69q-182 0 -270 60.5t-88 166.5zM307 233q0 -66 54 -99.5t174 -33.5q130 0 191 40.5t71 117.5l63 496v22q0 135 -225 135q-131 0 -192.5 -40.5 t-71.5 -116.5l-62 -496q-2 -8 -2 -25zM496 1210l24 199q3 31 33 31h51q28 0 25 -31l-25 -199q-2 -15 -9 -21.5t-24 -6.5h-49q-17 0 -22.5 6.5t-3.5 21.5zM715 1210l24 199q3 31 33 31h51q16 0 21.5 -7.5t3.5 -23.5l-23 -199q-3 -28 -34 -28h-50q-17 0 -22.5 6.5t-3.5 21.5z " />
<glyph unicode="&#xf7;" horiz-adv-x="1204" d="M236 625v61q0 17 6.5 23t21.5 6h823q29 0 29 -29v-61q0 -31 -29 -31h-821q-17 0 -23.5 7t-6.5 24zM604 236v159q0 31 31 31h84q31 0 31 -31v-159q0 -31 -31 -31h-84q-17 0 -24 7t-7 24zM604 922v159q0 31 31 31h84q31 0 31 -31v-159q0 -31 -31 -31h-84q-17 0 -24 7t-7 24 z" />
<glyph unicode="&#xf8;" horiz-adv-x="1050" d="M164 211q0 25 2 37l63 516q30 264 416 264q138 0 227 -39l35 53q22 31 41 31h37q25 0 6 -31l-59 -88q72 -57 72 -153q0 -19 -3 -37l-63 -516q-14 -126 -112 -195t-304 -69q-143 0 -229 36l-33 -47q-20 -30 -43 -30h-35q-11 0 -12 10.5t6 19.5l57 84q-69 55 -69 154z M307 233q0 -26 10 -53l480 701q-55 30 -162 30q-131 0 -192.5 -40.5t-71.5 -116.5l-62 -496q-2 -8 -2 -25zM367 129q60 -29 168 -29q130 0 191 40.5t71 117.5l61 485q4 24 4 33q0 36 -14 58z" />
<glyph unicode="&#xf9;" d="M174 199q0 22 2 34l92 748q3 31 33 31h82q29 0 27 -31l-88 -715q-3 -15 -3 -30q0 -125 164 -125q158 0 312 112l90 758q3 31 35 31h84q27 0 24 -31l-117 -950q-2 -18 -8.5 -24.5t-23.5 -6.5h-76q-30 0 -27 31l4 73q-151 -120 -346 -120q-125 0 -192.5 58.5t-67.5 156.5z M461.5 1440.5q5.5 9.5 21.5 9.5h86q11 0 18.5 -4.5t10.5 -9t8 -15.5l109 -229q6 -14 0.5 -21.5t-19.5 -7.5h-65q-24 0 -35 19l-133 237q-7 12 -1.5 21.5z" />
<glyph unicode="&#xfa;" d="M174 199q0 22 2 34l92 748q3 31 33 31h82q29 0 27 -31l-88 -715q-3 -15 -3 -30q0 -125 164 -125q158 0 312 112l90 758q3 31 35 31h84q27 0 24 -31l-117 -950q-2 -18 -8.5 -24.5t-23.5 -6.5h-76q-30 0 -27 31l4 73q-151 -120 -346 -120q-125 0 -192.5 58.5t-67.5 156.5z M593.5 1170.5q-3.5 7.5 6.5 21.5l164 229q18 29 43 29h92q17 0 20 -9.5t-8 -21.5l-190 -237q-14 -19 -39 -19h-72q-13 0 -16.5 7.5z" />
<glyph unicode="&#xfb;" d="M174 199q0 22 2 34l92 748q3 31 33 31h82q29 0 27 -31l-88 -715q-3 -15 -3 -30q0 -125 164 -125q158 0 312 112l90 758q3 31 35 31h84q27 0 24 -31l-117 -950q-2 -18 -8.5 -24.5t-23.5 -6.5h-76q-30 0 -27 31l4 73q-151 -120 -346 -120q-125 0 -192.5 58.5t-67.5 156.5z M424 1171.5q-3 8.5 6 20.5l184 227q27 31 52 31h53q25 0 43 -29l131 -229q7 -12 1.5 -20.5t-20.5 -8.5h-63q-27 0 -41 29l-86 168l-129 -168q-21 -29 -45 -29h-68q-15 0 -18 8.5z" />
<glyph unicode="&#xfc;" d="M174 199q0 22 2 34l92 748q3 31 33 31h82q29 0 27 -31l-88 -715q-3 -15 -3 -30q0 -125 164 -125q158 0 312 112l90 758q3 31 35 31h84q27 0 24 -31l-117 -950q-2 -18 -8.5 -24.5t-23.5 -6.5h-76q-30 0 -27 31l4 73q-151 -120 -346 -120q-125 0 -192.5 58.5t-67.5 156.5z M506 1210l24 199q3 31 33 31h51q28 0 25 -31l-25 -199q-2 -15 -8.5 -21.5t-23.5 -6.5h-50q-17 0 -22.5 6.5t-3.5 21.5zM725 1210l25 199q3 31 32 31h52q16 0 21 -7.5t3 -23.5l-22 -199q-3 -28 -35 -28h-49q-17 0 -23 6.5t-4 21.5z" />
<glyph unicode="&#xfd;" horiz-adv-x="884" d="M158 981q-3 13 5 22t23 9h84q24 0 31 -31l148 -680q19 -83 16 -123q28 81 45 119l317 684q14 31 37 31h78q18 0 25 -8t0 -23l-637 -1374q-16 -31 -37 -31h-66q-16 0 -22.5 8t0.5 23l172 385zM509.5 1170.5q-3.5 7.5 6.5 21.5l164 229q18 29 43 29h92q17 0 20 -9.5 t-8 -21.5l-190 -237q-14 -19 -39 -19h-72q-13 0 -16.5 7.5z" />
<glyph unicode="&#xfe;" d="M113 -393l221 1794q3 31 33 31h82q29 0 26 -31l-61 -496q173 123 358 123q126 0 193 -59t67 -160q0 -21 -4 -53l-63 -510q-33 -262 -314 -262q-113 0 -198 36.5t-138 83.5l-61 -497q-3 -31 -31 -31h-84q-29 0 -26 31zM330 223q130 -117 293 -117q94 0 143 44t57 114 l60 473q4 32 4 39q0 59 -40.5 94t-125.5 35q-169 0 -320 -119z" />
<glyph unicode="&#xff;" horiz-adv-x="884" d="M158 981q-3 13 5 22t23 9h84q24 0 31 -31l148 -680q19 -83 16 -123q28 81 45 119l317 684q14 31 37 31h78q18 0 25 -8t0 -23l-637 -1374q-16 -31 -37 -31h-66q-16 0 -22.5 8t0.5 23l172 385zM406 1210l24 199q3 31 33 31h51q28 0 25 -31l-25 -199q-2 -15 -9 -21.5 t-24 -6.5h-49q-17 0 -22.5 6.5t-3.5 21.5zM625 1210l24 199q3 31 33 31h51q16 0 21.5 -7.5t3.5 -23.5l-23 -199q-3 -28 -35 -28h-49q-17 0 -22.5 6.5t-3.5 21.5z" />
<glyph unicode="&#x152;" horiz-adv-x="1789" d="M193 240q0 13 4 49l100 821q33 299 457 299q199 0 309 -80l4 33q6 31 35 31h698q17 0 23 -7t4 -22l-6 -64q-3 -28 -35 -28h-584l-57 -484h545q15 0 21 -5.5t5 -20.5l-6 -62q-3 -28 -35 -28h-545l-69 -551h608q30 0 27 -29l-8 -61q-3 -31 -33 -31h-725q-30 0 -27 31l4 30 q-118 -77 -305 -77q-214 0 -311.5 69.5t-97.5 186.5zM342 272q0 -168 274 -168q297 0 320 197l31 242l69 567v10q0 168 -276 168q-297 0 -320 -201l-96 -776q-2 -14 -2 -39z" />
<glyph unicode="&#x153;" horiz-adv-x="1638" d="M164 211q0 23 2 35l63 518q16 128 110.5 196t299.5 68q229 0 305 -102q95 102 324 102q177 0 260.5 -59t83.5 -164q0 -27 -2 -41l-31 -246q-3 -29 -31 -29h-581l-31 -237q-2 -14 -2 -27q0 -133 221 -133q129 0 187.5 40.5t68.5 115.5l6 41q3 30 35 30h70q14 0 20 -6.5 t6 -23.5l-6 -45q-7 -61 -29 -106t-66 -81t-119 -54.5t-181 -18.5q-226 0 -307 94q-88 -94 -316 -94q-183 0 -271.5 60.5t-88.5 166.5zM307 231q0 -66 54 -99.5t174 -33.5q246 0 262 158l63 500v22q0 135 -225 135q-244 0 -264 -157l-62 -500q-2 -8 -2 -25zM977 586h477 l23 174v24q0 136 -220 136q-130 0 -189 -41.5t-69 -118.5z" />
<glyph unicode="&#x178;" horiz-adv-x="1058" d="M209 1362q-6 14 1 22.5t23 8.5h99q23 0 33 -31l227 -594q13 -34 20 -78q20 46 41 78l381 594q19 31 41 31h90q16 0 21.5 -8t-4.5 -23l-510 -795l-66 -536q-3 -31 -33 -31h-86q-29 0 -26 31l63 520zM537 1554l22 199q3 29 35 29h51q28 0 25 -29l-25 -199q-3 -30 -33 -30 h-51q-15 0 -20 6.5t-4 23.5zM756 1554l24 199q3 29 33 29h51q28 0 25 -29l-25 -199q-3 -30 -33 -30h-51q-15 0 -20 6.5t-4 23.5z" />
<glyph unicode="&#x2c6;" horiz-adv-x="710" d="M260.5 1171.5q-3.5 8.5 5.5 20.5l185 227q27 31 51 31h53q25 0 43 -29l131 -229q8 -12 2.5 -20.5t-20.5 -8.5h-64q-27 0 -41 29l-86 168l-129 -168q-21 -29 -45 -29h-67q-15 0 -18.5 8.5z" />
<glyph unicode="&#x2dc;" horiz-adv-x="864" d="M285 1210l10 52q28 165 162 165q59 0 112 -41l84 -67q47 -33 66 -33q32 0 44.5 19t20.5 77l2 19q5 26 35 26h45q31 0 25 -32l-10 -49q-18 -88 -59 -127t-105 -39q-65 0 -115 41l-84 67q-42 29 -63 29q-31 0 -43.5 -18t-20.5 -66l-6 -29q-3 -16 -11 -22t-24 -6h-43 q-29 0 -22 34z" />
<glyph unicode="&#x2000;" horiz-adv-x="908" />
<glyph unicode="&#x2001;" horiz-adv-x="1817" />
<glyph unicode="&#x2002;" horiz-adv-x="908" />
<glyph unicode="&#x2003;" horiz-adv-x="1817" />
<glyph unicode="&#x2004;" horiz-adv-x="605" />
<glyph unicode="&#x2005;" horiz-adv-x="454" />
<glyph unicode="&#x2006;" horiz-adv-x="302" />
<glyph unicode="&#x2007;" horiz-adv-x="302" />
<glyph unicode="&#x2008;" horiz-adv-x="227" />
<glyph unicode="&#x2009;" horiz-adv-x="363" />
<glyph unicode="&#x200a;" horiz-adv-x="100" />
<glyph unicode="&#x2010;" horiz-adv-x="933" d="M227 563v60q0 28 31 28h549q17 0 24 -6.5t7 -21.5v-60q0 -17 -7 -24t-24 -7h-549q-31 0 -31 31z" />
<glyph unicode="&#x2011;" horiz-adv-x="933" d="M227 563v60q0 28 31 28h549q17 0 24 -6.5t7 -21.5v-60q0 -17 -7 -24t-24 -7h-549q-31 0 -31 31z" />
<glyph unicode="&#x2012;" horiz-adv-x="933" d="M227 563v60q0 28 31 28h549q17 0 24 -6.5t7 -21.5v-60q0 -17 -7 -24t-24 -7h-549q-31 0 -31 31z" />
<glyph unicode="&#x2013;" horiz-adv-x="1118" d="M227 563v60q0 28 31 28h733q31 0 31 -28v-60q0 -31 -31 -31h-733q-31 0 -31 31z" />
<glyph unicode="&#x2014;" horiz-adv-x="1751" d="M227 563v60q0 28 31 28h1366q17 0 24 -6.5t7 -21.5v-60q0 -17 -7 -24t-24 -7h-1366q-31 0 -31 31z" />
<glyph unicode="&#x2018;" horiz-adv-x="487" d="M289 1112l16 131q10 96 67.5 156t168.5 94q15 5 22.5 1t11.5 -19l17 -60q5 -27 -25 -39q-62 -27 -87 -58t-31 -81l-17 -125q-3 -31 -33 -31h-86q-27 0 -24 31z" />
<glyph unicode="&#x2019;" horiz-adv-x="487" d="M215 1159q-5 27 25 39q62 27 87 58t31 81l17 125q3 31 33 31h86q27 0 24 -31l-16 -131q-10 -96 -67.5 -156t-168.5 -94q-27 -8 -35 19z" />
<glyph unicode="&#x201a;" horiz-adv-x="487" d="M51 -113q-5 27 25 39q62 27 87.5 58.5t31.5 81.5l16 124q3 31 33 31h86q27 0 24 -31l-16 -131q-10 -96 -67.5 -155.5t-168.5 -93.5q-15 -5 -22.5 -1t-11.5 19z" />
<glyph unicode="&#x201c;" horiz-adv-x="811" d="M289 1112l16 131q10 96 67.5 156t168.5 94q15 5 22.5 1t11.5 -19l17 -60q5 -27 -25 -39q-62 -27 -87 -58t-31 -81l-17 -125q-3 -31 -33 -31h-86q-27 0 -24 31zM612 1112l17 131q10 96 67 156t168 94q15 5 23 1t12 -19l16 -60q5 -27 -24 -39q-62 -27 -87.5 -58t-31.5 -81 l-16 -125q-3 -31 -33 -31h-86q-28 0 -25 31z" />
<glyph unicode="&#x201d;" horiz-adv-x="811" d="M215 1159q-5 27 25 39q62 27 87 58t31 81l17 125q3 31 33 31h86q27 0 24 -31l-16 -131q-10 -96 -67.5 -156t-168.5 -94q-27 -8 -35 19zM539 1159q-5 27 24 39q62 27 87.5 58t31.5 81l16 125q3 31 33 31h86q28 0 25 -31l-17 -131q-10 -96 -67 -156t-168 -94q-27 -8 -35 19 z" />
<glyph unicode="&#x201e;" horiz-adv-x="811" d="M51 -113q-5 27 25 39q62 27 87.5 58.5t31.5 81.5l16 124q3 31 33 31h86q27 0 24 -31l-16 -131q-10 -96 -67.5 -155.5t-168.5 -93.5q-15 -5 -22.5 -1t-11.5 19zM375 -113q-5 27 24 39q62 27 87.5 58.5t31.5 81.5l17 124q3 31 32 31h86q28 0 25 -31l-16 -131 q-10 -96 -67.5 -155.5t-168.5 -93.5q-15 -5 -23 -1t-12 19z" />
<glyph unicode="&#x2022;" horiz-adv-x="514" d="M233 406l33 264q1 17 9 23.5t26 6.5h84q30 0 27 -30l-33 -264q-1 -17 -9.5 -24t-25.5 -7h-84q-30 0 -27 31z" />
<glyph unicode="&#x2026;" horiz-adv-x="1466" d="M158 31l18 159q3 31 33 31h88q25 0 22 -31l-18 -159q-3 -31 -33 -31h-84q-29 0 -26 31zM666 31l18 159q3 31 33 31h88q25 0 22 -31l-18 -159q-3 -31 -33 -31h-84q-29 0 -26 31zM1171 31l19 159q3 31 33 31h88q25 0 22 -31l-18 -159q-3 -31 -33 -31h-84q-30 0 -27 31z" />
<glyph unicode="&#x202f;" horiz-adv-x="363" />
<glyph unicode="&#x2039;" horiz-adv-x="815" d="M207 461l8 84q2 19 33 41l414 284q11 8 20 3.5t8 -19.5l-12 -92q-2 -23 -35 -45l-319 -217l266 -215q28 -23 26 -45l-12 -86q-3 -17 -13 -21t-20 4l-344 285q-23 19 -20 39z" />
<glyph unicode="&#x203a;" horiz-adv-x="815" d="M207 152l12 92q2 23 35 45l319 217l-266 215q-28 23 -26 45l12 86q3 16 13 20t20 -4l344 -284q23 -19 20 -39l-8 -84q-2 -19 -33 -41l-413 -285q-11 -8 -20.5 -3t-8.5 20z" />
<glyph unicode="&#x205f;" horiz-adv-x="454" />
<glyph unicode="&#x20ac;" horiz-adv-x="1175" d="M164 553l4 35q3 30 35 30h135l18 156h-135q-17 0 -22.5 6.5t-3.5 24.5l4 37q3 28 32 28h136l30 240q6 52 23 94.5t51 81.5t85 65.5t128.5 42t177.5 15.5q213 0 308.5 -69.5t95.5 -186.5q0 -17 -4 -49l-13 -98q-3 -33 -30 -33h-84q-31 0 -27 33l10 75q2 12 2 39 q0 79 -62.5 121.5t-203.5 42.5q-155 0 -228.5 -51t-84.5 -146l-27 -217h277q29 0 26 -28l-2 -37q-3 -31 -35 -31h-278l-19 -156h277q15 0 21 -6.5t5 -23.5l-4 -35q-3 -31 -32 -31h-279l-25 -209q-2 -14 -2 -41q0 -163 265 -163q156 0 230 50.5t85 145.5l12 109q3 30 33 30 h82q30 0 27 -30l-15 -131q-7 -66 -33 -117t-77.5 -93.5t-141.5 -65.5t-215 -23q-401 0 -401 256q0 13 4 49l27 233h-136q-29 0 -26 31z" />
<glyph unicode="&#x2122;" horiz-adv-x="1830" d="M293 1315l6 53q3 25 29 25h555q25 0 22 -25l-6 -53q-3 -25 -29 -25h-217l-86 -708q-3 -25 -26 -25h-74q-26 0 -23 25l86 708h-213q-27 0 -24 25zM907 582l97 786q3 25 28 25h64q13 0 20 -17l180 -504q12 -31 17 -55l30 53l297 508q11 15 27 15h72q25 0 22 -25l-98 -786 q-3 -25 -27 -25h-69q-24 0 -21 25l70 577l-27 -53l-227 -397q-14 -25 -37 -25h-51q-26 0 -33 25l-137 401q-7 17 -10 55l-72 -583q-3 -25 -27 -25h-65q-26 0 -23 25z" />
<glyph unicode="&#x25fc;" horiz-adv-x="1013" d="M0 0v1014h1014v-1014h-1014z" />
</font>
</defs>
</svg>
